<svg xmlns="http://www.w3.org/2000/svg" viewBox="0 0 127 102" width="127" height="102">
	<style>
		tspan { white-space:pre }
		.shp0 { fill: none } 
		.shp1 { fill: #000000 } 
		.shp2 { fill: #ff5f00 } 
		.shp3 { fill: #eb001b } 
		.shp4 { fill: #f79e1b } 
	</style>
	<path class="shp0" d="M-334 -256L458 -256L458 356L-334 356L-334 -256Z" />
	<g >
		<g >
			<path class="shp0" d="M-11.4 -10.2L135.4 -10.2L135.4 110.2L-11.4 110.2L-11.4 -10.2Z" />
			<path fill-rule="evenodd" class="shp1" d="M24.9 95.1L22.6 95.1L22.6 89.8C22.6 88.2 21.9 87.3 20.5 87.3C19.2 87.3 18.2 88.1 18.2 89.8L18.2 95.1L16.1 95.1L16.1 89.8C16.1 88.2 15.4 87.3 14 87.3C12.6 87.3 11.7 88.1 11.7 89.8L11.7 95.1L9.6 95.1L9.6 85.5L11.7 85.5L11.7 86.7C12.5 85.6 13.5 85.3 14.5 85.3C16 85.3 17 85.9 17.7 87C18.6 85.7 19.9 85.3 21.1 85.3C23.5 85.3 24.9 86.8 24.9 89.1L24.9 95.1ZM56 85.5L56 87.4L52.6 87.4L52.6 91.7C52.6 92.7 53 93.3 54 93.3C54.5 93.3 55.2 93.2 55.8 92.8L56.4 94.6C55.7 95 54.7 95.3 53.8 95.3C51.4 95.3 50.5 94 50.5 91.8L50.5 87.4L48.6 87.4L48.6 85.5L50.5 85.5L50.5 82.6L52.6 82.6L52.6 85.5L56 85.5ZM73.8 85.3C74.2 85.3 74.8 85.3 75.2 85.4L74.6 87.4C74.2 87.3 73.7 87.2 73.3 87.2C72 87.2 71.3 88.1 71.3 89.7L71.3 95.1L69.2 95.1L69.2 85.5L71.3 85.5L71.3 86.7C71.8 85.9 72.6 85.3 73.8 85.3ZM46.9 86.3L46 88C45.4 87.7 44.2 87.2 43 87.2C41.9 87.2 41.2 87.6 41.2 88.3C41.2 88.9 41.9 89.1 42.8 89.2L43.8 89.3C45.8 89.6 47.1 90.5 47.1 92.2C47.1 94 45.5 95.3 42.7 95.3C41.2 95.3 39.7 94.9 38.6 94.1L39.6 92.5C40.3 93 41.4 93.5 42.8 93.5C44.2 93.5 45 93 45 92.3C45 91.8 44.4 91.5 43.3 91.3L42.3 91.2C40.2 90.9 39 90 39 88.4C39 86.5 40.6 85.3 43 85.3C44.5 85.3 45.9 85.6 46.9 86.3ZM102.7 85.3C103.1 85.3 103.7 85.3 104.1 85.4L103.5 87.4C103.1 87.3 102.6 87.2 102.2 87.2C100.9 87.2 100.2 88.1 100.2 89.7L100.2 95.1L98.1 95.1L98.1 85.5L100.2 85.5L100.2 86.7C100.7 85.9 101.5 85.3 102.7 85.3ZM75.9 90.3C75.9 87.4 77.9 85.3 81 85.3C82.4 85.3 83.4 85.6 84.4 86.4L83.4 88.1C82.6 87.5 81.8 87.2 80.9 87.2C79.2 87.3 78 88.5 78 90.3C78 92.2 79.2 93.4 80.9 93.4C81.8 93.4 82.6 93.1 83.4 92.5L84.4 94.2C83.4 95 82.4 95.3 81 95.3C77.9 95.3 75.9 93.2 75.9 90.3ZM95.3 95.1L93.2 95.1L93.2 93.9C92.6 94.8 91.6 95.3 90.2 95.3C87.5 95.3 85.4 93.2 85.4 90.3C85.4 87.4 87.5 85.3 90.2 85.3C91.5 85.3 92.5 85.8 93.2 86.7L93.2 85.5L95.3 85.5L95.3 95.1ZM90.5 93.4C92.2 93.4 93.4 92 93.4 90.3C93.4 88.5 92.2 87.2 90.5 87.2C88.7 87.2 87.6 88.6 87.6 90.3C87.6 92 88.7 93.3 90.5 93.4ZM62.5 85.3C65.2 85.3 67 87.3 66.9 90.4L66.9 91.2L59.8 91.2C60.1 92.9 61.4 93.5 62.7 93.5C63.7 93.5 64.7 93.1 65.5 92.5L66.5 94C65.4 94.9 64 95.3 62.6 95.3C59.7 95.3 57.7 93.3 57.7 90.3C57.7 87.3 59.7 85.3 62.5 85.3ZM59.9 89.4L64.9 89.4C64.7 87.9 63.8 87.1 62.5 87.1C61 87.1 60.1 88.1 59.9 89.4ZM114.6 95.1L112.5 95.1L112.5 93.9C111.9 94.8 110.9 95.3 109.5 95.3C106.8 95.3 104.7 93.2 104.7 90.3C104.7 87.4 106.8 85.3 109.5 85.3C110.8 85.3 111.8 85.8 112.5 86.7L112.5 81.7L114.6 81.7L114.6 95.1ZM109.8 93.4C111.5 93.4 112.7 92 112.7 90.3C112.7 88.5 111.5 87.2 109.8 87.2C108 87.2 106.9 88.6 106.9 90.3C106.9 92 108 93.3 109.8 93.4ZM36.7 95.1L34.6 95.1L34.6 93.9C34 94.8 33 95.3 31.6 95.3C28.9 95.3 26.8 93.2 26.8 90.3C26.8 87.4 28.9 85.3 31.6 85.3C32.9 85.3 33.9 85.8 34.6 86.7L34.6 85.5L36.7 85.5L36.7 95.1ZM31.8 93.4C33.5 93.4 34.7 92 34.7 90.3C34.7 88.5 33.5 87.2 31.8 87.2C30 87.2 28.9 88.6 28.9 90.3C28.9 92 30 93.3 31.8 93.4Z" />
			<path class="shp2" d="M46.2 12.6L77.7 12.6L77.7 69.2L46.2 69.2L46.2 12.6Z" />
			<path class="shp3" d="M48.2 40.9C48.2 29.4 53.6 19.2 61.9 12.6C55.8 7.8 48.1 4.9 39.7 4.9C19.8 4.9 3.7 21 3.7 40.9C3.7 60.8 19.8 76.9 39.7 76.9C48.1 76.9 55.8 74 61.9 69.2C53.6 62.7 48.2 52.4 48.2 40.9Z" />
			<path class="shp4" d="M120.2 40.9C120.2 60.8 104.1 76.9 84.2 76.9C75.8 76.9 68.1 74 62 69.2C70.4 62.6 75.7 52.4 75.7 40.9C75.7 29.4 70.3 19.2 62 12.6C68.1 7.8 75.8 4.9 84.2 4.9C104.1 4.9 120.2 21.1 120.2 40.9Z" />
		</g>
	</g>
</svg>