<?xml version="1.0" encoding="utf-8"?>
<!-- Generator: Adobe Illustrator 16.0.0, SVG Export Plug-In . SVG Version: 6.00 Build 0)  -->
<!DOCTYPE svg PUBLIC "-//W3C//DTD SVG 1.1//EN" "http://www.w3.org/Graphics/SVG/1.1/DTD/svg11.dtd">
<svg version="1.1" id="Layer_1" xmlns="http://www.w3.org/2000/svg" xmlns:xlink="http://www.w3.org/1999/xlink" x="0px" y="0px"
	 width="70px" height="70px" viewBox="0 0 70 70" enable-background="new 0 0 70 70" xml:space="preserve">
<path fill-rule="evenodd" clip-rule="evenodd" fill="#0D4F9F" d="M1.818,38.894c0.432-1.383,0.845-2.713,1.265-4.041
	c0.459-1.452,0.936-2.898,1.375-4.355c0.093-0.31,0.231-0.387,0.529-0.385c2.572,0.012,5.144,0.005,7.715,0.016
	c0.265,0.001,0.539,0.052,0.793,0.129c0.581,0.177,0.86,0.758,0.676,1.381c-0.134,0.455-0.315,0.897-0.43,1.357
	c-0.18,0.715-0.686,1.037-1.344,1.196c-0.214,0.052-0.434,0.085-0.786,0.153c0.357,0.117,0.598,0.185,0.829,0.277
	c0.54,0.219,0.646,0.42,0.487,0.961c-0.179,0.608-0.37,1.213-0.568,1.814c-0.338,1.021-1.168,1.456-2.128,1.477
	C7.455,38.931,4.675,38.894,1.818,38.894z M5.848,37.554c0.864,0,1.646,0.039,2.417-0.025c0.218-0.019,0.49-0.299,0.598-0.525
	c0.203-0.425,0.307-0.896,0.446-1.352c0.12-0.398,0.007-0.575-0.417-0.587c-0.655-0.018-1.31-0.019-1.964,0.007
	c-0.13,0.006-0.326,0.145-0.369,0.264C6.312,36.036,6.102,36.748,5.848,37.554z M7.094,33.669c0.473,0,0.869,0.003,1.266,0
	c1.665-0.011,1.53,0.225,2.07-1.546c0.131-0.43,0.021-0.598-0.423-0.606c-0.638-0.014-1.277-0.021-1.915,0.01
	c-0.14,0.006-0.349,0.152-0.396,0.283C7.48,32.386,7.311,32.978,7.094,33.669z"/>
<path fill-rule="evenodd" clip-rule="evenodd" fill="#0D4F9F" d="M52.551,30.124c0.398,2.967,0.791,5.885,1.187,8.837
	c-1.32,0-2.575,0-3.863,0c-0.115-0.763-0.232-1.526-0.359-2.364c-0.39,0-0.766,0-1.144,0c-0.892,0-1.787,0.018-2.681-0.008
	c-0.355-0.01-0.598,0.109-0.816,0.376c-0.454,0.556-0.949,1.077-1.389,1.644c-0.23,0.297-0.481,0.414-0.847,0.386
	c-0.348-0.026-0.697-0.005-1.158-0.005c0.464-0.566,0.866-1.066,1.28-1.558c1.963-2.327,3.932-4.649,5.888-6.982
	c0.205-0.246,0.417-0.337,0.732-0.332C50.415,30.134,51.451,30.124,52.551,30.124z M46.407,35.169c1.072,0,1.983,0,2.984,0
	c-0.154-1.023-0.303-2.005-0.472-3.125C48.051,33.124,47.272,34.093,46.407,35.169z"/>
<path fill-rule="evenodd" clip-rule="evenodd" fill="#0D4F9F" d="M29.747,32.498c-0.696,2.194-1.371,4.321-2.059,6.489
	c-0.385,0-0.766,0-1.145,0c-1.66,0-3.319,0.007-4.98-0.002c-0.541-0.004-1.081-0.045-1.621-0.071
	c-0.891-0.042-1.465-0.778-1.212-1.648c0.469-1.612,0.988-3.21,1.489-4.823c1.149,0,2.28,0,3.466,0
	c-0.176,0.561-0.343,1.1-0.513,1.639c-0.312,0.998-0.633,1.994-0.941,2.994c-0.154,0.5-0.035,0.66,0.5,0.691
	c0.016,0,0.032,0,0.048,0c2.105,0.003,1.744,0.123,2.319-1.658c0.35-1.085,0.703-2.17,1.035-3.261
	c0.07-0.231,0.15-0.356,0.412-0.354C27.58,32.504,28.616,32.498,29.747,32.498z"/>
<path fill-rule="evenodd" clip-rule="evenodd" fill="#0D4F9F" d="M33.067,36.415c-0.029,0.066-0.05,0.107-0.067,0.151
	c-0.351,0.935-0.162,1.202,0.853,1.203c1.434,0.001,2.869,0.001,4.388,0.001c-0.115,0.365-0.189,0.684-0.325,0.973
	c-0.045,0.098-0.25,0.166-0.385,0.167c-2.411,0.009-4.821,0.012-7.233-0.001c-0.898-0.006-1.295-0.5-1.05-1.373
	c0.335-1.205,0.714-2.4,1.132-3.578c0.341-0.965,1.048-1.474,2.113-1.465c2.027,0.015,4.056-0.001,6.083,0.007
	c0.248,0.001,0.513,0.026,0.745,0.109c0.465,0.167,0.7,0.583,0.565,1.073c-0.231,0.84-0.499,1.67-0.789,2.492
	c-0.04,0.112-0.285,0.214-0.438,0.215c-1.772,0.016-3.543,0.01-5.316,0.012C33.264,36.401,33.183,36.409,33.067,36.415z
	 M33.53,35.198c0.185,0,0.358,0,0.53,0c0.59,0,1.189,0.053,1.769-0.035c0.177-0.026,0.333-0.427,0.424-0.682
	c0.07-0.198,0.048-0.44,0.016-0.656c-0.008-0.052-0.217-0.098-0.334-0.104c-0.255-0.018-0.511-0.005-0.766-0.006
	c-1.282-0.008-1.249-0.121-1.657,1.299C33.502,35.042,33.516,35.075,33.53,35.198z"/>
<path fill-rule="evenodd" clip-rule="evenodd" fill="#0D4F9F" d="M19.62,30.141c-0.548,1.738-1.068,3.399-1.592,5.058
	c-0.344,1.088-0.702,2.171-1.032,3.263c-0.104,0.343-0.264,0.476-0.638,0.466c-0.972-0.029-1.945-0.01-3.021-0.01
	c0.931-2.957,1.848-5.859,2.766-8.776C17.259,30.141,18.403,30.141,19.62,30.141z"/>
<path fill-rule="evenodd" clip-rule="evenodd" fill="#0D4F9F" d="M64.861,32.513c-0.014,0.176-0.023,0.297-0.042,0.528
	c1.064-0.812,2.22-0.421,3.402-0.546c-0.186,0.568-0.328,1.066-0.515,1.546c-0.036,0.093-0.239,0.161-0.372,0.169
	c-0.635,0.041-1.272,0.049-1.908,0.084c-0.777,0.043-1.204,0.376-1.436,1.105c-0.333,1.058-0.671,2.115-0.989,3.178
	c-0.09,0.301-0.217,0.432-0.562,0.422c-1-0.029-2.001-0.01-3.082-0.01c0.246-0.779,0.472-1.486,0.693-2.191
	c0.413-1.301,0.835-2.598,1.229-3.904c0.09-0.301,0.225-0.395,0.533-0.389C62.817,32.524,63.824,32.513,64.861,32.513z"/>
<path fill-rule="evenodd" clip-rule="evenodd" fill="#0D4F9F" d="M54.396,38.989c0.611-1.94,1.193-3.797,1.781-5.65
	c0.268-0.845,0.272-0.844,1.148-0.844c0.829,0,1.657,0,2.576,0c-0.193,0.644-0.365,1.239-0.553,1.83
	c-0.446,1.42-0.907,2.834-1.349,4.256c-0.093,0.299-0.225,0.428-0.565,0.418C56.449,38.972,55.461,38.989,54.396,38.989z"/>
</svg>
