<?xml version="1.0" encoding="utf-8"?>
<!-- Generator: Adobe Illustrator 19.0.0, SVG Export Plug-In . SVG Version: 6.00 Build 0)  -->
<svg version="1.1" id="Airplane" xmlns="http://www.w3.org/2000/svg" xmlns:xlink="http://www.w3.org/1999/xlink" x="0px" y="0px"
	 viewBox="-270 362 70 70" style="enable-background:new -270 362 70 70;" xml:space="preserve">
<style type="text/css">
	.st0{fill:#72869E;}
	.st1{fill:#13375D;}
</style>
<g>
	<path class="st0" d="M-227.6,427.4l4.9-2.5l0-10.4l-16.3,4.5v-3.1c0-0.3,0.1-0.5,0.4-0.6l16-8.3c0-5.9-0.1-10.1,0-12.4
		c0-1.3,0.6-2.8,1.8-4.5c0.3-0.4,0.7-0.6,1.2-0.6c0.5,0,0.9,0.2,1.2,0.6c1.2,1.6,1.8,3.1,1.8,4.5l0,12.4l16,8.3
		c0.3,0.1,0.4,0.3,0.4,0.6v3.1l-16.3-4.5l0,10.5l5,2.4l-0.1,3l-7.9-1.5l-7.9,1.5L-227.6,427.4z"/>
</g>
<g>
	<path class="st1" d="M-255.9,408l5.9-3v-12.5l-19.6,5.4v-3.7c0-0.3,0.2-0.6,0.5-0.7l19.2-9.9c0-7.1-0.1-12.1-0.1-14.9
		c0-1.6,0.8-3.4,2.2-5.4c0.4-0.5,0.8-0.8,1.4-0.8c0.6,0,1.1,0.3,1.4,0.8c1.4,2,2.2,3.8,2.2,5.4l-0.1,14.9l19.2,9.9
		c0.3,0.2,0.5,0.4,0.5,0.7v3.7l-19.6-5.4l-0.1,12.6l6,2.9l-0.1,3.6l-9.5-1.8l-9.5,1.8L-255.9,408z"/>
</g>
</svg>
