<?xml version="1.0" encoding="utf-8"?><svg xmlns:svg="http://www.w3.org/2000/svg" xmlns="http://www.w3.org/2000/svg" version="1.1" width="400" height="110" id="svg2816" xml:space="preserve"><defs id="defs2820"/><g transform="matrix(1.25,0,0,-1.25,-33.704125,982.06625)" id="g2826"><g transform="matrix(0.59398701,0,0,0.59398701,18.947451,291.94276)" id="g2874"><path d="m 138.218,713.946 c 10.946,10.847 16.444,23.941 16.444,39.285 0,15.444 -5.498,28.539 -16.444,39.284 -11.045,10.846 -24.34,16.294 -39.9336,16.294 -15.6438,0 -29.0383,-5.448 -40.1836,-16.294 -11.1957,-10.845 -16.7934,-23.94 -16.7934,-39.284 0,-15.344 5.5977,-28.439 16.7934,-39.285 11.1453,-10.845 24.5398,-16.293 40.1836,-16.293 15.5936,10e-4 28.8886,5.448 39.9336,16.293 z m -3.098,75.37 c 10.246,-9.995 15.394,-22.041 15.394,-36.085 0,-14.044 -5.148,-25.99 -15.394,-35.936 -10.146,-9.995 -22.441,-14.994 -36.8356,-14.994 -14.2942,10e-4 -26.4895,4.998 -36.5852,14.994 -10.0461,9.947 -15.0941,21.892 -15.0941,35.936 0,14.145 5.048,26.14 15.0941,36.085 10.0957,9.897 22.291,14.845 36.5852,14.845 14.3946,0 26.6896,-4.948 36.8356,-14.845" id="path2830" style="fill:#2d1b85;fill-opacity:1;fill-rule:evenodd;stroke:none"/><path d="m 74.1441,750.932 -47.1808,-5.448 107.2567,0 -61.6251,71.072 -26.4894,0 28.0386,-65.624" id="path2832" style="fill:#e60003;fill-opacity:1;fill-rule:evenodd;stroke:none"/><path d="m 251.173,782.07 c -5.647,4.298 -13.394,6.447 -23.14,6.447 -10.746,0 -20.342,-3.549 -28.689,-10.596 -8.546,-7.347 -12.795,-15.944 -12.795,-25.84 0.001,-8.246 3.299,-14.943 9.946,-20.042 6.148,-4.647 13.345,-6.997 21.592,-6.997 10.945,10e-4 20.692,3.849 29.238,11.496 8.546,7.746 12.795,16.693 12.795,26.789 0,7.997 -2.999,14.244 -8.947,18.743 z m -23.141,-1.05 c 13.745,0 20.592,-5.898 20.592,-17.693 0.001,-8.247 -3.149,-15.494 -9.446,-21.741 -6.197,-6.048 -13.244,-9.047 -21.091,-9.047 -12.945,0 -19.392,6.498 -19.392,19.542 0,7.748 2.698,14.445 8.046,20.042 5.648,5.949 12.745,8.897 21.291,8.897" id="path2834" style="fill:#2d1b85;fill-opacity:1;fill-rule:evenodd;stroke:none"/><path d="m 300.454,774.023 c -8.447,0 -14.295,-1.6 -17.493,-4.748 l 1.049,4.748 -12.395,-1.55 -12.295,-41.733 12.395,0 9.347,32.187 c 5.148,3.099 10.745,4.648 16.793,4.648 1.899,0 3.599,-0.55 5.148,-1.699 1.45,-1.049 2.199,-2.099 2.199,-3.199 10e-4,-5.097 -2.798,-15.743 -8.397,-31.937 l 12.046,0 c 5.748,17.344 8.646,28.489 8.646,33.487 0,6.548 -5.697,9.796 -17.043,9.796" id="path2836" style="fill:#2d1b85;fill-opacity:1;fill-rule:evenodd;stroke:none"/><path d="m 380.821,773.273 -12.644,0 c -5.447,-20.092 -8.697,-30.588 -9.846,-31.537 -3.848,-3.849 -8.897,-5.548 -15.144,-5.048 -6.047,0.55 -9.046,2.649 -9.046,6.347 0,2.499 1.499,8.247 4.548,17.293 l 4.499,12.945 -11.996,0 c -0.749,-0.749 -2.549,-5.848 -5.298,-15.244 -2.749,-9.396 -4.148,-15.094 -4.148,-17.093 0,-7.397 5.498,-11.046 16.543,-10.946 7.598,0 13.795,1.699 18.643,5.148 l -1.45,-4.398 12.046,0 13.293,42.533" id="path2838" style="fill:#2d1b85;fill-opacity:1;fill-rule:evenodd;stroke:none"/><path d="m 401.214,767.326 1.949,6.697 -12.795,-2.05 -12.395,-41.233 12.296,0 c 0.849,3.949 3.248,11.745 7.197,23.291 2.349,6.797 6.197,10.596 11.545,11.345 2.649,0.351 5.048,0 7.197,-1.049 l 4.948,8.546 c -0.8,0.75 -2.899,1.15 -6.347,1.15 -2.049,0 -4.948,-1.1 -8.647,-3.349 l -4.948,-3.348" id="path2840" style="fill:#2d1b85;fill-opacity:1;fill-rule:evenodd;stroke:none"/><path d="m 520.666,774.023 -12.795,-2.05 -12.395,-41.233 12.395,0 c 0.75,3.949 3.149,11.745 7.097,23.291 2.35,6.797 6.148,10.596 11.496,11.345 l 7.397,-1.049 4.898,8.546 c -0.849,0.75 -2.998,1.15 -6.347,1.15 -2.149,0 -5.098,-1.1 -8.796,-3.349 l -4.898,-3.348 1.948,6.697" id="path2842" style="fill:#adaeb1;fill-opacity:1;fill-rule:evenodd;stroke:none"/><path d="m 475.434,773.273 c -11.545,0.35 -19.143,0.35 -22.741,0 -7.847,-0.749 -14.395,-2.199 -19.643,-4.248 -11.844,-4.648 -17.742,-11.946 -17.742,-21.841 0,-4.398 1.699,-8.247 5.047,-11.546 3.9,-3.748 9.147,-5.648 15.794,-5.648 5.599,0 10.946,1.45 15.994,4.398 l -0.35,-3.648 11.096,0.15 12.545,42.383 z m -25.59,-6.597 12.545,0 -8.296,-26.64 c -4.299,-1.899 -8.597,-2.998 -12.895,-3.348 -8.747,-0.7 -13.095,2.799 -13.095,10.496 0,6.546 3.499,11.695 10.495,15.493 4.649,2.65 8.397,3.998 11.246,3.999" id="path2844" style="fill:#adaeb1;fill-opacity:1;fill-rule:evenodd;stroke:none"/><path d="m 481.881,762.777 -9.196,-32.037 12.945,0 9.846,33.087 -13.595,-1.05" id="path2846" style="fill:#adaeb1;fill-opacity:1;fill-rule:evenodd;stroke:none"/><path d="m 484.58,777.921 c 0,-4.898 2.499,-7.347 7.497,-7.347 5.098,0 7.647,2.449 7.647,7.347 0,4.998 -2.549,7.497 -7.647,7.497 -4.997,0 -7.497,-2.499 -7.497,-7.497" id="path2848" style="fill:#adaeb1;fill-opacity:1;fill-rule:evenodd;stroke:none"/></g></g></svg>