<?xml version="1.0" encoding="utf-8"?>
<!-- Generator: Adobe Illustrator 13.0.2, SVG Export Plug-In . SVG Version: 6.00 Build 14948)  -->
<!DOCTYPE svg PUBLIC "-//W3C//DTD SVG 1.1//EN" "http://www.w3.org/Graphics/SVG/1.1/DTD/svg11.dtd" [
	<!ENTITY ns_extend "http://ns.adobe.com/Extensibility/1.0/">
	<!ENTITY ns_ai "http://ns.adobe.com/AdobeIllustrator/10.0/">
	<!ENTITY ns_graphs "http://ns.adobe.com/Graphs/1.0/">
	<!ENTITY ns_vars "http://ns.adobe.com/Variables/1.0/">
	<!ENTITY ns_imrep "http://ns.adobe.com/ImageReplacement/1.0/">
	<!ENTITY ns_sfw "http://ns.adobe.com/SaveForWeb/1.0/">
	<!ENTITY ns_custom "http://ns.adobe.com/GenericCustomNamespace/1.0/">
	<!ENTITY ns_adobe_xpath "http://ns.adobe.com/XPath/1.0/">
]>
<svg version="1.1" id="Layer_1" xmlns:x="&ns_extend;" xmlns:i="&ns_ai;" xmlns:graph="&ns_graphs;"
	 xmlns="http://www.w3.org/2000/svg" xmlns:xlink="http://www.w3.org/1999/xlink" x="0px" y="0px" width="70px" height="70px"
	 viewBox="0 0 70 70" enable-background="new 0 0 70 70" xml:space="preserve">
<metadata>
	<sfw  xmlns="&ns_sfw;">
		<slices></slices>
		<sliceSourceBounds  x="0.5" y="-0.5" width="70" height="70" bottomLeftOrigin="true"></sliceSourceBounds>
	</sfw>
</metadata>
<path fill="#1F3A6E" d="M19.6,43.3v-0.5L19,42.7c-0.3,0-1-0.101-1.5-0.101h-0.9v0.5c0,0.601,0.1,1.801,0.3,3
	c0.2,1.301,0.6,3.101,0.6,3.2c0,0,0.1,0.101,0.2,0.101c0.3,0.1,2.8,0,2.9-0.101c0.1-0.1,0-0.3-0.1-0.8
	C20.1,46.9,19.8,44.9,19.6,43.3z"/>
<path fill="#1F3A6E" d="M68.2,37.7c-0.5-0.101-0.7-0.101-4.8-0.2c-2.4,0-4.801-0.1-5.301-0.1C56.7,37.3,55.7,37.1,51,36.3
	c-2.6-0.5-3.5-0.5-4.5-0.1c-1.8,0.6-6.7,2.8-10.1,4.6c-1,0.5-1.2,0.601-2,0.8l-0.9,0.2L32.2,41.4c-3.2-0.9-6.2-1.601-8.8-2
	C21.6,39.1,20.6,39.1,18.8,39.1c-2.4,0-3,0.101-5.4,0.801c-2,0.6-6.3,1.8-10.5,2.899c-1.6,0.4-1.8,0.5-1.2,0.601
	c0.6,0.1,1.5,0,4.7-0.601c4.1-0.8,6-1,9.4-1c1.8,0,2.4,0,3.2,0.101c2.2,0.199,4.3,0.699,6.2,1.3c1.3,0.399,2.9,1.1,3.1,1.399
	c0.3,0.4,0.1,0.9-0.7,1.7l-0.5,0.5h0.8c0.5,0,1-0.1,1.2-0.1c0.2-0.101,0.8-0.101,1.5-0.2c3-0.3,5-0.8,7.1-1.9
	c0.8-0.399,2.2-1,6.1-2.6c3.2-1.3,3.7-1.5,5.101-1.6c0.8-0.101,1.399-0.101,3.3,0.1c3.3,0.3,5.899,0,10.6-1c3.5-0.8,5-1.1,5.8-1.2
	c0.2,0,0.5-0.1,0.5-0.1C69,38,68.7,37.8,68.2,37.7z"/>
<path fill="#1F3A6E" d="M19.1,32.6l-0.3,0.7c-0.4,0.9-0.8,1.7-1,2.601c-0.2,0.699-0.5,1.8-0.5,1.899l0,0
	c0,0.101,0.3,0.101,1.5,0.101h1.5l0.1-0.4c0.5-1.7,1.5-3.9,2.3-5.2l0.2-0.3h-0.5c-0.6,0-2.5,0.3-2.9,0.4L19.1,32.6z"/>
<path fill="#1F3A6E" d="M23.7,28.6c0.8-0.2,1.6-0.4,2.3-0.5c0.5,0,0.5,0,1.1-0.5c1.3-0.9,2.4-1.6,3.8-2.2c5.3-2.4,11.4-2.2,16.6,0.6
	l0.7,0.4l0.8-0.3c1-0.4,1.5-0.4,2.4-0.4c0.399,0,0.8,0.1,0.899,0.1c0.101,0,0.3,0,0.3,0s-0.399-0.3-0.8-0.6
	c-3.2-2.4-6.6-3.7-10.6-4.3c-1.101-0.2-4.2-0.2-5.3,0c-5,0.7-9.3,2.7-12.7,6.1c-0.8,0.8-2,2.1-2.1,2.3l0,0v0.1
	C21.3,29.3,22.9,28.8,23.7,28.6z"/>
<path fill="#1F3A6E" d="M14.4,32.4c0.5,0,1.1,0,3.4-0.5c2.6-0.5,4.2-0.7,6.3-0.8c3.7-0.2,7.3,0.5,10.3,1.8c0.7,0.3,0.9,0.5,0.9,0.7
	c0,0.2-0.3,0.7-0.7,1.1c-0.2,0.2-0.4,0.4-0.4,0.4c0,0.1,1.2,0,1.5-0.1c0.1,0,0.7-0.1,1.2-0.2c2.399-0.2,3.899-0.6,5.399-1.4
	c0.8-0.4,1.8-0.8,4.5-2c3.5-1.4,3.8-1.5,5.4-1.5c0.5,0,1.399,0,2,0.1c2.7,0.3,4.6,0.1,9.5-1.1c1.399-0.3,2.8-0.6,3.3-0.6
	c0.8-0.1,0.8-0.1,0.2-0.3c-0.4-0.1-0.601-0.1-3.8-0.2c-4.9-0.1-5-0.1-8.101-0.6c-2.8-0.5-3.1-0.6-3.8-0.6c-0.8-0.1-1.2,0-2.2,0.3
	c-1.3,0.5-4.1,1.7-7,3.2c-1.3,0.6-1.6,0.8-2.2,0.9L39.4,31.1L38,30.7c-4.8-1.3-8.9-1.9-11.6-1.7c-1,0.1-1.5,0.2-2.8,0.6
	c-1.5,0.5-4.3,1.2-7.1,2c-1.3,0.3-2.4,0.6-2.5,0.7C13.8,32.3,14,32.4,14.4,32.4z"/>
<path fill="#1F3A6E" d="M57.8,31.7L57.4,31.1h-1.5C55.1,31.1,54.2,31,54,31h-0.4l0.5,0.6c0.9,1.2,1.7,2.6,2.2,4
	c0.2,0.4,0.3,0.801,0.4,0.801c0.1,0.1,0.8,0.1,1.8,0.199c0.5,0,1,0,1.1,0.101c0.2,0,0.2,0,0.2-0.2c-0.1-0.3-0.6-1.7-0.8-2.3
	C58.7,33.3,58.2,32.4,57.8,31.7z"/>
<path fill="#1F3A6E" d="M60.6,40.7c-0.1,0-1.199,0.2-2.6,0.399h-0.2V42c0,1,0,1.8-0.3,3.4c-0.2,1-0.6,3-0.8,3.5
	c0,0.199-0.101,0.3-0.101,0.399c0,0.101,0.4,0.101,1.5,0.101c1.4,0,1.5,0,1.601-0.101c0.1-0.2,0.399-1.7,0.6-3
	c0.3-1.899,0.4-2.899,0.3-4.2C60.7,40.9,60.7,40.7,60.6,40.7z"/>
<rect fill="none" width="70" height="70"/>
</svg>
