<?xml version="1.0" encoding="utf-8"?>
<!-- Generator: Adobe Illustrator 13.0.2, SVG Export Plug-In . SVG Version: 6.00 Build 14948)  -->
<!DOCTYPE svg PUBLIC "-//W3C//DTD SVG 1.1//EN" "http://www.w3.org/Graphics/SVG/1.1/DTD/svg11.dtd" [
	<!ENTITY ns_extend "http://ns.adobe.com/Extensibility/1.0/">
	<!ENTITY ns_ai "http://ns.adobe.com/AdobeIllustrator/10.0/">
	<!ENTITY ns_graphs "http://ns.adobe.com/Graphs/1.0/">
	<!ENTITY ns_vars "http://ns.adobe.com/Variables/1.0/">
	<!ENTITY ns_imrep "http://ns.adobe.com/ImageReplacement/1.0/">
	<!ENTITY ns_sfw "http://ns.adobe.com/SaveForWeb/1.0/">
	<!ENTITY ns_custom "http://ns.adobe.com/GenericCustomNamespace/1.0/">
	<!ENTITY ns_adobe_xpath "http://ns.adobe.com/XPath/1.0/">
]>
<svg version="1.1" id="Layer_1" xmlns:x="&ns_extend;" xmlns:i="&ns_ai;" xmlns:graph="&ns_graphs;"
	 xmlns="http://www.w3.org/2000/svg" xmlns:xlink="http://www.w3.org/1999/xlink" x="0px" y="0px" width="70px" height="70px"
	 viewBox="0 0 70 70" enable-background="new 0 0 70 70" xml:space="preserve">
<metadata>
	<sfw  xmlns="&ns_sfw;">
		<slices></slices>
		<sliceSourceBounds  x="0.5" y="-0.5" width="70" height="70" bottomLeftOrigin="true"></sliceSourceBounds>
	</sfw>
</metadata>
<path fill="#213760" d="M48.2,24.9c1.1,0,1.8,0.3,2.399,0.6c1.2,0.6,2.7,1.2,4.5,2.1c0,0,2.9-2.1,3.101-2.2c1-0.7,1.899-0.2,2.2,0.4
	c1.1,2,3.1,6.3,4.1,10.2c0.1,0.5,0,1.2-0.8,1.4c-0.4,0.1-1.101,0.199-1.9,0.3c-1.1,0.1-1,1-1,1.5c0,0.6,0,4.899,0,6.399
	c0,0.9-0.7,3.801-4.1,3.801c-0.2,0-7.8,0-7.7,0c-2.9,0-5.3-2.5-5.3-5.101c0-1.7,0-13.8,0-15.1C43.8,26.6,46.1,24.9,48.2,24.9
	L48.2,24.9z"/>
<path fill="#213760" d="M36,49.5H10.8v2.8h29.5c0,0,1.101-2.5,1.101-5.2c0-0.1,0-19,0-19c0-1.5,0.6-4,3.699-4.7
	c0.101,0,0.2,0,0.301-0.1c8.699-2.1,17.699-0.2,22.8,2c0.899,0.4,1.1-0.3,1.1-0.6c0.101-4.3-3.1-9.1-9.1-9.4
	c-4.8-0.1-7.5,1.6-8.5,2.1c-0.101,0-0.2,0-0.3-0.1c-0.9-0.9-2.801-2.2-4.9-2.8c-0.3-0.1-0.3-0.5,0-0.6c4.6-0.5,8.6,0,10.3,0.3
	c0.4,0.1,0.7-0.2,0.5-0.5c-0.1-0.3-0.2-0.4-0.399-0.8c-0.4-0.9-1.5-1.8-2.9-2.2c-3.6-1-9.7-1.9-15.2-1.9c-6.2,0-12.6,1.2-14.3,1.6
	c-0.4,0.1-0.9,0.2-1,0.2c-0.4,0.1-0.6,0.5-0.4,0.7c0.1,0.1,0.5,0.4,0.6,0.6c0.2,0.3,0.3,0.6-0.1,1L12.2,23.2H20h0.1c0.5,0,1,0.4,1,1
	c0,0.5-0.4,1-1,1H20H9.9L6.8,28H20h0.1c0.5,0,0.9,0.5,0.9,1s-0.4,1-0.9,1H20H4.6l-3.1,2.8h26.7h0.1c0.5,0,0.9,0.5,0.9,1
	s-0.4,1-0.9,1h-0.1H1.4v2.8h26.7h0.1c0.6,0,1,0.601,1,1.101s-0.4,1-1,1h-0.1H1.4v2.8h34.9H36.4c0.6,0,1,0.5,0.899,1.1
	c0,0.5-0.399,1-0.899,1H36.3H10.8V47.4H36h0.5c0.5,0,0.9,0.6,0.9,1.1s-0.4,1-0.9,1H36L36,49.5z"/>
<path fill="#213760" d="M20.2,59.1V62c0,0,3.8,0,5.9,0c5.3,0,8.8-2.9,8.8-2.9H20.2L20.2,59.1z"/>
<path fill="#213760" d="M20.2,54.3v2.8h17.1c0.8-0.8,1.8-2.3,2.101-2.8H20.2L20.2,54.3z"/>
<rect fill="none" width="70" height="70"/>
</svg>
