<?xml version="1.0" encoding="utf-8"?>
<!-- Generator: Adobe Illustrator 16.0.0, SVG Export Plug-In . SVG Version: 6.00 Build 0)  -->
<!DOCTYPE svg PUBLIC "-//W3C//DTD SVG 1.1//EN" "http://www.w3.org/Graphics/SVG/1.1/DTD/svg11.dtd">
<svg version="1.1" id="Layer_1" xmlns="http://www.w3.org/2000/svg" xmlns:xlink="http://www.w3.org/1999/xlink" x="0px" y="0px"
	 width="70px" height="70px" viewBox="0 0 70 70" enable-background="new 0 0 70 70" xml:space="preserve">
<rect fill="none" width="70" height="70"/>
<g>
	
		<linearGradient id="path79_1_" gradientUnits="userSpaceOnUse" x1="177.2246" y1="600.5615" x2="182.7222" y2="593.9575" gradientTransform="matrix(1.6433 0 0 1.6433 -236.5459 -947.4014)">
		<stop  offset="0" style="stop-color:#1E539F"/>
		<stop  offset="0.7835" style="stop-color:#8A9DBB"/>
		<stop  offset="1" style="stop-color:#FFFFFF"/>
	</linearGradient>
	<path id="path79" fill="url(#path79_1_)" d="M64.2,30.8c-1.9,1.9-6,3.5-8.101,4.3c-2.801,1-4,1.4-5.601,1.9
		c-1.8,0.6-5.3,1.6-5.3,1.6C52.5,40.8,57.6,41.4,57.6,41.4s2.4-0.7,6.2-2.801c2.101-1,3.101-1.699,3.8-2.399
		c0.301-0.2,1-1,1.102-1.9c0-0.1,0-0.2,0-0.4c0,0,0-0.1,0-0.2c0-0.1,0-0.2,0-0.2s0-0.2-0.102-0.4c-0.1-0.2-0.3-0.6-0.699-0.9
		C67.6,32,67.2,31.5,65.6,30.9c-0.5-0.2-1.398-0.4-1.398-0.4L64.2,30.8"/>
	<path id="path93" fill="#CF2029" d="M68.9,34c0,0,0-0.2-0.102-0.4c0-0.2-0.1-0.3-0.199-0.5c-0.101-0.2-0.301-0.4-0.5-0.6
		S67.7,32.2,67.5,32c-1-0.7-2.3-1-3.4-1.2c-1.8-0.2-3.8-0.2-4-0.2c-0.699,0-4.8,0-5.898,0c-4.801,0.1-10.7,0.1-12.2,0.1
		c-16,0.2-22.9-0.2-30.5-1.7C5,27.7,1.3,26.5,1.3,26.5c5.8-0.2,39.4-1.6,45.601-1.8c4-0.1,6.899-0.1,9.199,0
		c1.2,0.1,2.301,0.2,3.602,0.4c1.199,0.2,2.3,0.6,3,0.8c1.398,0.5,2.5,1.2,3.1,2c0,0,0.2,0.2,0.4,0.5c0.3,0.4,0.6,0.8,0.699,1
		c0.801,1.3,1.199,2.1,1.399,2.3c0.101,0.3,0.3,0.6,0.4,0.9c0.1,0.3,0.2,0.5,0.2,0.6c0.1,0.3,0.1,0.6,0.1,0.7L68.9,34"/>
</g>
</svg>
