<?xml version="1.0" encoding="utf-8"?>
<!-- Generator: Adobe Illustrator 13.0.2, SVG Export Plug-In . SVG Version: 6.00 Build 14948)  -->
<!DOCTYPE svg PUBLIC "-//W3C//DTD SVG 1.1//EN" "http://www.w3.org/Graphics/SVG/1.1/DTD/svg11.dtd" [
	<!ENTITY ns_extend "http://ns.adobe.com/Extensibility/1.0/">
	<!ENTITY ns_ai "http://ns.adobe.com/AdobeIllustrator/10.0/">
	<!ENTITY ns_graphs "http://ns.adobe.com/Graphs/1.0/">
	<!ENTITY ns_vars "http://ns.adobe.com/Variables/1.0/">
	<!ENTITY ns_imrep "http://ns.adobe.com/ImageReplacement/1.0/">
	<!ENTITY ns_sfw "http://ns.adobe.com/SaveForWeb/1.0/">
	<!ENTITY ns_custom "http://ns.adobe.com/GenericCustomNamespace/1.0/">
	<!ENTITY ns_adobe_xpath "http://ns.adobe.com/XPath/1.0/">
]>
<svg version="1.1" id="Layer_1" xmlns:x="&ns_extend;" xmlns:i="&ns_ai;" xmlns:graph="&ns_graphs;"
	 xmlns="http://www.w3.org/2000/svg" xmlns:xlink="http://www.w3.org/1999/xlink" x="0px" y="0px" width="70px" height="70px"
	 viewBox="0 0 70 70" enable-background="new 0 0 70 70" xml:space="preserve">
<metadata>
	<sfw  xmlns="&ns_sfw;">
		<slices></slices>
		<sliceSourceBounds  x="0.5" y="-0.5" width="70" height="70" bottomLeftOrigin="true"></sliceSourceBounds>
	</sfw>
</metadata>
<rect fill="none" width="70" height="70"/>
<path id="path15303" fill="#0D4C84" d="M33.7,19.7c-1,0-1.5,0.8-1.5,1.8v15.8c0,1.9,0.5,2.3,2,2.3c1.3,0,1.2-0.399,2.6-0.399
	c1.4,0,1.5,0.8,3.7,0.8c3.6,0,6.4-2.7,6.4-8.2c0-4.7-2.601-7.3-6.301-7.3c-1.6,0-2.399,0.6-3.399,0.6c-0.8,0-1.2-0.9-1.2-1.8v-1.9
	c0-1.2-0.6-1.8-1.5-1.8L33.7,19.7L33.7,19.7L33.7,19.7z M55.6,24c-3.8,0-7.399,2.3-7.399,8.2c0,5,3.2,7.6,7.5,7.6
	c4.399,0,6.5-2.6,6.5-3.6c0-0.7-1-1.5-2-1.5c-1.5,0-1.9,2-4.4,2c-1.5,0-3-1.4-3-2.7c0-1,0.7-1.5,2-1.5H60.9c1.399,0,2-0.3,2-1.7
	C62.8,29.8,62,24,55.6,24L55.6,24z M55.6,27.1c1.4,0,2.601,1,2.601,2c0,0.8-1,1.2-2.9,1.2c-1.6,0-2.399-0.5-2.399-1.3
	C52.9,27.9,54.5,27.1,55.6,27.1L55.6,27.1z M39.6,27.3c2.301,0,3.4,2.3,3.4,5.3c0,3.2-1.6,4.7-3.5,4.7c-2,0-3.4-1.7-3.4-5.1
	C36.1,28.7,37.8,27.3,39.6,27.3z M65.8,34.5c-2,0-2.6,0.8-2.6,2.7c0,1.3,0.2,2.6,2.6,2.6c1.7,0,2.601-0.6,2.601-2.7
	C68.5,35.7,68.2,34.5,65.8,34.5L65.8,34.5z"/>
<path id="path15315" fill="#639FD5" d="M7.3,18.8c-2.6,0-3.5,1.7-3.7,2.6c-0.5,1.6-0.5,2.2-0.8,2.5c-0.9,0.8-1.7,1-1.7,2
	c0,1.5,2.2,0.9,2.2,3.7v7.9c0,1.5,0.7,2,2.3,2c1.5,0,2.2-0.7,2.2-2v-8.2c0-0.8,0.3-1.5,0.7-1.7c0.5-0.4,1.9-0.7,1.9-1.8
	c0-0.5-0.3-1-0.9-1.3c-0.9-0.4-1.1-0.6-1.1-1.1c0-0.4,0.3-0.7,1.2-1.2c1-0.5,0.9-1.2,0.9-1.9c0-0.8-0.9-1.5-2-1.5H7.3L7.3,18.8z
	 M13.6,18.9c-1,0-1.7,0.8-1.7,1.9v16.7c0,1.5,0.6,2.2,2.4,2.2c1.5,0,2.2-0.601,2.2-1.9V21.1c0-1.5-0.6-2.2-1.9-2.2H13.6L13.6,18.9z
	 M19,24.6c-0.8,0-1.8,0.3-1.1,2.6c0.2,0.6,3.9,11.5,3.9,12.5c0,0.8-0.6,1.6-1.7,1.8s-1.7,0.7-1.7,1.6c0,1,0.6,1.601,1.6,1.601h1.5
	c1.7,0,3.6-0.5,4.7-4.101l4.6-14c0.1-0.2,0.1-0.5,0.1-0.9c0-0.6-0.6-1.1-1.3-1.1h-1c-1.1,0-1.8,0.5-2,1.5l-1.2,5.7
	c-0.2,0.9-0.5,1.8-1.1,1.8c-0.5,0-0.9-0.3-1.2-1.8L22,26.4c-0.3-1.2-0.9-1.9-1.9-1.9L19,24.6L19,24.6z"/>
<path id="path15339" fill="#FFC516" d="M34.4,41.2c-2,0-2.6,0.8-2.6,2.8c0,1.3,0.2,2.6,2.6,2.6c1.7,0,2.6-0.6,2.6-2.8
	C37,42.4,36.8,41.2,34.4,41.2z M40.7,41.2c-2,0-2.601,0.8-2.601,2.8c0,1.3,0.2,2.6,2.601,2.6c1.7,0,2.6-0.6,2.6-2.8
	C43.4,42.4,43.1,41.2,40.7,41.2z"/>
<path id="path15347" fill="#D62027" d="M47.1,41.2c-2,0-2.6,0.8-2.6,2.8c0,1.3,0.2,2.6,2.6,2.6c1.7,0,2.601-0.6,2.601-2.8
	C49.8,42.4,49.5,41.2,47.1,41.2L47.1,41.2z M53.4,41.2c-2,0-2.601,0.8-2.601,2.8c0,1.3,0.2,2.6,2.601,2.6c1.699,0,2.6-0.6,2.6-2.8
	C56.1,42.4,55.8,41.2,53.4,41.2L53.4,41.2z"/>
<path id="path15355" fill="#5B419A" d="M59.8,41.2c-2,0-2.6,0.8-2.6,2.8c0,1.3,0.2,2.6,2.6,2.6c1.7,0,2.601-0.6,2.601-2.8
	C62.4,42.4,62.2,41.2,59.8,41.2z M66,41.2c-2,0-2.6,0.8-2.6,2.8c0,1.3,0.199,2.6,2.6,2.6c1.7,0,2.6-0.6,2.6-2.8
	C68.6,42.4,68.4,41.2,66,41.2L66,41.2z"/>
</svg>
