<?xml version="1.0" encoding="utf-8"?>
<!-- Generator: Adobe Illustrator 19.0.0, SVG Export Plug-In . SVG Version: 6.00 Build 0)  -->
<svg version="1.1" id="Layer_1" xmlns="http://www.w3.org/2000/svg" xmlns:xlink="http://www.w3.org/1999/xlink" x="0px" y="0px"
	 viewBox="0 0 101.6 106.5" style="enable-background:new 0 0 101.6 106.5;" xml:space="preserve">
<style type="text/css">
	.st0{fill:#1A3562;}
</style>
<path class="st0" d="M100.2,6.9c-7.9-13.4-47.4-6.7-88.3,15l-2.3,1.2c40-20.7,76.7-26.1,84.4-13c3.8,6.4,0,16-9.3,26.6
	c-14.4-6-47.9,1.6-82.3,19.9L0,57.9c35.4-18.3,68.1-24.7,80.6-16.8C70.6,51.2,55.9,62,38.1,71.7l2.3-1.2
	c16.6-8.8,30.9-18.8,41.5-28.4c1,0.8,1.8,1.8,2.5,2.9c7.8,13.1-16.2,40-55.8,61.5l2.3-1.2c40.9-21.7,67.6-50.1,59.7-63.6
	c-1-1.6-2.4-3-4.1-3.9C98.8,25.4,104.4,14,100.2,6.9z"/>
</svg>
