<?xml version="1.0" encoding="utf-8"?>
<!-- Generator: Adobe Illustrator 17.0.0, SVG Export Plug-In . SVG Version: 6.00 Build 0)  -->
<!DOCTYPE svg PUBLIC "-//W3C//DTD SVG 1.1//EN" "http://www.w3.org/Graphics/SVG/1.1/DTD/svg11.dtd">
<svg version="1.1" id="Layer_1" xmlns="http://www.w3.org/2000/svg" xmlns:xlink="http://www.w3.org/1999/xlink" x="0px" y="0px"
	 width="70px" height="70px" viewBox="0 0 70 70" enable-background="new 0 0 70 70" xml:space="preserve">
<path fill="#056C6F" d="M14.423,66.336c0.346-0.375,0.981-0.866,1.414-1.097c0.433-0.231,0.924-0.491,1.068-0.635
	c0.75-0.548,3.319-2.222,3.435-2.222c0.087,0,1.183-0.693,2.424-1.501c1.27-0.837,3.579-2.338,5.166-3.319
	c1.559-0.981,3.896-2.482,5.195-3.348l2.367-1.53l-1.645-0.895C22.619,45.585,13.99,32.886,9.805,16.406
	c-0.346-1.299-0.664-2.828-0.75-3.377c-0.115-0.952-0.087-0.981,0.317-0.462c0.26,0.317,0.462,0.837,0.462,1.154
	c0,0.289,0.087,0.491,0.173,0.404c0.087-0.087-0.058-1.241-0.317-2.569C9.401,10.23,9.083,8.498,8.91,7.747
	c-0.144-0.75-0.231-1.991-0.173-2.742c0.087-1.27,0.115-1.154,0.664,1.501c0.693,3.55,0.866,3.261,0.317-0.548
	C9.487,4.371,9.372,3.014,9.43,2.956c0.26-0.289,0.433,0.289,0.837,2.598c0.231,1.328,0.548,2.886,0.722,3.435
	c0.26,0.924,0.26,0.895,0.115-0.433c-0.087-0.779-0.231-1.876-0.317-2.367c-0.289-1.761,0.404-0.981,0.779,0.837
	c0.462,2.453,1.385,5.945,1.414,5.426c0-0.231-0.087-0.924-0.231-1.53c-0.144-0.606-0.144-1.126,0-1.212
	c0.144-0.087,0.317,0.202,0.433,0.635c0.548,2.424,2.193,7.619,2.338,7.475c0.087-0.087-0.115-0.895-0.433-1.818
	c-0.722-2.136-1.039-3.839-0.693-3.839c0.144,0,0.548,0.952,0.895,2.107c0.866,2.8,1.501,4.589,1.645,4.474
	c0.144-0.173-0.404-2.251-0.808-3.03c-0.173-0.375-0.26-0.75-0.144-0.837c0.289-0.289,0.722,0.144,0.895,0.952
	c0.289,1.154,1.934,5.311,2.396,6.003c0.346,0.52,0.375,0.491,0.202-0.433c-0.202-1.27,0.144-0.837,1.241,1.443
	c1.01,2.136,1.27,2.453,1.587,1.963c0.231-0.289,0.317-0.289,0.433,0c0.058,0.202,0.317,0.52,0.52,0.722s0.577,0.808,0.866,1.356
	c0.548,1.068,0.635,1.183,1.876,2.598c0.462,0.548,0.779,0.779,0.693,0.52c-0.317-0.895,0.202-0.577,2.165,1.443
	c2.107,2.136,5.253,4.56,8.11,6.205c1.039,0.606,2.078,1.212,2.309,1.356c0.779,0.491,3.002,1.472,5.339,2.453
	c5.484,2.222,9.063,3.03,13.392,3.03c2.828,0,3.781,0.317,3.781,1.241c0,0.837-1.01,1.761-3.637,3.348
	c-3.723,2.251-15.066,7.446-20.03,9.178c-0.722,0.26-1.414,0.548-1.587,0.664c-0.144,0.115-0.808,0.375-1.443,0.577
	c-0.635,0.202-1.53,0.52-2.02,0.75C30.96,61.17,14.74,67,14.221,67C13.874,67,13.932,66.827,14.423,66.336z M28.305,31.991
	c0-0.058-0.346-0.404-0.779-0.808l-0.808-0.693l0.693,0.808C28.074,32.02,28.305,32.222,28.305,31.991z M23.976,28.066
	c-0.144-0.317-0.433-0.664-0.606-0.779c-0.173-0.087-0.087,0.144,0.173,0.577C24.12,28.73,24.409,28.874,23.976,28.066z
	 M22.85,26.219c-0.289-0.26-0.317-0.231-0.144,0.173c0.087,0.289,0.26,0.433,0.346,0.346C23.139,26.652,23.052,26.421,22.85,26.219z
	 M19.964,22.929c-0.346-0.577-0.404-0.404-0.144,0.346c0.115,0.26,0.26,0.404,0.317,0.317
	C20.224,23.535,20.137,23.217,19.964,22.929z M16.356,19.754c-0.52-0.952-0.606-0.75-0.173,0.375
	c0.173,0.433,0.375,0.693,0.462,0.606S16.616,20.216,16.356,19.754z M17.684,20.187c-0.202-0.202-0.346-0.231-0.346-0.058
	c0,0.404,0.346,0.75,0.548,0.548C17.944,20.591,17.857,20.36,17.684,20.187z M15.115,19.523c-0.087-0.26-0.231-0.404-0.289-0.317
	c-0.087,0.087-0.058,0.26,0.058,0.433C15.144,20.1,15.317,20.014,15.115,19.523z M10.728,16.002
	c-0.26-0.462-0.289-0.462-0.317-0.029c0,0.26,0.087,0.722,0.202,1.01c0.202,0.462,0.231,0.491,0.317,0.029
	C10.988,16.723,10.901,16.29,10.728,16.002z M11.479,14.992c-0.087-0.231-0.173-0.144-0.173,0.173
	c-0.029,0.317,0.058,0.491,0.144,0.375C11.536,15.453,11.565,15.194,11.479,14.992z M13.614,14.847
	c-0.346-0.577-0.404-0.404-0.144,0.346c0.115,0.26,0.26,0.404,0.317,0.317C13.874,15.453,13.788,15.136,13.614,14.847z
	 M10.324,14.703c-0.087-0.231-0.173-0.144-0.173,0.173c-0.029,0.317,0.058,0.491,0.144,0.375
	C10.382,15.165,10.411,14.905,10.324,14.703z M12.287,13.606c-0.115-0.346-0.26-0.548-0.346-0.491
	c-0.087,0.087-0.058,0.433,0.058,0.779c0.115,0.346,0.26,0.548,0.346,0.491C12.431,14.299,12.402,13.953,12.287,13.606z
	 M11.19,13.549c-0.087-0.231-0.173-0.144-0.173,0.173c-0.029,0.317,0.058,0.491,0.144,0.375
	C11.248,14.01,11.277,13.751,11.19,13.549z M13.21,13.26c-0.087-0.202-0.144-0.058-0.144,0.346s0.058,0.548,0.144,0.375
	C13.268,13.779,13.268,13.433,13.21,13.26z M10.584,11.269c-0.231-0.866-0.433-1.328-0.433-1.01
	c-0.029,0.635,0.577,2.828,0.75,2.684C10.959,12.885,10.815,12.134,10.584,11.269z M11.479,10.374
	c-0.087-0.202-0.144-0.058-0.144,0.346s0.058,0.548,0.144,0.375C11.536,10.893,11.536,10.547,11.479,10.374z"/>
</svg>
