<?xml version="1.0" encoding="utf-8"?>
<!-- Generator: Adobe Illustrator 16.0.0, SVG Export Plug-In . SVG Version: 6.00 Build 0)  -->
<!DOCTYPE svg PUBLIC "-//W3C//DTD SVG 1.1//EN" "http://www.w3.org/Graphics/SVG/1.1/DTD/svg11.dtd">
<svg version="1.1" id="Layer_1" xmlns="http://www.w3.org/2000/svg" xmlns:xlink="http://www.w3.org/1999/xlink" x="0px" y="0px"
	 width="70px" height="70px" viewBox="0 0 70 70" enable-background="new 0 0 70 70" xml:space="preserve">
<path fill-rule="evenodd" clip-rule="evenodd" fill="#168DCD" d="M1.167,58.921c0.553-0.52,1.022-0.933,1.461-1.375
	c9.684-9.727,19.364-19.455,29.045-29.184c5.856-5.886,11.715-11.77,17.56-17.667c0.35-0.353,0.692-0.496,1.187-0.494
	c5.907,0.016,11.816,0.011,17.725,0.012c0.245,0,0.488,0,0.841,0c-0.483,1.206-0.938,2.331-1.384,3.459
	c-0.75,1.909-1.447,3.839-2.253,5.725c-1.274,2.983-2.445,6.01-3.599,9.036c-2.07,5.436-4.241,10.83-6.345,16.251
	c-1.212,3.125-2.554,6.198-3.73,9.337c-0.557,1.482-1.23,2.92-1.695,4.438c-0.105,0.347-0.262,0.541-0.702,0.54
	c-15.906-0.017-31.813-0.014-47.72-0.015C1.496,58.985,1.435,58.966,1.167,58.921z M46.177,29.528
	c-0.672,0.112-1.29-0.162-2.049-0.143c1.032-1.088,1.175-1.941,0.548-2.688c-0.555-0.658-1.584-0.784-2.276-0.272
	c-0.34,0.251-0.544,0.583-0.647,1.003c-0.207,0.821,0.314,1.342,0.852,1.941c-0.399,0.035-0.688,0.055-0.975,0.092
	c-0.305,0.04-0.602,0.164-0.922,0.066c0.609-1.229,0.563-1.881-0.166-2.412c-0.8-0.581-1.652-0.559-2.287,0.061
	c-0.688,0.671-0.657,1.439,0.1,2.543c-1.397,0.128-2.803,0.18-4.18,0.402c-2.308,0.374-3.759,2.154-3.685,4.358
	c0.056,1.652,1.327,2.912,2.86,2.84c1.318-0.062,2.714-1.244,2.492-2.969c-0.042-0.312,0.063-0.346,0.317-0.326
	c0.546,0.04,0.831,0.421,0.833,1.191c0.006,2.636,0.011,5.272,0,7.908c-0.006,1.401,0.196,2.762,0.771,4.047
	c1.093,2.44,3.076,3.496,5.661,3.485c2.558-0.009,4.509-1.081,5.59-3.49c0.565-1.263,0.778-2.604,0.785-3.978
	c0.014-2.636,0.005-5.272,0.004-7.908c0-0.341-0.019-0.687,0.224-0.972c0.192-0.226,0.456-0.338,0.73-0.276
	c0.347,0.077,0.154,0.379,0.141,0.568c-0.074,1.026,0.728,2.434,2.213,2.694c1.271,0.224,2.496-0.523,2.979-1.842
	c0.657-1.795-0.331-4.057-2.162-4.92c-0.92-0.433-1.9-0.561-2.91-0.591c-0.867-0.026-1.733-0.126-2.652-0.196
	c0.72-0.908,0.828-1.574,0.415-2.246c-0.504-0.821-1.574-1.055-2.381-0.518c-0.844,0.561-0.939,1.6-0.234,2.557L46.177,29.528z"/>
<path fill-rule="evenodd" clip-rule="evenodd" fill="#FFFFFF" d="M46.164,29.54c-0.705-0.957-0.609-1.996,0.234-2.557
	c0.807-0.537,1.877-0.304,2.381,0.518c0.413,0.672,0.305,1.338-0.415,2.246c0.919,0.07,1.785,0.17,2.652,0.196
	c1.01,0.03,1.99,0.158,2.91,0.591c1.831,0.863,2.819,3.125,2.162,4.92c-0.483,1.318-1.709,2.065-2.979,1.842
	c-1.485-0.261-2.287-1.668-2.213-2.694c0.014-0.189,0.206-0.491-0.141-0.568c-0.274-0.062-0.538,0.051-0.73,0.276
	c-0.242,0.285-0.224,0.631-0.224,0.972c0.001,2.636,0.01,5.272-0.004,7.908c-0.007,1.374-0.22,2.715-0.785,3.978
	c-1.081,2.409-3.032,3.481-5.59,3.49c-2.585,0.011-4.568-1.045-5.661-3.485c-0.574-1.285-0.776-2.646-0.771-4.047
	c0.011-2.636,0.006-5.272,0-7.908c-0.002-0.771-0.287-1.151-0.833-1.191c-0.254-0.02-0.359,0.015-0.317,0.326
	c0.222,1.725-1.174,2.907-2.492,2.969c-1.533,0.072-2.804-1.188-2.86-2.84c-0.074-2.204,1.377-3.984,3.685-4.358
	c1.377-0.223,2.783-0.274,4.18-0.402c-0.757-1.104-0.787-1.872-0.1-2.543c0.635-0.619,1.487-0.642,2.287-0.061
	c0.729,0.531,0.775,1.184,0.166,2.412c0.32,0.098,0.617-0.026,0.922-0.066c0.287-0.037,0.575-0.057,0.975-0.092
	c-0.537-0.6-1.059-1.12-0.852-1.941c0.104-0.42,0.308-0.752,0.647-1.003c0.692-0.512,1.722-0.386,2.276,0.272
	c0.627,0.746,0.484,1.6-0.548,2.688c0.759-0.02,1.377,0.255,2.049,0.145c0.002,0.031,0.006,0.062,0.009,0.096
	c0.004-0.012,0.016-0.025,0.012-0.033C46.189,29.575,46.176,29.558,46.164,29.54z M40.922,45.321
	c-0.614-1.192-1.521-1.935-2.695-2.374c-0.493-0.183-0.794-0.202-0.719,0.497c0.062,0.562,0.077,1.132,0.172,1.692
	c0.489,2.917,2.147,4.623,4.972,4.951c1.958,0.226,3.77-0.195,5.072-1.818c0.938-1.169,1.37-2.558,1.487-4.049
	c0.036-0.468,0.285-1.148-0.03-1.344c-0.354-0.221-0.925,0.17-1.367,0.402c-0.862,0.456-1.479,1.163-1.99,2.038
	c-0.296-0.739-0.633-1.359-1.174-1.831c-1.095-0.955-1.5-0.9-2.567,0.03C41.548,43.984,41.246,44.629,40.922,45.321z M40.419,43.692
	c0-3.13,0.027-6.104-0.008-9.077c-0.024-2.202-1.272-3.681-3.413-4.052c-1.194-0.209-2.399-0.139-3.557,0.288
	c-1.543,0.567-2.483,1.927-2.427,3.567c0.033,0.969,0.435,1.776,1.346,2.202c0.787,0.365,1.567,0.228,2.227-0.33
	c0.734-0.621,0.958-1.431,0.628-2.331c-0.156-0.426,0.042-0.461,0.347-0.494c1.233-0.137,1.948,0.492,1.954,1.753
	c0.011,2.156,0,4.312,0.008,6.471c0.001,0.221-0.133,0.526,0.249,0.604C38.744,42.492,39.57,42.979,40.419,43.692z M46.398,43.681
	c0.771-0.71,1.527-1.174,2.432-1.325c0.417-0.069,0.463-0.292,0.46-0.653c-0.016-2.18-0.009-4.36-0.006-6.541
	c0.002-1.229,0.664-1.818,1.896-1.701c0.352,0.033,0.498,0.117,0.372,0.546c-0.381,1.31,0.33,2.508,1.579,2.765
	c1.235,0.255,2.422-0.66,2.585-1.997c0.214-1.74-0.68-3.255-2.316-3.888c-1.24-0.479-2.524-0.527-3.815-0.278
	c-1.883,0.363-3.125,1.694-3.168,3.611C46.348,37.325,46.398,40.435,46.398,43.681z M48.169,30.445
	c-0.114-0.251-0.52,0.104-0.508-0.276c0.008-0.312-0.126-0.633,0.275-0.892c0.649-0.42,0.724-1.19,0.249-1.69
	c-0.462-0.489-1.252-0.477-1.7,0.027c-0.438,0.492-0.333,1.217,0.24,1.662c0.57,0.442,0.485,1.17-0.161,1.52
	c-1.731,0.938-2.747,2.427-2.864,4.351c-0.134,2.22-0.035,4.451-0.035,6.678c0,0.174-0.061,0.389,0.175,0.465
	c0.798,0.256,1.332,0.877,2.006,1.531c0-0.354,0-0.571,0-0.788c0-2.613,0.03-5.228-0.012-7.84
	C45.803,33.19,46.437,31.554,48.169,30.445z M40.946,43.859c0.604-0.657,1.062-1.215,1.745-1.46
	c0.375-0.135,0.455-0.325,0.452-0.692c-0.02-2.066,0.05-4.136-0.026-6.2c-0.079-2.069-1.049-3.674-2.886-4.699
	c-0.652-0.364-0.726-1.086-0.131-1.556c0.56-0.439,0.628-1.179,0.155-1.671c-0.449-0.469-1.184-0.473-1.646-0.008
	c-0.478,0.479-0.444,1.266,0.151,1.648c0.363,0.233,0.376,0.497,0.392,0.846c0.021,0.467-0.435,0.205-0.611,0.369
	c1.628,0.985,2.354,2.433,2.395,4.218c0.047,2.021,0.011,4.042,0.011,6.064C40.946,41.708,40.946,42.698,40.946,43.859z
	 M43.371,33.555c0.694-1.39,1.608-2.51,3.022-3.299c-0.788-0.19-1.456-0.317-2.139-0.31c-0.413,0.006-0.617-0.084-0.589-0.565
	c0.022-0.351,0.102-0.562,0.409-0.764c0.446-0.293,0.565-0.76,0.369-1.263c-0.197-0.502-0.59-0.73-1.128-0.7
	c-0.509,0.028-0.856,0.284-1.005,0.771c-0.158,0.517-0.02,0.993,0.445,1.241c0.492,0.26,0.332,0.658,0.312,1.004
	c-0.024,0.428-0.421,0.221-0.654,0.266c-0.331,0.066-0.674,0.079-1.011,0.124c-0.315,0.043-0.652,0.019-0.95,0.246
	C41.779,31.067,42.758,32.1,43.371,33.555z"/>
<path fill-rule="evenodd" clip-rule="evenodd" fill="#E51E25" d="M40.922,45.321c0.324-0.692,0.626-1.337,1.16-1.805
	c1.067-0.931,1.473-0.985,2.567-0.03c0.541,0.472,0.878,1.092,1.174,1.831c0.512-0.875,1.128-1.582,1.99-2.038
	c0.442-0.232,1.013-0.623,1.367-0.402c0.315,0.195,0.066,0.876,0.03,1.344c-0.117,1.491-0.549,2.88-1.487,4.049
	c-1.303,1.623-3.114,2.044-5.072,1.818c-2.824-0.328-4.482-2.034-4.972-4.951c-0.095-0.561-0.11-1.13-0.172-1.692
	c-0.075-0.699,0.226-0.68,0.719-0.497C39.401,43.387,40.308,44.129,40.922,45.321z"/>
<path fill-rule="evenodd" clip-rule="evenodd" fill="#E51E25" d="M40.419,43.692c-0.849-0.714-1.675-1.2-2.646-1.398
	c-0.382-0.078-0.248-0.384-0.249-0.604c-0.008-2.158,0.003-4.314-0.008-6.471c-0.006-1.261-0.721-1.89-1.954-1.753
	c-0.304,0.033-0.503,0.068-0.347,0.494c0.33,0.9,0.106,1.71-0.628,2.331c-0.66,0.558-1.439,0.695-2.227,0.33
	c-0.911-0.426-1.313-1.233-1.346-2.202c-0.056-1.641,0.884-3,2.427-3.567c1.158-0.427,2.363-0.497,3.557-0.288
	c2.141,0.371,3.389,1.85,3.413,4.052C40.446,37.589,40.419,40.562,40.419,43.692z"/>
<path fill-rule="evenodd" clip-rule="evenodd" fill="#E51E25" d="M46.398,43.681c0-3.246-0.051-6.355,0.019-9.462
	c0.043-1.917,1.285-3.248,3.168-3.611c1.291-0.249,2.575-0.2,3.815,0.278c1.637,0.633,2.53,2.147,2.316,3.888
	c-0.163,1.337-1.35,2.252-2.585,1.997c-1.249-0.257-1.96-1.455-1.579-2.765c0.126-0.429-0.021-0.513-0.372-0.546
	c-1.232-0.117-1.895,0.473-1.896,1.701c-0.003,2.181-0.01,4.361,0.006,6.541c0.003,0.361-0.043,0.584-0.46,0.653
	C47.926,42.507,47.169,42.971,46.398,43.681z"/>
<path fill-rule="evenodd" clip-rule="evenodd" fill="#E51E25" d="M48.169,30.445c-1.732,1.108-2.366,2.745-2.335,4.747
	c0.042,2.612,0.012,5.227,0.012,7.84c0,0.217,0,0.435,0,0.788c-0.674-0.654-1.208-1.275-2.006-1.531
	c-0.235-0.076-0.175-0.291-0.175-0.465c0-2.227-0.099-4.458,0.035-6.678c0.117-1.924,1.133-3.413,2.864-4.351
	c0.646-0.35,0.731-1.077,0.161-1.52c-0.573-0.445-0.679-1.17-0.24-1.662c0.448-0.504,1.238-0.517,1.7-0.027
	c0.475,0.5,0.4,1.271-0.249,1.69c-0.401,0.259-0.268,0.58-0.275,0.892C47.649,30.55,48.055,30.194,48.169,30.445z"/>
<path fill-rule="evenodd" clip-rule="evenodd" fill="#E51E25" d="M40.946,43.859c0-1.161,0-2.151,0-3.141
	c0-2.022,0.036-4.044-0.011-6.064c-0.041-1.785-0.767-3.232-2.395-4.218c0.177-0.164,0.633,0.098,0.611-0.369
	c-0.016-0.349-0.028-0.612-0.392-0.846c-0.596-0.383-0.629-1.169-0.151-1.648c0.463-0.465,1.197-0.461,1.646,0.008
	c0.473,0.492,0.404,1.231-0.155,1.671c-0.595,0.47-0.521,1.191,0.131,1.556c1.837,1.025,2.807,2.63,2.886,4.699
	c0.076,2.064,0.007,4.134,0.026,6.2c0.003,0.367-0.077,0.558-0.452,0.692C42.009,42.645,41.551,43.202,40.946,43.859z"/>
<path fill-rule="evenodd" clip-rule="evenodd" fill="#E51E25" d="M43.371,33.555c-0.613-1.455-1.592-2.487-2.918-3.248
	c0.298-0.228,0.635-0.203,0.95-0.246c0.337-0.045,0.68-0.058,1.011-0.124c0.233-0.045,0.63,0.162,0.654-0.266
	c0.021-0.346,0.181-0.744-0.312-1.004c-0.465-0.248-0.604-0.725-0.445-1.241c0.148-0.487,0.496-0.743,1.005-0.771
	c0.538-0.03,0.931,0.198,1.128,0.7c0.196,0.503,0.077,0.97-0.369,1.263c-0.308,0.202-0.387,0.413-0.409,0.764
	c-0.028,0.481,0.176,0.571,0.589,0.565c0.683-0.008,1.351,0.119,2.139,0.31C44.979,31.045,44.065,32.165,43.371,33.555z"/>
<path fill-rule="evenodd" clip-rule="evenodd" fill="#0E6BAC" d="M46.164,29.54c0.012,0.018,0.025,0.035,0.033,0.053
	c0.004,0.008-0.008,0.021-0.012,0.033c-0.003-0.033-0.007-0.064-0.009-0.096C46.177,29.528,46.164,29.54,46.164,29.54z"/>
</svg>
