<?xml version="1.0" encoding="utf-8"?>
<!-- Generator: Adobe Illustrator 16.0.0, SVG Export Plug-In . SVG Version: 6.00 Build 0)  -->
<!DOCTYPE svg PUBLIC "-//W3C//DTD SVG 1.1//EN" "http://www.w3.org/Graphics/SVG/1.1/DTD/svg11.dtd">
<svg version="1.1" id="Layer_1" xmlns="http://www.w3.org/2000/svg" xmlns:xlink="http://www.w3.org/1999/xlink" x="0px" y="0px"
	 width="70px" height="70px" viewBox="0 0 70 70" enable-background="new 0 0 70 70" xml:space="preserve">
<g>
	<path fill="#FBAB18" d="M34.945,0.855C16.156,0.855,2,16.146,2,34.936c0,18.786,14.156,33.958,32.945,33.958
		c18.79,0,32.946-15.172,32.946-33.958C67.891,16.146,53.734,0.855,34.945,0.855z M34.945,65.885
		C17.908,65.885,5.068,52.089,5.068,35c0-17.085,12.84-31.02,29.877-31.02C51.984,3.98,64.82,17.915,64.82,35
		C64.82,52.089,51.984,65.885,34.945,65.885z"/>
</g>
<path fill="#FBAB18" d="M33.016,29.147c0.964,0,16.601,0,16.601,0l-8.365,6.746l3.078,2.96l17.445-13.562l-25.778-0.003
	c-3.458,0-4.731,0.073-5.546,0.317c-0.784,0.236-1.804,0.731-2.353,1.933c-0.401,0.883-0.423,2.464,0.15,3.446
	c0.791,1.361,2.124,2.563,5.556,6.182c-3.394-2.086-12.45-8.014-12.45-8.014s2.013,0.002,2.517,0.002
	c0-0.965-0.004-3.864-0.004-3.864H7.882l47.055,30.604v-5.384L32.771,30.392C31.899,29.585,32.185,29.147,33.016,29.147z"/>
</svg>
