<?xml version="1.0" encoding="utf-8"?>
<!-- Generator: Adobe Illustrator 13.0.2, SVG Export Plug-In . SVG Version: 6.00 Build 14948)  -->
<!DOCTYPE svg PUBLIC "-//W3C//DTD SVG 1.1//EN" "http://www.w3.org/Graphics/SVG/1.1/DTD/svg11.dtd" [
	<!ENTITY ns_extend "http://ns.adobe.com/Extensibility/1.0/">
	<!ENTITY ns_ai "http://ns.adobe.com/AdobeIllustrator/10.0/">
	<!ENTITY ns_graphs "http://ns.adobe.com/Graphs/1.0/">
	<!ENTITY ns_vars "http://ns.adobe.com/Variables/1.0/">
	<!ENTITY ns_imrep "http://ns.adobe.com/ImageReplacement/1.0/">
	<!ENTITY ns_sfw "http://ns.adobe.com/SaveForWeb/1.0/">
	<!ENTITY ns_custom "http://ns.adobe.com/GenericCustomNamespace/1.0/">
	<!ENTITY ns_adobe_xpath "http://ns.adobe.com/XPath/1.0/">
]>
<svg version="1.1" id="Layer_1" xmlns:x="&ns_extend;" xmlns:i="&ns_ai;" xmlns:graph="&ns_graphs;"
	 xmlns="http://www.w3.org/2000/svg" xmlns:xlink="http://www.w3.org/1999/xlink" x="0px" y="0px" width="70px" height="70px"
	 viewBox="0 0 70 70" enable-background="new 0 0 70 70" xml:space="preserve">
<metadata>
	<sfw  xmlns="&ns_sfw;">
		<slices></slices>
		<sliceSourceBounds  x="0.5" y="-0.5" width="70" height="70" bottomLeftOrigin="true"></sliceSourceBounds>
	</sfw>
</metadata>
<rect fill="none" width="70" height="70"/>
<path fill="#1E3B6F" d="M68.36,30.671c-0.427-0.214-4.481-2.347-4.481-2.347s0.215-0.214,0.215-0.427s-0.427-0.64-0.854-0.64
	c-0.428,0-1.067,0.213-1.067,0.213l-0.427-0.213c0,0,1.066-0.853,2.133-1.494c1.067-0.853,2.988-2.133,3.842-3.2
	c0.853-1.067,0.213-1.493-0.642-1.707c-0.852-0.213-1.919-0.427-4.267,0.214c-2.346,0.64-4.906,2.559-5.545,2.986
	c-0.64,0.426-1.279,0.64-1.279,0.64s-0.215-0.64-0.854-0.64c-0.427,0-0.854,0.213-1.706,0.853c-0.854,0.64-1.494,0.213-1.921,0.213
	s-3.627-0.427-5.118-0.641c-1.494-0.212-1.921-0.212-2.349,0c-0.427,0.214-1.493,0.854-1.493,0.854l8.108,3.2
	c-0.854,0.64-2.349,1.706-2.988,1.706c-0.639,0-2.346-0.64-2.56-0.853c-0.213-0.213-0.428,0-0.428,0l-1.066,0.64l1.494,1.919
	c0,0-1.494-0.212-1.706-0.212c-0.213,0-0.428,0-0.428,0s-0.427,0.212-0.427,0.426c-0.213,0.213,0,0.213,0,0.427
	c0.215,0,3.627,1.067,3.627,1.067c-9.6,4.479-26.026,9.599-33.917,9.599c-1.494,0-5.76,0-5.76-4.479
	c0-4.693,5.76-10.026,5.76-10.026h-1.921c-7.894,6.4-9.6,11.094-9.6,13.014c0,1.919,1.279,4.692,8.106,4.692
	c13.014,0,38.825-12.373,38.825-12.373s1.494,0.427,1.921,0.641c0.426,0.214,0.64,0,0.853-0.213c0.215-0.213,0.215-0.427,0-0.64
	c-0.213-0.213-0.64-0.854-0.64-0.854s2.133-0.853,3.412-1.279c1.281-0.427,1.494-0.854,4.908-0.854c3.412,0,8.106,0.854,8.533,1.066
	c0.64,0.214,1.066,0.214,1.279,0c0.212-0.212,0.854-0.426,1.066-0.426C69,31.097,68.787,30.883,68.36,30.671z M51.934,29.391
	c-0.212,0.213-2.346,1.706-2.987,1.92c-0.64,0.427-1.918,0.853-2.558,0.213c-0.642-0.427-2.349-1.708-2.349-1.708l0.215-0.212h0.213
	l2.133,0.853c0.213,0,0.854,0.214,1.279,0c0.427-0.213,2.987-1.919,2.987-1.919s0.64,0.426,0.854,0.426
	C52.146,29.177,52.146,29.391,51.934,29.391z M53.213,26.617c0,0-0.425-0.212-0.212-0.853l1.066-0.853c0,0,0,0.64,0.427,1.066
	L53.213,26.617z M57.268,25.977l-1.707-0.213c0,0,2.985-2.133,4.906-3.2c1.921-1.067,4.055-1.28,4.693-1.28c0.64,0,0.853,0,0.853,0
	v0.213c0,0,0,0-0.64,0s-2.772,1.067-4.479,2.133C59.188,24.483,57.268,25.977,57.268,25.977z"/>
</svg>
