<?xml version="1.0" encoding="utf-8"?>
<!-- Generator: Adobe Illustrator 17.0.0, SVG Export Plug-In . SVG Version: 6.00 Build 0)  -->
<!DOCTYPE svg PUBLIC "-//W3C//DTD SVG 1.1//EN" "http://www.w3.org/Graphics/SVG/1.1/DTD/svg11.dtd">
<svg version="1.1" id="Layer_1" xmlns="http://www.w3.org/2000/svg" xmlns:xlink="http://www.w3.org/1999/xlink" x="0px" y="0px"
	 width="70px" height="70px" viewBox="0 0 70 70" enable-background="new 0 0 70 70" xml:space="preserve">
<rect fill="#FF0023" width="70" height="70"/>
<g id="Ernest_Face_Red">
	<g>
		<g>
			<path fill="#FFFFFF" d="M55.6,11.4c2.7,8.7,4.9,18,4,27.2c-5.4-2.8-11.6-3.2-17.3-1.9c-1.7-6.9-3.5-13.8-5.2-20.7
				c-0.6-2.4-4.2-1.1-3.6,1.3c1.7,6.9,3.5,13.7,5.2,20.6c-1.1,0.5-2.2,1.1-3.3,1.7c-2.3-1-4.6-1.6-7-1.8c0.3-0.9,0.9-1.6,1.9-2.1
				c0.9-0.5,1-1.9,0.5-2.6c-0.6-0.9-1.7-1-2.6-0.5c-2,1.1-3.3,3-3.7,5.2c-4.3,0.4-9.1,2-12.8,4.5c-2.4-8.8-1.8-18.7-0.6-27.7
				c6.8,1.5,14.3,0.3,21-1.1c8-1.6,15.6-3.2,23.1-2.3C55.2,11.3,55.6,11.4,55.6,11.4 M53.1,20.5c2.1,0.5,2.7-2.8,0.6-3.3
				c-4.1-1-8.4-0.2-12.2,1.3c-2,0.8-0.9,3.9,1.1,3.2C46,20.4,49.6,19.6,53.1,20.5 M27.4,23.1c2.1,0.5,2.7-2.8,0.6-3.3
				c-4.1-1-8.4-0.2-12.2,1.3c-2,0.8-0.9,3.9,1.1,3.2C20.2,22.9,23.9,22.1,27.4,23.1"/>
			<path fill="#FFFFFF" d="M38.7,42c5.4-3.1,13.2-3.3,17.5-0.9C50.6,43.1,44.6,43.4,38.7,42"/>
			<path fill="#FFFFFF" d="M15.9,44.4c5.2-3,11.3-4,17.1-1.8C27.5,44.8,21.6,45.5,15.9,44.4"/>
			<path fill="#FFFFFF" d="M41.6,46.6c0.5,2.1,3.6,16.4,3.9,18.4c0.7-0.2,1.3-0.5,2-0.8c-0.4-1.5-4.3-15.5-4.9-17.6
				c-0.1,0-0.3,0-0.4,0C42,46.6,41.8,46.6,41.6,46.6"/>
			<path fill="#FFFFFF" d="M38.5,46l2.4,20.2c0.8-0.2,1.7-0.4,2.5-0.6c-0.2-1.8-3.4-17.3-3.9-19.4C39.2,46.1,38.8,46.1,38.5,46"/>
			<path fill="#FFFFFF" d="M35.8,45.7c0,1.7-0.2,19.2-0.1,21.1c0.7,0,1.3,0,1.8-0.1c0.4,0,0.9-0.1,1.3-0.1l-2.1-20.8L35.8,45.7z"/>
			<path fill="#FFFFFF" d="M31.2,66.5c0.8,0.1,1.5,0.2,2.3,0.2c-0.1-1.4,0.3-19.7,0.3-20.5c-0.2,0.1-0.3,0.1-0.5,0.2
				c-0.2,0.1-0.3,0.1-0.5,0.2C32.8,47.3,31.3,65.3,31.2,66.5"/>
			<path fill="#FFFFFF" d="M26.9,65.7c0.8,0.2,1.5,0.4,2.2,0.5c0.1-1.2,1.7-18.1,1.7-18.9c-0.4,0.1-0.9,0.3-1.4,0.4
				C29.3,48.5,27,64.7,26.9,65.7"/>
			<path fill="#FFFFFF" d="M23,64.4c0.6,0.3,1.2,0.5,1.8,0.7c0.1-1.2,2.3-16.2,2.4-16.9c-0.5,0.1-0.9,0.2-1.4,0.2
				C25.7,49,23.1,63.4,23,64.4"/>
			<path fill="#FFFFFF" d="M19.2,62.6c0.5,0.3,1.1,0.6,1.7,0.9c0.2-1.2,2.5-14.3,2.6-14.9c-0.6,0-1.1,0.1-1.8,0.1
				C21.5,50.3,19.3,62.3,19.2,62.6"/>
			<path fill="#FFFFFF" d="M15.4,60c0.6,0.5,1.2,0.9,1.9,1.4c0.1-0.3,2.1-11.2,2.4-12.7c-0.4,0-0.8,0-1.2-0.1
				C18.3,49.3,15.5,59.4,15.4,60"/>
			<path fill="#FFFFFF" d="M11.9,56.8c0.6,0.6,1.1,1.1,1.6,1.6l0,0c0.1-0.3,2.5-9,2.8-10.1c-0.5-0.1-1-0.2-1.5-0.3
				C14.8,48.2,12,56.1,11.9,56.8"/>
			<path fill="#FFFFFF" d="M7.2,19.7C5.7,22.3,4.7,25.1,4,28c0.8-1.5,2.5-4,2.7-4.4c0.1-0.7,0.2-1.8,0.3-2.8
				C7.1,20.4,7.1,20,7.2,19.7"/>
			<path fill="#FFFFFF" d="M3.3,33.4c0,0.8,0,2.4,0,3.5c0.7-1.5,3-5.8,3.4-6.6c0-1,0-2.2,0-3.3C6.3,27.7,3.4,33,3.3,33.4"/>
			<path fill="#FFFFFF" d="M8.3,52.3c0.6,0.9,1.2,1.7,1.8,2.5l0,0c0-0.1,2.4-6.7,2.6-7.3c-0.5-0.1-1.6-0.7-2.2-1.3c0,0,0,0-0.1,0
				C10.5,46.3,8.7,51.1,8.3,52.3"/>
			<path fill="#FFFFFF" d="M5.6,47.1C6,48,6.4,48.9,6.9,49.8c0.2-0.5,1.7-4.6,1.9-5.1c-0.3-0.9-0.5-1.8-0.7-2.7
				C7.5,43.1,5.7,47,5.6,47.1"/>
			<path fill="#FFFFFF" d="M3.8,41.1c0.2,1.1,0.5,2.1,0.8,3.1c0.9-1.9,1.9-3.8,2.9-5.4C7.3,37.5,7.1,36,7,34.4
				C6,36.3,4,40.6,3.8,41.1"/>
			<path fill="#FFFFFF" d="M63.4,34.3c1.4,1.6,2.3,2.9,3.1,4.1c0.1-0.9,0.2-2.3,0.2-3.1c-0.1-0.1-2.6-3.1-3.5-4
				C63.3,32.3,63.4,33.4,63.4,34.3"/>
			<path fill="#FFFFFF" d="M63.1,27.5c0.3,0.4,3.3,4.2,3.8,4.8c0-0.8-0.3-2.1-0.5-2.9c-0.2-0.3-2.7-3.5-3.7-4.8
				c0.1,0.8,0.2,1.3,0.3,2.2C63,27,63.1,27.2,63.1,27.5"/>
			<path fill="#FFFFFF" d="M62.6,40.7c0.1,0.2,2.3,3.4,2.7,4c0.3-1,0.6-2,0.8-3.1c-0.4-0.6-2.2-3.1-2.9-4.1
				C63,38.5,63,39.1,62.6,40.7"/>
			<path fill="#FFFFFF" d="M60.1,43.4c0.2,0.5,2.7,5.4,3.1,6.3c0.4-0.8,0.8-1.5,1.1-2.3c-0.3-0.5-2.3-4.1-2.9-5.1
				C61,42.8,60.3,43.3,60.1,43.4"/>
			<path fill="#FFFFFF" d="M61.9,20.3l0.2,0.2c1,1.3,2.4,2.9,3.4,4.3c-1.1-2.7-3-6-4.5-8.2c0,0.2,0.1,0.4,0.2,0.5
				C61.4,18.2,61.7,19.4,61.9,20.3"/>
			<path fill="#FFFFFF" d="M56.4,44.9c0.2,0.5,3.2,7.9,3.8,9.4c0.6-0.8,1.1-1.5,1.6-2.3c-0.1-0.2-3.3-6.9-3.7-7.7
				C57.6,44.5,57,44.7,56.4,44.9"/>
			<path fill="#FFFFFF" d="M52.7,46c0.2,0.7,4,11.1,4.2,12c0.6-0.5,1.1-1.1,1.7-1.7l0,0c0-0.1-3.8-9.5-4.2-10.6
				C53.8,45.7,53.2,45.9,52.7,46"/>
			<path fill="#FFFFFF" d="M48.7,46.6c0.6,1.8,4,12.8,4.5,14.4c0.7-0.5,1.3-1,1.9-1.5c-0.2-0.7-4.4-12.6-4.6-13.1
				C49.9,46.5,49.3,46.6,48.7,46.6"/>
			<path fill="#FFFFFF" d="M44.7,46.8c0,0,4.5,15.5,4.8,16.5c0.6-0.3,1.1-0.6,1.8-1c-0.3-1.1-4.8-15.5-4.8-15.5
				C45.9,46.8,45.3,46.8,44.7,46.8"/>
			<path fill="#FFFFFF" d="M17.8,8.3C22.5,9,26,8.5,29.3,8.1C29.8,8,30.4,8,30.9,7.9c0.9-0.1,1.9-0.2,2.8-0.4
				c2.3-0.3,4.5-0.6,6.5-0.6c3.9-0.1,6.9,0.4,8.5,0.6l0,0c-1.9-0.7-6.5-2.1-13.6-1.3c-0.7,0.1-1.5,0.2-2.4,0.3
				c-3.3,0.4-7.4,1-10.3,0.8c-0.5,0-2.1-0.1-2.9-0.2C19.1,7.5,18.4,7.9,17.8,8.3"/>
			<path fill="#FFFFFF" d="M35,3.2c-0.8,0-1.7,0-2.5,0.1c-3.1,0.2-6.1,0.9-9,2.1c2.7,0,5.2-0.4,7.8-0.8h0.1c3.1-0.4,6.4-0.9,10-0.8
				C39.3,3.5,37.2,3.2,35,3.2"/>
			<path fill="#FFFFFF" d="M13.5,11.6c6.4,1.1,12.9-0.3,19.2-1.6L33,9.9c1.2-0.2,2.4-0.5,3.7-0.7c-2,0.2-3.9,0.4-5.6,0.6
				c-3.4,0.4-6.9,0.9-10.9,0.8c-1.7-0.1-3.4-0.2-5-0.5C14.7,10.6,14.1,11.1,13.5,11.6"/>
		</g>
	</g>
</g>
</svg>
