<?xml version="1.0" encoding="utf-8"?>
<!-- Generator: Adobe Illustrator 13.0.2, SVG Export Plug-In . SVG Version: 6.00 Build 14948)  -->
<!DOCTYPE svg PUBLIC "-//W3C//DTD SVG 1.1//EN" "http://www.w3.org/Graphics/SVG/1.1/DTD/svg11.dtd" [
	<!ENTITY ns_extend "http://ns.adobe.com/Extensibility/1.0/">
	<!ENTITY ns_ai "http://ns.adobe.com/AdobeIllustrator/10.0/">
	<!ENTITY ns_graphs "http://ns.adobe.com/Graphs/1.0/">
	<!ENTITY ns_vars "http://ns.adobe.com/Variables/1.0/">
	<!ENTITY ns_imrep "http://ns.adobe.com/ImageReplacement/1.0/">
	<!ENTITY ns_sfw "http://ns.adobe.com/SaveForWeb/1.0/">
	<!ENTITY ns_custom "http://ns.adobe.com/GenericCustomNamespace/1.0/">
	<!ENTITY ns_adobe_xpath "http://ns.adobe.com/XPath/1.0/">
]>
<svg version="1.1" id="Layer_1" xmlns:x="&ns_extend;" xmlns:i="&ns_ai;" xmlns:graph="&ns_graphs;"
	 xmlns="http://www.w3.org/2000/svg" xmlns:xlink="http://www.w3.org/1999/xlink" x="0px" y="0px" width="70px" height="70px"
	 viewBox="0 0 70 70" enable-background="new 0 0 70 70" xml:space="preserve">
<metadata>
	<sfw  xmlns="&ns_sfw;">
		<slices></slices>
		<sliceSourceBounds  x="0.5" y="-0.5" width="70" height="70" bottomLeftOrigin="true"></sliceSourceBounds>
	</sfw>
</metadata>
<rect fill="none" width="70" height="70"/>
<path fill="#62BB46" d="M35.3,8.2c-1.5,1.7-1.1-0.5-2.2,0.5c-1,0.9-3.9,3.5-5.8,7.6C24.4,22.8,26.2,33.1,32,37
	c-0.2,1-1.1,3.5-1.7,4.1c-2.3-5-4.3-9.899-8.9-12.5c-0.8-0.5-2.6-0.8-2.6-0.8c-1.3-0.2-3.8-0.5-6.3,0.4c-1.2,0.4,0.3,0.9-0.7,1.2
	c-1.2,0.6-0.4,0.1-1.8,1c-1,0.6-2.2,1.9-2.4,4.3c0,0.3,0,2.2,0,2.2c-6.7,2-8.2,9.8-7.2,11.899c1.1,2.3,1.8,2.4,2.9,2.9
	C4.5,52.2,1.8,52.6,4.7,53.1c3.3,0.4,5.9-0.1,7.8-0.5C15.2,51.9,22,49.4,28.3,44.2c-3.4,6.8-9.5,13-13.5,15.8
	c0.3,1.6-1.3,2.4-1.2,4.4c0,0.5-0.7,1.5-0.9,2c-0.2,0.199,0.1,0.699,0.6,0.3c7.4-6,14.6-13.5,18.8-22.601c9,12.9,17,13,20.5,13.4
	c2.9,0.3,4.7-0.3,5.601-0.5c3.3-0.8,5.7-2,7.2-3c1.399-0.9-0.7-1,0.5-1.8C66.6,51.8,67.6,50.5,68.3,49.1c0.7-1.5,1.3-5.399-2-9.1
	c1.601-0.7,3.3-3.1,3.5-5.7c0.101-1.6-0.2-3.6-3.2-5.2c0,0-0.899-0.6-1.399-0.6c-3.9-0.6,0-1.9-3.5-1.5c-0.5,0-0.2,0-1.601,0.2
	c-6.6,0.7-8.699,2.5-14.3,5.7c-5.2,3-10,7.1-12.2,8.4c0.9-1.5,1.3-3,1.3-3c0.7-1.399,5.5-4.1,7.9-5.5c2.5-1.6,12.9-6.8,15.8-14.3
	c0.5-1.2,0.9-2.6,1.101-3.9c0.3-2.7-1-0.8-1.101-1.7C58.4,12,58.5,11.5,58,10.3c-2.2-5-10.1-4.2-12.9-1.5
	C43.8,4.9,37.5,5.9,35.3,8.2L35.3,8.2z"/>
<rect fill="none" width="70" height="70"/>
</svg>
