<?xml version="1.0" encoding="utf-8"?>
<!-- Generator: Adobe Illustrator 16.0.0, SVG Export Plug-In . SVG Version: 6.00 Build 0)  -->
<!DOCTYPE svg PUBLIC "-//W3C//DTD SVG 1.1//EN" "http://www.w3.org/Graphics/SVG/1.1/DTD/svg11.dtd">
<svg version="1.1" id="Layer_1" xmlns="http://www.w3.org/2000/svg" xmlns:xlink="http://www.w3.org/1999/xlink" x="0px" y="0px"
	 width="70px" height="70px" viewBox="0 0 70 70" enable-background="new 0 0 70 70" xml:space="preserve">
<path fill-rule="evenodd" clip-rule="evenodd" fill="#8C2062" d="M51.894,39.22c-0.064,0.21-0.151,0.408-0.296,0.576
	c-0.105,0.033-0.122,0.137-0.169,0.215c-0.491,0.615-1.158,0.881-1.918,0.96c-0.424-0.024-0.847-0.023-1.272-0.001
	c-0.565-0.007-1.115-0.109-1.659-0.261c-0.221-0.062-0.309-0.194-0.234-0.419c0.006-0.021,0.015-0.045,0.021-0.066
	c0.07-0.295,0.051-0.723,0.234-0.846c0.177-0.119,0.564,0.081,0.859,0.141c0.275,0.174,0.593,0.041,0.88,0.122
	c0.243,0,0.484,0,0.728,0c0.118-0.065,0.261,0.019,0.374-0.063c0.933-0.396,1.054-1.182,0.989-2.058
	c-0.113-0.056-0.17,0.089-0.271,0.077c-0.564,0.436-1.222,0.456-1.893,0.436c-0.174-0.006-0.344-0.078-0.521-0.027
	c-0.976-0.234-1.524-0.871-1.704-1.837c-0.154-0.837-0.183-1.682-0.006-2.519c0.231-1.088,0.909-1.74,1.995-1.971
	c0.525,0,1.05-0.034,1.575-0.033c0.845,0,1.628,0.236,2.391,0.565l-0.004-0.003c0.092,0.125,0.066,0.271,0.066,0.41
	c0.001,1.704,0.005,3.408-0.003,5.113c-0.001,0.361-0.01,0.725-0.131,1.076C51.881,38.937,51.828,39.077,51.894,39.22z"/>
<path fill-rule="evenodd" clip-rule="evenodd" fill="#8C2063" d="M32.589,35.33c0.04,0.052,0.067,0.234,0.142,0.026
	c0.068-0.192,0.107-0.396,0.16-0.594c0.149-0.121,0.173-0.276,0.117-0.451c0.156-0.826,0.36-1.641,0.585-2.45
	c0.134-0.107,0.292-0.058,0.441-0.07c0.369,0.027,0.745-0.058,1.111,0.05c0.057,0.129,0.045,0.258,0,0.387
	c-0.211,0.783-0.388,1.578-0.717,2.324c-0.13,0.326-0.239,0.658-0.268,1.013c0.009,0.019,0.006,0.034-0.009,0.047
	c-0.09,0.11-0.081,0.256-0.139,0.378c-0.126,0.268-0.181,0.557-0.267,0.837c-0.125,0.292-0.182,0.606-0.305,0.899
	c-0.084,0.201-0.187,0.312-0.415,0.295c-0.386-0.031-0.778,0.06-1.158-0.064c-0.34-1.146-0.679-2.293-1.024-3.438
	c-0.013-0.046,0.032-0.287-0.151-0.092c-0.3,0.448-0.324,0.988-0.479,1.483c-0.202,0.646-0.386,1.299-0.561,1.954
	c-0.015,0.138-0.117,0.147-0.222,0.153c-0.463-0.027-0.931,0.073-1.39-0.061c-0.446-1.385-0.881-2.771-1.253-4.178
	c-0.054-0.188-0.064-0.384-0.089-0.576c-0.021-0.148-0.074-0.262-0.192-0.35c-0.018-0.01-0.022-0.023-0.013-0.043
	c-0.019-0.219,0.146-0.194,0.28-0.209c0.111-0.044,0.154-0.117,0.145-0.244c-0.046-0.564-0.042-0.564,0.529-0.564
	c0.035,0,0.07,0,0.105,0c0.274-0.006,0.384,0.143,0.446,0.399c0.081,0.331,0.163,0.657,0.169,0.997
	c0.029,0.296,0.222,0.526,0.313,0.798c0.123,0.471,0.247,0.941,0.37,1.412c0.048,0.044,0.006,0.114,0.046,0.161
	c-0.019-0.112,0.063-0.197,0.081-0.299c0.31-1.039,0.618-2.078,0.927-3.115c0.144-0.22,0.416,0.041,0.565-0.151
	c0.046,0,0.091,0,0.137,0c0.18,0.117,0.383,0.09,0.576,0.071c0.198-0.02,0.295,0.061,0.381,0.23
	c0.204,0.399,0.311,0.826,0.417,1.258c0.122,0.492,0.297,0.971,0.47,1.447C32.494,35.113,32.51,35.235,32.589,35.33z"/>
<path fill-rule="evenodd" clip-rule="evenodd" fill="#8C2063" d="M6.449,30.367c-0.011,0.027-0.021,0.055-0.032,0.082
	c-0.159,0.245-0.422,0.269-0.674,0.315c-1.013,0-2.024-0.004-3.036,0.001c-0.093,0.021-0.086,0.097-0.086,0.166
	c0,0.574,0,1.148,0,1.722c0,0.07-0.004,0.145,0.09,0.164c1.01,0.005,2.02-0.004,3.03,0.005c0.278,0.149,0.388,0.347,0.328,0.69
	c-0.139,0.786-0.118,0.791-0.922,0.79c-0.699-0.001-1.397,0.003-2.095,0.001C3.972,34.3,4.893,34.312,5.815,34.3
	c0.06-0.002,0.116-0.001,0.164,0.041c-0.086,0.127-0.214,0.061-0.32,0.062c-1,0.009-1.998,0.009-2.998,0.013
	c-0.066,0.738-0.07,1.477,0.002,2.215c0.096,0.058,0.203,0.045,0.308,0.045c1.065,0.001,2.13,0.002,3.194,0.002
	c0.248,0,0.361,0.072,0.328,0.355c-0.028,0.247-0.146,0.47-0.155,0.716c-0.002,0.055-0.004,0.108-0.022,0.161
	c-0.07,0.129-0.207,0.039-0.301,0.088c0.077-0.022,0.153-0.01,0.231-0.005c0.02,0.014,0.03,0.03,0.029,0.05
	c0,0.021-0.004,0.029-0.008,0.029c-1.745,0-3.488,0-5.233,0c0.077-0.17,0.229-0.08,0.339-0.081c1.395-0.007,2.791-0.005,4.103-0.005
	c0.129-0.023,0.061-0.087,0.088-0.049c0.009,0.014,0,0.018-0.024,0.025c-0.125,0.044-0.255,0.02-0.381,0.02
	c-1.286,0.003-2.571,0.004-3.857,0C1.176,37.98,0.993,38.05,0.994,37.81c0-2.58,0-5.158-0.001-7.738c-0.001,2.555,0,5.111,0,7.666
	c-0.014,0.108,0.037,0.224-0.035,0.327c-0.112-0.079-0.056-0.195-0.056-0.292c-0.004-2.701,0-5.403-0.009-8.105
	c-0.001-0.269,0.055-0.359,0.345-0.356c1.663,0.015,3.327,0.006,4.99,0.011c0.109,0,0.237-0.06,0.327,0.06
	c-0.057,0.051-0.126,0.034-0.192,0.038c-1.752-0.002-3.505,0.004-5.255-0.004c-0.01,0.002-0.021,0.002-0.032,0.005
	c-0.062,0.018-0.088,0.056-0.073,0.12c-0.003-0.041,0.004-0.078,0.043-0.102c0.041-0.024,0.087-0.016,0.132-0.018
	c1.719,0,3.437,0,5.154,0c0.193-0.015,0.3,0.027,0.201,0.256C6.437,29.896,6.424,30.131,6.449,30.367z"/>
<path fill-rule="evenodd" clip-rule="evenodd" fill="#8C2063" d="M25.101,32.431c0.242,0.207,0.388,0.475,0.47,0.779
	c-0.051,0.178-0.003,0.353,0.042,0.52c0.182,0.672,0.124,1.352,0.086,2.029c-0.017,0.129,0.015,0.262-0.034,0.387
	c-0.088,0.9-0.717,1.676-1.621,1.918c-1.019,0.271-2.039,0.246-3.042-0.111c-0.084-0.03-0.176-0.054-0.232-0.135
	c-0.025-0.266-0.206-0.344-0.438-0.355c-0.481-0.424-0.633-1.001-0.715-1.6c-0.123-0.891-0.123-1.782,0.17-2.646
	c0.215-0.637,0.615-1.115,1.26-1.357c0.666-0.232,1.357-0.238,2.046-0.202c0.441,0.022,0.885,0.071,1.295,0.266
	c0.14,0.076,0.279,0.152,0.42,0.229C24.894,32.257,25.02,32.32,25.101,32.431z"/>
<path fill-rule="evenodd" clip-rule="evenodd" fill="#8C2063" d="M11.92,35.375c0.003-1.124,0.005-2.247,0.008-3.372
	c0.092-0.156,0.222-0.222,0.408-0.214c0.27,0.011,0.541,0,0.812,0.003c0.373,0.004,0.406,0.035,0.407,0.401
	c0.002,0.964,0.001,1.929,0,2.894c0,0.846-0.007,1.693,0.004,2.539c0.003,0.27-0.076,0.39-0.363,0.361
	c-0.233-0.022-0.47-0.005-0.649-0.004c0.323,0.041,0.706-0.057,1.083,0.039c-0.479,0.139-0.968,0.062-1.449,0.043
	c-0.191-0.006-0.092-0.25-0.116-0.389c-0.034-0.195-0.079-0.365-0.291-0.116c-0.082,0.097-0.197,0.161-0.264,0.271
	c-0.208,0.177-0.458,0.255-0.718,0.312c-0.619,0.039-1.232,0.014-1.841-0.109c-0.855-0.325-1.227-1.005-1.247-1.861
	c-0.034-1.442-0.009-2.887-0.01-4.33c0-0.049,0.007-0.092,0.059-0.113c0.311,0.127,0.636,0.035,0.953,0.061
	c0.148,0.012,0.299-0.009,0.448,0.016c0.2,0.07,0.154,0.244,0.154,0.389c0.003,1.152,0.002,2.305,0.002,3.457
	c0,0.153-0.006,0.307,0.037,0.455c0.036,0.065,0.017,0.164,0.114,0.194c0.357,0.989,1.643,0.854,2.163,0.225
	c0.13-0.05,0.108-0.187,0.16-0.28l-0.001,0.002c0.098-0.098,0.106-0.225,0.113-0.352C11.905,35.722,11.868,35.546,11.92,35.375z"/>
<path fill-rule="evenodd" clip-rule="evenodd" fill="#8C2063" d="M53.478,37.96c-0.229,0.016-0.337-0.058-0.229-0.301
	c0.024-0.053,0.022-0.115,0.036-0.174c0.206-0.879,0.206-0.879,1.117-0.604c0.024,0.028,0.052,0.055,0.081,0.078
	c0.547,0.108,1.1,0.085,1.648,0.052c0.188-0.01,0.433-0.045,0.521-0.291c0.307-0.613,0.115-1-0.557-1.123
	c-0.193-0.035-0.384-0.072-0.578-0.109c-0.175-0.132-0.389,0.011-0.57-0.081c-0.455-0.035-0.888-0.136-1.264-0.413
	c-0.145-0.127-0.184-0.346-0.379-0.43c-0.56-1.002-0.168-2.23,0.88-2.646c1.228-0.484,2.481-0.426,3.735-0.083
	c0.146,0.04,0.19,0.11,0.151,0.25c-0.047,0.17-0.09,0.341-0.134,0.511c-0.125,0.504-0.125,0.504-0.66,0.336
	c0.038-0.076-0.027-0.082-0.071-0.105c-0.355-0.071-0.726,0.002-1.076-0.136c-0.145-0.057-0.319,0.161-0.432,0.077
	c-0.262-0.195-0.425,0.089-0.642,0.082c-0.087-0.004-0.17,0.076-0.222,0.158c-0.275,0.202-0.326,0.621-0.104,0.867
	c0.071,0.076,0.146,0.15,0.231,0.21c0.039,0.04,0.041,0.156,0.143,0.065c0.116-0.02,0.237,0.09,0.35-0.012
	c0.561,0.07,1.129,0.098,1.676,0.221c0.709,0.158,1.146,0.621,1.236,1.366c0.055,0.197,0.016,0.399,0.027,0.598
	c-0.11,0.228-0.118,0.484-0.218,0.719c-0.101,0.233-0.25,0.407-0.465,0.532c-0.199,0.142-0.401,0.277-0.624,0.382
	c-0.631,0.263-1.3,0.245-1.962,0.271c-0.466-0.037-0.933-0.058-1.389-0.166C53.643,38.036,53.562,37.997,53.478,37.96z"/>
<path fill-rule="evenodd" clip-rule="evenodd" fill="#8C2063" d="M42.227,32.755c-0.48-0.012-0.878,0.166-1.194,0.527
	c-0.309,0.282-0.28,0.666-0.307,1.033c0.015,1.146,0.019,2.291-0.001,3.436c-0.076,0.201-0.238,0.238-0.428,0.233
	c-0.147-0.005-0.296-0.001-0.443,0.009c-0.046,0.014,0.032,0.053,0.004,0.014c0.23-0.059,0.468,0.014,0.698-0.043
	c0.063-0.011,0.12-0.001,0.175,0.037c0.025,0.041,0.021,0.078-0.012,0.112c-0.562,0.095-1.121,0.038-1.68-0.026
	c-0.021-0.042-0.01-0.074,0.031-0.096c0.104-0.004,0.207-0.017,0.313,0c-0.116-0.031-0.271,0.047-0.342-0.116
	c-0.038-0.103-0.033-0.209-0.033-0.313c-0.002-1.771-0.002-3.543,0-5.315c0-0.105-0.003-0.212,0.031-0.313
	c0.312-0.276,1.164-0.287,1.481-0.02c0.074,0.082,0.057,0.213,0.157,0.279c0.163-0.014,0.255-0.161,0.397-0.213
	c0.702-0.379,1.469-0.427,2.228-0.33c0.49,0.062,0.919,0.346,1.234,0.754c0.252,0.359,0.23,0.543-0.088,0.766
	c-0.121,0.001-0.157-0.083-0.164-0.117c0.275,0.465,0.152,1.041,0.162,1.599c0.016,0.872,0.005,1.745,0.004,2.617
	c-0.001,0.165,0.012,0.331-0.042,0.491c-0.294,0.356-0.876,0.346-1.117-0.022c-0.024-1.269,0.004-2.536-0.015-3.803
	c-0.08-0.231-0.138-0.471-0.21-0.706c-0.072-0.077-0.145-0.154-0.219-0.232c-0.058-0.058-0.144-0.076-0.204-0.134
	c-0.029-0.024-0.059-0.048-0.088-0.072C42.457,32.689,42.337,32.768,42.227,32.755z"/>
<path fill-rule="evenodd" clip-rule="evenodd" fill="#8B2062" d="M16.034,31.718c0.067,0.018,0.133,0.035,0.2,0.052
	c0.152,0.058,0.135,0.193,0.161,0.317c0.024,0.119,0.062,0.242,0.157,0.333c0.657-0.798,1.508-0.931,2.461-0.725
	c0.15,0.278,0.014,0.556,0,0.833c0.012,0.017,0.009,0.029-0.008,0.039c-0.171,0.113-0.101,0.275-0.087,0.426
	c-0.005,0.152-0.097,0.111-0.194,0.098c-0.273-0.035-0.549-0.061-0.823-0.09c-0.136,0.08-0.315-0.047-0.44,0.09
	c-0.296,0.137-0.585,0.283-0.717,0.612c-0.235,0.185-0.031,0.46-0.139,0.671c0.008,1.176,0.014,2.351,0.025,3.525
	c0.001,0.168-0.083,0.189-0.221,0.189c-0.47-0.005-0.94-0.006-1.411,0c-0.143,0.001-0.219-0.039-0.218-0.195
	c0.003-2.035,0.005-4.07,0.008-6.105c0-0.018,0.027-0.034,0.042-0.051C15.233,31.79,15.634,31.823,16.034,31.718z"/>
<path fill-rule="evenodd" clip-rule="evenodd" fill="#8C2063" d="M36.279,31.719c0.518-0.03,1.034-0.028,1.553,0
	c0.064,0.144,0.034,0.291,0.023,0.438c-0.048,0.624-0.016,1.249-0.021,1.873c-0.009,1.309,0.01,2.616-0.011,3.925
	c0.02,0.038,0.021,0.077,0.005,0.116l0.008,0.029c-0.025,0-0.049,0-0.074,0c-0.421-0.006-0.844-0.005-1.265-0.018
	c-0.092-0.004-0.211,0.068-0.278-0.064c0.376-0.093,0.765,0.021,1.038-0.037c-0.278-0.016-0.659,0.038-1.041-0.031
	c0-0.025-0.001-0.051-0.001-0.076c0.049-0.126,0.025-0.256,0.025-0.385c0.002-1.797,0-3.594,0.003-5.392
	C36.245,31.972,36.209,31.839,36.279,31.719z"/>
<path fill-rule="evenodd" clip-rule="evenodd" fill="#C2C2C2" d="M65.722,29.321c0.438-0.063,0.855-0.289,1.312-0.207
	c0.577,0.104,1.134,0.277,1.745,0.515c-1.151,0.356-2.231,0.7-3.318,1.022c-0.776,0.232-1.537,0.509-2.333,0.674
	c-0.222,0.047-0.441,0.054-0.664,0.037c-0.02-0.032-0.017-0.062,0.009-0.091c0.23-0.101,0.49-0.122,0.709-0.253
	c0.189-0.064,0.317-0.22,0.477-0.328c0.044-0.02,0.09-0.032,0.138-0.039c0.153-0.01,0.238-0.113,0.315-0.229
	c0.035-0.053,0.068-0.107,0.119-0.148c0.025-0.018,0.056-0.029,0.086-0.039c0.202-0.064,0.429-0.094,0.488-0.354
	c0.036-0.113,0.112-0.195,0.209-0.261c0.095-0.058,0.176-0.134,0.256-0.209c0.051-0.042,0.105-0.072,0.168-0.089
	C65.531,29.301,65.628,29.298,65.722,29.321z"/>
<path fill-rule="evenodd" clip-rule="evenodd" fill="#AF206D" d="M65.438,29.383c-0.041,0.026-0.083,0.052-0.125,0.077
	c-0.094,0.044-0.19,0.078-0.278,0.133c-0.092,0.057-0.192,0.086-0.299,0.092c-0.152,0.004-0.308-0.004-0.437,0.101
	c-0.259,0.069-0.572-0.005-0.741,0.293c-0.636,0.341-1.345,0.474-2.023,0.696c-0.069,0.022-0.161,0.016-0.189-0.053
	c-0.046-0.107,0.105-0.141,0.119-0.234c0.407-0.344,0.812-0.689,1.219-1.033c0.089-0.169,0.239-0.262,0.411-0.326
	c0.227-0.043,0.422-0.189,0.662-0.185c0.305,0.022,0.554-0.116,0.793-0.276c0.504-0.223,1.058-0.306,1.551-0.556
	c0.151-0.022,0.306-0.036,0.438-0.126c0.063-0.026,0.128-0.062,0.196-0.008c0.095,0.17-0.052,0.246-0.138,0.345
	c-0.087,0.112-0.239,0.159-0.305,0.297c-0.192,0.185-0.381,0.368-0.571,0.552C65.671,29.301,65.552,29.339,65.438,29.383z"/>
<path fill-rule="evenodd" clip-rule="evenodd" fill="#81D2E3" d="M57.846,27.606c0.374-0.376,0.831-0.648,1.23-0.991
	c0.098-0.083,0.188-0.175,0.28-0.263c0.045-0.086,0.145-0.096,0.21-0.15c0.119-0.094,0.236-0.186,0.354-0.279
	c0.035-0.041,0.079-0.065,0.133-0.072c0.199,0.01,0.297-0.17,0.449-0.24c0.122-0.057,0.224-0.18,0.382-0.142
	c0.068,0.095,0.18,0.095,0.267,0.11c-0.073-0.041-0.199-0.004-0.262-0.108c-0.026-0.056-0.015-0.104,0.025-0.146
	c0.052-0.032,0.106-0.041,0.167-0.043c0.276-0.001,0.554-0.005,0.829,0.003c0.038,0.003,0.073,0.013,0.106,0.031
	c0.052,0.029,0.063,0.077,0.056,0.129c0.007,0.004-0.026,0.021,0.002,0.02c0.021-0.002,0.038-0.021,0.062-0.029
	c0.26,0.008,0.29,0.139,0.188,0.341c-0.33,0.284-0.659,0.569-0.988,0.854c-0.053,0.054-0.079,0.128-0.137,0.178
	c-0.081,0.074-0.162,0.152-0.283,0.154c-0.129,0.006-0.258,0.037-0.39,0.028c-0.082-0.005-0.164-0.026-0.223-0.083
	c-0.153-0.141-0.268-0.17-0.339,0.076c-0.033,0.114-0.145,0.141-0.252,0.149c-0.127,0.01-0.252,0.019-0.358,0.101
	c-0.308,0.062-0.591,0.219-0.915,0.207c-0.127-0.005-0.205,0.102-0.298,0.172c-0.028,0.023-0.062,0.04-0.096,0.052
	C57.969,27.679,57.898,27.676,57.846,27.606z"/>
<path fill-rule="evenodd" clip-rule="evenodd" fill="#8D2062" d="M66.712,27.97c-0.047,0.023-0.094,0.047-0.141,0.07
	c-0.139,0.058-0.316-0.002-0.425,0.142c-0.397,0.19-0.808,0.343-1.241,0.433c-0.11,0.023-0.231,0.039-0.316,0.133
	c-0.285,0.086-0.558,0.215-0.85,0.283c-0.232-0.047-0.398,0.219-0.638,0.142c-0.034-0.167,0.113-0.212,0.201-0.292
	c0.39-0.344,0.843-0.613,1.188-1.012c0.335-0.176,0.597-0.467,0.959-0.598c0.041-0.011,0.082-0.021,0.123-0.032
	c0.078-0.04-0.034,0.154,0.112,0.079c0.168-0.086,0.335,0.068,0.508,0.08c0.024,0.043,0.061-0.051,0.031-0.014
	c-0.01,0.012-0.015,0.003-0.028-0.01c-0.142-0.127-0.08-0.203,0.067-0.242c0.101-0.027,0.238-0.052,0.311-0.002
	c0.27,0.188,0.566,0.059,0.845,0.105c0.187,0.073,0.261,0.17,0.059,0.311c-0.169,0.118-0.223,0.356-0.443,0.417
	C66.927,27.985,66.819,28.001,66.712,27.97z"/>
<path fill-rule="evenodd" clip-rule="evenodd" fill="#AE206D" d="M64.387,27.054c-0.011,0.074-0.036,0.137-0.123,0.146
	c-0.278,0.165-0.631,0.227-0.782,0.567c-0.312,0.209-0.715,0.221-1.009,0.471c-0.235,0.223-0.563,0.189-0.835,0.309
	c-0.152,0.018-0.314-0.012-0.439,0.113c-0.173,0.107-0.355,0.184-0.562,0.182c-0.157-0.014-0.295,0.053-0.44,0.096
	c-0.103,0.031-0.219,0.045-0.285-0.062c-0.077-0.129,0.06-0.181,0.123-0.252c0.074-0.082,0.232-0.075,0.232-0.231
	c0.142-0.123,0.282-0.245,0.422-0.367c0.071-0.077,0.122-0.17,0.199-0.243c0.112-0.086,0.222-0.178,0.365-0.211
	c0.096-0.002,0.194,0.003,0.287-0.026c0.723-0.21,1.453-0.396,2.16-0.653c0.102-0.036,0.199-0.07,0.308-0.074
	C64.187,26.812,64.398,26.755,64.387,27.054z"/>
<path fill-rule="evenodd" clip-rule="evenodd" fill="#8B2062" d="M36.607,30.735c-0.386-0.105-0.543-0.316-0.549-0.735
	c-0.007-0.438,0.163-0.72,0.518-0.817c0.435-0.121,0.857-0.098,1.255,0.143c0.053,0.111,0.167,0.195,0.153,0.336
	c-0.053,0.18,0.073,0.354-0.022,0.548c-0.195,0.399-0.39,0.554-0.831,0.552C36.956,30.761,36.778,30.792,36.607,30.735z"/>
<path fill-rule="evenodd" clip-rule="evenodd" fill="#C3C1C2" d="M64.532,27.904c-0.278,0.419-0.729,0.643-1.091,0.968
	c-0.112,0.101-0.227,0.199-0.34,0.3c-0.14,0.094-0.279,0.188-0.419,0.282c-0.29-0.035-0.545,0.106-0.814,0.17
	c-0.413,0.096-0.822,0.148-1.243,0.11c0.11-0.266,0.429-0.13,0.586-0.305c0.027-0.017,0.059-0.03,0.09-0.042
	c0.152-0.053,0.285-0.14,0.396-0.26c0.054-0.059,0.12-0.104,0.188-0.146c0.124-0.063,0.219-0.166,0.323-0.254
	c0.06-0.045,0.114-0.095,0.158-0.154c0.048-0.059,0.102-0.111,0.163-0.154c0.127-0.086,0.256-0.164,0.388-0.244
	c0.172-0.157,0.353-0.303,0.571-0.391c0.056-0.036,0.111-0.065,0.177-0.027c0.405,0.006,0.741-0.254,1.136-0.284
	c0.101,0.108,0.099,0.107,0.062,0.167C64.783,27.769,64.617,27.786,64.532,27.904z"/>
<path fill-rule="evenodd" clip-rule="evenodd" fill="#8D2062" d="M61.464,30.487c0.032,0.086-0.052,0.141-0.068,0.25
	c0.714-0.273,1.449-0.414,2.132-0.716c0.211-0.192,0.472-0.228,0.742-0.229c0.133-0.113,0.319-0.103,0.463-0.193
	c0.102,0.01,0.192-0.025,0.281-0.072c0.059,0.023,0.095,0.059,0.065,0.127c-0.071,0.07-0.142,0.14-0.213,0.209
	c-0.062,0.104-0.144,0.186-0.263,0.221c-0.162,0.023-0.296,0.098-0.407,0.216c-0.044,0.062-0.102,0.114-0.126,0.19
	c-0.089,0.084-0.151,0.199-0.283,0.23c-0.029,0.006-0.06,0.013-0.091,0.02c-0.179,0.075-0.394,0.104-0.455,0.338
	c-0.228,0.155-0.477,0.236-0.755,0.228c-0.158,0.043-0.319,0.036-0.479-0.001c-0.036-0.005-0.072-0.01-0.108-0.015
	c-0.092-0.116-0.243-0.075-0.358-0.134c-0.174-0.082-0.348-0.164-0.582-0.275C61.152,30.729,61.308,30.608,61.464,30.487z"/>
<path fill-rule="evenodd" clip-rule="evenodd" fill="#8D2062" d="M64.022,26.907c-0.704,0.211-1.415,0.405-2.112,0.642
	c-0.15,0.052-0.29,0.046-0.436,0.068c-0.039-0.04-0.049-0.091-0.04-0.146c0.205-0.379,0.546-0.598,0.919-0.779
	c0.152-0.013,0.255-0.097,0.324-0.227c0.035-0.057,0.092-0.088,0.146-0.116c0.138-0.051,0.257-0.149,0.41-0.153
	c0.462-0.094,0.924-0.08,1.386-0.003c0.138-0.003,0.276-0.007,0.4,0.069c0.088,0.119,0.074,0.234-0.008,0.349
	c-0.127,0.12-0.242,0.257-0.422,0.304C64.402,26.849,64.214,26.731,64.022,26.907z"/>
<path fill-rule="evenodd" clip-rule="evenodd" fill="#8A2064" d="M44.555,32.359c0.071,0.093,0.144,0.188,0.216,0.281
	c0.023,0.095,0.046,0.188,0.069,0.284c-0.02,0.128-0.029,0.254,0.085,0.349c0.057,0.063,0.053,0.14,0.042,0.216
	c-0.048,1.364-0.009,2.729-0.021,4.094c-0.001,0.164,0.003,0.329-0.038,0.49c-0.519,0-1.036,0-1.553-0.002
	c-0.078-0.088-0.082-0.177,0.003-0.264c0.329,0.184,0.658,0.037,0.987,0c0.165-0.121,0.169-0.302,0.17-0.479
	c0.005-1.213-0.001-2.428,0.006-3.642c0.001-0.187-0.122-0.362-0.035-0.552c0.183-0.235,0.187-0.471,0-0.706
	C44.468,32.365,44.489,32.343,44.555,32.359z"/>
<path fill-rule="evenodd" clip-rule="evenodd" fill="#33B1D1" d="M60.562,26.91c0.115-0.003,0.23-0.006,0.347-0.009
	c-0.002,0.264-0.27,0.301-0.394,0.463c-0.149,0.094-0.284,0.209-0.427,0.314c-0.119,0.098-0.216,0.221-0.354,0.295
	c-0.386,0.223-0.8,0.289-1.237,0.219c-0.265-0.021-0.498-0.124-0.711-0.28c-0.032-0.046-0.044-0.096-0.027-0.15
	c0.064-0.141,0.222-0.077,0.318-0.146l-0.001,0.001c0.318-0.249,0.731-0.2,1.087-0.342c0.125-0.05,0.257-0.099,0.388-0.142
	C59.904,27.126,60.207,26.903,60.562,26.91z"/>
<path fill-rule="evenodd" clip-rule="evenodd" fill="#C3C2C2" d="M60.478,27.319c0.144-0.139,0.289-0.277,0.432-0.418
	c0.124,0.025,0.149-0.145,0.264-0.135c0.062-0.08,0.163-0.027,0.233-0.07c0.484-0.073,0.926-0.312,1.418-0.347
	c-0.028,0.039-0.054,0.077-0.081,0.117c-0.118,0.106-0.216,0.237-0.377,0.286c-0.325,0.206-0.646,0.416-0.893,0.719
	c-0.053,0.076-0.135,0.111-0.22,0.139c-0.114,0.073-0.229,0.146-0.342,0.218c-0.101,0.099-0.234,0.103-0.358,0.136
	c-0.26,0.068-0.519,0.135-0.778,0.202c-0.085-0.091-0.067-0.185-0.004-0.278c0.075-0.115,0.176-0.203,0.296-0.27
	C60.232,27.558,60.366,27.456,60.478,27.319z"/>
<path fill-rule="evenodd" clip-rule="evenodd" fill="#7A205B" d="M51.894,39.22c-0.206-0.178-0.056-0.386,0-0.545
	c0.077-0.219,0.096-0.43,0.096-0.652c0.001-1.938,0.003-3.877,0.004-5.814c0.173-0.01,0.142,0.117,0.142,0.217
	c0,1.812,0.01,3.625-0.01,5.438C52.121,38.321,52.06,38.783,51.894,39.22z"/>
<path fill-rule="evenodd" clip-rule="evenodd" fill="#8B2064" d="M59.607,29.464c-0.111-0.051-0.225-0.096-0.331-0.153
	c-0.089-0.048-0.065-0.099,0.013-0.14c0.4-0.176,0.838-0.224,1.251-0.352c0.176,0.007,0.35-0.018,0.525-0.018
	c0.115,0,0.242,0.007,0.302,0.135c0.057,0.121,0.012,0.229-0.073,0.32c-0.096,0.104-0.211,0.148-0.35,0.102
	c-0.107-0.037-0.19-0.143-0.317-0.113c-0.049-0.021-0.03,0.049-0.024,0.002c0.001-0.009,0.012-0.005,0.036,0.002
	c0.14,0.045,0.246,0.125,0.301,0.266c-0.284,0.202-0.594,0.189-0.9,0.079C59.897,29.542,59.751,29.509,59.607,29.464z"/>
<path fill-rule="evenodd" clip-rule="evenodd" fill="#841E5D" d="M13.63,38.022c-0.485,0-0.971,0-1.456,0
	c0-0.025,0.001-0.049,0.001-0.073c0.342,0,0.684-0.009,1.025,0.003c0.211,0.008,0.289-0.063,0.288-0.281
	c-0.007-1.847-0.006-3.693-0.001-5.54c0-0.192-0.058-0.292-0.261-0.269c-0.433,0.046-0.889-0.121-1.299,0.141
	c-0.066-0.23,0.015-0.316,0.259-0.305c0.354,0.018,0.708,0.004,1.062,0.004c0.423,0,0.423,0,0.389,0.446
	c-0.064,0.054-0.047,0.129-0.047,0.197c-0.001,1.756-0.001,3.512,0,5.267c0,0.068-0.017,0.144,0.045,0.199
	C13.663,37.882,13.666,37.953,13.63,38.022z"/>
<path fill-rule="evenodd" clip-rule="evenodd" fill="#812158" d="M9.377,36.251c-0.212-0.049-0.135-0.222-0.136-0.346
	c-0.005-1.233-0.001-2.467-0.006-3.701c0-0.123,0.078-0.298-0.138-0.342c-0.042-0.049-0.042-0.096,0-0.144
	c0.222-0.013,0.299,0.089,0.297,0.312c-0.009,1.301-0.006,2.604-0.007,3.904C9.418,36.042,9.44,36.147,9.377,36.251z"/>
<path fill-rule="evenodd" clip-rule="evenodd" fill="#821E5C" d="M32.452,35.049c-0.232-0.282-0.229-0.655-0.379-0.972
	c-0.269-0.564-0.244-1.23-0.598-1.776c-0.083-0.129-0.125-0.195-0.281-0.173c-0.207,0.031-0.424,0.063-0.583-0.134
	c1.004-0.089,1.008-0.089,1.273,0.839c0.196,0.687,0.383,1.377,0.573,2.064C32.493,34.949,32.496,35,32.452,35.049z"/>
<path fill-rule="evenodd" clip-rule="evenodd" fill="#831E5C" d="M51.997,32.211c-0.218-0.04-0.424-0.124-0.635-0.188
	c-0.611-0.186-1.23-0.351-1.884-0.305c-0.443,0.031-0.891-0.036-1.335,0.034c-0.032,0.005-0.073-0.047-0.112-0.073
	c1.34-0.275,2.633-0.117,3.885,0.424C51.952,32.118,51.972,32.174,51.997,32.211z"/>
<path fill-rule="evenodd" clip-rule="evenodd" fill="#811F5F" d="M5.979,34.341c-1.034,0-2.067,0-3.1,0
	c0-0.023-0.001-0.049-0.001-0.072c0.745,0,1.489,0,2.233,0c0.808,0,0.948-0.156,0.912-0.984c-0.008-0.191-0.257-0.223-0.252-0.414
	c0.157-0.088,0.317-0.062,0.477-0.016C6.228,33.362,6.076,33.847,5.979,34.341z"/>
<path fill-rule="evenodd" clip-rule="evenodd" fill="#861F5E" d="M54.82,32.993c0.063-0.168,0.175-0.258,0.362-0.254
	c0.092,0.002,0.202-0.012,0.146-0.154c-0.021-0.053-0.079-0.104,0.005-0.139c0.067-0.027,0.157-0.018,0.176,0.062
	c0.075,0.295,0.223,0.236,0.41,0.105c0.051-0.035,0.151-0.062,0.196-0.037c0.334,0.195,0.7,0.113,1.052,0.139
	c0.087,0.006,0.118,0.062,0.132,0.137c-0.172,0.06-0.345,0.044-0.518,0.008c-0.572,0.01-1.148-0.057-1.719,0.07
	c-0.062,0.014-0.102,0.043-0.149,0.072C54.879,33.03,54.847,33.026,54.82,32.993z"/>
<path fill-rule="evenodd" clip-rule="evenodd" fill="#871F5E" d="M6.266,37.808c-0.071-0.302,0.168-0.543,0.162-0.843
	c-0.003-0.198-0.117-0.274-0.213-0.208c-0.283,0.195-0.531-0.023-0.793-0.018c-0.801,0.018-1.601,0.008-2.402,0.004
	c-0.123,0-0.262,0.049-0.365-0.07c-0.02-0.02-0.026-0.037-0.019-0.053c0.008-0.017,0.016-0.024,0.023-0.024
	c0.023,0.009,0.047,0.019,0.072,0.027c1.161,0.04,2.324,0.007,3.486,0.017c0.398,0.004,0.398,0.002,0.339,0.423
	c-0.001,0.257-0.085,0.497-0.144,0.743C6.365,37.849,6.315,37.849,6.266,37.808z"/>
<path fill-rule="evenodd" clip-rule="evenodd" fill="#7E2259" d="M29.625,37.809c0.113-0.421,0.243-0.84,0.337-1.265
	c0.104-0.467,0.332-0.902,0.366-1.385c0.021-0.292,0.216-0.505,0.309-0.762c0-0.002,0.022-0.001,0.032,0.003
	c0.01,0.005,0.017,0.017,0.025,0.025c-0.3,1.138-0.608,2.274-0.974,3.394C29.684,37.85,29.652,37.846,29.625,37.809z"/>
<path fill-rule="evenodd" clip-rule="evenodd" fill="#871F5F" d="M24.39,31.922c-0.27-0.03-0.557-0.014-0.801-0.108
	c-0.16-0.062-0.306-0.091-0.466-0.092c-0.399-0.004-0.799,0.016-1.197-0.006c-0.307-0.018-0.562,0.242-0.877,0.143
	c0.741-0.35,1.524-0.328,2.31-0.254c0.241,0.021,0.493,0.018,0.722,0.121C24.191,31.776,24.345,31.765,24.39,31.922z"/>
<path fill-rule="evenodd" clip-rule="evenodd" fill="#892060" d="M67.42,27.261c-0.154,0.035-0.36-0.098-0.448,0.156
	c-0.017,0.054-0.054,0.014-0.084-0.033c-0.184-0.279-0.444-0.18-0.741-0.176c0.124,0.182,0.291,0.07,0.401,0.2
	c-0.229,0.103-0.469,0.128-0.648-0.007c-0.108-0.08-0.358,0.141-0.327-0.163c0.518-0.362,1.068-0.153,1.609-0.095
	c0.081,0.01,0.159,0.038,0.238,0.058c0.016,0.013,0.021,0.026,0.016,0.04C67.431,27.255,67.425,27.261,67.42,27.261z"/>
<path fill-rule="evenodd" clip-rule="evenodd" fill="#81235F" d="M40.802,38.008c-0.017,0.011-0.035,0.02-0.055,0.024l-0.021-0.021
	c-0.096-0.131-0.02-0.274-0.021-0.41c-0.008-0.982-0.006-1.967-0.003-2.95c0.001-0.13-0.023-0.255-0.039-0.384
	c-0.078-0.312,0.118-0.576,0.15-0.87c0.016-0.132,0.127-0.113,0.218-0.114c-0.165,0.294-0.226,0.615-0.228,0.946
	C40.8,35.487,40.802,36.747,40.802,38.008z"/>
<path fill-rule="evenodd" clip-rule="evenodd" fill="#892060" d="M27.5,31.862c-0.046,0-0.092,0-0.139,0
	c-0.474,0-0.479,0.012-0.318,0.474c0.077,0.223-0.088,0.302-0.25,0.376c-0.12-0.126-0.081-0.285-0.095-0.434
	c-0.009-0.102,0.024-0.238-0.108-0.268c-0.125-0.027-0.121,0.115-0.164,0.191c-0.024,0.041-0.05,0.077-0.104,0.078
	c-0.192-0.578-0.192-0.58,0.403-0.578c0.258,0,0.517,0.01,0.775,0.016C27.542,31.765,27.542,31.813,27.5,31.862z"/>
<path fill-rule="evenodd" clip-rule="evenodd" fill="#7D1E5B" d="M13.636,37.812c-0.116-0.088-0.078-0.215-0.079-0.327
	c-0.002-1.671-0.002-3.342,0-5.013c0-0.111-0.044-0.24,0.081-0.323C13.667,34.036,13.671,35.923,13.636,37.812z"/>
<path fill-rule="evenodd" clip-rule="evenodd" fill="#802259" d="M31.869,37.956c0.382-0.002,0.764-0.007,1.146-0.006
	c0.148,0.002,0.239-0.02,0.313-0.191c0.114-0.264,0.253-0.514,0.291-0.803c0.01-0.072,0.009-0.143,0.107-0.143
	c0.05,0.056,0.033,0.117,0.013,0.177c-0.079,0.303-0.152,0.606-0.239,0.908c-0.022,0.081-0.037,0.188-0.169,0.187
	c-0.455-0.004-0.911-0.002-1.367-0.005C31.888,38.079,31.879,38.014,31.869,37.956z"/>
<path fill-rule="evenodd" clip-rule="evenodd" fill="#F9E7F1" d="M43.068,33.228c0.157,0.178,0.155,0.414,0.224,0.624
	c0.06,0.575,0.023,1.151,0.022,1.728c-0.001,0.835,0.032,1.671-0.019,2.506c-0.077-0.004-0.133-0.021-0.125-0.123
	c0.093-1.302,0.014-2.606,0.044-3.909C43.222,33.765,43.028,33.519,43.068,33.228z"/>
<path fill-rule="evenodd" clip-rule="evenodd" fill="#8E2063" d="M26.321,32.28c0.016-0.055,0.046-0.109,0.044-0.163
	c-0.006-0.167,0.035-0.264,0.231-0.257c0.219,0.007,0.195,0.153,0.196,0.293c0.001,0.186,0,0.371,0,0.559
	c-0.114-0.016-0.248-0.086-0.295,0.098C26.438,32.634,26.38,32.456,26.321,32.28z"/>
<path fill-rule="evenodd" clip-rule="evenodd" fill="#80215E" d="M1.027,37.808c0.046,0.217,0.221,0.138,0.345,0.139
	c1.297,0.006,2.595,0.003,3.893,0.003c0.116,0,0.231,0,0.348,0c0,0.019,0.001,0.038,0.002,0.058
	c-0.093,0.004-0.186,0.012-0.279,0.012c-1.309,0.001-2.618,0-3.927,0.003c-0.126,0.001-0.262-0.04-0.376,0.05
	c-0.025-0.002-0.051-0.004-0.076-0.007c0.002-0.085,0.005-0.171,0.008-0.256C0.985,37.776,1.006,37.776,1.027,37.808z"/>
<path fill-rule="evenodd" clip-rule="evenodd" fill="#871E5C" d="M56.652,36.72c0,0.326-0.286,0.354-0.479,0.366
	c-0.522,0.038-1.049,0.013-1.575,0.015c-0.103,0-0.188-0.02-0.201-0.143c0.134-0.074,0.28-0.013,0.419-0.039
	c0.407,0.008,0.816,0.029,1.225,0.015C56.257,36.927,56.476,36.87,56.652,36.72z"/>
<path fill-rule="evenodd" clip-rule="evenodd" fill="#7D235D" d="M25.66,35.756c0-0.407-0.02-0.816,0.005-1.222
	c0.021-0.313-0.096-0.591-0.14-0.885c-0.022-0.141-0.054-0.303,0.045-0.439c0.212,0.686,0.267,1.391,0.233,2.105
	c-0.007,0.15,0.017,0.307-0.065,0.446C25.711,35.79,25.684,35.79,25.66,35.756z"/>
<path fill-rule="evenodd" clip-rule="evenodd" fill="#58344B" d="M44.908,38.073c0.001-1.463,0.002-2.925,0.004-4.387
	c0-0.072,0.002-0.141,0.055-0.197c0.005,1.484,0.011,2.969,0.015,4.455C44.981,37.997,44.995,38.065,44.908,38.073z"/>
<path fill-rule="evenodd" clip-rule="evenodd" fill="#81295C" d="M27.5,31.862c0-0.049,0-0.097,0-0.145
	c0.344-0.092,0.512,0.027,0.565,0.395c0.067,0.463,0.192,0.918,0.292,1.376c-0.169,0.029-0.207-0.122-0.29-0.211
	c-0.005-0.386,0.026-0.774-0.144-1.144C27.834,31.942,27.714,31.84,27.5,31.862z"/>
<path fill-rule="evenodd" clip-rule="evenodd" fill="#5B334D" d="M6.556,37.062c0.039-0.298-0.07-0.404-0.39-0.397
	c-1.02,0.021-2.041,0.01-3.061,0.006c-0.126,0-0.26,0.039-0.375-0.048c1.311,0,2.622,0,3.948,0
	C6.646,36.782,6.657,36.937,6.556,37.062z"/>
<path fill-rule="evenodd" clip-rule="evenodd" fill="#A3216B" d="M60.554,28.889c-0.43,0.057-0.815,0.313-1.265,0.282
	c0.326-0.26,0.651-0.52,0.977-0.78c0.091,0.081,0.106,0.173-0.025,0.2c-0.141,0.031-0.209,0.123-0.317,0.238
	c0.277,0.14,0.47-0.166,0.703-0.081C60.669,28.829,60.592,28.85,60.554,28.889z"/>
<path fill-rule="evenodd" clip-rule="evenodd" fill="#841D59" d="M47.746,38.005c0.369-0.16,0.748,0.025,1.132-0.039
	c0.425-0.07,0.843-0.09,1.177-0.406c0.034-0.034,0.109-0.025,0.165-0.036c0.047,0.082-0.029,0.103-0.07,0.14
	C49.411,38.223,48.59,38.196,47.746,38.005z"/>
<path fill-rule="evenodd" clip-rule="evenodd" fill="#642F54" d="M43.296,38.085c-0.001-1.41-0.003-2.822-0.004-4.233
	c0.107,0.108,0.06,0.245,0.061,0.368c0.005,1.195,0.004,2.392,0.006,3.588c-0.002,0.088-0.002,0.177-0.003,0.264
	C43.336,38.083,43.316,38.087,43.296,38.085z"/>
<path fill-rule="evenodd" clip-rule="evenodd" fill="#8A2E65" d="M2.65,30.733c1.064-0.003,2.128-0.007,3.192-0.01
	c0.169-0.047,0.338-0.123,0.503,0.01C6.238,30.849,6.1,30.789,5.979,30.79c-1.107,0.01-2.214,0.013-3.321,0.018
	c-0.021-0.014-0.028-0.029-0.024-0.047C2.638,30.743,2.644,30.733,2.65,30.733z"/>
<path fill-rule="evenodd" clip-rule="evenodd" fill="#8F316C" d="M6.248,32.854c-0.159,0.004-0.318,0.01-0.477,0.016
	c-1.042-0.01-2.084-0.018-3.126-0.027c-0.018-0.023-0.015-0.045,0.011-0.062c1.085,0.068,2.172,0.01,3.257,0.032
	C6.023,32.815,6.146,32.766,6.248,32.854z"/>
<path fill-rule="evenodd" clip-rule="evenodd" fill="#7E255B" d="M54.82,32.993c0.03,0.002,0.062,0.006,0.093,0.01
	c-0.436,0.342-0.268,0.957,0.24,1.055c0.103,0.02,0.202,0.053,0.302,0.08c-0.086,0.198-0.23,0.062-0.351,0.061
	c-0.039-0.041-0.108-0.018-0.142-0.07c-0.408-0.245-0.508-0.455-0.421-0.872C54.573,33.103,54.664,33.013,54.82,32.993z"/>
<path fill-rule="evenodd" clip-rule="evenodd" fill="#782D59" d="M36.607,30.735c0.276-0.058,0.564,0.066,0.846-0.104
	c0.409-0.246,0.491-0.362,0.423-0.849c-0.008-0.067,0.058-0.095,0.108-0.122c0.139,0.26,0.043,0.516-0.014,0.771
	C37.592,30.88,37.113,30.867,36.607,30.735z"/>
<path fill-rule="evenodd" clip-rule="evenodd" fill="#7F225E" d="M28.043,37.956c0.48-0.002,0.96-0.004,1.439-0.006
	c0.05,0.068,0.15-0.002,0.198,0.072c-0.522,0.137-1.05,0.042-1.577,0.045C28.084,38.068,28.064,37.995,28.043,37.956z"/>
<path fill-rule="evenodd" clip-rule="evenodd" fill="#842762" d="M59.607,29.464c0.359-0.068,0.67,0.221,1.035,0.135
	c0.105-0.023,0.242,0.027,0.266-0.143c0.122-0.092,0.244-0.098,0.363,0.004c-0.152,0.242-0.444,0.152-0.646,0.274
	C60.263,29.73,59.907,29.698,59.607,29.464z"/>
<path fill-rule="evenodd" clip-rule="evenodd" fill="#841F5E" d="M9.097,31.719c0,0.048,0,0.095,0,0.144
	c-0.397,0.002-0.794-0.009-1.189,0.014c-0.144,0.009-0.159-0.039-0.156-0.146C8.2,31.678,8.648,31.696,9.097,31.719z"/>
<path fill-rule="evenodd" clip-rule="evenodd" fill="#B4C7CA" d="M59.771,27.888c0.001,0.092,0.003,0.186,0.004,0.278
	c-0.425,0.073-0.849,0.163-1.277,0.026C58.958,28.239,59.358,28.038,59.771,27.888z"/>
<path fill-rule="evenodd" clip-rule="evenodd" fill="#852460" d="M67.42,27.261c0-0.02,0-0.039,0-0.06
	c0.096,0.021,0.192,0.041,0.287,0.062c0.056,0.072,0.046,0.144-0.002,0.215c-0.221,0.211-0.442,0.422-0.702,0.586
	c-0.048-0.053-0.052-0.107-0.007-0.165c0.285-0.036,0.238-0.429,0.52-0.485C67.561,27.405,67.439,27.323,67.42,27.261z"/>
<path fill-rule="evenodd" clip-rule="evenodd" fill="#742B58" d="M57.652,37.526c0.338-0.171,0.507-0.459,0.564-0.82
	c0.019-0.12,0.048-0.229,0.135-0.316c0.057,0.049,0.043,0.104,0.016,0.162c-0.046,0.473-0.231,0.863-0.66,1.11
	C57.599,37.653,57.607,37.597,57.652,37.526z"/>
<path fill-rule="evenodd" clip-rule="evenodd" fill="#A4216A" d="M63.665,27.757c-0.046,0.021-0.093,0.041-0.14,0.061
	c-0.033-0.01-0.057-0.031-0.071-0.062c0.078-0.465,0.481-0.457,0.81-0.556C64.106,27.431,63.769,27.468,63.665,27.757z"/>
<path fill-rule="evenodd" clip-rule="evenodd" fill="#D2BAC9" d="M64.532,27.904c-0.091-0.058-0.088-0.076,0.02-0.118
	c0.133-0.051,0.312-0.097,0.249-0.313c0.213-0.075,0.409-0.207,0.648-0.202C65.154,27.496,64.893,27.772,64.532,27.904z"/>
<path fill-rule="evenodd" clip-rule="evenodd" fill="#831F5F" d="M35.143,31.862c-0.377,0-0.754,0-1.131,0
	c-0.042-0.049-0.041-0.097,0-0.144c0.378-0.001,0.755-0.001,1.132-0.002C35.187,31.766,35.182,31.814,35.143,31.862z"/>
<path fill-rule="evenodd" clip-rule="evenodd" fill="#822059" d="M8.95,38.034c0.039-0.071,0.113-0.106,0.175-0.076
	c0.487,0.229,1.003,0.097,1.506,0.134c0.054,0.005,0.107,0.034,0.16,0.052c-0.083,0.009-0.167,0.018-0.25,0.026
	c-0.322,0.042-0.645,0.045-0.967-0.002C9.354,38.181,9.146,38.139,8.95,38.034z"/>
<path fill-rule="evenodd" clip-rule="evenodd" fill="#5B334D" d="M2.659,36.596c-0.001,0.025-0.002,0.051-0.004,0.077
	c-0.106-0.092-0.069-0.217-0.07-0.328c-0.003-0.537-0.004-1.072,0.001-1.607c0.001-0.11-0.045-0.237,0.074-0.322
	C2.66,35.142,2.659,35.868,2.659,36.596z"/>
<path fill-rule="evenodd" clip-rule="evenodd" fill="#892060" d="M26.509,32.853c0.201-0.023,0.301,0.047,0.286,0.268
	c-0.016,0.219-0.004,0.438-0.005,0.658C26.652,33.483,26.567,33.172,26.509,32.853z"/>
<path fill-rule="evenodd" clip-rule="evenodd" fill="#5A334E" d="M2.655,32.78c-0.005,0.021-0.009,0.042-0.011,0.062
	c-0.132-0.541-0.033-1.091-0.056-1.637c-0.006-0.156-0.063-0.329,0.062-0.473c0.002,0.025,0.005,0.051,0.008,0.074
	C2.657,31.466,2.656,32.122,2.655,32.78z"/>
<path fill-rule="evenodd" clip-rule="evenodd" fill="#821F5E" d="M16.034,31.718c-0.114,0.24-0.342,0.082-0.509,0.123
	c-0.185,0.045-0.399-0.045-0.607,0.037c-0.107,0.041-0.072-0.084-0.088-0.141C15.23,31.667,15.633,31.702,16.034,31.718z"/>
<path fill-rule="evenodd" clip-rule="evenodd" fill="#86D3E1" d="M60.908,25.359c0,0.044,0,0.088,0,0.132l0,0
	c-0.327,0.058-0.494,0.438-0.856,0.422c-0.031-0.079,0.038-0.1,0.078-0.138c0.236-0.144,0.472-0.286,0.707-0.431
	C60.867,25.319,60.892,25.322,60.908,25.359z"/>
<path fill-rule="evenodd" clip-rule="evenodd" fill="#F8EDF5" d="M53.478,37.96c0.549,0.089,1.099,0.176,1.647,0.266
	c-0.48,0.039-0.95-0.02-1.418-0.129C53.61,38.073,53.525,38.053,53.478,37.96z"/>
<path fill-rule="evenodd" clip-rule="evenodd" fill="#7C2E5C" d="M64.62,26.193c-0.462,0.001-0.923,0.002-1.386,0.003
	C63.696,25.986,64.158,26.047,64.62,26.193z"/>
<path fill-rule="evenodd" clip-rule="evenodd" fill="#8AD4E2" d="M62.04,25.491c0-0.046,0-0.092,0-0.138
	c0.043-0.046,0.091-0.04,0.143-0.015c0.171,0.031,0.342,0.061,0.535,0.096c-0.085,0.187-0.257,0.244-0.393,0.341
	C62.354,25.558,62.262,25.46,62.04,25.491L62.04,25.491z"/>
<path fill-rule="evenodd" clip-rule="evenodd" fill="#7F285F" d="M33.739,36.99c-0.004-0.059-0.009-0.118-0.013-0.177
	c0.008-0.312,0.077-0.603,0.28-0.849c0.035,0.025,0.04,0.056,0.014,0.091C33.958,36.378,33.874,36.691,33.739,36.99z"/>
<path fill-rule="evenodd" clip-rule="evenodd" fill="#7D215B" d="M6.408,29.387c0.048-0.002,0.097-0.004,0.146-0.006
	c0.17,0.085,0.085,0.235,0.048,0.328c-0.083,0.214-0.093,0.441-0.153,0.658c-0.051-0.274-0.109-0.546,0.054-0.81
	c0.047-0.076-0.041-0.088-0.095-0.103c-0.023-0.016-0.031-0.03-0.023-0.046S6.4,29.387,6.408,29.387z"/>
<path fill-rule="evenodd" clip-rule="evenodd" fill="#E1F3F5" d="M62.183,25.339c-0.049,0.005-0.095,0.01-0.143,0.015l-0.034-0.005
	h-0.032c-0.31-0.058-0.621-0.055-0.932-0.002c-0.043,0.004-0.089,0.009-0.134,0.013c-0.023-0.005-0.047-0.009-0.071-0.015
	C61.085,25.149,61.848,25.146,62.183,25.339z"/>
<path fill-rule="evenodd" clip-rule="evenodd" fill="#9B1F61" d="M64.022,26.907c0.191-0.209,0.383-0.284,0.568,0.008
	c-0.031,0.1-0.103,0.142-0.204,0.139C64.311,26.894,64.18,26.868,64.022,26.907z"/>
<path fill-rule="evenodd" clip-rule="evenodd" fill="#84265D" d="M16.552,32.42c-0.315-0.115-0.181-0.448-0.317-0.65
	c0.155-0.127,0.207-0.059,0.227,0.11C16.482,32.061,16.521,32.239,16.552,32.42z"/>
<path fill-rule="evenodd" clip-rule="evenodd" fill="#7C345E" d="M19.013,32.528c0-0.277,0-0.555,0-0.833
	c0.121,0.014,0.242,0.019,0.183,0.203C19.127,32.106,19.073,32.318,19.013,32.528z"/>
<path fill-rule="evenodd" clip-rule="evenodd" fill="#8F2061" d="M20.333,37.462c0.403-0.08,0.474-0.023,0.438,0.355
	C20.605,37.724,20.441,37.627,20.333,37.462z"/>
<path fill-rule="evenodd" clip-rule="evenodd" fill="#82275A" d="M34.161,35.564c-0.057-0.376,0.063-0.706,0.268-1.013
	C34.384,34.901,34.298,35.239,34.161,35.564z"/>
<path fill-rule="evenodd" clip-rule="evenodd" fill="#852762" d="M28.067,33.277c0.096,0.07,0.192,0.142,0.29,0.211
	c0.084,0.155,0.106,0.327,0.127,0.498C28.272,33.792,28.175,33.532,28.067,33.277z"/>
<path fill-rule="evenodd" clip-rule="evenodd" fill="#7D2A5F" d="M57.652,37.526c0.02,0.045,0.038,0.091,0.055,0.136
	c-0.157,0.197-0.387,0.251-0.619,0.293C57.241,37.766,57.457,37.659,57.652,37.526z"/>
<path fill-rule="evenodd" clip-rule="evenodd" fill="#962065" d="M66.996,27.898c0.002,0.056,0.004,0.11,0.007,0.165
	c-0.161,0.029-0.197,0.227-0.354,0.265c-0.028,0.026-0.056,0.024-0.08-0.007c0.008-0.133,0.188-0.195,0.143-0.352
	C66.786,27.864,66.897,27.907,66.996,27.898z"/>
<path fill-rule="evenodd" clip-rule="evenodd" fill="#7E315F" d="M11.51,37.832c0.009-0.205,0.178-0.316,0.312-0.394
	c0.265-0.152,0.245,0.071,0.243,0.238c-0.031-0.069-0.063-0.14-0.095-0.213C11.808,37.588,11.703,37.765,11.51,37.832z"/>
<path fill-rule="evenodd" clip-rule="evenodd" fill="#5C3250" d="M48.238,40.97c0.426-0.078,0.849-0.078,1.272,0.001
	C49.087,41.012,48.664,41.008,48.238,40.97z"/>
<path fill-rule="evenodd" clip-rule="evenodd" fill="#80275B" d="M6.345,30.733c-0.167-0.004-0.335-0.007-0.503-0.01
	C6,30.562,6.249,30.589,6.417,30.449C6.408,30.548,6.434,30.655,6.345,30.733z"/>
<path fill-rule="evenodd" clip-rule="evenodd" fill="#773860" d="M65.013,26.611c0.003-0.116,0.005-0.231,0.008-0.349
	c0.103,0.006,0.204,0.012,0.333,0.019C65.278,26.456,65.145,26.534,65.013,26.611z"/>
<path fill-rule="evenodd" clip-rule="evenodd" fill="#872464" d="M33.007,34.312c0.246,0.225,0.177,0.367-0.117,0.451
	C32.913,34.608,32.928,34.451,33.007,34.312z"/>
<path fill-rule="evenodd" clip-rule="evenodd" fill="#882764" d="M48.339,39.641c-0.21,0.003-0.421,0.007-0.632,0.007
	c-0.103,0-0.22,0.021-0.248-0.129C47.754,39.56,48.046,39.601,48.339,39.641z"/>
<path fill-rule="evenodd" clip-rule="evenodd" fill="#821E5C" d="M30.474,31.994c-0.012,0.149-0.119,0.181-0.224,0.132
	c-0.126-0.058-0.229,0.012-0.341,0.02C30.023,31.816,30.281,32.026,30.474,31.994z"/>
<path fill-rule="evenodd" clip-rule="evenodd" fill="#8C2063" d="M9.575,38.168c0.322,0.001,0.645,0.001,0.967,0.002
	C10.22,38.267,9.897,38.255,9.575,38.168z"/>
<path fill-rule="evenodd" clip-rule="evenodd" fill="#7E2760" d="M53.305,34.563c0.337-0.041,0.237,0.301,0.379,0.43
	C53.501,34.901,53.383,34.75,53.305,34.563z"/>
<path fill-rule="evenodd" clip-rule="evenodd" fill="#7E2558" d="M34.011,31.719c0,0.047,0,0.095,0,0.144
	c-0.14,0-0.279-0.001-0.418-0.001C33.65,31.57,33.866,31.747,34.011,31.719z"/>
<path fill-rule="evenodd" clip-rule="evenodd" fill="#843569" d="M58.367,36.552c-0.004-0.054-0.01-0.107-0.016-0.162
	c0.006-0.222,0.012-0.443,0.016-0.665C58.458,36.001,58.454,36.276,58.367,36.552z"/>
<path fill-rule="evenodd" clip-rule="evenodd" fill="#72385A" d="M35.143,31.862c0-0.048,0-0.097,0-0.146
	c0.101-0.024,0.173-0.003,0.14,0.117c-0.037,0.134-0.091,0.263-0.137,0.394C35.145,32.106,35.144,31.983,35.143,31.862z"/>
<path fill-rule="evenodd" clip-rule="evenodd" fill="#663857" d="M16.605,34.374c0.054-0.222-0.154-0.498,0.139-0.671
	C16.698,33.927,16.652,34.15,16.605,34.374z"/>
<path fill-rule="evenodd" clip-rule="evenodd" fill="#7D2B5B" d="M44.925,33.273c-0.242-0.062-0.175-0.203-0.085-0.349
	C44.925,33.027,44.925,33.15,44.925,33.273z"/>
<path fill-rule="evenodd" clip-rule="evenodd" fill="#8B3062" d="M66.569,28.321c0.026,0.002,0.054,0.004,0.08,0.007
	c-0.057,0.173-0.235,0.198-0.357,0.291C66.317,28.458,66.418,28.366,66.569,28.321z"/>
<path fill-rule="evenodd" clip-rule="evenodd" fill="#7ED1E7" d="M58.078,27.616c-0.093,0.047-0.187,0.095-0.28,0.143
	c-0.051,0.039-0.1,0.041-0.147-0.01c0.041-0.081,0.107-0.127,0.195-0.143C57.924,27.609,58.001,27.613,58.078,27.616z"/>
<path fill-rule="evenodd" clip-rule="evenodd" fill="#822E64" d="M25.101,32.431c-0.152-0.037-0.248-0.131-0.291-0.28
	C24.955,32.194,25.068,32.271,25.101,32.431z"/>
<path fill-rule="evenodd" clip-rule="evenodd" fill="#812E60" d="M50.149,37.663c0.024-0.046,0.048-0.093,0.07-0.14
	c0.07-0.005,0.137-0.267,0.21-0.004C50.324,37.546,50.281,37.688,50.149,37.663z"/>
<path fill-rule="evenodd" clip-rule="evenodd" fill="#762757" d="M6.266,37.808c0.048,0,0.098-0.001,0.146-0.002
	c-0.014,0.108,0.068,0.268-0.146,0.266c0-0.016-0.001-0.034-0.002-0.052c-0.025-0.017-0.033-0.032-0.024-0.048
	s0.018-0.022,0.025-0.022C6.266,37.901,6.266,37.854,6.266,37.808z"/>
<path fill-rule="evenodd" clip-rule="evenodd" fill="#853864" d="M34.02,36.056c-0.004-0.031-0.009-0.061-0.014-0.091
	c0.01-0.134-0.016-0.282,0.146-0.354C34.139,35.769,34.103,35.919,34.02,36.056z"/>
<path fill-rule="evenodd" clip-rule="evenodd" fill="#6F365B" d="M54.947,35.406c0.19,0.028,0.402-0.095,0.57,0.081
	C55.326,35.474,55.129,35.499,54.947,35.406z"/>
<path fill-rule="evenodd" clip-rule="evenodd" fill="#72345A" d="M11.92,35.375c0.002,0.197,0.005,0.395,0.007,0.593
	c-0.027,0.033-0.05,0.031-0.072-0.006C11.855,35.763,11.851,35.565,11.92,35.375z"/>
<path fill-rule="evenodd" clip-rule="evenodd" fill="#73345B" d="M56.781,32.86c0.172-0.004,0.345-0.006,0.518-0.008
	c0.061,0.043,0.023,0.062-0.021,0.078C57.11,32.929,56.938,32.94,56.781,32.86z"/>
<path fill-rule="evenodd" clip-rule="evenodd" fill="#EFC7DE" d="M60.554,27.964c0.102-0.092,0.232-0.108,0.358-0.136
	c-0.062,0.079-0.083,0.207-0.225,0.195C60.644,28.003,60.598,27.983,60.554,27.964z"/>
<path fill-rule="evenodd" clip-rule="evenodd" fill="#F9EAF2" d="M65.438,29.383c0.094-0.071,0.189-0.142,0.283-0.212
	c0,0.05,0.001,0.101,0.001,0.15C65.642,29.417,65.536,29.383,65.438,29.383z"/>
<path fill-rule="evenodd" clip-rule="evenodd" fill="#6E2B54" d="M18.918,32.993c-0.048-0.158-0.158-0.328,0.087-0.426
	C18.976,32.71,18.946,32.852,18.918,32.993z"/>
<path fill-rule="evenodd" clip-rule="evenodd" fill="#873664" d="M32.452,35.049c0.001-0.051,0.003-0.101,0.005-0.151
	c0.086,0.132,0.108,0.282,0.132,0.433C32.466,35.274,32.45,35.165,32.452,35.049z"/>
<path fill-rule="evenodd" clip-rule="evenodd" fill="#892061" d="M11.855,35.962c0.025,0.002,0.048,0.004,0.072,0.006
	c-0.013,0.111,0.05,0.264-0.147,0.279C11.777,36.145,11.8,36.049,11.855,35.962z"/>
<path fill-rule="evenodd" clip-rule="evenodd" fill="#893364" d="M61.541,31.155c0.127,0.027,0.305-0.085,0.358,0.134
	C61.765,31.287,61.645,31.245,61.541,31.155z"/>
<path fill-rule="evenodd" clip-rule="evenodd" fill="#732A55" d="M42.227,32.755c0.114-0.065,0.233-0.059,0.354-0.021
	c0.004,0.001,0.005,0.022,0,0.03c-0.004,0.01-0.014,0.017-0.022,0.024C42.447,32.778,42.337,32.767,42.227,32.755z"/>
<path fill-rule="evenodd" clip-rule="evenodd" fill="#683E59" d="M67.705,27.478c0.001-0.072,0.002-0.143,0.002-0.215
	c0.064-0.002,0.168-0.029,0.175,0.035C67.891,27.394,67.784,27.436,67.705,27.478z"/>
<path fill-rule="evenodd" clip-rule="evenodd" fill="#6E3859" d="M17.461,33.091c0.115-0.184,0.292-0.062,0.44-0.09
	C17.754,33.031,17.608,33.062,17.461,33.091z"/>
<path fill-rule="evenodd" clip-rule="evenodd" fill="#893364" d="M62.008,31.304c0.159,0,0.32,0,0.479,0.001
	c-0.012,0.017-0.02,0.036-0.022,0.058C62.312,31.349,62.15,31.394,62.008,31.304z"/>
<path fill-rule="evenodd" clip-rule="evenodd" fill="#F1D1E4" d="M28.981,35.261c-0.011,0.068-0.015,0.139-0.037,0.203
	c-0.009,0.025-0.009,0.111-0.075,0.065c-0.024-0.017-0.012-0.086-0.015-0.131C28.896,35.353,28.938,35.307,28.981,35.261z"/>
<path fill-rule="evenodd" clip-rule="evenodd" fill="#663355" d="M9.377,36.251c0.003-0.105,0.007-0.211,0.01-0.316
	c0.072,0.113,0.065,0.24,0.073,0.366c-0.016,0.015-0.032,0.029-0.048,0.044C9.401,36.313,9.39,36.282,9.377,36.251z"/>
<path fill-rule="evenodd" clip-rule="evenodd" fill="#892061" d="M11.782,36.245c-0.008,0.119,0.055,0.279-0.16,0.28
	C11.675,36.432,11.729,36.339,11.782,36.245z"/>
<path fill-rule="evenodd" clip-rule="evenodd" fill="#693555" d="M54.815,36.919c-0.135,0.072-0.279,0.025-0.419,0.039
	c0.002-0.025,0.004-0.052,0.006-0.078C54.541,36.894,54.678,36.907,54.815,36.919z"/>
<path fill-rule="evenodd" clip-rule="evenodd" fill="#4CB8B7" d="M57.65,27.749c0.05,0.004,0.099,0.006,0.147,0.01
	c-0.003,0.051-0.007,0.102-0.011,0.153C57.707,27.886,57.582,27.901,57.65,27.749z"/>
<path fill-rule="evenodd" clip-rule="evenodd" fill="#6A2C53" d="M29.681,38.022c-0.073-0.006-0.152,0.008-0.198-0.072
	c0.092-0.003,0.139-0.051,0.142-0.142c0.032,0.004,0.064,0.007,0.096,0.011C29.707,37.888,29.694,37.954,29.681,38.022z"/>
<path fill-rule="evenodd" clip-rule="evenodd" fill="#6E3B59" d="M25.66,35.756c0.026,0.001,0.053,0.004,0.079,0.006
	c0,0.134,0.017,0.269-0.074,0.384C25.663,36.016,25.662,35.886,25.66,35.756z"/>
<path fill-rule="evenodd" clip-rule="evenodd" fill="#D7EFF4" d="M60.13,25.775c-0.025,0.046-0.052,0.092-0.078,0.138
	c-0.044,0.003-0.087,0.006-0.131,0.01C59.92,25.774,60.024,25.773,60.13,25.775z"/>
<path fill-rule="evenodd" clip-rule="evenodd" fill="#E0F3F8" d="M59.566,26.202c-0.042,0.088-0.109,0.141-0.21,0.15
	C59.353,26.198,59.458,26.198,59.566,26.202z"/>
<path fill-rule="evenodd" clip-rule="evenodd" fill="#E3F3F7" d="M61.406,26.696c-0.06,0.081-0.148,0.068-0.232,0.07
	c0.022-0.084,0.062-0.146,0.163-0.137C61.359,26.651,61.383,26.674,61.406,26.696z"/>
<path fill-rule="evenodd" clip-rule="evenodd" fill="#882764" d="M49.44,39.577c-0.108,0.119-0.247,0.059-0.374,0.063
	C49.185,39.575,49.312,39.563,49.44,39.577z"/>
<path fill-rule="evenodd" clip-rule="evenodd" fill="#7C3F63" d="M51.429,40.011c-0.012-0.125,0.008-0.225,0.169-0.215
	C51.562,39.884,51.517,39.964,51.429,40.011z"/>
<path fill-rule="evenodd" clip-rule="evenodd" fill="#FFFFFF" d="M50.425,32.942c0.034,0.896,0.058,1.793-0.005,2.686
	c-0.073,1.043-1.244,1.594-2.138,1.033c-0.255-0.16-0.399-0.402-0.459-0.686c-0.147-0.699-0.125-1.406-0.041-2.109
	c0.046-0.402,0.242-0.734,0.595-0.959c0.376-0.356,0.846-0.312,1.281-0.223C49.913,32.736,50.237,32.665,50.425,32.942z"/>
<path fill-rule="evenodd" clip-rule="evenodd" fill="#84255E" d="M50.425,32.942c-0.679-0.254-1.36-0.331-2.048-0.035
	c-0.046-0.312,0.24-0.293,0.389-0.324c0.523-0.105,1.033,0.086,1.552,0.139C50.449,32.735,50.427,32.851,50.425,32.942z"/>
<path fill-rule="evenodd" clip-rule="evenodd" fill="#862163" d="M1.027,37.808c-0.021,0-0.042,0-0.062,0.001
	c0-2.614,0-5.228,0-7.841c0.02,0,0.042,0,0.062,0C1.027,32.581,1.027,35.194,1.027,37.808z"/>
<path fill-rule="evenodd" clip-rule="evenodd" fill="#812162" d="M6.408,29.387c-0.001,0.022-0.001,0.046-0.001,0.068
	c-1.793,0-3.586,0.001-5.379,0.001c-0.021,0.033-0.043,0.033-0.064,0c0.09-0.113,0.217-0.069,0.329-0.069
	C2.998,29.384,4.703,29.386,6.408,29.387z"/>
<path fill-rule="evenodd" clip-rule="evenodd" fill="#80215E" d="M6.265,37.949c0,0.022-0.001,0.048-0.001,0.07
	c-0.035,0-0.07,0.005-0.106-0.001c-0.098-0.014-0.228,0.051-0.287-0.066c-0.043-0.084,0.002-0.135,0.103-0.083
	c0.05,0.026,0.099,0.059,0.152,0.075C6.168,37.956,6.218,37.948,6.265,37.949z"/>
<path fill-rule="evenodd" clip-rule="evenodd" fill="#862163" d="M0.963,29.456c0.021,0,0.043,0,0.064,0
	c0.009,0.032,0.016,0.065,0.028,0.096c0.022,0.057,0.17,0.109,0.018,0.168c-0.082,0.029-0.109-0.056-0.113-0.129
	C0.958,29.546,0.962,29.501,0.963,29.456z"/>
<path fill-rule="evenodd" clip-rule="evenodd" fill="#FFFFFF" d="M24.063,33.837c0.049,0.689,0.071,1.377-0.012,2.067
	c-0.067,0.557-0.311,0.964-0.88,1.122c-0.323,0.06-0.645,0.061-0.967-0.002c-0.335-0.12-0.65-0.267-0.787-0.634
	c-0.175-0.113-0.167-0.312-0.18-0.475c-0.058-0.724-0.079-1.451,0.02-2.175c0.083-0.598,0.456-0.922,1.015-1.068
	c0.441-0.07,0.867-0.045,1.256,0.206c0.249,0.175,0.376,0.435,0.496,0.7C24.1,33.655,24.053,33.751,24.063,33.837z"/>
<path fill-rule="evenodd" clip-rule="evenodd" fill="#7D235C" d="M22.288,32.724c-0.717,0.173-0.975,0.697-0.999,1.363
	c-0.028,0.771-0.087,1.546,0.128,2.304c-0.183-0.008-0.241-0.091-0.258-0.284c-0.049-0.572,0.005-1.145-0.038-1.713
	c-0.031-0.409,0.062-0.795,0.203-1.152c0.124-0.313,0.412-0.531,0.795-0.532C22.179,32.671,22.236,32.664,22.288,32.724z"/>
<path fill-rule="evenodd" clip-rule="evenodd" fill="#841D5A" d="M22.288,32.724c-0.056-0.006-0.112-0.01-0.168-0.014
	c0.392-0.25,1.209-0.15,1.408,0.169C23.125,32.741,22.712,32.69,22.288,32.724z"/>
<path fill-rule="evenodd" clip-rule="evenodd" fill="#6B385B" d="M22.204,37.024c0.322,0.002,0.645,0.002,0.967,0.002
	c-0.317,0.156-0.648,0.049-0.974,0.057c-0.004,0-0.012-0.019-0.011-0.027C22.188,37.044,22.198,37.036,22.204,37.024z"/>
<path fill-rule="evenodd" clip-rule="evenodd" fill="#75295A" d="M24.063,33.837c-0.013-0.086-0.025-0.172-0.039-0.258
	c0.006-0.022,0.005-0.049,0.018-0.066c0.03-0.041,0.055-0.019,0.056,0.019C24.1,33.634,24.125,33.741,24.063,33.837z"/>
<path fill-rule="evenodd" clip-rule="evenodd" fill="#862163" d="M7.776,35.448c0-1.128,0-2.256,0.003-3.385
	c0-0.018,0.053-0.035,0.072-0.047c0,1.148,0,2.298,0,3.445C7.826,35.458,7.802,35.454,7.776,35.448z"/>
<path fill-rule="evenodd" clip-rule="evenodd" fill="#892061" d="M12.133,37.048c-0.072-0.203-0.085-0.408-0.014-0.679
	C12.254,36.638,12.224,36.843,12.133,37.048z"/>
<path fill-rule="evenodd" clip-rule="evenodd" fill="#961F62" d="M54.963,34.128c0.059,0.001,0.11,0.013,0.142,0.07
	c-0.089,0.031,0.04,0.197-0.083,0.17C54.918,34.345,54.978,34.212,54.963,34.128z"/>
<path fill-rule="evenodd" clip-rule="evenodd" fill="#8D1F61" d="M44.486,33.136c0.112,0.182,0.148,0.375,0.146,0.592
	c-0.009,1.257-0.007,2.513-0.001,3.77c0.001,0.213-0.039,0.347-0.286,0.311c0-1.274,0.004-2.548-0.003-3.821
	c-0.002-0.274,0.046-0.549-0.114-0.819c-0.082-0.138-0.075-0.367,0.07-0.531C44.444,32.778,44.2,33.056,44.486,33.136z"/>
<path fill-rule="evenodd" clip-rule="evenodd" fill="#83225E" d="M44.555,32.359c-0.023,0.023-0.046,0.047-0.068,0.07
	c-0.286-0.255-0.577-0.495-0.956-0.612c-0.532-0.163-1.062-0.125-1.598-0.023c-0.316,0.06-0.607,0.186-0.91,0.279
	c0.592-0.564,1.324-0.568,2.061-0.483C43.66,31.657,44.205,31.833,44.555,32.359z"/>
<path fill-rule="evenodd" clip-rule="evenodd" fill="#752556" d="M39.047,38.018c-0.006-1.562-0.013-3.124-0.018-4.687
	c-0.002-0.447-0.006-0.893,0.003-1.34c0.002-0.092-0.068-0.217,0.077-0.271c0.041,0.047,0.041,0.096,0.001,0.143
	c-0.001,2.029-0.001,4.057-0.001,6.086c0.024,0.016,0.031,0.031,0.022,0.047c-0.008,0.016-0.016,0.022-0.023,0.022l-0.032,0.001
	L39.047,38.018z"/>
<path fill-rule="evenodd" clip-rule="evenodd" fill="#712758" d="M40.664,34.267c0.087,0.07,0.069,0.168,0.069,0.262
	c-0.002,1.16-0.004,2.321-0.007,3.482c-0.044,0.002-0.088,0.004-0.132,0.007c-0.04-0.091,0.018-0.149,0.069-0.211
	c0-1.011-0.006-2.023,0.007-3.036C40.673,34.603,40.572,34.435,40.664,34.267z"/>
<path fill-rule="evenodd" clip-rule="evenodd" fill="#831E5A" d="M39.11,31.862c-0.001-0.047-0.001-0.095-0.001-0.143
	c0.47,0,0.941,0,1.411,0c0.057,0.095,0.056,0.189,0.001,0.285c-0.161-0.201-0.409-0.229-0.614-0.191
	C39.638,31.862,39.375,31.846,39.11,31.862z"/>
<path fill-rule="evenodd" clip-rule="evenodd" fill="#811E5C" d="M40.664,37.807c-0.023,0.071-0.046,0.142-0.069,0.211
	c-0.28,0-0.558,0-0.838,0C40.054,37.898,40.397,38.038,40.664,37.807z"/>
<path fill-rule="evenodd" clip-rule="evenodd" fill="#74335C" d="M40.521,32.005c0-0.096-0.001-0.19-0.001-0.285
	c0.15,0.162,0.111,0.371,0.14,0.563C40.47,32.262,40.541,32.11,40.521,32.005z"/>
<path fill-rule="evenodd" clip-rule="evenodd" fill="#811E5C" d="M39.108,38.018c0-0.022,0-0.047,0.001-0.069
	c0.114,0,0.229,0,0.343,0c0.001,0.022,0.002,0.047,0.002,0.069C39.339,38.018,39.223,38.018,39.108,38.018z"/>
<path fill-rule="evenodd" clip-rule="evenodd" fill="#6C2A52" d="M37.829,38.071c0.002-0.016,0.003-0.033,0.002-0.051
	c-0.105-0.167-0.027-0.346-0.027-0.516c-0.007-1.66-0.005-3.318-0.003-4.979c0-0.127-0.031-0.258,0.031-0.381
	c0-0.143,0-0.285,0-0.427c0.171,0.052,0.096,0.195,0.097,0.296c0.004,1.922,0.004,3.846-0.002,5.768
	C37.927,37.88,38.009,38.026,37.829,38.071z"/>
<path fill-rule="evenodd" clip-rule="evenodd" fill="#642F54" d="M36.279,31.719c-0.001,1.916-0.001,3.833-0.006,5.749
	c0,0.136,0.052,0.283-0.058,0.406c-0.004-1.996-0.008-3.991-0.011-5.986C36.205,31.824,36.181,31.741,36.279,31.719z"/>
<path fill-rule="evenodd" clip-rule="evenodd" fill="#FFFFFF" d="M36.049,32.149c0,1.855,0,3.711,0,5.565c-0.018,0-0.036,0-0.054,0
	c0-1.854,0-3.71,0-5.565C36.013,32.149,36.031,32.149,36.049,32.149z"/>
<path fill-rule="evenodd" clip-rule="evenodd" fill="#801F5D" d="M36.217,37.95c0.373,0,0.746,0,1.118,0c0,0.023,0,0.047,0,0.068
	c-0.371,0-0.743,0-1.115,0C36.218,37.997,36.217,37.974,36.217,37.95z"/>
<path fill-rule="evenodd" clip-rule="evenodd" fill="#FFFFFF" d="M37.254,31.015c-0.023-0.013-0.072-0.027-0.073-0.045
	c-0.004-0.057,0.041-0.082,0.092-0.076c0.028,0.004,0.072,0.029,0.078,0.053C37.371,31.024,37.3,30.999,37.254,31.015z"/>
<path fill-rule="evenodd" clip-rule="evenodd" fill="#FFFFFF" d="M36.42,30.947c0.088-0.026,0.177-0.05,0.257-0.073
	c0.021,0.018,0.028,0.025,0.037,0.033C36.624,30.997,36.532,31.06,36.42,30.947z"/>
<path fill-rule="evenodd" clip-rule="evenodd" fill="#8E2063" d="M15.75,34.99c0,0.837,0.002,1.671-0.003,2.507
	c0,0.114,0.063,0.3-0.144,0.293c-0.201-0.006-0.133-0.19-0.134-0.304c-0.004-1.671-0.004-3.343,0-5.014
	c0-0.114-0.07-0.303,0.126-0.31c0.232-0.008,0.148,0.2,0.149,0.32C15.753,33.319,15.75,34.154,15.75,34.99z"/>
<path fill-rule="evenodd" clip-rule="evenodd" fill="#821F5E" d="M14.892,32.099c0,1.871,0,3.742,0,5.615c-0.012,0-0.024,0-0.035,0
	c0-1.877,0-3.754,0-5.631C14.868,32.089,14.88,32.093,14.892,32.099z"/>
<path fill-rule="evenodd" clip-rule="evenodd" fill="#801F5D" d="M37.832,32.146c0,1.958,0,3.916-0.001,5.875
	c-0.091-0.007-0.22,0.014-0.134-0.146c0.096-0.179,0.063-0.368,0.063-0.555c0.003-1.591,0-3.181,0.005-4.772
	C37.766,32.413,37.713,32.263,37.832,32.146z"/>
<path fill-rule="evenodd" clip-rule="evenodd" fill="#D0B6C5" d="M64.604,30.025c0.099-0.034,0.14-0.167,0.262-0.163
	c0.024,0.418-0.312,0.375-0.562,0.441C64.312,30.112,64.488,30.101,64.604,30.025z"/>
<path fill-rule="evenodd" clip-rule="evenodd" fill="#82265F" d="M63.241,31.077c-0.062-0.398,0.242-0.309,0.455-0.338
	C63.566,30.881,63.429,31.011,63.241,31.077z"/>
<path fill-rule="evenodd" clip-rule="evenodd" fill="#7A315F" d="M64.604,30.025c-0.1,0.093-0.2,0.186-0.301,0.278
	c-0.02,0-0.041,0.001-0.061,0.004c-0.028,0.025-0.055,0.023-0.081-0.004C64.231,30.087,64.38,29.996,64.604,30.025z"/>
<path fill-rule="evenodd" clip-rule="evenodd" fill="#C8B3C4" d="M63.787,30.72c0.065-0.099,0.132-0.195,0.245-0.246
	c0.029-0.08,0.08-0.058,0.134-0.027C64.102,30.623,64.001,30.749,63.787,30.72z"/>
<path fill-rule="evenodd" clip-rule="evenodd" fill="#972F68" d="M65.079,29.653c-0.022-0.042-0.043-0.084-0.065-0.127
	c0.081-0.105,0.194-0.062,0.299-0.066C65.251,29.543,65.181,29.616,65.079,29.653z"/>
<path fill-rule="evenodd" clip-rule="evenodd" fill="#783A64" d="M64.166,30.446c-0.046,0.009-0.089,0.019-0.134,0.027
	c-0.012-0.099,0.024-0.162,0.13-0.17c0.027,0.001,0.054,0.002,0.081,0.004C64.217,30.354,64.191,30.399,64.166,30.446z"/>
<path fill-rule="evenodd" clip-rule="evenodd" fill="#A7216B" d="M64.307,29.81c-0.261,0.07-0.521,0.142-0.779,0.212
	c0.152-0.387,0.49-0.267,0.779-0.283c0.016,0.015,0.021,0.031,0.016,0.047C64.317,29.802,64.312,29.81,64.307,29.81z"/>
<path fill-rule="evenodd" clip-rule="evenodd" fill="#A22169" d="M63.739,29.03c0.262-0.158,0.533-0.289,0.85-0.283
	C64.334,28.93,64.066,29.066,63.739,29.03z"/>
<path fill-rule="evenodd" clip-rule="evenodd" fill="#962065" d="M66.146,28.182c0.067-0.269,0.225-0.271,0.425-0.142
	C66.459,28.178,66.305,28.188,66.146,28.182z"/>
<path fill-rule="evenodd" clip-rule="evenodd" fill="#A3216B" d="M64.307,29.81c0-0.024,0-0.048,0-0.071
	c0.073-0.256,0.282-0.095,0.426-0.14C64.64,29.769,64.458,29.761,64.307,29.81z"/>
<path fill-rule="evenodd" clip-rule="evenodd" fill="#7FD1E3" d="M60.562,26.91c-0.314,0.155-0.649,0.239-0.994,0.282
	c-0.073,0.044-0.146,0.047-0.218-0.002c0.012-0.076,0.045-0.137,0.131-0.137c0.232-0.001,0.461,0.034,0.465-0.334
	c0-0.143,0.169-0.1,0.268-0.008C60.315,26.803,60.395,26.935,60.562,26.91z"/>
<path fill-rule="evenodd" clip-rule="evenodd" fill="#7ED1E7" d="M59.351,27.19c0.072,0,0.146,0.002,0.218,0.002
	c-0.48,0.199-0.983,0.316-1.491,0.425c0.013-0.159,0.165-0.255,0.258-0.251C58.69,27.379,59,27.165,59.351,27.19z"/>
<path fill-rule="evenodd" clip-rule="evenodd" fill="#86D3E1" d="M60.908,25.491c0.012,0,0.024-0.002,0.034,0.001
	c0.129,0.028,0.294-0.077,0.375,0.103c0.015,0.032-0.017,0.086-0.025,0.13C61.162,25.649,60.962,25.69,60.908,25.491L60.908,25.491z
	"/>
<path fill-rule="evenodd" clip-rule="evenodd" fill="#8AD4E2" d="M61.042,25.347c0.311-0.117,0.622-0.109,0.932,0.002
	C61.664,25.349,61.352,25.347,61.042,25.347z"/>
<path fill-rule="evenodd" clip-rule="evenodd" fill="#8AD4E2" d="M62.04,25.491c-0.011,0.117-0.078,0.155-0.185,0.127
	c-0.022-0.006-0.057-0.054-0.052-0.064C61.857,25.449,61.96,25.509,62.04,25.491L62.04,25.491z"/>
<path fill-rule="evenodd" clip-rule="evenodd" fill="#8F1F62" d="M61.271,29.46c-0.12-0.001-0.243-0.002-0.363-0.004
	c-0.209-0.084-0.416-0.174-0.639-0.234c0.226-0.031,0.448-0.121,0.654,0.035c0.121,0.093,0.214,0.043,0.306-0.055
	c0.06-0.062,0.117-0.123,0.088-0.213c-0.046-0.139-0.171-0.096-0.271-0.099c-0.165-0.006-0.329-0.002-0.493-0.002
	c0.023-0.046,0.048-0.094,0.072-0.141c0.211,0.043,0.372-0.116,0.565-0.143c0.069-0.067,0.152-0.075,0.242-0.05
	c0.03,0.012,0.056,0.032,0.078,0.059c0.076,0.183,0.412,0.303,0.14,0.571c-0.108,0.086-0.21,0.179-0.317,0.265
	C61.313,29.454,61.292,29.458,61.271,29.46z"/>
<path fill-rule="evenodd" clip-rule="evenodd" fill="#A2216C" d="M63.454,27.755c0.024,0.021,0.048,0.042,0.071,0.062
	c-0.19,0.14-0.382,0.279-0.571,0.418c-0.151-0.006-0.305,0.068-0.454-0.017c-0.012-0.013-0.022-0.025-0.034-0.038
	c0.006-0.186,0.188-0.163,0.283-0.195C62.982,27.906,63.188,27.731,63.454,27.755z"/>
<path fill-rule="evenodd" clip-rule="evenodd" fill="#8F1F62" d="M62.554,28.475c-0.051,0.046-0.1,0.091-0.149,0.138
	c-0.204-0.008-0.405-0.039-0.606,0.056c-0.105,0.052-0.229,0.026-0.323-0.062l-0.001-0.001c-0.041-0.136,0.11-0.078,0.142-0.142
	c0.273-0.127,0.592-0.113,0.851-0.283v0.004C62.55,28.264,62.563,28.365,62.554,28.475z"/>
<path fill-rule="evenodd" clip-rule="evenodd" fill="#A22169" d="M61.615,28.464c-0.047,0.048-0.093,0.095-0.142,0.142
	c-0.095,0-0.188,0-0.282,0C61.264,28.351,61.474,28.513,61.615,28.464z"/>
<path fill-rule="evenodd" clip-rule="evenodd" fill="#80285D" d="M61.254,27.61c0.057-0.072,0.119-0.137,0.22-0.139
	c0.001,0.049,0.001,0.097,0.001,0.146C61.398,27.725,61.328,27.634,61.254,27.61z"/>
<path fill-rule="evenodd" clip-rule="evenodd" fill="#8B2062" d="M61.475,28.606c0.158-0.014,0.312,0.021,0.467-0.096
	c0.161-0.12,0.332-0.047,0.463,0.102c-0.013,0.07-0.042,0.129-0.12,0.145c-0.171,0.046-0.278,0.169-0.377,0.303
	c-0.054,0.037-0.107,0.074-0.161,0.111c-0.044,0.041-0.087,0.044-0.131,0c-0.031-0.102,0.233-0.268-0.08-0.316
	C61.438,28.84,61.485,28.694,61.475,28.606z"/>
<path fill-rule="evenodd" clip-rule="evenodd" fill="#8B2062" d="M62.554,28.475c-0.118-0.07-0.08-0.188-0.088-0.29
	c0.162,0.02,0.336-0.059,0.488,0.051C62.821,28.314,62.687,28.395,62.554,28.475z"/>
<path fill-rule="evenodd" clip-rule="evenodd" fill="#79325F" d="M61.615,29.171c0.044,0,0.087,0,0.131,0
	c-0.101,0.147-0.228,0.254-0.412,0.279C61.374,29.302,61.469,29.21,61.615,29.171z"/>
<path fill-rule="evenodd" clip-rule="evenodd" fill="#763259" d="M61.907,29.06c0.036-0.213,0.149-0.328,0.377-0.303
	C62.165,28.866,62.071,29.006,61.907,29.06z"/>
<path fill-rule="evenodd" clip-rule="evenodd" fill="#7C315D" d="M62.366,26.753c0.093-0.139,0.199-0.258,0.377-0.286
	C62.693,26.662,62.591,26.787,62.366,26.753z"/>
<path fill-rule="evenodd" clip-rule="evenodd" fill="#A0C9D5" d="M60.478,27.319c-0.051,0.219-0.194,0.311-0.41,0.299
	C60.191,27.502,60.302,27.367,60.478,27.319z"/>
</svg>
