<?xml version="1.0" encoding="utf-8"?>
<!-- Generator: Adobe Illustrator 16.0.0, SVG Export Plug-In . SVG Version: 6.00 Build 0)  -->
<!DOCTYPE svg PUBLIC "-//W3C//DTD SVG 1.1//EN" "http://www.w3.org/Graphics/SVG/1.1/DTD/svg11.dtd">
<svg version="1.1" id="Layer_1" xmlns="http://www.w3.org/2000/svg" xmlns:xlink="http://www.w3.org/1999/xlink" x="0px" y="0px"
	 width="70px" height="70px" viewBox="0 0 70 70" enable-background="new 0 0 70 70" xml:space="preserve">
<rect x="0" y="0" fill="#2B121E" width="70" height="70"/>
<path fill-rule="evenodd" clip-rule="evenodd" fill="#D2A232" d="M47.363,19.288c-0.95,1.15-1.868,2.26-2.786,3.37
	c-0.498,0.603-0.998,1.204-1.496,1.807c-0.277,0.336-0.347,0.36-0.813,0.265c-0.1-0.885-0.221-1.02-1.18-1.017
	c-3.415,0.011-6.832-0.028-10.244,0.091c-2.61,0.091-5.173,0.598-7.533,1.791c-2.762,1.397-4.904,3.429-5.781,6.471
	c-0.958,3.323-0.339,6.39,2.042,8.971c1.786,1.937,4.068,3.047,6.607,3.665c2.305,0.562,4.648,0.777,7.013,0.827
	c1.637,0.035,3.274,0.139,4.911,0.131c5.894-0.027,11.787-0.101,17.681-0.127c0.951-0.004,1.798-0.184,2.583-0.739
	c0.586-0.415,0.753-0.411,1.572-0.305c-0.359,0.45-0.686,0.868-1.021,1.277c-1.088,1.325-2.17,2.655-3.278,3.963
	c-0.141,0.166-0.421,0.304-0.637,0.305c-7.358,0.015-14.717,0.046-22.076-0.006c-3.139-0.021-6.276-0.19-9.352-0.95
	c-3.3-0.816-6.336-2.184-9.005-4.295c-2.529-2.001-4.259-4.533-4.719-7.788c-0.561-3.973,0.422-7.515,3.119-10.532
	c2.75-3.078,6.241-4.945,10.135-6.126c2.288-0.694,4.644-0.99,7.027-1.008c5.687-0.042,11.374-0.057,17.061-0.081
	C47.222,19.248,47.25,19.261,47.363,19.288z"/>
<path fill-rule="evenodd" clip-rule="evenodd" fill="#D2A232" d="M18.239,35.417c0.148-0.25,0.217-0.38,0.299-0.502
	c0.836-1.249,1.68-2.494,2.508-3.749c0.166-0.251,0.351-0.362,0.661-0.362c10.41,0.007,20.819,0.006,31.229,0.007
	c0.129,0,0.259,0.021,0.516,0.044c-0.382,0.484-0.698,0.891-1.02,1.292c-1.089,1.362-2.175,2.726-3.278,4.076
	c-0.116,0.143-0.33,0.244-0.516,0.283c-0.321,0.066-0.497-0.069-0.384-0.43c0.094-0.298-0.061-0.474-0.32-0.542
	c-0.257-0.068-0.528-0.114-0.794-0.114c-9.401-0.005-18.804-0.004-28.206-0.004C18.744,35.417,18.555,35.417,18.239,35.417z"/>
</svg>
