<?xml version="1.0" encoding="utf-8"?>
<!-- Generator: Adobe Illustrator 16.0.0, SVG Export Plug-In . SVG Version: 6.00 Build 0)  -->
<!DOCTYPE svg PUBLIC "-//W3C//DTD SVG 1.1//EN" "http://www.w3.org/Graphics/SVG/1.1/DTD/svg11.dtd">
<svg version="1.1" id="Layer_1" xmlns="http://www.w3.org/2000/svg" xmlns:xlink="http://www.w3.org/1999/xlink" x="0px" y="0px"
	 width="70px" height="70px" viewBox="0 0 70 70" enable-background="new 0 0 70 70" xml:space="preserve">
<rect fill="none" width="70" height="70"/>
<g>
	<path fill="#1D4481" d="M67.5,8.9C66,9,53.4,9.8,53.4,9.8s-0.5-0.1-1.2,0.7S13.6,54.2,13.6,54.2s-5.2,5.6-12.5,6.2l0,0H53L68.7,9.9
		C68.7,9.9,69.1,8.8,67.5,8.9"/>
</g>
<g>
	<g>
		<g>
			<g>
				<defs>
					<path id="SVGID_1_" d="M30.4,48c-0.3,0.2-0.6,0.5-0.7,0.8c-0.2,0.4,0.3,1,0.8,1.2c0.6,0.2,1.4,0.4,2.7,0.4
						c1.5,0,2.3-0.301,2.3-0.301s0.3-0.801,0.7-1.601c0.2-0.601,0.8-1.7,1-2.3C34.2,46.5,31.9,47.1,30.4,48"/>
				</defs>
				<clipPath id="SVGID_2_">
					<use xlink:href="#SVGID_1_"  overflow="visible"/>
				</clipPath>
				
					<linearGradient id="SVGID_3_" gradientUnits="userSpaceOnUse" x1="-531.0669" y1="251.5938" x2="-530.7938" y2="251.5938" gradientTransform="matrix(20.0012 7.4227 -7.6268 19.4636 12571.2266 -907.7661)">
					<stop  offset="0" style="stop-color:#8A361D"/>
					<stop  offset="0.0686" style="stop-color:#8A361D"/>
					<stop  offset="0.1507" style="stop-color:#903D1F"/>
					<stop  offset="0.2756" style="stop-color:#A14F24"/>
					<stop  offset="0.2965" style="stop-color:#A55325"/>
					<stop  offset="0.4558" style="stop-color:#B46628"/>
					<stop  offset="0.8895" style="stop-color:#E6A330"/>
					<stop  offset="1" style="stop-color:#E6A330"/>
				</linearGradient>
				<polygon clip-path="url(#SVGID_2_)" fill="url(#SVGID_3_)" points="30.5,43.8 38.7,46.8 36.2,52.9 28.1,49.9 				"/>
			</g>
		</g>
	</g>
</g>
<g>
	<g>
		<g>
			<g>
				<defs>
					<path id="SVGID_4_" d="M51.7,39.7c-0.9,0.1-1.8,0.1-2.5,0.1C47.3,39.7,46.1,39.3,43,39c-4.2-0.4-7.7,0.9-9.3,2.2
						c-0.5,0.399-0.9,0.8-1.1,1.2c-1.1,2.1-2.1,4.5-2.7,5.8c-0.2,0.5-0.2,0.8-0.2,0.8c0.2-0.3,0.5-0.7,0.8-1
						c2.3-1.5,6.4-2.2,12.5-1.7c4.1,0.4,6.3,0.2,8.4-2.3c1.699-2,3-5.2,3-5.2S53.7,39.4,51.7,39.7 M52.7,31.8c-3,0-4.601-1-8.3-1
						c-4.102,0-7.102,1.4-8,3.2c-0.5,0.9-2.8,6.2-2.8,6.2s1.3-1.3,3.4-2c2.9-0.9,5.7-0.7,8.5-0.3c2.1,0.3,3.2,0.699,5,0.699
						c1.7-0.101,2.6-0.399,3.2-0.801c0.899-0.5,1.7-1.3,2.8-2.9c0.8-1.2,1.7-3.9,1.9-4.5C58.5,30.3,57.2,31.8,52.7,31.8"/>
				</defs>
				<clipPath id="SVGID_5_">
					<use xlink:href="#SVGID_4_"  overflow="visible"/>
				</clipPath>
				
					<linearGradient id="SVGID_6_" gradientUnits="userSpaceOnUse" x1="-541.8154" y1="232.7637" x2="-541.542" y2="232.7637" gradientTransform="matrix(60.2726 27.9119 -28.68 58.6526 39367.7812 1506.6367)">
					<stop  offset="0" style="stop-color:#E78F24"/>
					<stop  offset="0.0236" style="stop-color:#E89424"/>
					<stop  offset="0.0587" style="stop-color:#EB9D32"/>
					<stop  offset="0.07" style="stop-color:#ECA13A"/>
					<stop  offset="0.1" style="stop-color:#EEAE55"/>
					<stop  offset="0.2" style="stop-color:#F8D6A3"/>
					<stop  offset="0.2219" style="stop-color:#F9D49C"/>
					<stop  offset="0.2562" style="stop-color:#F7CE8A"/>
					<stop  offset="0.2986" style="stop-color:#F5C36F"/>
					<stop  offset="0.3469" style="stop-color:#F2B641"/>
					<stop  offset="0.35" style="stop-color:#F1B53E"/>
					<stop  offset="0.66" style="stop-color:#ECA622"/>
					<stop  offset="0.98" style="stop-color:#E58E24"/>
					<stop  offset="1" style="stop-color:#E58E24"/>
				</linearGradient>
				<polygon clip-path="url(#SVGID_5_)" fill="url(#SVGID_6_)" points="35,19.4 65.9,33.8 53.2,59.9 22.2,45.6 				"/>
			</g>
		</g>
	</g>
</g>
</svg>
