<?xml version="1.0" encoding="utf-8"?>
<!-- Generator: Adobe Illustrator 13.0.2, SVG Export Plug-In . SVG Version: 6.00 Build 14948)  -->
<!DOCTYPE svg PUBLIC "-//W3C//DTD SVG 1.1//EN" "http://www.w3.org/Graphics/SVG/1.1/DTD/svg11.dtd" [
	<!ENTITY ns_extend "http://ns.adobe.com/Extensibility/1.0/">
	<!ENTITY ns_ai "http://ns.adobe.com/AdobeIllustrator/10.0/">
	<!ENTITY ns_graphs "http://ns.adobe.com/Graphs/1.0/">
	<!ENTITY ns_vars "http://ns.adobe.com/Variables/1.0/">
	<!ENTITY ns_imrep "http://ns.adobe.com/ImageReplacement/1.0/">
	<!ENTITY ns_sfw "http://ns.adobe.com/SaveForWeb/1.0/">
	<!ENTITY ns_custom "http://ns.adobe.com/GenericCustomNamespace/1.0/">
	<!ENTITY ns_adobe_xpath "http://ns.adobe.com/XPath/1.0/">
]>
<svg version="1.1" id="Layer_1" xmlns:x="&ns_extend;" xmlns:i="&ns_ai;" xmlns:graph="&ns_graphs;"
	 xmlns="http://www.w3.org/2000/svg" xmlns:xlink="http://www.w3.org/1999/xlink" x="0px" y="0px" width="70px" height="70px"
	 viewBox="0 0 70 70" enable-background="new 0 0 70 70" xml:space="preserve">
<metadata>
	<sfw  xmlns="&ns_sfw;">
		<slices></slices>
		<sliceSourceBounds  x="0.5" y="-0.5" width="70" height="70" bottomLeftOrigin="true"></sliceSourceBounds>
	</sfw>
</metadata>
<rect fill="none" width="70" height="70"/>
<path id="path200" fill="#A29061" d="M24.3,41.6c-1.8,0.601-4.6,1.2-6.4,1.601c-0.3-8.5-4.9-13.6-3.1-16.3
	C18.1,22,25.4,16.6,32.9,12c-1.5,2-1.8,3.9-2.5,4.4c-1.9,1.3-6,4.6-8,8.1c1.3-1.4,6.1-6.3,10.9-8.9c-1.3,2.4-0.7,3.3-1.7,4.3
	c-0.8,0.7-5.3,5.1-7.5,9c1.2-1.5,3-3.5,4.6-4.5c-0.6,1.3-0.9,2.1-0.9,3.6C27.5,32.8,26.5,37.8,24.3,41.6 M20.6,66.3
	c-1.2-1.6-3.8-2-5.1-0.399c-0.9,1.1-0.2,2.5,0.8,2.8c-1.1-1.101,0.3-2.9,1.7-1.5c0.8,0.8,1.2,2,2.7,1.399
	C19.8,68.3,19.4,67,20.6,66.3 M44,54.1C42.6,54.9,40.6,56.9,36.1,55c2,2.1,3.7,3.2,5.801,3.2C44.2,58.1,48.3,56.1,49.6,55.6L44,54.1
	z M23.8,42.7c-2.3,0.7-4.4,1.1-7.1,1.5c-3.1,0.5-4.6,1.3-5.8,3.1c-1.3,1.9-1.4,2.8-1.3,3.601c0.1,0.699,0.6,1.199,0.7,2
	c0.1,0.699,0.9,2,2.5,2c-0.5-0.2-0.7-0.801-0.2-1.301c0.5-0.399,2-1.199,3.2-0.5c1.3,0.7,3.6,3,5.2,5.5c1.8,2.801,0,3.4-1.8,2.7
	c-2.6-0.899-4.6-2.5-5.8-2.6c-1.4,0-2.2,1.1-1.4,2.7C11.8,59.6,14,59.6,13.9,61c-0.1,1.5-0.9,1.9,0.5,3.6c-0.3-1.3,0-2.5,1.8-2.5
	c1.8,0,4.3,1,6,4.801c3.1-0.101,6.2-1.801,8.9-2.7c-1.7-0.601-3.6-1.9-6.2-4.8c5.1,1.6,10.2,5.1,16.4,2.8
	C46.8,60.1,52.9,58,59.5,56.6c-2.1-0.1-6-0.5-7.6-0.5C49.7,56.9,47.6,57.8,45.1,58.7c-2.3,0.8-5.399,1.8-8.399-1.5
	c-3.4-3.8-9.1-7.8-8-10.9c1.1,2.2,2.2,3.4,4.9,4.4c2.8,1,5.3,1.399,6.5,1.6C42.9,52.7,43.3,51.9,44.2,51c2.399-2.4,5-7.3,6.8-10.3
	c-3.1,0.2-9.8,0.2-12.5-1.2c3.6,0.2,7.6,0.3,9.8,0.2c2-0.101,2.7,0.1,3.3-1.2c0.5-1.2,1-2.5,1-2.5C50,36.5,42,36.4,40.1,35.8
	c1.9-0.5,7.801-0.5,9.4-0.5s2.5-0.1,2.9-1.4c0.399-1.3,0.6-2.1,0.6-2.1c-1.6,0.6-7.5,0.7-12,0.3c2.5-0.4,7.5-0.7,9.3-0.8
	c1.9-0.2,2.5-0.3,2.7-1.5c0.3-1.4,0.4-2,0.4-2c-2.2,0.3-7,0.8-11.7,0.6c1.8-0.4,7.399-1,9.2-1.4c1.5-0.3,2.1-0.5,2.199-1.8
	c0.2-1.4,0.601-2.3,0.601-2.3c-3.3,0.5-10.4,1.7-11.4,2.1c1.8-1.5,6.3-2,8.4-2.5c1.899-0.4,2.3-0.2,2.8-1.7c0.5-1.4,0.9-2,0.9-2
	c-2.4,0.4-7.7,1.5-10.4,2.7c1.2-1.4,6-2.7,7.8-3c3.5-0.5,2-1.3,3.9-3.9c-2.2,0.2-5.7,0.9-10,3.1c1.399-1.9,5.2-3.1,7.8-3.6
	c1.5-0.3,2.3-0.2,3.1-1.5c0.7-1.3,1.7-2.4,2.2-2.9c-1.899,0.3-7.1,1.4-10.5,3.4C50,11,54,9.9,56.2,9.4C58.6,8.9,59.1,8.9,60,8
	c0.6-0.7,2-2,2.7-2.5c-3.4,0.4-7.101,1-10.8,2.8C54,6,60.3,4.7,62.3,4.6c2.8-0.1,1.9-1.1,5.3-3c-7.8-0.1-17.3,1.3-22,5.9
	C43.8,9.2,37,16.2,33.2,21c-1.3,1.6-2.4,2.5-2.8,6.5C29.9,32.7,28.5,40.1,22,46C22.2,45.7,23.1,44.1,23.8,42.7 M13.7,49.2
	c1.2,0.2,0.5,1.8-0.5,1c0,0-0.1,0.2-0.1,0.399c0.1,0.2,0.5,0.4,0.9,0.4c-0.6,0.7-1.2,0.2-1.9,0.7c-0.5,0.399-0.7,1.6-0.4,2.2
	C11.2,53.6,10.8,52.6,11,52.1C10.8,51.9,10.5,51.9,10.3,52l-0.1-0.4c0,0,2-0.199,1.7-1.699c-0.2-0.9,0.8-2,1-2.4
	c0.1-0.2,1.2-1.7,6.7-2.5C18.2,45.6,15.2,46,13.7,49.2"/>
</svg>
