<?xml version="1.0" encoding="utf-8"?>
<!-- Generator: Adobe Illustrator 17.0.0, SVG Export Plug-In . SVG Version: 6.00 Build 0)  -->
<!DOCTYPE svg PUBLIC "-//W3C//DTD SVG 1.1//EN" "http://www.w3.org/Graphics/SVG/1.1/DTD/svg11.dtd">
<svg version="1.1" id="Layer_1" xmlns="http://www.w3.org/2000/svg" xmlns:xlink="http://www.w3.org/1999/xlink" x="0px" y="0px"
	 width="70px" height="70px" viewBox="0 0 70 70" enable-background="new 0 0 70 70" xml:space="preserve">
<g id="Pualani">
	<path id="Face_1_" fill="#FFFFFF" d="M42.067,44.537c-0.766-2.865-1.252-5.365-1.475-7.66c0-0.011-0.004-0.021-0.004-0.028
		c0-0.007,0-0.011,0-0.018c-0.34-3.603-0.011-6.713,0.947-9.95c-0.784-0.535-1.504-1.174-1.805-2.113
		c-0.355-1.106-0.064-2.262-0.064-2.262c1.904,0.457,3.007-0.457,3.624-1.227c0.362-0.45,0.074-0.468-0.184-0.305
		c-2.415,1.525-4.66,0-5.128-2.149c-0.628-2.351-2.918-3.138-2.918-3.138l0,0l0,0c0,0-1.915-0.493-3.652-1.383
		c-1.702-0.872-2.55-1.78-2.957-2.447c-1.663,0.489-3.131,2.117-3.227,2.199l0,0l-0.004,0.004l0.004-0.004
		c-1.291,1.383-2.234,3.004-2.819,4.837c-0.525,1.649-0.72,2.113-0.965,2.5c-0.504,0.791-0.723,1.316-0.415,1.908
		c0.113,0.216,0.188,0.34,0.613,0.975c0.553,0.826,0.05,1.649-0.05,1.855c-0.635,1.316-2.723,3.472-3.67,4.28
		c-1.323,1.128-1.206,1.848-0.514,2.546c0.216,0.22,0.567,0.514,1.078,0.876c0.72,0.511,0.66,0.879,0.613,1.138
		c-0.039,0.23-0.33,0.635-0.479,0.851c-0.152,0.227-0.266,0.44-0.206,0.635c0.124,0.418,0.475-0.482,0.922-0.674
		c0.716-0.305,1.145-0.092,1.975,0.177c0.532,0.174,1.55,0.624,2.11,0.514c0.379-0.074,1.496-0.301,1.596-0.113
		c0.149,0.277-0.599,1.128-1.855,1.351c-0.862,0.152-1.986,0.021-2.897,0.106c-0.801,0.078-1.369,0.564-1.511,0.897
		c-0.167,0.394-0.106,0.73,0.053,0.972c0.089,0.138,0.245,0.362,0.273,0.482c0.11,0.482-0.096,1.078-0.174,1.273
		c-0.248,0.613-0.557,1.245-0.645,1.858c-0.319,2.199,1.844,2.518,1.844,2.518c3.085,0.596,5.918,0.635,8.312,0.337
		c2.72-0.337,4.869-1.089,6.156-1.677c0.482-0.22,0.67-0.035,0.188,0.372c-0.628,0.535-1.968,1.695-3.504,2.656
		c-0.014,0.011-0.064,0.032-0.071,0.05c-0.007,0.021,0.011,0.039,0.025,0.06c0.259,0.326,2.096,1.936,2.979,6.808
		c0.674,3.734,0.769,6.791,0.468,9.351l0,0l-0.004-0.004c0.004,0,0.004,0.004,0.007,0.004c4.156-2.397,7.613-6.681,8.152-12.376
		C42.886,49.172,42.688,46.86,42.067,44.537L42.067,44.537z"/>
	
		<linearGradient id="Nose_1_" gradientUnits="userSpaceOnUse" x1="290.9419" y1="-339.8247" x2="290.9419" y2="-286.8279" gradientTransform="matrix(1 0 0 -1 -271 -290)">
		<stop  offset="0" style="stop-color:#6B3A91"/>
		<stop  offset="1" style="stop-color:#653B91"/>
	</linearGradient>
	<path id="Nose" fill="url(#Nose_1_)" d="M21.231,32.832c-0.234,0.227-0.801,0.106-0.989,0.085c-0.188-0.021-1.06-0.241-1.631-0.362
		c-0.323-0.067-0.475-0.018-0.504,0.06c-0.035,0.089,0.05,0.138,0.156,0.188c0.511,0.238,0.745,0.358,1.66,0.904
		c1.071,0.642,1.532,0.11,1.762-0.298c0.064-0.11,0.16-0.564,0.053-0.727C21.635,32.527,21.436,32.629,21.231,32.832z"/>
	
		<linearGradient id="SVGID_1_" gradientUnits="userSpaceOnUse" x1="297.9444" y1="-297.8638" x2="296.4203" y2="-335.8118" gradientTransform="matrix(1 0 0 -1 -271 -290)">
		<stop  offset="0" style="stop-color:#CD1487"/>
		<stop  offset="0.2381" style="stop-color:#A52B8A"/>
		<stop  offset="0.4947" style="stop-color:#80358C"/>
		<stop  offset="0.7166" style="stop-color:#623A8E"/>
		<stop  offset="0.8923" style="stop-color:#4E3C8F"/>
		<stop  offset="1" style="stop-color:#453D8F"/>
	</linearGradient>
	<path fill="url(#SVGID_1_)" d="M34.567,44.47c-1.287,0.589-3.433,1.344-6.156,1.677c-2.394,0.294-5.227,0.259-8.312-0.337
		c0,0-2.16-0.319-1.844-2.518c0.089-0.617,0.397-1.245,0.645-1.858c0.078-0.191,0.284-0.787,0.174-1.273
		c-0.028-0.121-0.181-0.344-0.273-0.482c-0.16-0.245-0.216-0.582-0.053-0.972c0.142-0.333,0.709-0.819,1.511-0.897
		c0.911-0.085,2.035,0.046,2.897-0.106c1.255-0.223,2.004-1.071,1.855-1.351c-0.099-0.184-1.216,0.039-1.596,0.113
		c-0.56,0.113-1.578-0.34-2.11-0.514c-0.826-0.27-1.259-0.486-1.975-0.177c-0.447,0.191-0.798,1.092-0.922,0.674
		c-0.057-0.195,0.053-0.404,0.206-0.635c0.145-0.216,0.436-0.621,0.479-0.851c0.046-0.259,0.106-0.628-0.613-1.138
		c-0.511-0.362-0.862-0.656-1.078-0.876c-0.691-0.699-0.812-1.418,0.514-2.546c0.947-0.805,3.035-2.961,3.67-4.28
		c0.099-0.206,0.606-1.032,0.05-1.855c-0.426-0.635-0.504-0.759-0.613-0.975c-0.309-0.592-0.089-1.117,0.415-1.908
		c0.248-0.387,0.44-0.851,0.965-2.5c0.585-1.833,1.528-3.454,2.819-4.837l-0.004,0.004l0,0c0.089-0.27,0.241-2.39,1.479-4.365
		c0.401-0.769,0.94-1.582,1.674-2.376c0.493-0.532,1.273-1.149,2.294-1.741c1.025-0.596,2.294-1.167,3.769-1.606
		c1.773-0.528,3.84-0.869,6.138-0.837c1.716,0.025,3.351,0.16,5.294,0.681h0.004c0.007,0.004,0.089,0.025,0.231,0.064
		C42.61,2.25,38.727,1.346,34.638,1.346c-15.198,0-27.521,12.461-27.521,27.83c0,13.73,9.833,25.138,22.766,27.415
		c-0.106,0.996-0.23,1.926-0.379,2.67c-0.887,4.394-3.897,8.436-5.528,9.394c4.355-0.376,7.816-1.677,9.876-3.72l0,0h-0.004
		c-0.145,0-1.507-0.014-1.628-0.018c0.823-0.316,1.635-0.702,2.422-1.16c0,0,0,0,0.004,0c0-0.004,0-0.004,0-0.007l0.004,0.004l0,0
		c0.298-2.56,0.206-5.617-0.468-9.351c-0.879-4.869-2.716-6.482-2.979-6.808c-0.018-0.021-0.035-0.039-0.025-0.06
		c0.007-0.018,0.053-0.039,0.071-0.05c1.532-0.961,2.876-2.121,3.504-2.656C35.238,44.434,35.046,44.25,34.567,44.47z"/>
	<path fill="#453D8F" d="M30.617,19.754c-0.138-0.043-3.784-0.84-4.993-0.762c-1.209,0.078-2.248,0.784-2.887,1.507
		c-0.344,0.394-0.5,0.791-0.56,1.128c-0.053,0.582,0.365,0.858,0.858,0.702c0.362-0.113,0.624-0.372,0.996-0.926
		c0.23-0.34,0.365-0.773,0.72-0.996c0.582-0.369,1.578-0.461,3.209-0.418c1.248,0.032,2.255,0.096,2.5,0.106
		C30.915,20.119,30.812,19.814,30.617,19.754"/>
	<path fill="#453D8F" d="M28.507,23.14c-0.681-0.404-1.599-0.379-1.777-0.415c-0.177-0.032-0.213-0.216,0.057-0.348
		c0.369-0.181,1.06-0.028,1.085-0.145c0.021-0.103-0.135-0.358-0.66-0.56c-0.284-0.11-0.823-0.181-1.213-0.142
		c-1.121,0.117-1.716,0.812-1.844,0.943c-0.124,0.128-0.316,0.319-0.365,0.613c-0.064,0.39,0.184,0.691,0.422,1.078
		c0.121,0.195,0.23,0.337,0.266,0.486c0.057,0.209,0.018,0.294-0.156,0.433c-0.195,0.152-0.082,0.422,0.316,0.312
		c0.447-0.124,0.691-0.252,1.025-0.535c0.479-0.404,0.472-0.663,0.809-0.996c0.337-0.337,1.39-0.333,1.933-0.259
		C29.046,23.697,29.192,23.541,28.507,23.14"/>
	<path fill="#453D8F" d="M37.131,11.279c2.291-4.053,5.55-2.84,5.55-2.84c0.316,0.961,1.277,1.656,2.22,1.943
		c0.55,0.167,0.461-0.106,0.213-0.287c-2.316-1.667-1.745-4.319,0.078-5.56c0.34-0.23,0.645-0.447,0.926-0.649
		c-0.152-0.046-0.238-0.067-0.245-0.071h-0.004c-1.943-0.521-3.578-0.656-5.294-0.681C34.447,3.041,29.95,5.615,28.369,7.318
		c-0.738,0.794-1.273,1.606-1.674,2.376c-1.234,1.975-1.387,4.096-1.479,4.365l0.004-0.004l0,0c0.096-0.082,1.567-1.709,3.227-2.199
		c0.411,0.667,1.255,1.578,2.957,2.447c1.738,0.89,3.652,1.383,3.652,1.383l0,0C36.734,14.637,36.262,12.818,37.131,11.279z"/>
	<path fill="#453D8F" d="M58.833,26.257c-2.025,0.323-3.376-0.039-4.433-0.521c-0.837-0.383-2.156-1.255-2.358-2.922
		c-0.039-0.305-0.234-0.514-0.355,0.05c-0.206,0.965-0.06,2.142,0.631,2.883c-0.755,3.713-8.043,3.443-8.043,3.443
		c-0.287-0.957-1.585-1.518-2.741-2.308c-0.957,3.238-1.287,6.347-0.947,9.95c0,0.007,0,0.011,0,0.018
		c0,0.011,0.004,0.021,0.004,0.028c0.22,2.298,0.709,4.798,1.475,7.66l0,0c0.621,2.323,0.819,4.638,0.738,6.855
		c-0.535,5.695-3.996,9.975-8.152,12.376c0,0-0.004-0.004-0.007-0.004c0,0.004,0,0.004,0,0.007c-0.787,0.454-1.603,0.844-2.426,1.16
		c0.121,0.004,1.482,0.018,1.628,0.018c3.489-0.043,8.429-0.716,12.659-5.152c1.461-1.532,2.606-3.131,3.326-4.642
		c0.294-0.631,1.553-2.872,2.266-7.319c0.096-0.592,0.408-2.507,0.408-2.507s0.199,1.362,0.223,2.574
		c0.032,1.667,0.092,3.759-0.897,6.936c0.337-0.074,1.986-1.301,3.94-3.943c0.713-0.968,1.372-1.975,1.975-3.014
		c2.805-4.394,4.798-9.624,4.699-19.546c-0.007-0.553-0.078-1.351-0.16-2.113C61.021,25.853,59.858,26.098,58.833,26.257z"/>
	<path fill="#453D8F" d="M56.599,11.725c-1,0.734-1.259,1.961-1.582,2.642c-0.535,1.135-1.699,2.138-3.752,2.507
		c-1.716,0.309-2.979,1.245-3.738,1.855c-0.174,0.138-0.241,0.067-0.22-0.121c0.174-1.053,0.638-1.738,0.638-1.738
		c-0.514-0.053-1.89,0.699-2.117,0.872c-0.191,0.145-0.422,0.096-0.245-0.262c0.677-1.394,1.617-1.752,2.206-1.908
		c-0.234-0.606-1.16-0.926-1.574-1.046c-0.103-0.025-0.096-0.121,0.018-0.177c2.202-1.128,4.752,0.514,5.124,0.769
		c0.33,0.227,0.599,0.394,0.684,0.312c0.117-0.11,0.057-0.262-0.135-0.45c-1.872-1.872-3.975-2.092-3.975-2.092
		c-0.652,0.769-2.191,0.064-1.954-0.862c0.262-1.021,1.855-0.759,2.117,0.238c1.493,0.206,2.468,0.748,2.468,0.748
		c0.007-0.142-0.074-1.195,0.894-1.904c0.057-0.039,0.17-0.099,0.124,0.06c-0.277,0.968,0.259,1.355,0.259,1.355
		c0.145-0.518,0.596-1.238,1.27-1.777c0.199-0.163,0.316-0.053,0.277,0.092c-0.085,0.5-0.128,1.365,0.461,1.996
		c0.883-0.968,2.241-1.333,2.489-1.379C56.592,11.41,56.918,11.491,56.599,11.725z"/>
	<path id="Hibiscus" fill="#EE453D" d="M60.72,16.02c0.986,0.035,2.092,0.461,2.642,1.312c1.752-1.011,2.766-2.734,2.195-4.684
		c-0.543-1.848-0.759-3.83-0.674-4.535c-1.493,0.323-2.993-0.89-4.032-1.365c-1.642-0.752-3.39-1.117-4.812,0.826
		c-0.181,0.248-0.457,0.333-0.287-0.216c0.344-1.092,1.078-1.773,1.507-2c-0.074-0.727-0.933-2.624-4.582-2.95
		c-1.631-0.142-3.177-0.528-3.762-0.972c0,0-0.546,0.936-3.723,3.103c-1.823,1.238-2.394,3.894-0.078,5.56
		c0.248,0.177,0.337,0.454-0.213,0.287c-0.943-0.287-1.904-0.979-2.22-1.943c0,0-3.259-1.213-5.55,2.84
		c-0.869,1.539-0.397,3.355-2.071,4.408c0,0,2.294,0.784,2.918,3.138c0.468,2.152,2.716,3.674,5.128,2.149
		c0.255-0.163,0.546-0.142,0.184,0.305c-0.617,0.769-1.72,1.684-3.624,1.227c0,0-0.291,1.156,0.064,2.262
		c0.748,2.33,4.06,2.819,4.546,4.422c0,0,7.287,0.27,8.043-3.443c-0.691-0.741-0.833-1.918-0.631-2.883
		c0.121-0.564,0.316-0.355,0.355-0.05c0.202,1.667,1.518,2.539,2.358,2.922c1.057,0.482,2.404,0.844,4.433,0.521
		c1.025-0.163,2.188-0.408,3.457-0.035c0,0-0.128-1.362,0.411-2.394c0.528-1.011,1.965-5.766-2.113-7.475
		C60.301,16.232,60.142,15.998,60.72,16.02z M56.599,11.725c-1,0.734-1.259,1.961-1.582,2.642c-0.535,1.135-1.699,2.138-3.752,2.507
		c-1.716,0.309-2.979,1.245-3.738,1.855c-0.174,0.138-0.241,0.067-0.22-0.121c0.174-1.053,0.638-1.738,0.638-1.738
		c-0.514-0.053-1.89,0.699-2.117,0.872c-0.191,0.145-0.422,0.096-0.245-0.262c0.677-1.394,1.617-1.752,2.206-1.908
		c-0.234-0.606-1.16-0.926-1.574-1.046c-0.103-0.025-0.096-0.121,0.018-0.177c2.202-1.128,4.752,0.514,5.124,0.769
		c0.33,0.227,0.599,0.394,0.684,0.312c0.117-0.11,0.057-0.262-0.135-0.45c-1.872-1.872-3.975-2.092-3.975-2.092
		c-0.652,0.769-2.191,0.064-1.954-0.862c0.262-1.021,1.855-0.759,2.117,0.238c1.493,0.206,2.468,0.748,2.468,0.748
		c0.007-0.142-0.074-1.195,0.894-1.904c0.057-0.039,0.17-0.099,0.124,0.06c-0.277,0.968,0.259,1.355,0.259,1.355
		c0.145-0.518,0.596-1.238,1.27-1.777c0.199-0.163,0.316-0.053,0.277,0.092c-0.085,0.5-0.128,1.365,0.461,1.996
		c0.883-0.968,2.241-1.333,2.489-1.379C56.592,11.41,56.918,11.491,56.599,11.725z"/>
</g>
</svg>
