<?xml version="1.0" encoding="utf-8"?>
<!-- Generator: Adobe Illustrator 13.0.2, SVG Export Plug-In . SVG Version: 6.00 Build 14948)  -->
<!DOCTYPE svg PUBLIC "-//W3C//DTD SVG 1.1//EN" "http://www.w3.org/Graphics/SVG/1.1/DTD/svg11.dtd" [
	<!ENTITY ns_extend "http://ns.adobe.com/Extensibility/1.0/">
	<!ENTITY ns_ai "http://ns.adobe.com/AdobeIllustrator/10.0/">
	<!ENTITY ns_graphs "http://ns.adobe.com/Graphs/1.0/">
	<!ENTITY ns_vars "http://ns.adobe.com/Variables/1.0/">
	<!ENTITY ns_imrep "http://ns.adobe.com/ImageReplacement/1.0/">
	<!ENTITY ns_sfw "http://ns.adobe.com/SaveForWeb/1.0/">
	<!ENTITY ns_custom "http://ns.adobe.com/GenericCustomNamespace/1.0/">
	<!ENTITY ns_adobe_xpath "http://ns.adobe.com/XPath/1.0/">
]>
<svg version="1.1" id="Layer_1" xmlns:x="&ns_extend;" xmlns:i="&ns_ai;" xmlns:graph="&ns_graphs;"
	 xmlns="http://www.w3.org/2000/svg" xmlns:xlink="http://www.w3.org/1999/xlink" x="0px" y="0px" width="70px" height="70px"
	 viewBox="0 0 70 70" enable-background="new 0 0 70 70" xml:space="preserve">
<metadata>
	<sfw  xmlns="&ns_sfw;">
		<slices></slices>
		<sliceSourceBounds  x="0.5" y="-0.5" width="70" height="70" bottomLeftOrigin="true"></sliceSourceBounds>
	</sfw>
</metadata>
<rect fill="none" width="70" height="70"/>
<g id="g10" transform="matrix(1.25,0,0,-1.25,-355.64249,617.57738)">
	<g id="g72" transform="matrix(2.2133966,0,0,2.2133966,72.763169,-317.04835)">
		<g id="g74">
			<g id="g80">
				<g id="g82">
					
						<linearGradient id="path92_1_" gradientUnits="userSpaceOnUse" x1="129.9361" y1="465.412" x2="130.5159" y2="465.412" gradientTransform="matrix(295.9131 170.8454 170.8454 -295.9131 -117866.6094 115865.6094)">
						<stop  offset="0" style="stop-color:#A61F24"/>
						<stop  offset="0.5" style="stop-color:#DC1F2F"/>
						<stop  offset="1" style="stop-color:#DC1F2F"/>
					</linearGradient>
					<path id="path92" fill="url(#path92_1_)" d="M100.3,348.8l-4.3-4.4l0,0c15.1,0,18.6,3.5,20.7,8.4l0,0l1.7,4.5
						C113.3,357.1,105.6,354.2,100.3,348.8"/>
				</g>
			</g>
		</g>
	</g>
	<g id="g94" transform="matrix(2.2133966,0,0,2.2133966,72.763169,-317.04835)">
		<g id="g96">
			<g id="g102">
				<g id="g104">
					
						<linearGradient id="path114_1_" gradientUnits="userSpaceOnUse" x1="129.8305" y1="465.8064" x2="130.4076" y2="465.8064" gradientTransform="matrix(198.6955 114.7168 114.7168 -198.6955 -79127.2188 78014.25)">
						<stop  offset="0" style="stop-color:#EC7523"/>
						<stop  offset="0.85" style="stop-color:#FACE10"/>
						<stop  offset="1" style="stop-color:#FACE10"/>
					</linearGradient>
					<path id="path114" fill="url(#path114_1_)" d="M110.4,359l-4.9-4.9c4.6,3.3,9.3,5.3,13.9,5.9l0,0l1.1,2.9
						C113.7,362.9,112.7,361.4,110.4,359"/>
				</g>
			</g>
		</g>
	</g>
</g>
<rect x="0" y="0" fill="none" width="70" height="70"/>
</svg>
