<?xml version="1.0" encoding="utf-8"?>
<!-- Generator: Adobe Illustrator 16.0.0, SVG Export Plug-In . SVG Version: 6.00 Build 0)  -->
<!DOCTYPE svg PUBLIC "-//W3C//DTD SVG 1.1//EN" "http://www.w3.org/Graphics/SVG/1.1/DTD/svg11.dtd">
<svg version="1.1" id="Layer_1" xmlns="http://www.w3.org/2000/svg" xmlns:xlink="http://www.w3.org/1999/xlink" x="0px" y="0px"
	 width="70px" height="70px" viewBox="0 0 70 70" enable-background="new 0 0 70 70" xml:space="preserve">
<path fill-rule="evenodd" clip-rule="evenodd" fill="#E7463E" d="M0.77,33.04c0.319-1.758,0.587-3.529,0.964-5.276
	C4.71,13.989,16.527,3.104,30.443,1.291c18.154-2.364,34.968,9.924,38.088,27.945c0.463,2.68,0.402,5.45,0.585,8.179
	c-0.156,0.068-0.312,0.14-0.47,0.208C57.447,26.453,46.247,15.284,34.622,3.689c-0.517,0.753-0.859,1.458-1.382,1.982
	C22.916,16.018,12.573,26.348,2.212,36.658C1.873,36.996,1.51,38.21,0.77,36.947C0.77,35.646,0.77,34.341,0.77,33.04z"/>
<path fill-rule="evenodd" clip-rule="evenodd" fill="#E7463E" d="M35.177,5.686c3.564,3.625,7.089,7.251,10.657,10.829
	c7.039,7.058,14.07,14.127,21.19,21.1c1.333,1.306,1.981,2.521,1.313,4.314c-0.204,0.549-0.283,1.143-0.508,2.08
	C56.78,32.991,45.926,22.168,35.035,11.308C24.158,22.275,13.379,33.144,2.601,44.013c-0.185-0.078-0.37-0.156-0.554-0.234
	c-0.281-1.369-0.597-2.734-0.812-4.115c-0.04-0.256,0.275-0.623,0.51-0.855c10.954-10.936,21.917-21.86,32.882-32.784
	C34.696,5.955,34.796,5.917,35.177,5.686z"/>
<path fill-rule="evenodd" clip-rule="evenodd" fill="#E7463E" d="M34.944,18.419C24.529,28.928,14.424,39.125,4.141,49.501
	c-0.466-1.147-0.957-2.031-1.15-2.976c-0.089-0.438,0.281-1.113,0.645-1.479c8.272-8.301,16.579-16.566,24.863-24.854
	c2.114-2.117,4.174-4.29,6.483-6.669c1.255,1.352,2.27,2.521,3.363,3.612c8.994,8.993,18.003,17.974,27.012,26.953
	c2.186,2.177,2.209,2.336,0.255,5.399C55.45,39.192,45.332,28.943,34.944,18.419z"/>
<path fill-rule="evenodd" clip-rule="evenodd" fill="#E7463E" d="M62.844,54.242c-9.318-9.391-18.545-18.685-27.847-28.056
	c-9.298,9.407-18.501,18.72-27.678,28.005c-2.236-1.898-2.271-2.438-0.589-4.117c9.036-9.014,18.073-18.029,27.112-27.041
	c0.345-0.345,0.712-0.667,1.24-1.157c2.898,2.947,5.72,5.848,8.578,8.712c6.473,6.483,12.961,12.947,19.445,19.419
	C64.927,51.827,64.927,51.827,62.844,54.242z"/>
<path fill-rule="evenodd" clip-rule="evenodd" fill="#E7463E" d="M35.058,30.369c8.542,8.616,17.234,17.387,26.076,26.305
	c-0.281,0.343-0.767,0.938-1.441,1.763c-8.231-8.341-16.366-16.586-24.593-24.924c-8.351,8.438-16.471,16.64-24.698,24.954
	c-0.745-0.805-1.24-1.341-1.616-1.746C17.586,47.891,26.33,39.121,35.058,30.369z"/>
<path fill-rule="evenodd" clip-rule="evenodd" fill="#E7463E" d="M34.969,40.681c-2.758,2.821-5.223,5.376-7.726,7.891
	c-4.06,4.08-8.168,8.112-12.202,12.219c-0.904,0.919-1.536,0.949-2.152,0.005c7.392-7.402,14.76-14.781,22.061-22.092
	c7.21,7.258,14.565,14.664,22.021,22.169c-0.143,0.131-0.532,0.483-1.073,0.975C48.972,54.843,42.096,47.886,34.969,40.681z"/>
<path fill-rule="evenodd" clip-rule="evenodd" fill="#E7463E" d="M52.302,64.196c-0.572,0.8-1.117,0.419-1.778-0.247
	c-4.728-4.763-9.482-9.496-14.23-14.237c-0.417-0.414-0.858-0.804-1.54-1.441c-1.457,1.557-2.788,3.048-4.193,4.467
	c-3.666,3.698-7.368,7.359-11.046,11.046c-0.599,0.6-1.156,1.222-1.87,0.425c5.806-5.819,11.613-11.642,17.389-17.428
	C40.676,52.472,46.476,58.32,52.302,64.196z"/>
<path fill-rule="evenodd" clip-rule="evenodd" fill="#E7463E" d="M35.06,55.02c3.713,3.729,7.72,7.751,11.725,11.774
	c-0.013,0.074-0.025,0.147-0.04,0.221c-0.472-0.251-1.032-0.409-1.399-0.767c-3.073-3.016-6.109-6.071-9.163-9.11
	c-0.381-0.379-0.791-0.732-1.359-1.256c-3.425,3.474-6.75,6.869-10.11,10.228c-0.412,0.412-1.014,0.631-1.544,0.793
	C27.177,62.896,31.185,58.892,35.06,55.02z"/>
<path fill-rule="evenodd" clip-rule="evenodd" fill="#E7463E" d="M34.939,63.533c-1.843,1.782-3.573,3.453-5.302,5.125
	c-0.056-0.063-0.112-0.127-0.169-0.191c1.935-1.836,3.868-3.673,5.768-5.476c1.587,1.619,3.463,3.53,5.337,5.44
	C38.462,67.184,36.901,65.248,34.939,63.533z"/>
</svg>
