<?xml version="1.0" encoding="utf-8"?>
<!-- Generator: Adobe Illustrator 13.0.2, SVG Export Plug-In . SVG Version: 6.00 Build 14948)  -->
<!DOCTYPE svg PUBLIC "-//W3C//DTD SVG 1.1//EN" "http://www.w3.org/Graphics/SVG/1.1/DTD/svg11.dtd" [
	<!ENTITY ns_extend "http://ns.adobe.com/Extensibility/1.0/">
	<!ENTITY ns_ai "http://ns.adobe.com/AdobeIllustrator/10.0/">
	<!ENTITY ns_graphs "http://ns.adobe.com/Graphs/1.0/">
	<!ENTITY ns_vars "http://ns.adobe.com/Variables/1.0/">
	<!ENTITY ns_imrep "http://ns.adobe.com/ImageReplacement/1.0/">
	<!ENTITY ns_sfw "http://ns.adobe.com/SaveForWeb/1.0/">
	<!ENTITY ns_custom "http://ns.adobe.com/GenericCustomNamespace/1.0/">
	<!ENTITY ns_adobe_xpath "http://ns.adobe.com/XPath/1.0/">
]>
<svg version="1.1" id="Layer_1" xmlns:x="&ns_extend;" xmlns:i="&ns_ai;" xmlns:graph="&ns_graphs;"
	 xmlns="http://www.w3.org/2000/svg" xmlns:xlink="http://www.w3.org/1999/xlink" x="0px" y="0px" width="70px" height="70px"
	 viewBox="0 0 70 70" enable-background="new 0 0 70 70" xml:space="preserve">
<metadata>
	<sfw  xmlns="&ns_sfw;">
		<slices></slices>
		<sliceSourceBounds  x="0.5" y="-0.5" width="70" height="70" bottomLeftOrigin="true"></sliceSourceBounds>
	</sfw>
</metadata>
<rect fill="none" width="70" height="70"/>
<path fill="#2B75BB" d="M2.9,41.3c9.7-2.3,19.3-5.7,29-11.9c9.1-6.5,15-14.4,19.4-23c1.7,1.3,3.3,2.5,5,3.8
	c-2.2,4.7-3.8,9.9-3.5,16.9c-4.1,3.1-8.2,5.4-12.3,6.7c2.2,0.4,7-0.8,12.3-2.2c0,1.4,0,2.7,0,4.1c-16.8,2.2-33.4,4.5-50,6.7
	L2.9,41.3L2.9,41.3z"/>
<path fill="#EB2629" d="M2.9,42.7c16.6-2.101,33.2-4.2,49.9-6.3c0.4,3,1.101,5.899,1.9,8.899c-17.3-0.5-34.6-1-51.8-1.399
	C2.9,43.4,2.9,43.1,2.9,42.7L2.9,42.7z"/>
<path fill="#08A64E" d="M2.9,44.1C20.2,44.7,37.5,45.4,54.8,46c0.7,3.3,2.601,6.5,5.101,10l-0.7,0.9C54,51.2,45.5,49.8,37,48.3
	c-11.7-1.7-23-2.7-34-3.1C2.9,44.9,2.9,44.5,2.9,44.1L2.9,44.1z"/>
<path fill="#2B75BB" d="M34.9,1.2L34.9,1.2L34.9,1.2c9.3,0,17.8,3.8,23.9,9.9c6.101,6.1,9.9,14.6,9.9,23.9l0,0l0,0l0,0l0,0
	c0,9.3-3.8,17.8-9.9,23.9C52.7,65,44.2,68.8,34.9,68.8l0,0l0,0l0,0l0,0C25.6,68.8,17.1,65,11,58.9C4.9,52.8,1.1,44.4,1.1,35l0,0l0,0
	l0,0l0,0c0-9.3,3.8-17.8,9.9-23.9S25.6,1.2,34.9,1.2L34.9,1.2L34.9,1.2L34.9,1.2z M34.9,2.6L34.9,2.6L34.9,2.6L34.9,2.6L34.9,2.6
	c-8.9,0-17,3.6-22.9,9.5C6.2,18,2.5,26.1,2.5,35l0,0l0,0l0,0l0,0c0,8.9,3.6,17,9.5,22.9c5.9,5.899,14,9.5,22.9,9.5l0,0l0,0l0,0l0,0
	c8.9,0,17-3.601,22.9-9.5c5.9-5.9,9.5-14,9.5-22.9l0,0l0,0l0,0l0,0c0-8.9-3.6-17-9.5-22.9C52,6.3,43.9,2.6,34.9,2.6L34.9,2.6z"/>
<path fill="#2B75BB" d="M13.5,20.5h-2.2L11,21.1c-0.1,0.2-0.1,0.4-0.1,0.5c0,0.2,0.1,0.3,0.2,0.4s0.3,0.1,0.6,0.1v0.2H9.6v-0.2
	c0.2,0,0.4-0.1,0.6-0.3c0.1-0.2,0.3-0.5,0.5-1l2.3-5.1h0.1l2.3,5.2c0.2,0.5,0.4,0.8,0.5,0.9c0.1,0.1,0.3,0.2,0.4,0.2v0.2h-3.1V22
	h0.1c0.2,0,0.4,0,0.5-0.1c0.1,0,0.1-0.1,0.1-0.2c0-0.1,0-0.1,0-0.2c0,0-0.1-0.1-0.1-0.4L13.5,20.5L13.5,20.5z M13.4,20.2l-1-2.2
	l-1,2.2H13.4L13.4,20.2z M22.3,16l-3.7,6h1.2c0.6,0,1,0,1.2-0.1c0.4-0.1,0.7-0.3,1-0.6c0.3-0.3,0.5-0.7,0.6-1.2h0.2l-0.3,2.3h-5.8
	l3.7-6h-0.9c-0.4,0-0.6,0-0.7,0c-0.2,0-0.4,0.1-0.6,0.2c-0.2,0.1-0.3,0.3-0.5,0.5c-0.1,0.2-0.2,0.5-0.3,0.8h-0.2l0.2-1.9H22.3
	L22.3,16z M26.8,20.5h-2.2l-0.3,0.6c-0.1,0.2-0.1,0.4-0.1,0.5c0,0.2,0.1,0.3,0.2,0.4s0.3,0.1,0.6,0.1v0.2h-2.1v-0.2
	c0.2,0,0.4-0.1,0.6-0.3c0.1-0.2,0.3-0.5,0.5-1l2.3-5.1h0.1l2.3,5.2c0.2,0.5,0.4,0.8,0.5,0.9c0.1,0.1,0.3,0.2,0.4,0.2v0.2h-3.1V22
	h0.1c0.2,0,0.4,0,0.5-0.1c0.1,0,0.1-0.1,0.1-0.2c0-0.1,0-0.1,0-0.2c0,0-0.1-0.1-0.1-0.4L26.8,20.5L26.8,20.5z M26.6,20.2L25.7,18
	l-1,2.2H26.6L26.6,20.2z M35.8,20.1l-0.2,2.2H30v-0.2h0.2c0.2,0,0.3,0,0.4-0.1c0.1,0,0.1-0.1,0.2-0.2c0-0.1,0.1-0.3,0.1-0.6V17
	c0-0.3,0-0.5-0.1-0.6c0-0.1-0.1-0.2-0.2-0.2c-0.1-0.1-0.2-0.1-0.4-0.1H30V16h3.4v0.2H33c-0.2,0-0.3,0-0.4,0.1
	c-0.1,0-0.1,0.1-0.2,0.2c0,0.1-0.1,0.3-0.1,0.6v4c0,0.3,0,0.5,0.1,0.6c0,0.1,0.1,0.2,0.2,0.2s0.3,0,0.6,0h0.5c0.3,0,0.6-0.1,0.8-0.2
	c0.2-0.1,0.4-0.3,0.6-0.6c0.2-0.3,0.3-0.6,0.5-1.1L35.8,20.1L35.8,20.1z"/>
</svg>
