<?xml version="1.0" encoding="utf-8"?>
<!-- Generator: Adobe Illustrator 16.0.0, SVG Export Plug-In . SVG Version: 6.00 Build 0)  -->
<!DOCTYPE svg PUBLIC "-//W3C//DTD SVG 1.1//EN" "http://www.w3.org/Graphics/SVG/1.1/DTD/svg11.dtd">
<svg version="1.1" id="Layer_1" xmlns="http://www.w3.org/2000/svg" xmlns:xlink="http://www.w3.org/1999/xlink" x="0px" y="0px"
	 width="70px" height="70px" viewBox="0 0 70 70" enable-background="new 0 0 70 70" xml:space="preserve">
<rect fill="none" width="70" height="70"/>
<path fill="#E01E37" d="M49.3,15.2C59.4,18.3,66.8,27.7,66.8,38.7c0,1.6-0.2,3.2-0.5,4.7V43.6C65.5,47.9,63.8,51.9,61.2,55.4l0,0
	C65.6,49.8,68.3,42.7,68.3,35C68.3,16.8,53.4,2,35,2c-8.4,0-16,3.1-21.9,8.1L13,10.2c-4.6,4.2-7.5,10.2-7.5,16.9
	c0,2.8,0.5,5.4,1.4,7.9v0.1c2.3,5,7.4,8.5,13.4,8.5C28.4,43.6,35,37.1,35,29v-6.3c0-2.9,1.6-5.4,4-6.7l0,0c1.9-1,4-1.6,6.3-1.6
	C46.6,14.6,48,14.8,49.3,15.2L49.3,15.2"/>
<path fill="#21579E" d="M20.8,54.6C10.6,51.5,3.3,42.1,3.3,31.1c0-1.6,0.2-3.2,0.5-4.7v-0.2c0.8-4.3,2.5-8.3,5.1-11.8l0,0
	C4.4,19.9,1.8,27,1.8,34.7c0,18.2,14.9,33,33.3,33c8.4,0,16-3.101,21.9-8.101l0.1-0.101c4.602-4.2,7.5-10.2,7.5-16.899
	c0-2.801-0.5-5.399-1.398-7.899v-0.1c-2.301-5-7.4-8.5-13.4-8.5c-8.1,0-14.7,6.5-14.7,14.6V47c0,2.9-1.6,5.4-4,6.7l0,0
	c-1.9,1-4,1.6-6.3,1.6C23.4,55.2,22,55,20.8,54.6L20.8,54.6"/>
</svg>
