<?xml version="1.0" encoding="utf-8"?>
<!-- Generator: Adobe Illustrator 13.0.2, SVG Export Plug-In . SVG Version: 6.00 Build 14948)  -->
<!DOCTYPE svg PUBLIC "-//W3C//DTD SVG 1.1//EN" "http://www.w3.org/Graphics/SVG/1.1/DTD/svg11.dtd" [
	<!ENTITY ns_extend "http://ns.adobe.com/Extensibility/1.0/">
	<!ENTITY ns_ai "http://ns.adobe.com/AdobeIllustrator/10.0/">
	<!ENTITY ns_graphs "http://ns.adobe.com/Graphs/1.0/">
	<!ENTITY ns_vars "http://ns.adobe.com/Variables/1.0/">
	<!ENTITY ns_imrep "http://ns.adobe.com/ImageReplacement/1.0/">
	<!ENTITY ns_sfw "http://ns.adobe.com/SaveForWeb/1.0/">
	<!ENTITY ns_custom "http://ns.adobe.com/GenericCustomNamespace/1.0/">
	<!ENTITY ns_adobe_xpath "http://ns.adobe.com/XPath/1.0/">
]>
<svg version="1.1" id="Layer_1" xmlns:x="&ns_extend;" xmlns:i="&ns_ai;" xmlns:graph="&ns_graphs;"
	 xmlns="http://www.w3.org/2000/svg" xmlns:xlink="http://www.w3.org/1999/xlink" x="0px" y="0px" width="70px" height="70px"
	 viewBox="0 0 70 70" enable-background="new 0 0 70 70" xml:space="preserve">
<metadata>
	<sfw  xmlns="&ns_sfw;">
		<slices></slices>
		<sliceSourceBounds  x="0.5" y="-0.5" width="70" height="70" bottomLeftOrigin="true"></sliceSourceBounds>
	</sfw>
</metadata>
<rect fill="none" width="70" height="70"/>
<polygon fill="#159CD8" points="48.2,30.3 48.2,25.9 23,25.9 23,30.3 "/>
<path fill="#159CD8" d="M22.8,17.8c-1.9,0-3.4,1.5-3.4,3.4c0,1.9,1.5,3.4,3.4,3.4c1.9,0,3.4-1.5,3.4-3.4
	C26.2,19.3,24.6,17.8,22.8,17.8L22.8,17.8z"/>
<path fill="#159CD8" d="M31.2,17.7c-1.9,0-3.4,1.5-3.4,3.4s1.5,3.4,3.4,3.4c1.9,0,3.4-1.5,3.4-3.4C34.5,19.2,33,17.7,31.2,17.7
	L31.2,17.7z"/>
<path fill="#159CD8" d="M39.4,17.7c-1.9,0-3.4,1.5-3.4,3.4s1.5,3.4,3.4,3.4c1.899,0,3.399-1.5,3.399-3.4S41.2,17.7,39.4,17.7
	L39.4,17.7z"/>
<path fill="#159CD8" d="M47.9,17.7c-1.9,0-3.4,1.5-3.4,3.4s1.5,3.4,3.4,3.4c1.899,0,3.399-1.5,3.399-3.4S49.8,17.7,47.9,17.7
	L47.9,17.7z"/>
<polygon fill="#159CD8" points="36.3,17.8 36.3,11.4 34.4,11.4 34.4,17.8 "/>
<polygon fill="#159CD8" points="8.2,34.3 2,34.3 2,50.8 8.2,50.8 8.2,44.2 14.7,50.8 22.3,50.8 13.7,41.4 20.8,34.3 14.2,34.3 
	8.2,40.4 "/>
<polygon fill="#159CD8" points="22.8,34.3 28.8,34.3 28.8,46.7 39.4,46.7 39.4,50.8 22.8,50.8 "/>
<polygon fill="#159CD8" points="55.2,43.7 58.4,34.3 68.5,34.3 68.5,50.8 62.5,50.8 62.5,38.4 58.2,50.8 52.1,50.8 47.9,38.4 
	47.9,50.8 41.8,50.8 41.8,34.3 52.1,34.3 "/>
<polygon fill="#159CD8" points="38.7,15.6 38.7,13.7 32.3,13.7 32.3,15.6 "/>
</svg>
