<?xml version="1.0" encoding="utf-8"?>
<!-- Generator: Adobe Illustrator 13.0.2, SVG Export Plug-In . SVG Version: 6.00 Build 14948)  -->
<!DOCTYPE svg PUBLIC "-//W3C//DTD SVG 1.1//EN" "http://www.w3.org/Graphics/SVG/1.1/DTD/svg11.dtd" [
	<!ENTITY ns_extend "http://ns.adobe.com/Extensibility/1.0/">
	<!ENTITY ns_ai "http://ns.adobe.com/AdobeIllustrator/10.0/">
	<!ENTITY ns_graphs "http://ns.adobe.com/Graphs/1.0/">
	<!ENTITY ns_vars "http://ns.adobe.com/Variables/1.0/">
	<!ENTITY ns_imrep "http://ns.adobe.com/ImageReplacement/1.0/">
	<!ENTITY ns_sfw "http://ns.adobe.com/SaveForWeb/1.0/">
	<!ENTITY ns_custom "http://ns.adobe.com/GenericCustomNamespace/1.0/">
	<!ENTITY ns_adobe_xpath "http://ns.adobe.com/XPath/1.0/">
]>
<svg version="1.1" id="Layer_1" xmlns:x="&ns_extend;" xmlns:i="&ns_ai;" xmlns:graph="&ns_graphs;"
	 xmlns="http://www.w3.org/2000/svg" xmlns:xlink="http://www.w3.org/1999/xlink" x="0px" y="0px" width="70px" height="70px"
	 viewBox="0 0 70 70" enable-background="new 0 0 70 70" xml:space="preserve">
<metadata>
	<sfw  xmlns="&ns_sfw;">
		<slices></slices>
		<sliceSourceBounds  x="0.5" y="-0.5" width="70" height="70" bottomLeftOrigin="true"></sliceSourceBounds>
	</sfw>
</metadata>
<linearGradient id="SVGID_1_" gradientUnits="userSpaceOnUse" x1="542.4004" y1="757.1504" x2="611.2998" y2="757.1504" gradientTransform="matrix(1 0 0 1 -542 -722)">
	<stop  offset="0" style="stop-color:#B62025"/>
	<stop  offset="0.2692" style="stop-color:#DB1F26"/>
</linearGradient>
<polygon fill="url(#SVGID_1_)" points="0.4,34.6 0.4,53.6 69.3,33.4 69.3,16.7 19.1,16.7 "/>
<polygon fill="#DB1F26" points="0.4,34.6 0.4,43.5 33.8,31.2 32.9,16.7 19.1,16.7 "/>
<polygon fill="#099146" points="24.3,16.7 19.1,16.7 3,32.1 "/>
<linearGradient id="SVGID_2_" gradientUnits="userSpaceOnUse" x1="542.4004" y1="763.7998" x2="604.0777" y2="763.7998" gradientTransform="matrix(1 0 0 1 -542 -722)">
	<stop  offset="0" style="stop-color:#EDA021"/>
	<stop  offset="0.1604" style="stop-color:#EC9C22"/>
	<stop  offset="0.3197" style="stop-color:#EA8F23"/>
	<stop  offset="0.4787" style="stop-color:#E87C24"/>
	<stop  offset="0.6374" style="stop-color:#E56125"/>
	<stop  offset="0.7961" style="stop-color:#E13F26"/>
	<stop  offset="0.9526" style="stop-color:#DD1F26"/>
	<stop  offset="1" style="stop-color:#DB1F26"/>
</linearGradient>
<polygon fill="url(#SVGID_2_)" points="0.4,53.6 61.7,35.6 62,30 0.4,50.5 "/>
<polygon fill="#219CD8" points="69.3,33.4 69.3,29.7 22.3,47.1 "/>
<path fill="#FFFFFF" d="M26.8,23.9h0.7v4.7h0.6v-5.3h-1.3V23.9z M30,24.2v-1h-0.6v5.3H30v-3.2c0.2-0.7,0.6-1.4,1.3-1.4
	c0.3,0,0.6,0,0.6,0v-0.7c0,0-0.4,0-0.6,0C31,23.2,30.3,23.6,30,24.2z M28.1,21.2h-0.9v0.9h0.9V21.2z M24.3,23.1
	c-0.7,0-1.5,0.2-1.5,0.2l0.1,0.6c0,0,0.4-0.1,1.3-0.2c1.1,0,1.3,0.7,1.3,1c0,0.3,0,0.6,0,0.6s-0.6-0.1-1-0.1s-2.2,0.1-2.2,1.7
	s1.4,1.7,2.1,1.7c0.7,0,1.9-0.2,1.9-0.2s0-2.3,0-3.7C26.3,23.4,25,23.1,24.3,23.1z M25.5,27.9c0,0-0.7,0.2-1.1,0.2S23,28,23,27
	s1.5-1,1.6-1s0.9,0.1,0.9,0.1V27.9z M43.6,23c-1,0-1.699,0.3-1.699,0.3s-0.101,0.3,0,0.6c0.1,0.3,0.199,0.5,0.199,0.5
	s0.601-0.2,1.301-0.2c0.699,0,1,0.4,1,0.9c0,0-0.601,0-1.101,0c-0.399,0-2,0.4-2,1.8s1.4,1.7,2.5,1.7c1.2,0,2-0.3,2-0.3s0-2.8,0-3.5
	C45.9,24.2,45.3,23,43.6,23z M44.4,27.4c0,0-0.301,0.1-0.601,0.1S42.9,27.4,42.9,26.8c0-0.6,0.8-0.8,1.6-0.7v1.3H44.4z M53.2,27.4
	c0,0-0.4,0-0.601,0c-0.199,0-0.699-0.1-0.699-0.7c0-0.6,0-2.4,0-2.4h1.3c0,0,0.1-0.4,0.1-0.7c0-0.3-0.1-0.5-0.1-0.5H52v-1.6h-0.3
	l-2,2.5v0.3h0.7c0,0,0,2,0,2.8c0,0.8,0.699,1.6,1.899,1.6c0.4,0,1.101-0.2,1.101-0.2s0-0.3,0-0.6C53.3,27.6,53.2,27.4,53.2,27.4z
	 M58.4,24.9c0-0.7-0.5-1.8-2.301-1.8c-1,0-1.699,0.3-1.699,0.3s-0.101,0.3,0,0.6c0.1,0.3,0.199,0.5,0.199,0.5s0.601-0.2,1.301-0.2
	c0.699,0,1,0.4,1,0.9c0,0-0.601,0-1.101,0c-0.399,0-2,0.4-2,1.8s1.4,1.7,2.5,1.7c1.2,0,2-0.3,2-0.3S58.4,25.6,58.4,24.9z M56.9,27.4
	c0,0-0.301,0.1-0.601,0.1s-1-0.1-1-0.7c0-0.6,0.8-0.8,1.601-0.7V27.4z M38.7,23.1c-1,0-1.5,0.9-1.5,0.9S37,23,35.6,23
	c-0.899,0-1.5,0.8-1.5,0.8L34,23.1c0,0-0.3-0.1-0.7-0.1c-0.4,0-0.6,0.1-0.6,0.1v5.4c0,0,0.4,0.1,0.7,0.1c0.4,0,0.8-0.1,0.8-0.1
	s0-2.8,0-3.1c0-0.3,0.1-1.1,0.9-1.1c0.7,0,0.7,0.6,0.7,0.9c0,0.3,0,3.2,0,3.2s0.3,0.1,0.8,0.1c0.4,0,0.7-0.1,0.7-0.1s0-2.2,0-3
	c0-0.8,0.4-1.2,0.9-1.2c0.6,0,0.7,0.5,0.7,0.9s0,3.2,0,3.2s0.399,0.1,0.8,0.1c0.3,0,0.7-0.1,0.7-0.1s0-2.7,0-3.8
	C40.5,23.6,39.8,23.1,38.7,23.1z M49.4,27.4c0,0-0.101,0.1-0.4,0.1s-0.6-0.2-0.6-0.6s0-5.5,0-5.5s-0.301-0.1-0.7-0.1
	c-0.5,0-0.7,0.1-0.7,0.1s0,4.9,0,5.6c0,1.5,1.1,1.7,1.7,1.7c0.6,0,0.899-0.1,0.899-0.1s0-0.3,0-0.6C49.5,27.6,49.4,27.4,49.4,27.4z
	 M16.8,29.5l-3.2-3.1l3.2,7.7l3.2-7.7L16.8,29.5z M16.8,34.1l7.7,3.2l-3.1-3.2l3.1-3.2L16.8,34.1z M16.8,38.7l3.2,3.1l-3.2-7.7
	l-3.2,7.7L16.8,38.7z M12.3,34.1l-3.1,3.2l7.7-3.2l-7.7-3.2L12.3,34.1z"/>
<rect fill="none" width="70" height="70"/>
</svg>
