<?xml version="1.0" encoding="utf-8"?>
<!-- Generator: Adobe Illustrator 13.0.2, SVG Export Plug-In . SVG Version: 6.00 Build 14948)  -->
<!DOCTYPE svg PUBLIC "-//W3C//DTD SVG 1.1//EN" "http://www.w3.org/Graphics/SVG/1.1/DTD/svg11.dtd" [
	<!ENTITY ns_extend "http://ns.adobe.com/Extensibility/1.0/">
	<!ENTITY ns_ai "http://ns.adobe.com/AdobeIllustrator/10.0/">
	<!ENTITY ns_graphs "http://ns.adobe.com/Graphs/1.0/">
	<!ENTITY ns_vars "http://ns.adobe.com/Variables/1.0/">
	<!ENTITY ns_imrep "http://ns.adobe.com/ImageReplacement/1.0/">
	<!ENTITY ns_sfw "http://ns.adobe.com/SaveForWeb/1.0/">
	<!ENTITY ns_custom "http://ns.adobe.com/GenericCustomNamespace/1.0/">
	<!ENTITY ns_adobe_xpath "http://ns.adobe.com/XPath/1.0/">
]>
<svg version="1.1" id="Layer_1" xmlns:x="&ns_extend;" xmlns:i="&ns_ai;" xmlns:graph="&ns_graphs;"
	 xmlns="http://www.w3.org/2000/svg" xmlns:xlink="http://www.w3.org/1999/xlink" x="0px" y="0px" width="70px" height="70px"
	 viewBox="0 0 70 70" enable-background="new 0 0 70 70" xml:space="preserve">
<metadata>
	<sfw  xmlns="&ns_sfw;">
		<slices></slices>
		<sliceSourceBounds  x="0.5" y="-0.5" width="70" height="70" bottomLeftOrigin="true"></sliceSourceBounds>
	</sfw>
</metadata>
<rect fill="none" width="70" height="70"/>
<path fill="#26255E" d="M58.4,11.2C52.2,4.6,44.3,1.5,35.1,1.5C25.9,1.6,18,4.6,11,11.2C4.4,17.8,1.3,25.7,1.3,35
	c0,9.7,3.1,17.1,9.7,23.7c6.6,6.6,14.5,9.7,23.7,9.7s17.1-3.101,23.7-9.7C65,52.1,68.1,44.6,68.1,35C68.1,25.7,65,17.8,58.4,11.2z
	 M34.3,4.6c8.8,0,15.8,3.1,22,8.8C61.9,19.6,65,26.6,65,35c0,8.4-3.1,15.4-8.8,21.5C50,62.2,43,65.3,34.7,65.3
	c-8.3,0-15.4-3.1-21.5-8.8C7.5,50.3,4.4,43.3,4.4,35s3.1-15.4,8.8-21.5C19.3,7.7,26.4,4.6,34.3,4.6z"/>
<path fill="#26255E" d="M12.3,27.5l-0.4,1.8L7,27.9l-0.4,1.8c3.5,0.9,7.9,3.1,13.6,6.2c10.1,6.199,20.7,11,31.6,13.6l3.101-2.6h-2.2
	c-6.601,0-11.9-2.2-15.8-6.601C41.3,38.1,46.1,36.8,51.8,36.8l3.5,0.4l1.3-1.8h-4L43.4,35.8l0.399-1.3H57.4l1.3-1.8H44.8l0.4-0.9
	h14.5l0.899-1.3l-14.5-0.4l0.4-1.3l14.9,0.4l1.3-1.3L51,27l-11.9,0.9c-1.8,5.3-5.3,7.9-10.5,7.9c-2.2,0-4.8-0.9-7.9-2.6l-1.3-0.9
	l0.4-0.4l7,2.6l0.4-0.9L12.3,27.5z"/>
</svg>
