<?xml version="1.0" encoding="utf-8"?>
<!-- Generator: Adobe Illustrator 13.0.2, SVG Export Plug-In . SVG Version: 6.00 Build 14948)  -->
<!DOCTYPE svg PUBLIC "-//W3C//DTD SVG 1.1//EN" "http://www.w3.org/Graphics/SVG/1.1/DTD/svg11.dtd" [
	<!ENTITY ns_extend "http://ns.adobe.com/Extensibility/1.0/">
	<!ENTITY ns_ai "http://ns.adobe.com/AdobeIllustrator/10.0/">
	<!ENTITY ns_graphs "http://ns.adobe.com/Graphs/1.0/">
	<!ENTITY ns_vars "http://ns.adobe.com/Variables/1.0/">
	<!ENTITY ns_imrep "http://ns.adobe.com/ImageReplacement/1.0/">
	<!ENTITY ns_sfw "http://ns.adobe.com/SaveForWeb/1.0/">
	<!ENTITY ns_custom "http://ns.adobe.com/GenericCustomNamespace/1.0/">
	<!ENTITY ns_adobe_xpath "http://ns.adobe.com/XPath/1.0/">
]>
<svg version="1.1" id="Layer_1" xmlns:x="&ns_extend;" xmlns:i="&ns_ai;" xmlns:graph="&ns_graphs;"
	 xmlns="http://www.w3.org/2000/svg" xmlns:xlink="http://www.w3.org/1999/xlink" x="0px" y="0px" width="70px" height="70px"
	 viewBox="0 0 70 70" enable-background="new 0 0 70 70" xml:space="preserve">
<metadata>
	<sfw  xmlns="&ns_sfw;">
		<slices></slices>
		<sliceSourceBounds  x="0.5" y="-0.5" width="70" height="70" bottomLeftOrigin="true"></sliceSourceBounds>
	</sfw>
</metadata>
<rect fill="none" width="70" height="70"/>
<path fill="#1E2F5B" d="M31.4,18.7L31.4,18.7c-7.1,0.1-12.9,5.4-12.9,11.9c0,1.6,0.4,3.2,1,4.6h-7.9l4.6-16.4H8.1L1.5,42.4h0.1l0,0
	c0,0,28.5,0,30,0c7.2,0,13.1-5.301,13.1-11.9c0-1.6-0.4-3.2-1-4.6h7.6l-4.6,16.5H55l4.6-16.5H67l1.7-7.3H31.4V18.7z M31.7,35.2
	c-2.6,0-4.7-2.1-4.7-4.7s2.1-4.7,4.7-4.7c2.6,0,4.7,2.1,4.7,4.7S34.3,35.2,31.7,35.2z"/>
<path fill="#1E2F5B" d="M32.9,34.1c-0.5-0.4-2.1-1.6-2.4-1.8h5.7L36.1,32.2c0,0-0.1,0-0.199,0c-0.101,0-0.4-0.1-0.601-0.4h-1.2
	l0.1,0.1h0.4c0,0,0.1,0.2,0.3,0.3h-2.4l0,0c0-0.4-0.3-0.9-0.9-0.8s-1.1,0.1-1.1,0.1s2.5-4.1,2.6-4.3c0.1-0.1,0.4-1-0.4-1.4l-2.9,5.8
	l-4.5,0.7h4.4l3.3,3.3C33.1,35.3,33.5,34.5,32.9,34.1z"/>
</svg>
