<?xml version="1.0" encoding="utf-8"?>
<!-- Generator: Adobe Illustrator 16.0.0, SVG Export Plug-In . SVG Version: 6.00 Build 0)  -->
<!DOCTYPE svg PUBLIC "-//W3C//DTD SVG 1.1//EN" "http://www.w3.org/Graphics/SVG/1.1/DTD/svg11.dtd">
<svg version="1.1" id="Layer_1" xmlns="http://www.w3.org/2000/svg" xmlns:xlink="http://www.w3.org/1999/xlink" x="0px" y="0px"
	 width="70px" height="70px" viewBox="0 0 70 70" enable-background="new 0 0 70 70" xml:space="preserve">
<path fill-rule="evenodd" clip-rule="evenodd" fill="#3A4B78" d="M60.479,39.448c-0.165,0.462-0.331,0.925-0.496,1.388
	c-0.337,1-0.731,1.982-1.056,2.987c-0.091,0.28-0.255,0.469-0.535,0.558c-4.068,1.048-8.158,2.002-12.251,2.949
	c-3.393,0.785-6.836,1.24-10.286,1.682c-3.796,0.486-7.598,0.912-11.391,1.428c-3.076,0.419-6.168,0.706-9.258,1.014
	c-1.415,0.142-2.831,0.284-4.251,0.361c-0.232,0.045-0.464,0.061-0.699,0.061c-2.851-0.002-5.701,0.001-8.552-0.007
	c-0.233,0-0.513,0.098-0.7-0.195c0.359-0.246,0.781-0.247,1.159-0.381c0.14-0.022,0.266-0.086,0.399-0.125
	c6.007-1.233,12.051-2.264,18.09-3.327c5.827-1.025,11.686-1.864,17.5-2.973c5.314-1.013,10.608-2.136,15.812-3.627
	c1.913-0.549,3.808-1.176,5.672-1.877c0.219-0.082,0.434-0.188,0.68-0.132C60.413,39.27,60.499,39.318,60.479,39.448z"/>
<path fill-rule="evenodd" clip-rule="evenodd" fill="#3A4B78" d="M29.532,30.663c1.555-1.218,3.112-2.436,4.668-3.654
	c0.267-0.162,0.554-0.274,0.859-0.34c5.192-1.11,10.396-2.166,15.513-3.599c2.817-0.789,5.637-1.596,8.385-2.602
	c1.922-0.704,3.854-1.391,5.754-2.153c0.856-0.342,1.775-0.467,2.614-0.854c0.195-0.091,0.421-0.11,0.576,0.115
	c-0.031,0.711-0.425,1.315-0.607,1.982c-0.106,0.39-0.264,0.767-0.388,1.155c-0.297,0.748-0.528,1.521-0.805,2.278
	c-0.107,0.296-0.222,0.573-0.512,0.736c-2.368,0.803-4.797,1.392-7.213,2.019c-3.458,0.896-6.963,1.582-10.453,2.33
	c-3.416,0.732-6.874,1.244-10.323,1.793c-2.448,0.391-4.889,0.816-7.334,1.215c-0.279,0.046-0.584,0.162-0.806-0.144
	C29.43,30.834,29.442,30.738,29.532,30.663z"/>
<path fill-rule="evenodd" clip-rule="evenodd" fill="#C7C6C6" d="M2.312,51.384c-0.393,0.096-0.785,0.189-1.197,0.29
	c0.149,0.153,0.319,0.077,0.465,0.078c2.752,0.005,5.504,0.008,8.256,0c0.389-0.001,0.776-0.053,1.164-0.083
	c0.955,0.098,1.901-0.081,2.853-0.091c1.559-0.016,3.118,0.021,4.676-0.033c0.358,0.061,0.719,0.05,1.081,0.046
	c11.759-0.042,23.518-0.011,35.274-0.022c0.963,0,0.995-0.009,1.307-0.91c0.446-1.291,0.9-2.58,1.35-3.869
	c0.454-0.797,0.654-1.684,0.914-2.551c0.263-0.105,0.339-0.342,0.436-0.58c0.377-0.936,0.622-1.924,1.092-2.822
	c-0.07,0.812-0.481,1.515-0.722,2.273c-0.877,2.763-1.833,5.5-2.805,8.23C56.283,51.829,56.04,52,55.525,52
	c-17.976-0.012-35.951-0.011-53.926-0.011c-0.039,0-0.078,0.001-0.118,0c-0.252-0.005-0.603,0.027-0.644-0.256
	c-0.049-0.337,0.331-0.291,0.557-0.355c0.261-0.076,0.523-0.146,0.786-0.22C2.399,51.131,2.373,51.245,2.312,51.384z"/>
<path fill-rule="evenodd" clip-rule="evenodd" fill="#C9C9C9" d="M2.312,51.384c-0.004-0.099-0.039-0.178-0.132-0.226
	c1.292-0.719,2.65-1.319,3.835-2.225c2.132-1.629,4.283-3.236,6.4-4.884c2.348-1.827,4.667-3.688,7.001-5.536
	c2.546-2.014,5.083-4.04,7.646-6.033c0.806-0.627,1.549-1.344,2.469-1.817c-0.016,0.079-0.028,0.158-0.043,0.238
	c-0.062,0.271-0.277,0.413-0.478,0.567c-5.018,3.881-9.96,7.857-14.951,11.771c-2.811,2.203-5.6,4.435-8.532,6.476
	c-0.924,0.644-1.917,1.178-2.977,1.576C2.472,51.322,2.392,51.353,2.312,51.384z"/>
<path fill-rule="evenodd" clip-rule="evenodd" fill="#C9C9C9" d="M35.031,26.789c-0.257,0.146-0.545,0.18-0.831,0.22
	c0.893-0.897,1.951-1.591,2.94-2.368c2.914-2.29,5.854-4.547,8.784-6.816c2.087-1.617,4.173-3.237,6.267-4.849
	c0.196-0.152,0.437-0.249,0.657-0.372c0.084,0.033,0.149,0.08,0.143,0.184c-0.352,0.455-0.856,0.729-1.298,1.07
	c-4.445,3.431-8.87,6.886-13.312,10.32c-0.154,0.119-0.31,0.237-0.473,0.345C36.941,25.269,35.992,26.037,35.031,26.789z"/>
<path fill-rule="evenodd" clip-rule="evenodd" fill="#C8C8C8" d="M52.976,12.721c-0.041-0.039-0.086-0.079-0.128-0.117
	c0.573-0.347,1.213-0.292,1.825-0.23c2.008,0.198,4.011,0.445,6.018,0.664c1.583,0.172,3.167,0.327,4.749,0.497
	c1.023,0.11,2.045,0.226,3.065,0.353c0.451,0.056,0.686,0.406,0.541,0.9c-0.319,1.079-0.673,2.149-1.038,3.213
	c-0.308,0.901-0.651,1.791-0.98,2.686c-0.074,0.068-0.15,0.073-0.228,0c0.309-1.031,0.657-2.048,1.051-3.048
	c0.024-0.917,0.555-1.687,0.748-2.554c0.052-0.231,0.254-0.472-0.027-0.692c-1.016-0.321-2.078-0.306-3.119-0.43
	c-3.134-0.371-6.274-0.68-9.412-1.036c-0.867-0.099-1.739-0.241-2.621-0.119C53.267,12.829,53.107,12.84,52.976,12.721z"/>
<path fill-rule="evenodd" clip-rule="evenodd" fill="#C8C8C8" d="M66.8,20.687c0.076,0,0.153,0,0.228,0
	c-0.826,2.429-1.646,4.861-2.483,7.287c-0.924,2.683-1.84,5.369-2.809,8.036c-0.416,1.146-0.706,2.341-1.257,3.438
	c-0.045-0.044-0.091-0.089-0.137-0.134c-0.154-0.235-0.021-0.456,0.054-0.668c1.444-4.148,2.887-8.295,4.331-12.443
	c0.302-0.865,0.573-1.741,0.88-2.605c0.392-0.364,0.42-0.893,0.604-1.35C66.418,21.73,66.605,21.207,66.8,20.687z"/>
<path fill-rule="evenodd" clip-rule="evenodd" fill="#FFFFFF" d="M65.606,23.598c0.235,0.207,0.024,0.405-0.035,0.58
	c-1.013,2.949-2.039,5.892-3.06,8.838c-0.726,2.099-1.446,4.199-2.17,6.299c-1.386,0.469-2.764,0.959-4.157,1.402
	c-5.401,1.721-10.928,2.93-16.482,4.02c-6.83,1.341-13.721,2.332-20.574,3.537C13.711,49.229,8.289,50.156,2.9,51.271
	c-0.113,0.023-0.233,0.015-0.35,0.021c0.316-0.376,0.8-0.463,1.204-0.678c2.116-1.122,3.95-2.64,5.834-4.085
	c5.597-4.291,11.093-8.709,16.623-13.084c1.084-0.857,2.185-1.697,3.277-2.544c0.161,0.193,0.365,0.093,0.543,0.062
	c5.747-1.023,11.547-1.758,17.266-2.93c6.076-1.246,12.151-2.525,18.079-4.389C65.451,23.62,65.529,23.613,65.606,23.598z"/>
<path fill-rule="evenodd" clip-rule="evenodd" fill="#D4D6DF" d="M58.455,44.238c0.085,0.061,0.151,0.142,0.112,0.244
	c-0.281,0.738-0.415,1.529-0.808,2.227c-1.833,0.263-3.644,0.658-5.468,0.97c-5.484,0.937-10.954,1.972-16.477,2.674
	c-2.206,0.279-4.429,0.405-6.642,0.632c-2.231,0.228-4.47,0.368-6.706,0.56c-0.968,0.082-1.944,0.117-2.918,0.151
	c-0.311-0.027-0.629,0.059-0.936-0.056c-0.159,0.081-0.323,0.119-0.504,0.119c-2.26-0.004-4.52-0.004-6.78-0.004
	c-0.116,0-0.234,0.005-0.328-0.086c4.953-0.445,9.902-0.939,14.835-1.566c2.96-0.379,5.92-0.746,8.886-1.08
	c6.257-0.704,12.405-1.979,18.5-3.54C54.958,45.038,56.71,44.652,58.455,44.238z"/>
<path fill-rule="evenodd" clip-rule="evenodd" fill="#D4D6DF" d="M68.798,14.353c0.16,0.145,0.107,0.309,0.048,0.478
	c-0.331,0.936-0.664,1.872-0.995,2.808c-0.167-0.192-0.349-0.089-0.531-0.028c-2.542,0.847-5.035,1.831-7.558,2.736
	c-5.52,1.979-11.166,3.534-16.889,4.807c-2.455,0.547-4.917,1.063-7.375,1.589c-0.152,0.033-0.312,0.032-0.467,0.047
	c-0.09-0.393,0.307-0.385,0.478-0.528c0.753-0.632,1.542-1.222,2.319-1.825c3.136-0.889,6.328-1.56,9.461-2.462
	c4.205-1.211,8.385-2.493,12.482-4.032c2.854-1.071,5.631-2.322,8.467-3.431C68.418,14.439,68.597,14.353,68.798,14.353z"/>
<path fill-rule="evenodd" clip-rule="evenodd" fill="#FFFFFF" d="M19.547,51.64c1.544-0.153,3.086-0.348,4.634-0.44
	c1.087-0.062,2.17-0.157,3.253-0.26c1.681-0.159,3.36-0.33,5.044-0.448c1.609-0.111,3.21-0.298,4.807-0.499
	c1.328-0.167,2.649-0.392,3.971-0.606c2.276-0.376,4.553-0.756,6.828-1.147c2.084-0.357,4.165-0.73,6.247-1.101
	c1.05-0.187,2.1-0.38,3.146-0.582c0.164-0.032,0.269-0.048,0.283,0.153c-0.543,1.539-1.091,3.076-1.618,4.617
	c-0.104,0.305-0.241,0.437-0.578,0.436c-12.005-0.011-24.009-0.015-36.014-0.017c-0.04-0.022-0.054-0.045-0.042-0.071
	C19.521,51.65,19.534,51.64,19.547,51.64z"/>
<path fill-rule="evenodd" clip-rule="evenodd" fill="#F4F5F7" d="M19.547,51.64c0,0.034,0.001,0.069,0.002,0.105
	c-0.312-0.032-0.646,0.127-0.937-0.105C18.924,51.64,19.236,51.64,19.547,51.64z"/>
<path fill-rule="evenodd" clip-rule="evenodd" fill="#FFFFFF" d="M68.798,14.353c-0.453,0.432-1.075,0.504-1.617,0.738
	c-2.02,0.873-4.045,1.736-6.1,2.521c-3.342,1.278-6.723,2.444-10.16,3.452c-2.648,0.778-5.301,1.539-7.974,2.226
	c-1.617,0.415-3.242,0.802-4.862,1.206c-0.105,0.026-0.187,0.029-0.257-0.061c4.57-3.539,9.14-7.079,13.711-10.617
	c0.478-0.369,0.958-0.732,1.437-1.098c1.086-0.299,2.165-0.051,3.242,0.052c1.582,0.15,3.161,0.348,4.742,0.525
	c1.657,0.184,3.314,0.369,4.973,0.552c0.79,0.088,1.581,0.177,2.372,0.257C68.505,14.128,68.696,14.146,68.798,14.353z"/>
<path fill-rule="evenodd" clip-rule="evenodd" fill="#FFFFFF" d="M45.465,34.014c0.11-0.026,0.207,0.078,0.305,0.218
	c0.679,0.979,0.57,1.068,0.056,2.171c-0.559,1.193-1.573,1.227-2.597,1.385c-0.157,0.026-0.261-0.037-0.334-0.171
	c-0.195-0.359-0.393-0.719-0.587-1.079c-0.087-0.162-0.018-0.298,0.073-0.434c0.15-0.229,0.346-0.442,0.433-0.693
	C43.258,34.156,44.375,34.193,45.465,34.014z"/>
<path fill-rule="evenodd" clip-rule="evenodd" fill="#EFF0F4" d="M44.103,33.531c0.019-0.234,0.181-0.385,0.295-0.559
	c0.104-0.155,0.159-0.425,0.354-0.421c0.234,0.006,0.242,0.308,0.358,0.474c0.184,0.264,0.137,0.43-0.212,0.441
	C44.634,33.475,44.381,33.626,44.103,33.531z"/>
<path fill-rule="evenodd" clip-rule="evenodd" fill="#EFF0F4" d="M45.985,37.308c0.166-0.272,0.256-0.44,0.365-0.593
	c0.12-0.17,0.18-0.48,0.379-0.471c0.244,0.012,0.242,0.354,0.37,0.537c0.151,0.216,0.099,0.355-0.172,0.393
	C46.662,37.21,46.396,37.249,45.985,37.308z"/>
<path fill-rule="evenodd" clip-rule="evenodd" fill="#F2F2F4" d="M41.135,38.057c0.216-0.336,0.428-0.674,0.682-1.075
	c0.235,0.298,0.547,0.644,0.442,0.856c-0.182,0.364-0.696,0.146-1.032,0.338C41.197,38.137,41.167,38.098,41.135,38.057z"/>
<path fill-rule="evenodd" clip-rule="evenodd" fill="#F2F2F4" d="M42.526,34.537c-0.154,0.432-0.396,0.748-0.657,1.09
	c-0.26-0.241-0.579-0.621-0.452-0.811C41.619,34.512,42.11,34.616,42.526,34.537z"/>
<path fill-rule="evenodd" clip-rule="evenodd" fill="#F2F2F4" d="M47.412,33.756c-0.005,0.223-0.154,0.363-0.258,0.52
	c-0.113,0.17-0.165,0.47-0.382,0.459c-0.22-0.01-0.236-0.322-0.352-0.492c-0.167-0.244-0.116-0.402,0.196-0.41
	C46.884,33.826,47.137,33.686,47.412,33.756z"/>
<path fill-rule="evenodd" clip-rule="evenodd" fill="#F4F5F7" d="M44.571,38.256c-0.229,0.433-0.412,0.781-0.717,1.1
	c-0.177-0.305-0.539-0.618-0.365-0.871C43.65,38.251,44.112,38.275,44.571,38.256z"/>
<path fill-rule="evenodd" clip-rule="evenodd" fill="#3A4B78" d="M44.501,31.154c0.424,0.708,0.84,1.379,1.229,2.062
	c0.105,0.186,0.221,0.219,0.427,0.197c0.856-0.09,1.714-0.166,2.585-0.248c0.01,0.082-0.049,0.134-0.083,0.189
	c-0.452,0.734-0.899,1.471-1.357,2.203c-0.066,0.104-0.057,0.18,0.005,0.279c0.384,0.629,0.752,1.266,1.141,1.894
	c0.102,0.164,0.049,0.18-0.12,0.192c-0.81,0.066-1.62,0.145-2.43,0.208c-0.137,0.011-0.21,0.06-0.274,0.166
	c-0.412,0.681-0.836,1.357-1.247,2.038c-0.082,0.137-0.117,0.164-0.214,0.007c-0.372-0.605-0.759-1.204-1.133-1.81
	c-0.064-0.104-0.13-0.141-0.263-0.127c-0.817,0.075-1.634,0.143-2.45,0.213c-0.04,0.004-0.082,0.004-0.121,0.006
	c-0.022-0.074,0.031-0.117,0.06-0.166c0.404-0.699,0.806-1.399,1.219-2.094c0.07-0.119,0.062-0.204-0.01-0.316
	c-0.408-0.638-0.807-1.281-1.216-1.92c-0.083-0.129-0.069-0.162,0.098-0.178c0.802-0.068,1.604-0.152,2.407-0.219
	c0.188-0.016,0.297-0.072,0.385-0.232c0.422-0.748,0.861-1.49,1.294-2.234C44.446,31.236,44.465,31.211,44.501,31.154z"/>
<path fill-rule="evenodd" clip-rule="evenodd" fill="#FFFFFF" d="M43.602,37.602c-0.143,0.045-0.229-0.02-0.309-0.154
	c-0.237-0.401-0.488-0.795-0.741-1.189c-0.062-0.092-0.069-0.164-0.011-0.264c0.289-0.478,0.57-0.961,0.85-1.443
	c0.047-0.079,0.096-0.127,0.203-0.137c0.559-0.047,1.115-0.099,1.674-0.154c0.084-0.008,0.128,0.016,0.167,0.08
	c0.27,0.451,0.541,0.901,0.816,1.35c0.039,0.064,0.037,0.113,0,0.178c-0.304,0.493-0.607,0.986-0.9,1.484
	c-0.059,0.098-0.143,0.111-0.241,0.121C44.613,37.515,44.118,37.557,43.602,37.602z"/>
<path fill-rule="evenodd" clip-rule="evenodd" fill="#FFFFFF" d="M46.306,34.164c0.355-0.033,0.678-0.062,1.038-0.096
	c-0.19,0.312-0.359,0.59-0.554,0.908C46.621,34.693,46.471,34.441,46.306,34.164z"/>
<path fill-rule="evenodd" clip-rule="evenodd" fill="#FDFDFE" d="M42.024,35.41c-0.161-0.254-0.302-0.48-0.446-0.706
	c-0.046-0.071-0.033-0.104,0.058-0.111c0.291-0.024,0.581-0.05,0.907-0.079C42.365,34.82,42.202,35.104,42.024,35.41z"/>
<path fill-rule="evenodd" clip-rule="evenodd" fill="#FDFDFE" d="M46.733,36.492c0.15,0.248,0.277,0.461,0.409,0.674
	c0.05,0.08,0.057,0.123-0.068,0.131c-0.279,0.02-0.558,0.049-0.882,0.078C46.377,37.072,46.546,36.799,46.733,36.492z"/>
<path fill-rule="evenodd" clip-rule="evenodd" fill="#FDFDFE" d="M42.007,36.916c0.154,0.242,0.288,0.459,0.427,0.671
	c0.059,0.091,0.034,0.12-0.077,0.128c-0.27,0.02-0.539,0.045-0.861,0.072C41.672,37.488,41.832,37.215,42.007,36.916z"/>
<path fill-rule="evenodd" clip-rule="evenodd" fill="#FDFDFE" d="M43.939,33.615c0.182-0.31,0.34-0.578,0.519-0.885
	c0.156,0.258,0.298,0.486,0.434,0.717c0.044,0.074-0.021,0.084-0.079,0.089C44.535,33.561,44.259,33.586,43.939,33.615z"/>
<path fill-rule="evenodd" clip-rule="evenodd" fill="#FDFEFF" d="M44.808,38.232c-0.173,0.282-0.326,0.537-0.501,0.826
	c-0.149-0.236-0.285-0.449-0.418-0.662c-0.045-0.072,0.002-0.09,0.068-0.094C44.228,38.281,44.497,38.258,44.808,38.232z"/>
</svg>
