<?xml version="1.0" encoding="utf-8"?>
<!-- Generator: Adobe Illustrator 13.0.2, SVG Export Plug-In . SVG Version: 6.00 Build 14948)  -->
<!DOCTYPE svg PUBLIC "-//W3C//DTD SVG 1.1//EN" "http://www.w3.org/Graphics/SVG/1.1/DTD/svg11.dtd" [
	<!ENTITY ns_extend "http://ns.adobe.com/Extensibility/1.0/">
	<!ENTITY ns_ai "http://ns.adobe.com/AdobeIllustrator/10.0/">
	<!ENTITY ns_graphs "http://ns.adobe.com/Graphs/1.0/">
	<!ENTITY ns_vars "http://ns.adobe.com/Variables/1.0/">
	<!ENTITY ns_imrep "http://ns.adobe.com/ImageReplacement/1.0/">
	<!ENTITY ns_sfw "http://ns.adobe.com/SaveForWeb/1.0/">
	<!ENTITY ns_custom "http://ns.adobe.com/GenericCustomNamespace/1.0/">
	<!ENTITY ns_adobe_xpath "http://ns.adobe.com/XPath/1.0/">
]>
<svg version="1.1" id="Layer_1" xmlns:x="&ns_extend;" xmlns:i="&ns_ai;" xmlns:graph="&ns_graphs;"
	 xmlns="http://www.w3.org/2000/svg" xmlns:xlink="http://www.w3.org/1999/xlink" x="0px" y="0px" width="70px" height="70px"
	 viewBox="0 0 70 70" enable-background="new 0 0 70 70" xml:space="preserve">
<metadata>
	<sfw  xmlns="&ns_sfw;">
		<slices></slices>
		<sliceSourceBounds  x="0.5" y="-0.5" width="70" height="70" bottomLeftOrigin="true"></sliceSourceBounds>
	</sfw>
</metadata>
<rect fill="none" width="70" height="70"/>
<path fill="#14477C" d="M8.1,34.5l-0.2,0.8l0,0c0,0,6.3,0,6.4,0c1.2,0.1,2.9,0.601,2.2,3.4l-1.8,6.7c0,0-0.9,3.1-4.1,3.3H4.2L3.8,50
	h14.8c2.2,0,3.7-1.9,4.1-3.2l1.7-6.399c0,0,1.7-5,5.8-5c4,0,3.2,3.9,2.9,5l-4,14.5C28.9,55.8,26.7,58.8,22.5,58.8l0,0H1.4L1,60.1
	h22.6c7.5,0,17.1-1,25.7-8.8c4.5-4.1,6.101-6.899,7.4-9.1c1-1.601,1.7-2.8,3.2-4c3.6-2.8,4.699-2.8,8-2.8h0.3l0.2-0.9H8.1z"/>
<path fill="#E51E27" d="M68.6,34.5L68.7,34h-0.3l0,0C65.1,34,64,34,62,31.2c-0.8-1.2-0.9-2.4-1-4c-0.1-2.3-0.2-5.1-2.4-9.1
	C54.3,10.3,45.2,9.3,37.7,9.3H15l-0.4,1.3h21.9c3.5,0.3,3.9,3.1,3.7,3.9l-4,14.5c-0.3,1.2-1.7,5-5.6,5c-4.1,0-3.1-4.9-3.1-5l1.8-6.4
	c0.4-1.3-0.1-3.2-2.3-3.2H12.3l-0.4,1.3h6.2c3.1,0.2,2.3,3.2,2.3,3.3l-1.8,6.7c-0.8,2.7-2.7,3.3-4,3.4c-0.1,0-6.3,0-6.3,0l0,0
	l-0.1,0.5L68.6,34.5L68.6,34.5z"/>
</svg>
