<?xml version="1.0" encoding="utf-8"?>
<!-- Generator: Adobe Illustrator 13.0.2, SVG Export Plug-In . SVG Version: 6.00 Build 14948)  -->
<!DOCTYPE svg PUBLIC "-//W3C//DTD SVG 1.1//EN" "http://www.w3.org/Graphics/SVG/1.1/DTD/svg11.dtd" [
	<!ENTITY ns_extend "http://ns.adobe.com/Extensibility/1.0/">
	<!ENTITY ns_ai "http://ns.adobe.com/AdobeIllustrator/10.0/">
	<!ENTITY ns_graphs "http://ns.adobe.com/Graphs/1.0/">
	<!ENTITY ns_vars "http://ns.adobe.com/Variables/1.0/">
	<!ENTITY ns_imrep "http://ns.adobe.com/ImageReplacement/1.0/">
	<!ENTITY ns_sfw "http://ns.adobe.com/SaveForWeb/1.0/">
	<!ENTITY ns_custom "http://ns.adobe.com/GenericCustomNamespace/1.0/">
	<!ENTITY ns_adobe_xpath "http://ns.adobe.com/XPath/1.0/">
]>
<svg version="1.1" id="Layer_1" xmlns:x="&ns_extend;" xmlns:i="&ns_ai;" xmlns:graph="&ns_graphs;"
	 xmlns="http://www.w3.org/2000/svg" xmlns:xlink="http://www.w3.org/1999/xlink" x="0px" y="0px" width="70px" height="70px"
	 viewBox="0 0 70 70" enable-background="new 0 0 70 70" xml:space="preserve">
<metadata>
	<sfw  xmlns="&ns_sfw;">
		<slices></slices>
		<sliceSourceBounds  x="0.5" y="-0.5" width="70" height="70" bottomLeftOrigin="true"></sliceSourceBounds>
	</sfw>
</metadata>
<rect fill="none" width="70" height="70"/>
<path fill="#2B3C8B" d="M18.9,24.2H24l3.3,11.5c0.1,0.399,0.4,0.3,0.5,0l2.1-11.5h2.2L29.5,39h-5.2L21,27.6c-0.1-0.3-0.4-0.4-0.5,0
	l-2,11.3h-2.3L18.9,24.2L18.9,24.2z"/>
<path fill="#2B3C8B" d="M9.6,24.2h4.9l1,14.8h-3.7l-0.1-1.7c0-0.399-0.3-0.6-0.7-0.6H5.5l1.2-2.1h3.9c0.4,0,1,0.1,0.9-0.5l-0.4-6.6
	c0-0.4-0.4-0.7-0.6-0.2L3.6,39H1L9.6,24.2L9.6,24.2z"/>
<path fill="#2B3C8B" d="M37.8,24.2h5L43.9,39h-3.7L40.1,37.3c0-0.399-0.3-0.6-0.6-0.6h-5.2l1.2-2.1H39c0.4,0,1,0.1,0.9-0.5
	L39.3,27.5c0-0.4-0.399-0.7-0.6-0.2L32.5,39H30L37.8,24.2L37.8,24.2z"/>
<polygon fill="#2B3C8B" points="56.1,39 65.9,22 54.8,22 45,39 "/>
<polygon fill="#41A0D9" points="65.9,22 56.1,39 58.9,39 68.6,22 "/>
</svg>
