<?xml version="1.0" encoding="utf-8"?>
<!-- Generator: Adobe Illustrator 13.0.2, SVG Export Plug-In . SVG Version: 6.00 Build 14948)  -->
<!DOCTYPE svg PUBLIC "-//W3C//DTD SVG 1.1//EN" "http://www.w3.org/Graphics/SVG/1.1/DTD/svg11.dtd" [
	<!ENTITY ns_extend "http://ns.adobe.com/Extensibility/1.0/">
	<!ENTITY ns_ai "http://ns.adobe.com/AdobeIllustrator/10.0/">
	<!ENTITY ns_graphs "http://ns.adobe.com/Graphs/1.0/">
	<!ENTITY ns_vars "http://ns.adobe.com/Variables/1.0/">
	<!ENTITY ns_imrep "http://ns.adobe.com/ImageReplacement/1.0/">
	<!ENTITY ns_sfw "http://ns.adobe.com/SaveForWeb/1.0/">
	<!ENTITY ns_custom "http://ns.adobe.com/GenericCustomNamespace/1.0/">
	<!ENTITY ns_adobe_xpath "http://ns.adobe.com/XPath/1.0/">
]>
<svg version="1.1" id="Layer_1" xmlns:x="&ns_extend;" xmlns:i="&ns_ai;" xmlns:graph="&ns_graphs;"
	 xmlns="http://www.w3.org/2000/svg" xmlns:xlink="http://www.w3.org/1999/xlink" x="0px" y="0px" width="70px" height="70px"
	 viewBox="0 0 70 70" enable-background="new 0 0 70 70" xml:space="preserve">
<metadata>
	<sfw  xmlns="&ns_sfw;">
		<slices></slices>
		<sliceSourceBounds  x="0.5" y="-0.5" width="74.1" height="70" bottomLeftOrigin="true"></sliceSourceBounds>
	</sfw>
</metadata>
<rect fill="none" width="70" height="70"/>
<g>
	<path fill="#FFFFFF" d="M42.3,36.7c-0.1-0.5,0-0.9-2.5-0.7S7.5,38.6,3.6,38.6C3.1,38.6,1,38.7,1.2,39.7c0.2,0.899,1.4,1,1.7,1
		C3.3,40.7,7,41.2,8,42.1c1.6,1.4-0.4,5.5-3.2,7.4c-5.2,3.7-2.5,3.9-1.1,3c7-4.3,19.2-9.9,36.399-14.4
		C40.2,38.1,42.5,37.6,42.3,36.7"/>
	<path fill="#FDFEFF" d="M3.9,38.6c-0.5,0-2.6,0.101-2.4,1c0.2,0.9,1.4,1,1.8,1c0.4,0,4,0.4,5,1.4c1.6,1.4-0.4,5.4-3.2,7.4
		c-5,3.6-2.4,3.8-1.1,3C10.8,48.2,22.9,42.6,40,38.1c0,0,2.2-0.5,2-1.399c-0.1-0.4,0-0.9-2.4-0.7C37.2,36.2,7.7,38.6,3.9,38.6"/>
	<path fill="#FAFAFA" d="M4.1,38.7c-0.5,0-2.5,0.1-2.4,1c0.2,0.899,1.4,0.899,1.8,1c0.3,0,4,0.399,5,1.399C10,43.5,8,47.5,5.3,49.4
		C0.4,52.9,3,53.1,4.3,52.3c6.6-4,18.7-9.7,35.5-14.1c0,0,2.2-0.5,2-1.4c-0.1-0.399,0-0.899-2.399-0.7C37,36.3,7.9,38.7,4.1,38.7"/>
	<path fill="#F7F8F9" d="M4.3,38.7c-0.5,0-2.5,0.1-2.3,1c0.2,0.899,1.4,0.899,1.8,1c0.3,0,4,0.399,4.9,1.399
		c1.5,1.4-0.5,5.301-3.2,7.2c-4.8,3.4-2.3,3.601-0.9,2.8C11,48.2,23,42.6,39.7,38.2c0,0,2.2-0.5,2-1.4c-0.101-0.399,0-0.8-2.4-0.7
		C36.9,36.3,8,38.7,4.3,38.7"/>
	<path fill="#F6F7F8" d="M4.5,38.8c-0.5,0-2.5,0.101-2.3,1c0.2,0.8,1.4,0.9,1.8,0.9c0.3,0,3.9,0.399,4.8,1.399
		c1.4,1.4-0.6,5.2-3.2,7.101c-4.7,3.3-2.2,3.5-0.9,2.7c6.2-3.801,18.1-9.4,34.7-13.7c0,0,2.199-0.5,2-1.3
		C41.3,36.5,41.4,36.1,39,36.3C36.7,36.4,8.2,38.8,4.5,38.8"/>
</g>
<g>
	<path fill="#F5F5F5" d="M4.7,38.8c-0.5,0-2.5,0.101-2.3,1c0.2,0.8,1.5,0.9,1.8,0.9C4.5,40.7,8.1,41.1,9,42.1c1.4,1.5-0.6,5.2-3.2,7
		C1.3,52.3,3.7,52.5,5,51.7c6-3.7,17.9-9.2,34.2-13.5c0,0,2.2-0.5,2-1.3c-0.101-0.4,0-0.801-2.4-0.601C36.5,36.5,8.4,38.8,4.7,38.8"
		/>
	<path fill="#F3F4F4" d="M4.9,38.9c-0.5,0-2.4,0.1-2.3,0.899c0.2,0.8,1.5,0.8,1.8,0.9c0.3,0,3.8,0.399,4.7,1.399
		c1.3,1.5-0.6,5.101-3.2,7c-4.4,3.2-2,3.301-0.7,2.5C11,48,22.7,42.5,39,38.2c0,0,2.2-0.5,2-1.3c-0.1-0.4,0-0.801-2.3-0.601
		C36.3,36.5,8.5,38.9,4.9,38.9"/>
	<path fill="#F2F3F3" d="M5.1,38.9c-0.5,0-2.4,0.1-2.3,0.899c0.2,0.8,1.5,0.8,1.8,0.9c0.3,0,3.8,0.399,4.7,1.399
		c1.3,1.5-0.7,5-3.2,6.9c-4.3,3.1-1.9,3.2-0.6,2.5c5.6-3.4,17.3-8.9,33.4-13.1c0,0,2.199-0.5,2-1.301C40.8,36.7,40.9,36.4,38.6,36.5
		C36.2,36.6,8.7,38.9,5.1,38.9"/>
	<path fill="#F2F2F2" d="M5.3,38.9c-0.5,0-2.4,0.1-2.2,0.899c0.1,0.8,1.5,0.8,1.8,0.8c0.3,0,3.8,0.4,4.6,1.301
		c1.3,1.5-0.7,5-3.2,6.8c-4.2,3-1.8,3.1-0.6,2.399c5.4-3.3,17-8.8,32.899-12.899c0,0,2.2-0.5,2-1.2c-0.1-0.4,0-0.7-2.3-0.5
		C36,36.6,8.9,38.9,5.3,38.9"/>
	<path fill="#F0F0F0" d="M5.5,39c-0.4,0-2.4,0.1-2.2,0.9c0.1,0.699,1.5,0.8,1.8,0.8c0.3,0,3.7,0.399,4.5,1.3
		c1.2,1.5-0.8,4.9-3.3,6.7c-4,2.899-1.8,3-0.5,2.3c5.2-3.2,16.8-8.6,32.5-12.7c0,0,2.2-0.5,2-1.2c-0.1-0.399,0-0.699-2.3-0.5
		C35.8,36.7,9,39,5.5,39"/>
	<path fill="#EFEEEE" d="M5.7,39c-0.4,0-2.4,0.1-2.2,0.9C3.6,40.6,5,40.6,5.3,40.7C5.6,40.7,9,41.1,9.8,42c1.2,1.5-0.8,4.9-3.3,6.6
		c-3.9,2.801-1.7,2.9-0.4,2.2c5.1-3,16.5-8.5,32.1-12.6c0,0,2.1-0.5,2-1.2c-0.101-0.4,0-0.7-2.2-0.5C35.7,36.8,9.2,39,5.7,39"/>
	<path fill="#EEEDEE" d="M5.9,39.1c-0.4,0-2.3,0.101-2.2,0.801C3.8,40.6,5.2,40.6,5.5,40.7c0.3,0,3.7,0.399,4.4,1.3
		c1.1,1.5-0.8,4.8-3.3,6.6C2.8,51.3,5,51.5,6.2,50.7c4.9-2.9,16.2-8.3,31.6-12.4c0,0,2.101-0.5,2-1.2c-0.1-0.399,0-0.6-2.2-0.5
		C35.5,36.8,9.4,39.1,5.9,39.1"/>
	<path fill="#EBECEC" d="M6.1,39.1c-0.4,0-2.3,0.101-2.2,0.801C4,40.6,5.4,40.6,5.8,40.6c0.3,0,3.6,0.4,4.3,1.301
		c1.1,1.5-0.9,4.699-3.3,6.5c-3.6,2.6-1.5,2.8-0.3,2c4.7-2.801,16-8.2,31.2-12.2c0,0,2.1-0.5,2-1.101c-0.101-0.399,0-0.6-2.2-0.399
		S9.5,39.1,6.1,39.1"/>
	<path fill="#EAEBEB" d="M6.3,39.1C5.9,39.1,4,39.2,4.2,39.9C4.3,40.6,5.8,40.6,6.1,40.6c0.3,0,3.6,0.4,4.3,1.301
		c1,1.5-0.9,4.699-3.3,6.399C3.6,50.9,5.7,51,6.9,50.2c4.5-2.7,15.7-8.101,30.7-12c0,0,2.101-0.5,2-1.101
		c-0.1-0.399,0-0.6-2.199-0.399C35.1,37,9.7,39.1,6.3,39.1"/>
	<path fill="#E9E9E9" d="M6.5,39.2c-0.4,0-2.3,0.1-2.1,0.8c0.1,0.6,1.6,0.6,1.9,0.7c0.3,0,3.6,0.399,4.2,1.3c1,1.5-1,4.6-3.3,6.3
		C3.8,50.8,5.8,50.9,7,50.2c4.3-2.601,15.4-7.9,30.3-11.8c0,0,2.101-0.5,2-1.101c-0.1-0.399,0-0.5-2.2-0.399
		C35,37,9.9,39.2,6.5,39.2"/>
	<path fill="#E8E8E8" d="M6.7,39.2c-0.4,0-2.2,0.1-2.1,0.8c0.1,0.6,1.6,0.6,1.9,0.7c0.3,0,3.5,0.399,4.1,1.3c0.9,1.5-1,4.5-3.3,6.2
		C4,50.6,6,50.7,7.2,50c4.1-2.4,15.1-7.8,29.899-11.6c0,0,2.101-0.5,2-1.101C39,36.9,39.1,36.8,37,36.9C34.8,37.1,10,39.2,6.7,39.2"
		/>
	<path fill="#E7E7E7" d="M6.9,39.3c-0.4,0-2.2,0.101-2.1,0.7c0.1,0.6,1.6,0.6,1.9,0.6c0.3,0,3.5,0.4,4.1,1.301
		c0.9,1.5-1,4.5-3.3,6.1c-3.1,2.3-1.2,2.4,0,1.7c3.9-2.3,14.9-7.601,29.4-11.4c0,0,2.1-0.5,2-1C38.8,36.9,38.9,36.8,36.8,37
		C34.6,37.1,10.2,39.3,6.9,39.3"/>
	<path fill="#E4E5E6" d="M7.1,39.3C6.7,39.3,4.9,39.4,5,40s1.6,0.6,1.9,0.6c0.3,0,3.5,0.4,4,1.301c0.9,1.5-1.1,4.399-3.3,6.1
		c-3,2.2-1.1,2.3,0,1.6c3.7-2.199,14.6-7.5,29-11.199c0,0,2.101-0.5,2-1c-0.1-0.4-0.1-0.5-2.1-0.301C34.5,37.2,10.4,39.3,7.1,39.3"
		/>
	<path fill="#E3E4E5" d="M7.3,39.3c-0.4,0-2.2,0.101-2,0.7c0.1,0.6,1.6,0.5,1.9,0.6c0.3,0,3.4,0.4,3.9,1.301c0.8,1.5-1.1,4.3-3.4,6
		c-2.9,2.1-1,2.199,0.1,1.5C11.3,47.3,22.1,42.1,36.4,38.3c0,0,2.1-0.5,2-1C38.3,36.9,38.3,36.9,36.3,37
		C34.3,37.3,10.5,39.3,7.3,39.3"/>
	<path fill="#E1E2E4" d="M7.5,39.4c-0.4,0-2.1,0.1-2,0.699c0.1,0.5,1.6,0.5,1.9,0.601c0.3,0,3.4,0.399,3.9,1.3
		c0.8,1.5-1.2,4.3-3.4,5.9c-2.8,2-1,2.1,0.2,1.399C11.4,47.4,22.2,42.1,36.2,38.4c0,0,2.1-0.5,2-1C38.1,37,38.1,37,36.1,37.1
		C34.1,37.3,10.7,39.4,7.5,39.4"/>
	<path fill="#E0E1E2" d="M7.7,39.4c-0.4,0-2.1,0.1-2,0.699c0.1,0.5,1.7,0.5,1.9,0.5c0.3,0,3.4,0.4,3.8,1.301
		c0.7,1.5-1.2,4.199-3.4,5.8c-2.6,1.899-0.9,2,0.2,1.3c3.1-1.8,13.8-7,27.7-10.7c0,0,2.1-0.5,2-0.899C37.8,37,37.8,37,35.9,37.2
		C33.9,37.4,10.8,39.4,7.7,39.4"/>
	<path fill="#E0E1E1" d="M7.9,39.5c-0.4,0-2.1,0.1-2,0.6s1.7,0.5,1.9,0.5c0.3,0,3.3,0.4,3.7,1.301c0.7,1.5-1.2,4.1-3.4,5.699
		c-2.5,1.9-0.8,1.9,0.3,1.301c2.9-1.7,13.5-6.9,27.2-10.5c0,0,2.101-0.5,2-0.9c-0.1-0.4-0.1-0.4-2-0.2C33.8,37.5,11,39.5,7.9,39.5"
		/>
	<path fill="#DDE0E0" d="M8.1,39.5c-0.4,0-2.1,0.1-2,0.6s1.7,0.4,2,0.5c0.3,0,3.3,0.4,3.7,1.301c0.6,1.5-1.3,4.1-3.4,5.699
		C6,49.4,7.7,49.4,8.8,48.8C11.5,47.2,22,42,35.6,38.4c0,0,2-0.5,2-0.9c-0.1-0.4-0.1-0.3-2-0.2C33.6,37.5,11.2,39.5,8.1,39.5"/>
	<path fill="#DCDDDF" d="M8.3,39.6c-0.4,0-2,0.101-1.9,0.601s1.7,0.399,2,0.5c0.3,0,3.2,0.3,3.6,1.3c0.6,1.5-1.3,4-3.4,5.6
		C6.3,49.3,8,49.3,9,48.7C11.6,47.2,22,42.1,35.4,38.6c0,0,2-0.5,2-0.899c-0.101-0.3-0.101-0.3-2-0.2C33.4,37.6,11.3,39.6,8.3,39.6"
		/>
	<path fill="#DBDCDD" d="M8.5,39.6c-0.4,0-2,0.101-1.9,0.601C6.7,40.6,8.3,40.6,8.6,40.6c0.3,0,3.2,0.301,3.6,1.301
		c0.5,1.5-1.4,4-3.4,5.5c-2.1,1.6-0.6,1.6,0.5,1c2.4-1.301,12.7-6.5,25.9-9.9c0,0,2-0.5,2-0.8c-0.101-0.3-0.101-0.3-2-0.101
		C33.3,37.6,11.5,39.6,8.5,39.6"/>
	<path fill="#D9DBDC" d="M8.7,39.6c-0.4,0-2,0.101-1.9,0.601C6.9,40.6,8.5,40.6,8.8,40.6c0.3,0,3.2,0.301,3.5,1.301
		c0.5,1.5-1.4,3.899-3.4,5.399s-0.5,1.5,0.6,0.9c2.2-1.2,12.4-6.3,25.5-9.7c0,0,2-0.5,1.9-0.8C36.8,37.4,36.8,37.5,35,37.6
		C33.1,37.7,11.7,39.6,8.7,39.6"/>
	<path fill="#D8D9DB" d="M8.9,39.7c-0.4,0-2,0.1-1.9,0.5C7.1,40.6,8.7,40.5,9,40.6c0.3,0,3.1,0.301,3.4,1.301
		c0.4,1.5-1.4,3.8-3.4,5.3C7.1,48.6,8.6,48.6,9.7,48c2-1.1,12.2-6.2,25.1-9.5c0,0,2-0.5,1.9-0.8C36.6,37.4,36.6,37.5,34.8,37.6
		C32.9,37.8,11.8,39.7,8.9,39.7"/>
	<path fill="#D7D8D9" d="M9.1,39.7c-0.4,0-2,0.1-1.9,0.5c0.1,0.399,1.7,0.3,2,0.399c0.3,0,3.1,0.301,3.4,1.301
		c0.4,1.5-1.5,3.8-3.5,5.3c-1.8,1.3-0.3,1.3,0.7,0.8c1.8-1,11.9-6,24.6-9.4c0,0,2-0.5,1.9-0.8c-0.1-0.3-0.1-0.2-1.9-0.1
		C32.7,37.8,12,39.7,9.1,39.7"/>
	<path fill="#D6D8D8" d="M9.3,39.8c-0.4,0-1.9,0.101-1.8,0.5c0.1,0.3,1.8,0.3,2,0.3c0.3,0,3.1,0.301,3.3,1.301
		c0.4,1.5-1.5,3.699-3.5,5.199c-1.6,1.2-0.2,1.2,0.8,0.7c1.6-0.899,11.6-5.899,24.2-9.2c0,0,2-0.5,1.9-0.699
		c-0.101-0.301-0.101-0.2-1.9,0C32.6,37.9,12.2,39.8,9.3,39.8"/>
	<path fill="#D4D5D7" d="M9.5,39.8c-0.4,0-1.9,0.101-1.8,0.5c0.1,0.3,1.8,0.3,2,0.3c0.3,0,3,0.301,3.2,1.301
		c0.3,1.5-1.6,3.6-3.5,5.1c-1.5,1.2-0.2,1.1,0.9,0.6c1.4-0.8,11.4-5.699,23.7-9c0,0,2-0.5,1.9-0.699C35.8,37.6,35.8,37.8,34.1,37.9
		C32.4,38,12.3,39.8,9.5,39.8"/>
	<path fill="#D3D4D5" d="M9.7,39.8c-0.3,0-1.9,0.101-1.8,0.5c0.1,0.3,1.8,0.2,2,0.3c0.3,0,3,0.301,3.2,1.2c0.3,1.5-1.6,3.601-3.5,5
		c-1.4,1.101-0.1,1,0.9,0.5c1.2-0.6,11.1-5.6,23.3-8.8c0,0,2-0.5,1.9-0.7c-0.101-0.3-0.101-0.1-1.8,0C32.2,38,12.5,39.8,9.7,39.8"/>
	<path fill="#D2D3D4" d="M35.6,37.9c-0.1-0.301-0.1-0.101-1.8,0C32.1,38,12.7,39.8,9.9,39.8c-0.3,0-1.9,0.101-1.8,0.4s1.8,0.2,2,0.3
		c0.3,0,3,0.3,3.1,1.2c0.2,1.5-1.6,3.5-3.5,4.899c-1.3,1,0,0.9,1,0.4s10.8-5.5,22.9-8.6C33.7,38.6,35.6,38.1,35.6,37.9"/>
</g>
<g>
	<g>
		<g>
			<g>
				<g>
					<defs>
						<path id="SVGID_1_" d="M39.8,12.9c0,0-1,0.2-1.7,0.3c0,0,2.4-0.4,3.101,0.5c0.8,0.9,2,3.3-7.5,11.5c-3.1,2.7-6.6,5.2-9.3,6.9
							l6.2-1c2.9-2.7,10.5-8.9,17.2-12.5c11-5.8,19.7-8.9,21.4-9.5l0,0C67.3,9.3,52.3,10.5,39.8,12.9"/>
					</defs>
					<clipPath id="SVGID_2_">
						<use xlink:href="#SVGID_1_"  overflow="visible"/>
					</clipPath>
					
						<linearGradient id="SVGID_3_" gradientUnits="userSpaceOnUse" x1="222.9766" y1="188.2217" x2="223.899" y2="188.2217" gradientTransform="matrix(3.6591 17.2146 -54.1467 11.5092 9420.7754 -5993.0635)">
						<stop  offset="0" style="stop-color:#EC2227"/>
						<stop  offset="0.197" style="stop-color:#E82128"/>
						<stop  offset="0.3514" style="stop-color:#E01F26"/>
						<stop  offset="0.4913" style="stop-color:#D42027"/>
						<stop  offset="0.6218" style="stop-color:#C32127"/>
						<stop  offset="0.7247" style="stop-color:#AF1F24"/>
						<stop  offset="1" style="stop-color:#AF1F24"/>
					</linearGradient>
					<polygon clip-path="url(#SVGID_2_)" fill="url(#SVGID_3_)" points="67.5,0 74.1,31.2 26.5,41.3 19.8,10.1 					"/>
				</g>
			</g>
		</g>
	</g>
	
		<linearGradient id="SVGID_4_" gradientUnits="userSpaceOnUse" x1="425.5859" y1="-459.9219" x2="438.5941" y2="-459.9219" gradientTransform="matrix(1 0 0 -1 -397 -445.3721)">
		<stop  offset="0.1065" style="stop-color:#EC2227"/>
		<stop  offset="0.1906" style="stop-color:#E41E26"/>
		<stop  offset="0.3052" style="stop-color:#D91F27"/>
		<stop  offset="0.437" style="stop-color:#C32127"/>
		<stop  offset="0.5019" style="stop-color:#B62025"/>
		<stop  offset="0.7021" style="stop-color:#89181A"/>
		<stop  offset="0.7795" style="stop-color:#781214"/>
	</linearGradient>
	<path fill="url(#SVGID_4_)" d="M38.1,13.2l-9.5,2.1l0,0l0,0l0,0l0,0l5.6,0.8c3.5-1.6,5.8-2.1,7.3-2.1l0,0l0,0l0,0l0,0l0,0l0,0
		c-0.1-0.2-0.2-0.3-0.3-0.4l0,0c-0.2-0.2-0.4-0.3-0.601-0.4C40.2,13.1,39.7,13,39.3,13C38.7,13.2,38.1,13.2,38.1,13.2"/>
</g>
</svg>
