<?xml version="1.0" encoding="utf-8"?>
<!-- Generator: Adobe Illustrator 13.0.2, SVG Export Plug-In . SVG Version: 6.00 Build 14948)  -->
<!DOCTYPE svg PUBLIC "-//W3C//DTD SVG 1.1//EN" "http://www.w3.org/Graphics/SVG/1.1/DTD/svg11.dtd" [
	<!ENTITY ns_extend "http://ns.adobe.com/Extensibility/1.0/">
	<!ENTITY ns_ai "http://ns.adobe.com/AdobeIllustrator/10.0/">
	<!ENTITY ns_graphs "http://ns.adobe.com/Graphs/1.0/">
	<!ENTITY ns_vars "http://ns.adobe.com/Variables/1.0/">
	<!ENTITY ns_imrep "http://ns.adobe.com/ImageReplacement/1.0/">
	<!ENTITY ns_sfw "http://ns.adobe.com/SaveForWeb/1.0/">
	<!ENTITY ns_custom "http://ns.adobe.com/GenericCustomNamespace/1.0/">
	<!ENTITY ns_adobe_xpath "http://ns.adobe.com/XPath/1.0/">
]>
<svg version="1.1" id="Layer_1" xmlns:x="&ns_extend;" xmlns:i="&ns_ai;" xmlns:graph="&ns_graphs;"
	 xmlns="http://www.w3.org/2000/svg" xmlns:xlink="http://www.w3.org/1999/xlink" x="0px" y="0px" width="70px" height="70px"
	 viewBox="0 0 70 70" enable-background="new 0 0 70 70" xml:space="preserve">
<metadata>
	<sfw  xmlns="&ns_sfw;">
		<slices></slices>
		<sliceSourceBounds  x="0.5" y="-0.5" width="70" height="70" bottomLeftOrigin="true"></sliceSourceBounds>
	</sfw>
</metadata>
<path fill="#DB222D" d="M1.1,28.2c0,1,0.1,1.9,0.5,2.8c1.7,4.1,5.9,6.6,11.2,4.5c1.3-0.5,36.8-14.8,36.8-14.8S35.6,56.1,35.1,57.5
	c-2,5.1,0.4,9.7,4.6,11.2c0.899,0.3,1.899,0.5,2.8,0.5c3.4,0,6.4-2,7.9-6C50.6,62.6,68.1,14.6,68.5,13.4c0.2-0.7,0.6-2.3,0.6-3.4
	c0-2.4-0.899-4.6-2.6-6.3c-1.7-1.7-3.9-2.5-6.2-2.5c-1.1,0-2.1,0.2-3.5,0.7C56,2.1,10.9,18.8,7,20.3C3.2,21.7,1.1,24.8,1.1,28.2z"/>
<rect fill="none" width="70" height="70"/>
<rect fill="none" width="70" height="70"/>
</svg>
