<?xml version="1.0" encoding="utf-8"?>
<!-- Generator: Adobe Illustrator 16.0.0, SVG Export Plug-In . SVG Version: 6.00 Build 0)  -->
<!DOCTYPE svg PUBLIC "-//W3C//DTD SVG 1.1//EN" "http://www.w3.org/Graphics/SVG/1.1/DTD/svg11.dtd">
<svg version="1.1" id="Layer_1" xmlns="http://www.w3.org/2000/svg" xmlns:xlink="http://www.w3.org/1999/xlink" x="0px" y="0px"
	 width="70px" height="70px" viewBox="0 0 70 70" enable-background="new 0 0 70 70" xml:space="preserve">
<path fill-rule="evenodd" clip-rule="evenodd" fill="#184890" d="M68.375,34.794c0.014,18.138-14.833,33.213-32.717,33.223
	C16.824,68.024,1.94,53.368,1.929,34.8C1.918,16.476,16.772,1.594,35.079,1.592C53.535,1.589,68.361,16.374,68.375,34.794z
	 M3.858,31.292c16.923,9.492,33.584,18.836,50.455,28.298c0.043-0.765,0.094-1.271,0.096-1.777c0.008-2.287,0.008-4.575,0.001-6.862
	c-0.01-3.25-0.015-3.25-3.269-3.881c-0.374-0.072-0.746-0.146-1.119-0.218c-2.202-0.417-4.404-0.832-6.968-1.315
	c0.747-0.441,1.146-0.686,1.554-0.914c2.91-1.625,5.81-3.269,8.739-4.851c0.766-0.414,1.101-0.901,1.079-1.788
	c-0.053-2.19-0.015-4.384-0.015-6.576c0-1.173,0-2.347,0-3.795c-0.848,0.472-1.42,0.783-1.985,1.106
	c-4.915,2.817-9.819,5.652-14.755,8.433c-0.456,0.257-1.212,0.414-1.636,0.212c-1.367-0.653-2.642-1.495-4.074-2.333
	c0.544-0.328,0.974-0.605,1.419-0.854c6.682-3.754,13.354-7.524,20.061-11.236c0.874-0.484,1.196-1.016,1.172-2.001
	c-0.066-2.62-0.023-5.242-0.023-7.864c0-0.932,0-1.865,0-3c-0.639,0.324-1.06,0.517-1.461,0.744
	C42.853,16.63,32.59,22.463,22.286,28.223c-0.793,0.443-1.893,0.596-2.812,0.504c-1.79-0.181-3.548-0.659-5.33-0.958
	c-1.115-0.188-2.435-0.707-3.334-0.317C8.478,28.461,6.326,29.892,3.858,31.292z"/>
</svg>
