<?xml version="1.0" encoding="utf-8"?>
<!-- Generator: Adobe Illustrator 13.0.2, SVG Export Plug-In . SVG Version: 6.00 Build 14948)  -->
<!DOCTYPE svg PUBLIC "-//W3C//DTD SVG 1.1//EN" "http://www.w3.org/Graphics/SVG/1.1/DTD/svg11.dtd" [
	<!ENTITY ns_extend "http://ns.adobe.com/Extensibility/1.0/">
	<!ENTITY ns_ai "http://ns.adobe.com/AdobeIllustrator/10.0/">
	<!ENTITY ns_graphs "http://ns.adobe.com/Graphs/1.0/">
	<!ENTITY ns_vars "http://ns.adobe.com/Variables/1.0/">
	<!ENTITY ns_imrep "http://ns.adobe.com/ImageReplacement/1.0/">
	<!ENTITY ns_sfw "http://ns.adobe.com/SaveForWeb/1.0/">
	<!ENTITY ns_custom "http://ns.adobe.com/GenericCustomNamespace/1.0/">
	<!ENTITY ns_adobe_xpath "http://ns.adobe.com/XPath/1.0/">
]>
<svg version="1.1" id="Layer_1" xmlns:x="&ns_extend;" xmlns:i="&ns_ai;" xmlns:graph="&ns_graphs;"
	 xmlns="http://www.w3.org/2000/svg" xmlns:xlink="http://www.w3.org/1999/xlink" x="0px" y="0px" width="70px" height="70px"
	 viewBox="0 0 70 70" enable-background="new 0 0 70 70" xml:space="preserve">
<metadata>
	<sfw  xmlns="&ns_sfw;">
		<slices></slices>
		<sliceSourceBounds  x="0.5" y="-0.5" width="70" height="70" bottomLeftOrigin="true"></sliceSourceBounds>
	</sfw>
</metadata>
<rect fill="none" width="70" height="70"/>
<path fill="#EE2B2F" d="M68.3,19.2c1-0.3,0.4-0.5-0.2-0.6c-0.6-0.1-0.699-0.1-1.3-0.2c-0.6-0.1-0.6-0.3-1.6-0.2c-1,0-2.7,0.2-6,3.4
	c-3.3,3.2-9,11.1-12.4,11.2c-2.399,0.1-3.2-1.7-3.2-2.7c0-1.8,2.2-3.8,3.2-4.6s1.601-1.1,1.4-1.5c-0.2-0.3-0.9-0.1-1.601,0.1
	C45.9,24.3,43.7,24.7,40.7,24.8c-3,0-5.6-0.1-14.2-1.9c-8.6-1.8-18.6-4.7-25.1-4.4c0,0,18.8,9.1,24.6,12.3c5.8,3.2,11,6.5,11,9.101
	c0,2.6-5.2,3.6-6.3,3.899c0,0,5,0.9,7.399,0.4c0,0-5.7,4.3-13.5,7.3c-7.8,3-9.6,3.6-10.1,3.9c-0.5,0.3-2,0.8,0.6,0.5
	C17.7,55.6,37.6,50.3,47.5,40.8c4.9-4.7,7.8-10.5,11.2-14.3C62.4,22.2,67.3,19.5,68.3,19.2z"/>
</svg>
