<?xml version="1.0" encoding="utf-8"?>
<!-- Generator: Adobe Illustrator 13.0.2, SVG Export Plug-In . SVG Version: 6.00 Build 14948)  -->
<!DOCTYPE svg PUBLIC "-//W3C//DTD SVG 1.1//EN" "http://www.w3.org/Graphics/SVG/1.1/DTD/svg11.dtd" [
	<!ENTITY ns_extend "http://ns.adobe.com/Extensibility/1.0/">
	<!ENTITY ns_ai "http://ns.adobe.com/AdobeIllustrator/10.0/">
	<!ENTITY ns_graphs "http://ns.adobe.com/Graphs/1.0/">
	<!ENTITY ns_vars "http://ns.adobe.com/Variables/1.0/">
	<!ENTITY ns_imrep "http://ns.adobe.com/ImageReplacement/1.0/">
	<!ENTITY ns_sfw "http://ns.adobe.com/SaveForWeb/1.0/">
	<!ENTITY ns_custom "http://ns.adobe.com/GenericCustomNamespace/1.0/">
	<!ENTITY ns_adobe_xpath "http://ns.adobe.com/XPath/1.0/">
]>
<svg version="1.1" id="Layer_1" xmlns:x="&ns_extend;" xmlns:i="&ns_ai;" xmlns:graph="&ns_graphs;"
	 xmlns="http://www.w3.org/2000/svg" xmlns:xlink="http://www.w3.org/1999/xlink" x="0px" y="0px" width="70px" height="70px"
	 viewBox="0 0 70 70" enable-background="new 0 0 70 70" xml:space="preserve">
<metadata>
	<sfw  xmlns="&ns_sfw;">
		<slices></slices>
		<sliceSourceBounds  x="0.5" y="-0.5" width="70" height="70" bottomLeftOrigin="true"></sliceSourceBounds>
	</sfw>
</metadata>
<rect fill="none" width="70" height="70"/>
<g>
	<path fill="#FFFFFF" d="M4.7,29c1.6,1.6,2,1.9,4.5,3.5c1.1,0.7,2.4,1.6,3,1.9c2.2,1.4,3.7,2.7,4.9,4.2c0.2,0.2,0.4,0.5,0.6,0.7
		c0.9,1.3,1.6,2.8,2.1,4.4c0.3,1,0.3,1.399,0.4,2.899c0.1,1.601,0,2.601-0.4,4.101C19.7,51,19.8,51,20,51c0.5,0,3.1,0.4,4.2,0.7
		c0.4,0.1,0.8,0.2,1.2,0.3c1.2,0.3,2.4,0.7,3.5,1.2c0.3,0.1,0.5,0.2,0.8,0.3c2,0.9,4,2,6.1,3.4C35.9,57,36,57.1,36.2,57.2
		C38,58.5,39.9,60,42,62c1,1,1.2,1.1,1.3,0.9c0.2-0.7-1-2.7-2.6-4.301c-1.3-1.3-2.8-2.6-4.5-3.699c-1.9-1.4-4.1-2.601-6.4-3.801
		C29.7,51,29.6,51,29.4,50.9C29.2,50.8,29.1,50.8,29,50.7c-1.8-0.9-2.8-1.4-3.5-1.9c-0.4-0.3-0.7-0.6-1.1-1
		c-0.8-0.8-1.1-1.5-1.1-2.3s0.2-1.3,0.8-1.8c1-0.7,2.3-0.7,3.1,0.1l0.4,0.4l-0.4,0.2c-0.3,0.1-0.6,0.199-1.5,0.1l-1.1-0.1V44.6
		c0.1,0.601,2.1,0.9,3.4,0.5c0.3-0.1,0.7-0.3,1-0.399c0.3-0.101,0.5-0.3,0.8-0.5c0.9-0.601,1.8-1.3,3-2.3c0.5-0.4,1-0.801,1.1-0.9
		s0.6-0.1,1.2-0.2c0.2,0,0.4-0.1,0.7-0.1c0.2,0,0.3,0,0.5-0.101c0.9-0.1,1.3-0.199,1.601-0.399C38.3,40,38.6,39.6,38.5,39.5
		S37,38.4,36.3,38c-0.1,0-0.1-0.1-0.2-0.1C35.9,37.8,35.6,37.7,35.4,37.6c-1.1-0.5-2.5-1-3.8-1.3C30.7,36,29.9,35.9,29.9,35.9l0,0
		c0,0,0,0.1,0,0.199c0.1,0.301,0.2,0.7,0.4,0.9c0.3,0.4,1.3,0.9,1.9,1c0.2,0,0.4,0.1,0.4,0.1c0,0.101-0.4,0.7-0.7,1
		c-0.3,0.4-1.3,0.9-1.9,1h-0.1h-0.3L29,39.8l-0.2-0.2C26.3,36.4,24,34.3,20.7,32.2c-1-0.6-1.9-1.1-3-1.6c-0.2-0.1-0.4-0.2-0.6-0.3
		c-1.1-0.5-2.5-1-4.4-1.8c-5-1.9-5.3-2-6.5-2.6c-2.2-1.2-3.5-2.3-4.4-4c-0.5-0.9-0.6-1.3-0.7-3.8l0,0V24l0.5,1
		C2.5,26.7,3.2,27.6,4.7,29z"/>
	<path fill="#E0242E" d="M68.6,65C68.5,64.9,61.7,58.6,53.4,51C45.1,43.4,38,36.9,37.6,36.5c-0.399-0.4-4.3-4-8.6-8
		s-10.2-9.3-12.9-11.9c-2.8-2.6-5.1-4.7-5.2-4.7S8.6,9.9,6,7.5L1.3,3.1v8.1c0,3.4,0,5.5,0,6.9c0,2.6,0.2,3,0.7,3.9
		c0.8,1.6,2.1,2.8,4.4,4c1.2,0.6,1.4,0.7,6.5,2.6c1.9,0.7,3.3,1.3,4.4,1.8c0.2,0.1,0.4,0.2,0.6,0.3c1.1,0.5,2,1,3,1.6
		c3.3,2.1,5.6,4.101,8.1,7.4l0.2,0.2l0.5,0.6H30h0.1c0.5-0.1,1.5-0.6,1.9-1c0.3-0.3,0.7-0.9,0.7-1c0,0-0.2-0.1-0.4-0.1
		c-0.6-0.101-1.5-0.601-1.9-1c-0.2-0.2-0.3-0.601-0.4-0.9c0-0.1,0-0.2,0-0.2l0,0c0.1,0,0.8,0.2,1.7,0.4c1.4,0.399,2.7,0.899,3.8,1.3
		c0.3,0.1,0.5,0.2,0.7,0.3c0,0,0.1,0,0.2,0.101c0.699,0.399,2.1,1.3,2.199,1.5C38.7,40.1,38.4,40.4,38,40.6
		c-0.3,0.101-0.7,0.2-1.6,0.4c-0.101,0-0.301,0-0.5,0.1c-0.2,0-0.4,0.101-0.7,0.101c-0.6,0.1-1.1,0.2-1.2,0.2
		c-0.1,0.1-0.6,0.5-1.1,0.899c-1.1,1-2.1,1.8-3,2.3c-0.3,0.2-0.5,0.301-0.8,0.5c-0.4,0.2-0.7,0.301-1,0.4c-1.3,0.4-3.3,0.1-3.4-0.5
		v-0.2l1.1,0.101c0.9,0.1,1.2,0,1.5-0.101l0.4-0.2L27.3,44c-0.8-0.8-2.1-0.8-3.1-0.1c-0.6,0.399-0.8,1-0.8,1.8
		c0,0.7,0.3,1.5,1.1,2.3c0.3,0.4,0.7,0.7,1.1,1c0.7,0.5,1.7,1.1,3.5,1.9c0.1,0.1,0.3,0.1,0.4,0.199c0.1,0.101,0.2,0.101,0.4,0.2
		c2.3,1.101,4.5,2.4,6.4,3.8c1.7,1.2,3.2,2.4,4.5,3.7C42.4,60.4,43.6,62.4,43.4,63.1C43.3,63.3,43.2,63.2,42.1,62.2
		c-2.1-2.101-4-3.601-5.8-4.8C36.2,57.3,36.1,57.2,35.9,57.1C33.8,55.7,31.8,54.6,29.8,53.7c-0.3-0.101-0.5-0.2-0.8-0.3
		c-1.1-0.5-2.3-0.801-3.5-1.2c-0.4-0.101-0.8-0.2-1.2-0.3c-1.1-0.301-3.7-0.7-4.2-0.7c-0.3,0-0.3,0-0.2-0.3
		c0.3-1.5,0.4-2.5,0.4-4.101c0-1.5-0.1-1.899-0.4-2.899c-0.5-1.7-1.1-3.101-2.1-4.4c-0.2-0.2-0.4-0.5-0.6-0.7
		C16,37.4,14.4,36,12.3,34.6c-0.6-0.4-1.9-1.2-3-1.9c-2.5-1.6-3-1.9-4.5-3.5c-1.5-1.5-2.2-2.4-2.9-3.9l-0.5-1l0,0v20.5v20.5H35
		C63.5,65.1,68.8,65.1,68.6,65z"/>
</g>
</svg>
