<?xml version="1.0" encoding="utf-8"?>
<!-- Generator: Adobe Illustrator 13.0.2, SVG Export Plug-In . SVG Version: 6.00 Build 14948)  -->
<!DOCTYPE svg PUBLIC "-//W3C//DTD SVG 1.1//EN" "http://www.w3.org/Graphics/SVG/1.1/DTD/svg11.dtd" [
	<!ENTITY ns_extend "http://ns.adobe.com/Extensibility/1.0/">
	<!ENTITY ns_ai "http://ns.adobe.com/AdobeIllustrator/10.0/">
	<!ENTITY ns_graphs "http://ns.adobe.com/Graphs/1.0/">
	<!ENTITY ns_vars "http://ns.adobe.com/Variables/1.0/">
	<!ENTITY ns_imrep "http://ns.adobe.com/ImageReplacement/1.0/">
	<!ENTITY ns_sfw "http://ns.adobe.com/SaveForWeb/1.0/">
	<!ENTITY ns_custom "http://ns.adobe.com/GenericCustomNamespace/1.0/">
	<!ENTITY ns_adobe_xpath "http://ns.adobe.com/XPath/1.0/">
]>
<svg version="1.1" id="Layer_1" xmlns:x="&ns_extend;" xmlns:i="&ns_ai;" xmlns:graph="&ns_graphs;"
	 xmlns="http://www.w3.org/2000/svg" xmlns:xlink="http://www.w3.org/1999/xlink" x="0px" y="0px" width="70px" height="70px"
	 viewBox="0 0 70 70" enable-background="new 0 0 70 70" xml:space="preserve">
<metadata>
	<sfw  xmlns="&ns_sfw;">
		<slices></slices>
		<sliceSourceBounds  x="0.5" y="-0.5" width="70" height="70" bottomLeftOrigin="true"></sliceSourceBounds>
	</sfw>
</metadata>
<rect fill="none" width="70" height="70"/>
<g>
	<path fill="#B88E47" d="M57.9,38.8c0,0,1.199,1.3,1.699,3.101c0,0-2.699-0.2-3.699,0.6c0,0,0.1,0.7,1.3,2.1c0,0,0.2,0.4-0.3,0.7
		s-3.101,0.5-3.2-2.2c0,0-1.7,2-3.9,1.7c0,0-1.8-0.2-1.899-1.899c0,0,1.699,0.3,3.1-0.301c0,0-0.1-1.1-1.6-2.199
		c0,0,1.199-1.601,4-2.301c0,0-0.601-2.399,0.199-4.899c0.801-2.5,1.2-3,1.4-3.6c0.2-0.5,0.5-1.8,0.1-3.2c0,0,6.5-0.1,6.5,6.8
		C61.6,33.3,61.6,37.2,57.9,38.8 M50.6,50.8L46.8,49l3.7-1.2l3.6,1.601L50.6,50.8z M44.2,44.5c-2.2-0.1-3-2.3-3-2.3
		c-1.101,1.399-3.3,1.2-3.3,1.2c-1.801-0.4-1.9-2-1.9-2c2-0.4,2.5-1.101,2.5-1.101c-0.5-1.3-2.6-2-2.6-2c1.3-2.1,4.1-3.1,4.1-3.1
		c-1.1-1.1-1.4-2.3-1.7-4.1c-0.3-1.9,0.2-4.8,0.2-4.8c0.6-2.6,1.6-3.9,2.4-5c0.899-1.1,1.8-1,1.8-1c1.2,0.1,2.3,0.8,2.3,0.8
		c1.4,0.8,2.5,2.1,3,2.7c0.4,0.7,1.8,3.8,0.1,7.8c-1.8,3.9-3.6,4.6-3.6,4.6c2.7,2.6,2.7,3.8,2.7,3.8c-2.2,0-2.8,1.2-2.8,1.2
		c0.5,1.1,2.199,1.5,2.199,1.5C46.1,44.6,44.2,44.5,44.2,44.5 M42.8,50.3C42,50.3,41.4,49.7,41.4,48.9c0-0.801,0.6-1.4,1.399-1.4
		c0.7,0,1.3,0.6,1.3,1.4C44.1,49.6,43.5,50.3,42.8,50.3 M35.1,50.3l-3.6-1.5l3.6-1.5l3.7,1.5L35.1,50.3z M28.9,42.2
		c0,0-0.8,2.2-3,2.3c0,0-1.8,0.1-2.3-1.7c0,0,1.6-0.399,2.1-1.5c0,0-0.6-1.2-2.8-1.2c0,0,0-1.199,2.7-3.8c0,0-1.8-0.7-3.6-4.6
		c-1.7-4-0.4-7.1,0.1-7.8c0.5-0.7,1.5-1.9,2.9-2.7c0,0,1.1-0.7,2.3-0.8c0,0,0.9-0.1,1.8,1s1.9,2.4,2.4,5c0,0,0.5,2.9,0.2,4.8
		c-0.3,1.9-0.6,3-1.7,4.1c0,0,2.8,1,4.1,3.101c0,0-2.2,0.699-2.6,2c0,0,0.5,0.699,2.5,1.1c0,0-0.1,1.6-2,2
		C32.2,43.4,30,43.6,28.9,42.2 M27.4,50.3c-0.7,0-1.4-0.6-1.4-1.399c0-0.7,0.7-1.301,1.4-1.301c0.8,0,1.3,0.601,1.3,1.301
		C28.7,49.6,28.2,50.3,27.4,50.3 M19.5,50.8L16,49.5l3.6-1.7l3.7,1.3L19.5,50.8z M13.3,45.5c-0.5-0.4-0.3-0.7-0.3-0.7
		c1.2-1.3,1.4-2.1,1.4-2.1c-1.1-0.8-3.7-0.601-3.7-0.601c0.4-1.8,1.7-3.1,1.7-3.1c-3.8-1.8-3.7-5.6-3.7-5.6c0-6.9,6.5-6.8,6.5-6.8
		c-0.4,1.4-0.1,2.6,0.1,3.2c0.2,0.5,0.6,1.1,1.5,3.5c0.8,2.4,0.2,4.8,0.2,4.8c2.8,0.801,4,2.4,4,2.4c-1.6,1.1-1.6,2.2-1.6,2.2
		c1.3,0.6,3.1,0.3,3.1,0.3c-0.1,1.7-1.9,1.9-1.9,1.9c-2.2,0.3-3.9-1.7-3.9-1.7C16.4,45.9,13.8,45.8,13.3,45.5 M67.5,33.1
		c1.4-0.5,1.2-2,1.2-2c-0.3-1.8-2.2-1.5-2.2-1.5c1.2-1.4,0.2-2.5,0.2-2.5c-0.9-1.2-2.4-0.4-2.4-0.4c0.7-1.5-0.2-2.2-0.2-2.2
		c-1.199-1-2.399,0-2.399,0c0-1.4-1.101-1.8-1.101-1.8c-1.199-0.5-2.1,0.6-2.1,0.6c-0.9-2.5-2.7-1.2-3.1-1c-0.4,0.2-0.5,0-0.5,0
		c-0.101-3-2.601-1.9-2.601-1.9c0.7-1.5-0.5-2.3-0.5-2.3c-1.3-0.8-2.399,0.3-2.399,0.3C49.3,16.4,47.8,17,47.3,17.2
		c-0.3,0-1.3,0-1.3,0c-3-0.4-4.1-0.2-4.1-0.2c-3.7-0.1-6.8,6-6.8,6v0.1H35c0,0-3.2-6.1-6.8-6c0,0-1.1-0.2-4.1,0.2c0,0-0.9,0-1.4-0.1
		c-0.5-0.2-1.9-0.8-2,1.2c0,0-1.1-1.1-2.4-0.3c0,0-1.2,0.8-0.5,2.3c0,0-2.6-1.1-2.6,1.9c0,0,0,0.2-0.5,0c-0.4-0.2-2.2-1.4-3.1,1
		c0,0-0.9-1.1-2.1-0.6c0,0-1.1,0.3-1.1,1.8c0,0-1.2-1.1-2.4,0c0,0-0.9,0.7-0.2,2.2c0,0-1.4-0.7-2.3,0.4c0,0-1,1.1,0.3,2.5
		c0,0-1.9-0.3-2.2,1.5c0,0-0.2,1.5,1.2,2c0,0-1.6,0.7-1.3,2c0,0,0.1,1.3,1.7,1.5c0,0-1.4,0.9-0.8,2.2c0,0,0.6,1.5,2.3,1.101
		c0,0-0.7,1.5,0.4,2.199c0,0,1,0.801,2.2,0c0,0,0.6-0.199,0.9,0.2c0,0,0.5,0.7-0.5,1.8c0,0,5.2-0.399,6.5,7.9h42.1
		c1.4-8.3,6.601-7.9,6.601-7.9c-1-1.1-0.5-1.8-0.5-1.8c0.199-0.5,0.899-0.2,0.899-0.2c1.2,0.801,2.2,0,2.2,0
		c1-0.699,0.3-2.199,0.3-2.199c1.8,0.399,2.4-1.101,2.4-1.101c0.5-1.3-0.8-2.2-0.8-2.2C69.1,36.4,69.1,35.1,69.1,35.1
		C69.1,33.8,67.5,33.1,67.5,33.1 M14.4,56.6c0.1,1,0.1,1.9,0.1,1.9h40.9c0,0,0-0.9,0.1-1.8c0.1-1,0.2-1.8,0.2-1.8H14.2
		C14.2,54.9,14.4,55.8,14.4,56.6 M32.7,15.8c0,0-1.3,0-2.2,0.4c0,0,3.1,0.8,4.5,4.4c1.5-3.5,4.5-4.4,4.5-4.4
		c-0.8-0.4-2.2-0.4-2.2-0.4c-0.1-0.5-0.7-0.8-0.7-0.8c0.4-0.5,1.2-1,1.2-1l-2.9-6.9L32,14c0,0,0.8,0.5,1.2,1
		C33.4,14.9,32.9,15.3,32.7,15.8"/>
</g>
</svg>
