<?xml version="1.0" encoding="UTF-8" standalone="no"?>
<!-- Generator: Adobe Illustrator 21.0.2, SVG Export Plug-In . SVG Version: 6.00 Build 0)  -->

<svg
   xmlns:dc="http://purl.org/dc/elements/1.1/"
   xmlns:cc="http://creativecommons.org/ns#"
   xmlns:rdf="http://www.w3.org/1999/02/22-rdf-syntax-ns#"
   xmlns:svg="http://www.w3.org/2000/svg"
   xmlns="http://www.w3.org/2000/svg"
   xmlns:sodipodi="http://sodipodi.sourceforge.net/DTD/sodipodi-0.dtd"
   xmlns:inkscape="http://www.inkscape.org/namespaces/inkscape"
   version="1.1"
   id="Lager_1"
   x="0px"
   y="0px"
   viewBox="0 0 70 69.999998"
   xml:space="preserve"
   sodipodi:docname="S7_sq.SVG"
   width="70"
   height="70"
   inkscape:version="0.92.1 r15371"><metadata
     id="metadata93"><rdf:RDF><cc:Work
         rdf:about=""><dc:format>image/svg+xml</dc:format><dc:type
           rdf:resource="http://purl.org/dc/dcmitype/StillImage" /><dc:title></dc:title></cc:Work></rdf:RDF></metadata><defs
     id="defs91" /><sodipodi:namedview
     pagecolor="#ffffff"
     bordercolor="#666666"
     borderopacity="1"
     objecttolerance="10"
     gridtolerance="10"
     guidetolerance="10"
     inkscape:pageopacity="0"
     inkscape:pageshadow="2"
     inkscape:window-width="1920"
     inkscape:window-height="1018"
     id="namedview89"
     showgrid="false"
     inkscape:zoom="6.6610573"
     inkscape:cx="69.577911"
     inkscape:cy="58.785343"
     inkscape:window-x="-8"
     inkscape:window-y="-8"
     inkscape:window-maximized="1"
     inkscape:current-layer="Lager_1" /><style
     type="text/css"
     id="style60">
	.st0{fill:#5F6369;}
	.st1{fill:#C4D82E;}
	.st2{fill:#FFFFFF;}
</style><g
     id="g86"
     transform="matrix(0.07770153,0,0,0.07770153,-12.54097,4.1027549)"><g
       id="g78"><path
         class="st0"
         d="m 618.4,334.9 h 23.7 v 21.3 h -23.7 z m 0,33.7 h 23.7 v 89.6 h -23.7 z"
         id="path62"
         inkscape:connector-curvature="0"
         style="fill:#5f6369" /><path
         class="st0"
         d="m 678.3,382.9 h 0.5 c 5.4,-10.1 11.5,-15.4 22,-15.4 2.6,0 4.2,0.2 5.6,0.7 V 389 h -0.5 c -15.5,-1.6 -26.7,6.6 -26.7,25.5 v 43.6 h -23.7 v -89.6 h 22.9 v 14.4 z"
         id="path64"
         inkscape:connector-curvature="0"
         style="fill:#5f6369" /><path
         class="st0"
         d="m 752.7,334.9 h 23.7 v 21.3 h -23.7 z m 0,33.7 h 23.7 v 89.6 h -23.7 z"
         id="path66"
         inkscape:connector-curvature="0"
         style="fill:#5f6369" /><path
         class="st0"
         d="m 812.9,380.8 h 0.5 c 6.1,-9.6 14.3,-14.7 26.5,-14.7 18.5,0 30.9,14 30.9,33.5 v 58.5 h -23.7 v -55 c 0,-9.6 -5.6,-16.4 -15.5,-16.4 -10.5,0 -18.2,8.4 -18.2,20.6 v 50.8 h -23.7 v -89.6 h 23.2 z"
         id="path68"
         inkscape:connector-curvature="0"
         style="fill:#5f6369" /><path
         class="st0"
         d="m 880.7,413.3 c 0,-26.5 18,-47.1 44.2,-47.1 28.8,0 44.2,22 44.2,53.9 H 904 c 1.7,13.8 9.4,22.3 22.9,22.3 9.3,0 14.7,-4.2 17.3,-11 h 23.4 c -3.3,15.9 -17.5,29.3 -40.5,29.3 -29.7,0.1 -46.4,-20.7 -46.4,-47.4 z m 23.7,-9.6 h 39.8 c -0.7,-11.3 -8.2,-19.2 -19,-19.2 -12.6,0 -18.7,7.5 -20.8,19.2 z"
         id="path70"
         inkscape:connector-curvature="0"
         style="fill:#5f6369" /><path
         class="st0"
         d="m 974.5,429.2 h 22 c 1.6,10.3 8.9,14.8 19.6,14.8 10.5,0 16.4,-4 16.4,-10.3 0,-8.6 -11.3,-9.4 -23.6,-11.9 -16.1,-3.1 -31.8,-7.5 -31.8,-27.1 0,-19.4 16.1,-28.6 36.5,-28.6 23.6,0 36.7,11.7 38.4,29.7 h -21.5 c -1,-9.6 -7.2,-13.1 -17.3,-13.1 -9.3,0 -15.4,3.5 -15.4,10 0,7.7 11.9,8.4 24.6,11 15,3.1 31.6,7.3 31.6,28.3 0,18 -15.4,28.8 -37.7,28.8 -26,0 -40.4,-12.6 -41.8,-31.6 z"
         id="path72"
         inkscape:connector-curvature="0"
         style="fill:#5f6369" /><path
         class="st0"
         d="m 562.4,334.9 h -27.6 l -50,123.2 h 28.3 l 9.3,-25.3 h 51 l 9.4,25.3 h 28.5 z m -33.2,77.1 18.3,-52.4 18.9,52.4 z"
         id="path74"
         inkscape:connector-curvature="0"
         style="fill:#5f6369" /><rect
         x="715.70001"
         y="334.89999"
         class="st0"
         width="23.700001"
         height="123.2"
         id="rect76"
         style="fill:#5f6369" /></g><g
       id="g84"><path
         class="st1"
         d="m 454,408.9 c 0,78.3 -63.4,141.7 -141.7,141.7 -78.3,0 -141.8,-63.4 -141.8,-141.7 0,-78.3 63.5,-141.8 141.8,-141.8 78.3,0 141.7,63.5 141.7,141.8"
         id="path80"
         inkscape:connector-curvature="0"
         style="fill:#c4d82e" /><path
         class="st2"
         d="m 302,334.9 c -22.3,0 -36.8,1.2 -47.3,5.1 -17.6,6.9 -29.8,21.2 -29.8,40.1 0,15.7 7.3,27.1 28.5,40.3 22.6,13.7 27.2,18.3 27.2,26.5 0,9 -8.9,19.4 -31.7,19.4 -8,0 -20,-1.1 -27.6,-3 l -3.7,-0.9 c -2,5.5 -6.7,18.4 -8.1,23.1 l 3.6,1.1 c 6.9,2.2 23.3,3.9 35,3.9 39,0 62.3,-23.6 62.3,-48.2 0,-15.2 -6.9,-26.7 -30.1,-41.2 -11.7,-7.2 -17.6,-11.8 -21.2,-15.4 -2.9,-3.8 -3.3,-6.6 -3.3,-9.5 0,-2.8 0.6,-6.1 2.5,-8.5 2,-2.9 5.7,-4.8 10.7,-6.4 5.1,-1.7 14.7,-1.7 29.5,-1.7 h 13.8 L 322.2,335 H 302 Z m 104.3,0 H 337 l -9.9,24.6 h 23 c 15.5,0 18.4,-0.3 22.3,-0.3 -5.6,12.8 -39.4,98.9 -39.4,98.9 h 28.6 c 0,0 42.8,-107.2 47.3,-118.4 1.3,-2.5 0.6,-4.8 -2.6,-4.8 z"
         id="path82"
         inkscape:connector-curvature="0"
         style="fill:#ffffff" /></g></g></svg>