<?xml version="1.0" encoding="utf-8"?>
<!-- Generator: Adobe Illustrator 13.0.2, SVG Export Plug-In . SVG Version: 6.00 Build 14948)  -->
<!DOCTYPE svg PUBLIC "-//W3C//DTD SVG 1.1//EN" "http://www.w3.org/Graphics/SVG/1.1/DTD/svg11.dtd" [
	<!ENTITY ns_extend "http://ns.adobe.com/Extensibility/1.0/">
	<!ENTITY ns_ai "http://ns.adobe.com/AdobeIllustrator/10.0/">
	<!ENTITY ns_graphs "http://ns.adobe.com/Graphs/1.0/">
	<!ENTITY ns_vars "http://ns.adobe.com/Variables/1.0/">
	<!ENTITY ns_imrep "http://ns.adobe.com/ImageReplacement/1.0/">
	<!ENTITY ns_sfw "http://ns.adobe.com/SaveForWeb/1.0/">
	<!ENTITY ns_custom "http://ns.adobe.com/GenericCustomNamespace/1.0/">
	<!ENTITY ns_adobe_xpath "http://ns.adobe.com/XPath/1.0/">
]>
<svg version="1.1" id="Layer_1" xmlns:x="&ns_extend;" xmlns:i="&ns_ai;" xmlns:graph="&ns_graphs;"
	 xmlns="http://www.w3.org/2000/svg" xmlns:xlink="http://www.w3.org/1999/xlink" x="0px" y="0px" width="70px" height="70px"
	 viewBox="0 0 70 70" enable-background="new 0 0 70 70" xml:space="preserve">
<metadata>
	<sfw  xmlns="&ns_sfw;">
		<slices></slices>
		<sliceSourceBounds  x="0" y="0" width="70" height="70" bottomLeftOrigin="true"></sliceSourceBounds>
	</sfw>
</metadata>
<rect x="-0.5" y="-0.5" fill="none" width="70" height="70"/>
<path fill="#2B3187" d="M67,0.8H2.2C1.5,0.8,0.8,1.4,0.8,2.2V67c0,0.8,0.601,1.4,1.4,1.4H67c0.8,0,1.4-0.601,1.4-1.4V2.2
	C68.5,1.4,67.8,0.8,67,0.8z M14.3,52.7c-3.8,0-6.1-1.4-6.899-2.101C7,50.2,6.8,49.9,6.9,49.6c0,0,0.399-1.399,0.5-1.6
	c0.1-0.3,0.3-0.3,0.399-0.1C8.5,48.6,10.6,50.6,13.4,50.6c3.1,0,3-2.699,3-3.1c0-1-1.4-6.2-1.7-7.6c-1.101-4.301,1.5-8.2,7.7-8.2
	c3.3,0,4.899,0.899,5.5,1.2c0.399,0.199,0.3,0.6,0.3,0.6s-0.3,1.2-0.3,1.3c0,0.2-0.2,0.3-0.4,0.2c-0.9-0.6-2.1-1.3-3.8-1.3
	c-2,0-3.101,1.5-2.5,3.6c0.2,0.7,1.5,6.101,1.7,7.101C23.6,48.3,21.1,52.7,14.3,52.7z M39.6,52.3h-6.8c-0.2,0-0.3-0.2-0.2-0.3
	c0-0.1,1-5.3,1-5.3s0-0.101-0.1-0.101h-5.2c-0.1,0-0.2,0.101-0.2,0.101L23.9,52c0,0.1-0.101,0.2-0.4,0.2h-1.9
	c-0.1,0-0.3-0.101-0.1-0.4l15.7-19.5c0,0,0.2-0.3,0.6-0.3H43.4c0.199,0,0.3,0.2,0.199,0.3C40.5,47.9,39.7,52,39.7,52
	C39.8,52.3,39.7,52.3,39.6,52.3z M62.6,33.5c0,0-0.3,1.2-0.3,1.3c0,0.2-0.2,0.3-0.399,0.2C61,34.4,59.8,33.7,58.1,33.7
	c-2,0-3.1,1.5-2.5,3.6c0.2,0.7,1.5,6.101,1.7,7.101C58.2,48.1,55.7,52.6,48.9,52.6c-3.801,0-6-1.3-6.801-2
	c-0.399-0.399-0.6-0.699-0.5-1c0,0,0.301-1.5,0.301-1.699C42,47.6,42.2,47.6,42.3,47.8c0.7,0.7,2.8,2.7,5.601,2.7c3.1,0,3-2.7,3-3.1
	c0-1-1.4-6.2-1.7-7.601c-1.101-4.3,1.5-8.2,7.7-8.2c3.3,0,4.899,0.9,5.5,1.2C62.7,33.1,62.6,33.5,62.6,33.5z M35.4,37.4
	C35.3,37.4,35.3,37.5,35.4,37.4L29.6,44.8c0,0,0,0.101,0.101,0.101h4.2C34,44.9,34,44.8,34,44.8L35.4,37.4
	C35.4,37.5,35.4,37.4,35.4,37.4z"/>
</svg>
