<?xml version="1.0" encoding="utf-8"?>
<!-- Generator: Adobe Illustrator 13.0.2, SVG Export Plug-In . SVG Version: 6.00 Build 14948)  -->
<!DOCTYPE svg PUBLIC "-//W3C//DTD SVG 1.1//EN" "http://www.w3.org/Graphics/SVG/1.1/DTD/svg11.dtd" [
	<!ENTITY ns_extend "http://ns.adobe.com/Extensibility/1.0/">
	<!ENTITY ns_ai "http://ns.adobe.com/AdobeIllustrator/10.0/">
	<!ENTITY ns_graphs "http://ns.adobe.com/Graphs/1.0/">
	<!ENTITY ns_vars "http://ns.adobe.com/Variables/1.0/">
	<!ENTITY ns_imrep "http://ns.adobe.com/ImageReplacement/1.0/">
	<!ENTITY ns_sfw "http://ns.adobe.com/SaveForWeb/1.0/">
	<!ENTITY ns_custom "http://ns.adobe.com/GenericCustomNamespace/1.0/">
	<!ENTITY ns_adobe_xpath "http://ns.adobe.com/XPath/1.0/">
]>
<svg version="1.1" id="Layer_1" xmlns:x="&ns_extend;" xmlns:i="&ns_ai;" xmlns:graph="&ns_graphs;"
	 xmlns="http://www.w3.org/2000/svg" xmlns:xlink="http://www.w3.org/1999/xlink" x="0px" y="0px" width="70px" height="70px"
	 viewBox="0 0 70 70" enable-background="new 0 0 70 70" xml:space="preserve">
<metadata>
	<sfw  xmlns="&ns_sfw;">
		<slices></slices>
		<sliceSourceBounds  x="0.5" y="-0.5" width="70" height="70" bottomLeftOrigin="true"></sliceSourceBounds>
	</sfw>
</metadata>
<rect fill="none" width="70" height="70"/>
<g>
	<path fill="#DE3D26" d="M22.6,63.3c0,3-3.3,5.4-7.4,5.4c-4.1,0-7.4-2.4-7.4-5.4s3.3-5.399,7.4-5.399C19.3,57.9,22.6,60.3,22.6,63.3
		z"/>
	<path fill="#DE3D26" d="M27.8,50.4c0,2.5-2.9,4.5-6.5,4.5c-3.6,0-6.5-2-6.5-4.5s2.9-4.5,6.5-4.5C24.9,45.8,27.8,47.9,27.8,50.4z"/>
	<path fill="#DE3D26" d="M32,39.6c0,2-2.5,3.7-5.5,3.7S21,41.7,21,39.6c0-2,2.5-3.699,5.5-3.699S32,37.5,32,39.6z"/>
	<path fill="#DE3D26" d="M43.3,10c0,0.8-1.3,1.4-2.899,1.4c-1.601,0-2.9-0.6-2.9-1.4s1.3-1.4,2.9-1.4C42,8.6,43.3,9.2,43.3,10z"/>
	<path fill="#DE3D26" d="M46.6,1.7c0,0.6-1,1-2.199,1c-1.2,0-2.2-0.5-2.2-1c0-0.6,1-1,2.2-1C45.6,0.6,46.6,1.1,46.6,1.7z"/>
	<path fill="#DE3D26" d="M45,5.7c0,0.7-1.1,1.2-2.5,1.2S40,6.4,40,5.7c0-0.7,1.1-1.2,2.5-1.2S45,5,45,5.7z"/>
	<path fill="#DE3D26" d="M35.6,30.1c0,1.6-2.1,2.9-4.7,2.9s-4.7-1.3-4.7-2.9s2.1-2.9,4.7-2.9S35.6,28.5,35.6,30.1z"/>
	<path fill="#DE3D26" d="M38.6,22.1c0,1.3-1.8,2.4-4,2.4c-2.2,0-4-1.1-4-2.4c0-1.3,1.8-2.4,4-2.4C36.9,19.8,38.6,20.8,38.6,22.1z"/>
	<path fill="#DE3D26" d="M39.8,62.4c0,2.699-3,4.899-6.7,4.899c-3.7,0-6.7-2.2-6.7-4.899c0-2.7,3-4.9,6.7-4.9
		C36.8,57.5,39.8,59.7,39.8,62.4z"/>
	<path fill="#DE3D26" d="M54.5,58.4c0,2.399-2.7,4.3-6,4.3s-6-1.9-6-4.3c0-2.4,2.7-4.301,6-4.301C51.8,54,54.5,56,54.5,58.4z"/>
	<path fill="#DE3D26" d="M62.1,50.1c0,1.9-2.199,3.4-4.899,3.4s-4.9-1.5-4.9-3.4c0-1.899,2.2-3.399,4.9-3.399
		C59.8,46.7,62.1,48.2,62.1,50.1z"/>
	<path fill="#DE3D26" d="M54.9,35.3c0,1.2-1.601,2.3-3.601,2.3s-3.6-1-3.6-2.3c0-1.2,1.6-2.3,3.6-2.3C53.3,33.1,54.9,34.1,54.9,35.3
		z"/>
	<path fill="#DE3D26" d="M41.3,15.5c0,1-1.5,1.9-3.399,1.9c-1.9,0-3.4-0.8-3.4-1.9c0-1,1.5-1.9,3.4-1.9
		C39.8,13.6,41.3,14.5,41.3,15.5z"/>
	<path fill="#DE3D26" d="M60.7,41.5c0,1.5-1.9,2.7-4.2,2.7s-4.2-1.2-4.2-2.7s1.9-2.7,4.2-2.7C58.9,38.8,60.7,40,60.7,41.5z"/>
</g>
</svg>
