<?xml version="1.0" encoding="utf-8"?>
<!-- Generator: Adobe Illustrator 13.0.2, SVG Export Plug-In . SVG Version: 6.00 Build 14948)  -->
<!DOCTYPE svg PUBLIC "-//W3C//DTD SVG 1.1//EN" "http://www.w3.org/Graphics/SVG/1.1/DTD/svg11.dtd" [
	<!ENTITY ns_extend "http://ns.adobe.com/Extensibility/1.0/">
	<!ENTITY ns_ai "http://ns.adobe.com/AdobeIllustrator/10.0/">
	<!ENTITY ns_graphs "http://ns.adobe.com/Graphs/1.0/">
	<!ENTITY ns_vars "http://ns.adobe.com/Variables/1.0/">
	<!ENTITY ns_imrep "http://ns.adobe.com/ImageReplacement/1.0/">
	<!ENTITY ns_sfw "http://ns.adobe.com/SaveForWeb/1.0/">
	<!ENTITY ns_custom "http://ns.adobe.com/GenericCustomNamespace/1.0/">
	<!ENTITY ns_adobe_xpath "http://ns.adobe.com/XPath/1.0/">
]>
<svg version="1.1" id="Layer_1" xmlns:x="&ns_extend;" xmlns:i="&ns_ai;" xmlns:graph="&ns_graphs;"
	 xmlns="http://www.w3.org/2000/svg" xmlns:xlink="http://www.w3.org/1999/xlink" x="0px" y="0px" width="70px" height="70px"
	 viewBox="0 0 70 70" enable-background="new 0 0 70 70" xml:space="preserve">
<metadata>
	<sfw  xmlns="&ns_sfw;">
		<slices></slices>
		<sliceSourceBounds  x="0.5" y="-0.5" width="70" height="70" bottomLeftOrigin="true"></sliceSourceBounds>
	</sfw>
</metadata>
<rect fill="none" width="70" height="70"/>
<g>
	
		<linearGradient id="SVGID_1_" gradientUnits="userSpaceOnUse" x1="306.251" y1="-347.0991" x2="306.251" y2="-303.5879" gradientTransform="matrix(1 0 0 -1 -271 -292)">
		<stop  offset="0" style="stop-color:#19174F"/>
		<stop  offset="0.8589" style="stop-color:#2562AE"/>
	</linearGradient>
	<path fill="url(#SVGID_1_)" d="M1.1,55.1v-0.5c0.3-0.5,0.8-0.899,2.5-1.1c3.4-0.2,8.3-1.7,15.3-8l30.4-30.8
		c1.9-1.8,2.7-3.2,6.8-3.2H69.4L52.4,55H1.1V55.1z"/>
	<path fill="#FFFFFF" d="M34.8,48.3l-0.5,0.2c-0.3,2.2-0.9,4.3,0.7,6.6h17.7l1.5-3.8H54.1c-3.399-13.8-0.8-27.9,5.4-38.1
		C59.9,12.4,34.8,48.3,34.8,48.3z"/>
	<path fill="#D2E7ED" d="M42,38c-3.7,5.3-6.7,9.6-7.2,10.3L34.6,48.4c-0.3,2.199-0.2,4.399,0.3,6.8h5C36.6,46.7,43.7,35.6,43.7,35.5
		C43.2,36.3,42.6,37.2,42,38z"/>
	<path fill="#FFFFFF" d="M34.9,55.2H12.5c8.2-7.5,29.7-24.8,36.4-28.3C48.8,26.9,31.6,38.8,34.9,55.2"/>
</g>
</svg>
