<?xml version="1.0" encoding="utf-8"?>
<!-- Generator: Adobe Illustrator 13.0.2, SVG Export Plug-In . SVG Version: 6.00 Build 14948)  -->
<!DOCTYPE svg PUBLIC "-//W3C//DTD SVG 1.1//EN" "http://www.w3.org/Graphics/SVG/1.1/DTD/svg11.dtd" [
	<!ENTITY ns_extend "http://ns.adobe.com/Extensibility/1.0/">
	<!ENTITY ns_ai "http://ns.adobe.com/AdobeIllustrator/10.0/">
	<!ENTITY ns_graphs "http://ns.adobe.com/Graphs/1.0/">
	<!ENTITY ns_vars "http://ns.adobe.com/Variables/1.0/">
	<!ENTITY ns_imrep "http://ns.adobe.com/ImageReplacement/1.0/">
	<!ENTITY ns_sfw "http://ns.adobe.com/SaveForWeb/1.0/">
	<!ENTITY ns_custom "http://ns.adobe.com/GenericCustomNamespace/1.0/">
	<!ENTITY ns_adobe_xpath "http://ns.adobe.com/XPath/1.0/">
]>
<svg version="1.1" id="Layer_1" xmlns:x="&ns_extend;" xmlns:i="&ns_ai;" xmlns:graph="&ns_graphs;"
	 xmlns="http://www.w3.org/2000/svg" xmlns:xlink="http://www.w3.org/1999/xlink" x="0px" y="0px" width="70px" height="70px"
	 viewBox="0 0 70 70" enable-background="new 0 0 70 70" xml:space="preserve">
<metadata>
	<sfw  xmlns="&ns_sfw;">
		<slices></slices>
		<sliceSourceBounds  x="-8.3" y="-3.8" width="85" height="74.3" bottomLeftOrigin="true"></sliceSourceBounds>
	</sfw>
</metadata>
<g>
	<path fill="#010101" d="M56,17.7l-1.3,0.2L53.9,18c-1.601,0.1-4,0.3-6.101,1.7c-2.1,1.3-4.5,4.1-6.2,6.3
		C23.4,29.1,13.4,39.8,6.8,47l-4.1,4.8l0.7-0.2C15.8,40.1,26.9,34,37.3,32.9h0.2l1.4-1.8l2.899-3.8c1.2-1.1,2.8-1.5,5.3-1.7l4.2-0.3
		l5-0.4c2.9-0.4,5.3-1,8.7-5.7l4.6-6.2l-0.5-0.5C64.7,16.6,60.1,17.2,56,17.7 M56.1,18.4c3.5-0.4,7.5-1.1,11.2-3.8
		c-1.399,1.8-3,4.1-3,4.1c-3.2,4.4-5.399,5-8.2,5.4l-5,0.3l-4.3,0.3c-1.8,0.2-3.1,0.6-4.3,1.2c1.6-2,3.8-4.5,5.6-5.7
		c2-1.3,4.301-1.4,5.801-1.6l0.899-0.1L56.1,18.4 M41,26.8c-0.3,0.4-2.9,3.8-2.9,3.8S37,32,36.9,32.2c-8.9,1-18.2,5.6-28.4,14
		C14.9,39.1,24.5,29.7,41,26.8 M54.8,18.5L54.8,18.5L54.8,18.5L54.8,18.5z"/>
</g>
<g>
	<g>
		<defs>
			<path id="SVGID_1_" d="M3,51.3l-2.7,2.8C13.9,44.2,21.7,43.4,32.9,43.5c1,0.1,2,0.1,2.7-1.2l3.4-4.5C23.3,37.8,16.2,41.6,3,51.3"
				/>
		</defs>
		<clipPath id="SVGID_2_">
			<use xlink:href="#SVGID_1_"  overflow="visible"/>
		</clipPath>
		
			<linearGradient id="SVGID_3_" gradientUnits="userSpaceOnUse" x1="-134.7661" y1="-150.3213" x2="-134.0808" y2="-150.3213" gradientTransform="matrix(24.7877 23.1149 23.1149 -24.7877 6825.377 -573.9707)">
			<stop  offset="0" style="stop-color:#C42126"/>
			<stop  offset="0.0056" style="stop-color:#C42126"/>
			<stop  offset="0.3" style="stop-color:#CA3828"/>
			<stop  offset="0.5" style="stop-color:#EBB39E"/>
			<stop  offset="0.7191" style="stop-color:#CA3828"/>
			<stop  offset="1" style="stop-color:#C42126"/>
		</linearGradient>
		<polygon clip-path="url(#SVGID_2_)" fill="url(#SVGID_3_)" points="-7.9,46.4 21,73.3 47.1,45.3 18.3,18.4 		"/>
	</g>
</g>
<g>
	<g>
		<defs>
			<path id="SVGID_4_" d="M3,51.3C16.3,39,27.3,33.5,37.1,32.4c0.9-1.1,3.801-5,4.7-6.2C19.6,29.8,9.8,44.8,3,51.3"/>
		</defs>
		<clipPath id="SVGID_5_">
			<use xlink:href="#SVGID_4_"  overflow="visible"/>
		</clipPath>
		
			<linearGradient id="SVGID_6_" gradientUnits="userSpaceOnUse" x1="-138.8115" y1="-149.75" x2="-138.126" y2="-149.75" gradientTransform="matrix(41.6168 29.1404 29.1404 -41.6168 10150.9883 -2156.7966)">
			<stop  offset="0" style="stop-color:#FFFFFF"/>
			<stop  offset="0.3427" style="stop-color:#FFFFFF"/>
			<stop  offset="0.55" style="stop-color:#FFFFFF"/>
			<stop  offset="0.9101" style="stop-color:#C2CAE3"/>
			<stop  offset="1" style="stop-color:#C2CAE3"/>
		</linearGradient>
		<polygon clip-path="url(#SVGID_5_)" fill="url(#SVGID_6_)" points="-8.8,43 29,69.5 53.6,34.4 15.8,8 		"/>
	</g>
</g>
<g>
	<g>
		<defs>
			<path id="SVGID_7_" d="M3.7,50.6c-0.3,0.301-1.2,1.2-1.4,1.5C10.1,46.4,16.6,40.4,32.8,38.2c0.8-0.9,3.2-4,4.3-5.7
				C22.3,34.4,12.6,42.7,3.7,50.6"/>
		</defs>
		<clipPath id="SVGID_8_">
			<use xlink:href="#SVGID_7_"  overflow="visible"/>
		</clipPath>
		
			<linearGradient id="SVGID_9_" gradientUnits="userSpaceOnUse" x1="-127.7466" y1="-153.5513" x2="-127.0608" y2="-153.5513" gradientTransform="matrix(14.9497 13.9409 13.9409 -14.9497 4065.3323 -476.8418)">
			<stop  offset="0" style="stop-color:#00549B"/>
			<stop  offset="0.1067" style="stop-color:#00549B"/>
			<stop  offset="0.5" style="stop-color:#778EC2"/>
			<stop  offset="0.5196" style="stop-color:#738ABF"/>
			<stop  offset="0.7283" style="stop-color:#3D6AAB"/>
			<stop  offset="0.8811" style="stop-color:#0059A0"/>
			<stop  offset="0.9607" style="stop-color:#00549B"/>
			<stop  offset="1" style="stop-color:#00549B"/>
		</linearGradient>
		<polygon clip-path="url(#SVGID_8_)" fill="url(#SVGID_9_)" points="-7.5,42.9 20.9,69.4 46.8,41.5 18.4,15.1 		"/>
	</g>
</g>
<g>
	<g>
		<defs>
			<path id="SVGID_10_" d="M31.9,39.1c-0.4,1.2,0.2,0.7,2.2,1.801c1.6,1,1.3,1.3,1.2,1.8c1.5-2.101,4.2-5.3,4.2-5.3
				c-0.7-0.2-1.4-0.301-2.1-0.301C34.8,37.2,32.2,38.4,31.9,39.1"/>
		</defs>
		<clipPath id="SVGID_11_">
			<use xlink:href="#SVGID_10_"  overflow="visible"/>
		</clipPath>
		
			<linearGradient id="SVGID_12_" gradientUnits="userSpaceOnUse" x1="-115.0581" y1="-168.2188" x2="-114.373" y2="-168.2188" gradientTransform="matrix(8.8539 5.5325 5.5325 -8.8539 1981.4026 -815.0479)">
			<stop  offset="0" style="stop-color:#C42126"/>
			<stop  offset="0.0056" style="stop-color:#C42126"/>
			<stop  offset="0.4944" style="stop-color:#CA3828"/>
			<stop  offset="1" style="stop-color:#EBB39E"/>
		</linearGradient>
		<polygon clip-path="url(#SVGID_11_)" fill="url(#SVGID_12_)" points="29,41.2 37.2,46.3 42,38.7 33.7,33.6 		"/>
	</g>
</g>
<g>
	<g>
		<defs>
			<path id="SVGID_13_" d="M46.9,24.8c-3,0.4-4.9,1.2-6.2,2.7l-4.2,5.7c0.9-0.8,3.7-1.2,6.7-1.3H43.6c0.101,0,0.301,0,0.4,0
				c0.4,0,0.9,0,1.4,0c4.3-0.2,10.199-0.8,13.699-4.8l5.2-7.2L64.9,19C60.5,24.9,50.1,24.3,46.9,24.8"/>
		</defs>
		<clipPath id="SVGID_14_">
			<use xlink:href="#SVGID_13_"  overflow="visible"/>
		</clipPath>
		
			<linearGradient id="SVGID_15_" gradientUnits="userSpaceOnUse" x1="-134.978" y1="-151.9351" x2="-134.2924" y2="-151.9351" gradientTransform="matrix(25.646 20.1344 20.1344 -25.646 6562.5137 -1159.8875)">
			<stop  offset="0" style="stop-color:#C2CAE2"/>
			<stop  offset="0.073" style="stop-color:#C2CAE2"/>
			<stop  offset="0.5" style="stop-color:#00549B"/>
			<stop  offset="0.545" style="stop-color:#02569F"/>
			<stop  offset="0.6155" style="stop-color:#2260A5"/>
			<stop  offset="0.7025" style="stop-color:#4970AF"/>
			<stop  offset="0.8028" style="stop-color:#738BBF"/>
			<stop  offset="0.9129" style="stop-color:#ABB7D9"/>
			<stop  offset="0.9494" style="stop-color:#C2CAE2"/>
			<stop  offset="1" style="stop-color:#C2CAE2"/>
		</linearGradient>
		<polygon clip-path="url(#SVGID_14_)" fill="url(#SVGID_15_)" points="29.6,27.7 54.1,47 71.9,24.3 47.4,5.1 		"/>
	</g>
</g>
<g>
	<g>
		<defs>
			<path id="SVGID_16_" d="M49.4,31.1c-3.301,0.5-7,0.6-8,0.6c-1.801,0.1-4.2,0.7-4.9,1.5c-2,2.5-4,4.899-4.5,5.899
				c1.2-1.199,5.4-1,10.3-1.3c5-0.2,10-2.4,14-6.9l3-4.2C57.3,29.3,53.7,30.5,49.4,31.1"/>
		</defs>
		<clipPath id="SVGID_17_">
			<use xlink:href="#SVGID_16_"  overflow="visible"/>
		</clipPath>
		
			<linearGradient id="SVGID_18_" gradientUnits="userSpaceOnUse" x1="-134.4219" y1="-152.1606" x2="-133.7364" y2="-152.1606" gradientTransform="matrix(24.3092 19.085 19.085 -24.3092 6208.5283 -1107.5033)">
			<stop  offset="0" style="stop-color:#EBB39E"/>
			<stop  offset="0.0562" style="stop-color:#EBB39E"/>
			<stop  offset="0.3278" style="stop-color:#CA3828"/>
			<stop  offset="0.5169" style="stop-color:#C42126"/>
			<stop  offset="0.7472" style="stop-color:#CA3828"/>
			<stop  offset="0.9607" style="stop-color:#EBB39E"/>
			<stop  offset="1" style="stop-color:#EBB39E"/>
		</linearGradient>
		<polygon clip-path="url(#SVGID_17_)" fill="url(#SVGID_18_)" points="25.9,34.4 48.9,52.4 65.3,31.4 42.4,13.4 		"/>
	</g>
</g>
<g>
	<g>
		<defs>
			<path id="SVGID_19_" d="M54.7,18.2c-1.3,0.2-4.3,0.1-6.8,1.7s-5.5,5.4-7,7.3C42.3,25.7,44.1,25.3,46.8,25s6.5-0.3,9.3-0.6
				c2.601-0.4,5.101-0.9,8.5-5.6l4.601-6.2C64.4,17.4,59.2,17.6,54.7,18.2"/>
		</defs>
		<clipPath id="SVGID_20_">
			<use xlink:href="#SVGID_19_"  overflow="visible"/>
		</clipPath>
		
			<linearGradient id="SVGID_21_" gradientUnits="userSpaceOnUse" x1="-135.1689" y1="-151.9321" x2="-134.4834" y2="-151.9321" gradientTransform="matrix(26.0657 20.464 20.464 -26.0657 6678.5972 -1181.1315)">
			<stop  offset="0" style="stop-color:#FFFFFF"/>
			<stop  offset="0.3" style="stop-color:#FFFFFF"/>
			<stop  offset="0.5056" style="stop-color:#D4D9EB"/>
			<stop  offset="0.7" style="stop-color:#FFFFFF"/>
			<stop  offset="1" style="stop-color:#FFFFFF"/>
		</linearGradient>
		<polygon clip-path="url(#SVGID_20_)" fill="url(#SVGID_21_)" points="33.9,21.7 58.4,41 76.2,18.2 51.7,-1 		"/>
	</g>
</g>
<rect fill="none" width="70" height="70"/>
</svg>
