<?xml version="1.0" encoding="utf-8"?>
<!-- Generator: Adobe Illustrator 16.0.0, SVG Export Plug-In . SVG Version: 6.00 Build 0)  -->
<!DOCTYPE svg PUBLIC "-//W3C//DTD SVG 1.1//EN" "http://www.w3.org/Graphics/SVG/1.1/DTD/svg11.dtd">
<svg version="1.1" id="Layer_1" xmlns="http://www.w3.org/2000/svg" xmlns:xlink="http://www.w3.org/1999/xlink" x="0px" y="0px"
	 width="70px" height="70px" viewBox="0 0 70 70" enable-background="new 0 0 70 70" xml:space="preserve">
<path fill-rule="evenodd" clip-rule="evenodd" fill="#A49162" d="M42.904,29.508c-0.681-3.345-1.349-6.626-2.696-9.724
	c-0.322-0.738-0.738-1.436-1.351-2.138c-0.067,1.697-1.14,3.291-0.243,5.027c0.136,0.26,0.192,0.498,0.119,0.771
	c-0.856,3.158-0.185,6.402-0.46,9.606c-0.158,1.876-0.156,3.814-0.39,5.714c-0.075,0.625,0.159,1.01,0.722,1.304
	c0.518,0.271,1.146,0.392,1.593,1.083c-2.214,0-4.337,0-6.501,0c-0.082-0.161,0.012-0.371,0.235-0.432
	c1.953-0.54,2.217-1.779,1.757-3.597c-0.662-2.623-0.346-5.385-0.359-8.031c-0.01-1.969-0.727-4.044-0.176-5.828
	c0.616-1.998-0.052-3.691-0.069-5.98c-1.594,2.019-2.12,4.031-2.728,5.995c-0.624,2.02-0.964,4.106-1.474,6.185
	c-1.617-4.39-1.135-8.712,0.395-13.01c-1.355,0.351-3.201,2.105-5.114,4.826c-1.376,1.958-2.502,4.062-3.541,6.313
	c-1.369-3.167,0.594-8.002,5.863-14.437c-2.922,0.779-5.205,2.142-7.383,3.727c-2.143,1.557-3.944,3.493-5.891,5.276
	c1.776-6.563,6.392-10.405,12.402-12.97c-4.509-0.24-8.606,1.137-12.651,2.834c4.273-4.636,9.583-6.883,15.909-6.927
	c-0.097-1.053-1.398-0.748-1.708-1.691c1.691-0.565,3.324-0.487,4.872,0.292c0.808,0.405,1.29,0.54,1.387-0.568
	c0.013-0.158,0.08-0.319,0.156-0.46c0.33-0.614,0.52-1.56,1.252-1.588c0.862-0.034,1.201,0.933,1.361,1.624
	c0.299,1.275,0.697,1.51,1.938,0.864c1.407-0.732,2.99-0.708,4.593-0.147c-0.461,0.81-1.53,0.654-1.784,1.649
	c6.264,0.107,11.602,2.274,15.854,6.914c-4.075-1.677-8.204-3.055-12.758-2.831c6.006,2.504,10.641,6.293,12.434,12.83
	c-3.326-3.312-6.758-6.453-11.211-8.185c-0.526-0.206-1.042-0.595-1.692-0.406c5.3,6.971,6.537,9.925,5.826,14.495
	c-2.275-4.594-4.644-8.739-8.951-11.908C43.938,20.687,44.506,25.087,42.904,29.508z"/>
<path fill-rule="evenodd" clip-rule="evenodd" fill="#A39162" d="M33.994,48.113c-6.741-4.449-17.549-10.021-25.191-7.835
	c1.491-1.651,3.222-2.32,5.113-2.598c4.204-0.617,8.077,0.667,11.873,2.231c3.48,1.435,6.769,3.254,9.847,5.416
	c0.979,0.687,1.639,0.629,2.586-0.021c4.967-3.409,10.242-6.194,16.205-7.419c3.456-0.709,6.834-0.647,9.823,1.608
	c0.173,0.13,0.33,0.283,0.474,0.444c0.061,0.069,0.07,0.188,0.131,0.371c-5.318-1.505-10.125,0.251-14.867,2.233
	c-3.161,1.325-6.138,3.033-9.127,4.713c-1.108,0.623-0.987,1.041-0.01,1.617c0.7,0.416,1.394,0.866,2.006,1.396
	c1.885,1.626,3.723,2.675,5.79,0.227c0.4-0.475,1.122-0.648,1.811-0.61c0.497,0.029,0.816,0.309,0.945,0.762
	c0.096,0.336-0.049,0.645-0.328,0.863c-0.365,0.285-0.78,0.23-1.019-0.095c-0.609-0.843-1.044-0.212-1.435,0.159
	c-1.657,1.574-3.285,3.177-4.913,4.78c-0.554,0.545-1.188,0.957-1.904,1.227c-0.488,0.182-0.978,0.128-1.33-0.322
	c-0.216-0.278-0.263-0.608-0.061-0.912c0.34-0.505,0.755-0.446,1.273-0.216c1.436,0.637,1.733-0.84,2.259-1.492
	c0.544-0.674-0.543-0.846-0.963-1.12c-1.636-1.075-3.343-2.044-4.972-3.132c-0.779-0.52-1.38-0.593-2.197-0.033
	c-1.706,1.166-3.501,2.197-5.236,3.318c-0.379,0.246-1.33,0.449-0.634,1.101c0.592,0.554,0.748,1.999,2.057,1.409
	c0.494-0.223,0.874-0.486,1.271,0.009c0.255,0.316,0.277,0.725,0.008,1.06c-0.347,0.437-0.829,0.497-1.329,0.327
	c-0.9-0.303-1.605-0.913-2.269-1.558c-1.525-1.477-3.021-2.982-4.55-4.453c-0.385-0.37-0.787-1.049-1.384-0.152
	c-0.238,0.356-0.66,0.349-1.019,0.084c-0.279-0.204-0.489-0.493-0.375-0.836c0.142-0.434,0.462-0.743,0.956-0.762
	c1.185-0.049,2.153,0.559,2.871,1.345c1.151,1.262,2.059,1.029,3.251,0.059C30.854,50.147,32.437,49.188,33.994,48.113z"/>
<path fill-rule="evenodd" clip-rule="evenodd" fill="#A39162" d="M61.127,56.676c-5.144,6.456-11.849,10.354-19.938,11.664
	c-11.142,1.805-20.794-1.521-28.765-9.388c-9.67-9.547-12.118-24.358-6.324-36.643c0.25-0.532,0.512-1.06,0.768-1.589
	c0.331-0.06,0.493,0.055,0.421,0.409c-4.5,11.054-3.661,21.69,3.185,31.474c11.678,16.69,34.981,18.551,49.433,4.161
	c0.269-0.269,0.559-0.514,0.84-0.769C61.335,55.965,61.376,56.237,61.127,56.676z"/>
<path fill-rule="evenodd" clip-rule="evenodd" fill="#A69567" d="M55.782,55.964c-0.836,1.651-2.276,1.845-3.813,1.622
	c-1.672-0.241-3.238-0.872-4.719-1.673c-0.432-0.235-1.409-0.326-0.848-1.148c0.438-0.642,0.975-1.558,2.091-0.807
	c0.714,0.482,1.487,0.882,2.251,1.286C52.312,56.073,53.946,56.508,55.782,55.964z"/>
<path fill-rule="evenodd" clip-rule="evenodd" fill="#A69466" d="M18.005,55.829c2.824,0.981,4.965-0.475,7.155-1.753
	c0.501-0.291,0.918-0.686,1.552-0.064c0.827,0.813,1.162,1.333-0.199,1.938c-1.541,0.685-3.066,1.385-4.737,1.659
	C19.956,57.904,18.607,57.287,18.005,55.829z"/>
<path fill-rule="evenodd" clip-rule="evenodd" fill="#B2A37B" d="M61.127,56.676c-0.006-0.293-0.081-0.55-0.379-0.68
	c0.895-1.18,1.792-2.358,2.687-3.538c0.528,0,0.57,0.234,0.302,0.622C62.919,54.316,62.227,55.644,61.127,56.676z"/>
<path fill-rule="evenodd" clip-rule="evenodd" fill="#C2B798" d="M7.29,21.129c-0.141-0.136-0.281-0.272-0.421-0.409
	c0.348-1.074,0.971-1.968,1.815-2.729C8.485,19.161,7.915,20.156,7.29,21.129z"/>
<path fill-rule="evenodd" clip-rule="evenodd" fill="#C6BCA0" d="M63.736,53.08c-0.008-0.252-0.019-0.503-0.302-0.622
	c0.371-0.805,0.693-1.646,1.646-2.271C64.88,51.389,64.438,52.293,63.736,53.08z"/>
</svg>
