<?xml version="1.0" encoding="utf-8"?>
<!-- Generator: Adobe Illustrator 16.0.0, SVG Export Plug-In . SVG Version: 6.00 Build 0)  -->
<!DOCTYPE svg PUBLIC "-//W3C//DTD SVG 1.1//EN" "http://www.w3.org/Graphics/SVG/1.1/DTD/svg11.dtd">
<svg version="1.1" id="Layer_1" xmlns="http://www.w3.org/2000/svg" xmlns:xlink="http://www.w3.org/1999/xlink" x="0px" y="0px"
	 width="70px" height="70px" viewBox="0 0 70 70" enable-background="new 0 0 70 70" xml:space="preserve">
<rect fill="none" width="70" height="70"/>
<path fill="#9D9FA2" d="M21.5,54.5c0.8,1.5,1.8,2.2,3.3,2.2h26.7l0,0c1.2,0,2-0.601,2.5-1.8L62,37.1l-24.9-21
	c-1.5-1.3-2.8-1.7-4.8-1.7H1.1L21.5,54.5z"/>
<path fill="#C4C4C3" d="M57.5,58.7c1.3,0,2.3-0.8,2.9-2L69,37.5L42.3,14.9c-1.7-1.4-2.5-2.5-6.2-2.5H2l0.4,0.8h34.1
	c2.2,0,3.5,0.7,5.2,2.1L68,37.6L59.3,57c-0.5,1.2-1.6,1.4-2.399,1.7H57.5z"/>
<linearGradient id="SVGID_1_" gradientUnits="userSpaceOnUse" x1="288.3613" y1="-334.3662" x2="330.579" y2="-312.8552" gradientTransform="matrix(1 0 0 -1 -271 -292)">
	<stop  offset="0" style="stop-color:#FFFFFF"/>
	<stop  offset="0.0465" style="stop-color:#E6E6E6"/>
	<stop  offset="0.2301" style="stop-color:#FFFFFF"/>
</linearGradient>
<path fill="url(#SVGID_1_)" d="M24.5,56.3c0.9,1.7,2,2.4,3.5,2.4h28.7l0,0c1.3,0,2.1-0.7,2.7-1.9L68,37.6L41.3,15
	c-1.7-1.4-3-1.8-5.2-1.8H2.5L24.5,56.3z"/>
<g>
	<path fill="#CE1F3D" d="M32.7,21.2c1-1,0.8-2.1,0-2.6c-0.7-0.5-1.3-0.3-2.1,0.5c-0.8,0.8-2.8,6.5-4.1,10.8
		c-1.3,4.3-2.8,12.8-2.8,12.8c-0.1-1.3-1.4-7.8-1.6-9.6c-0.2-1.8-0.7-1.9-1.3-1.9c-0.6,0-0.7,0.5-0.9,0.9c-0.2,0.4-1.9,5.9-2.4,6.8
		c-0.2,0.399-0.2,1.199,0.2,1.3c0.4,0.2,1,0,1.2-0.601c0.2-0.6,1.5-3.8,1.5-3.8s0.3,0.601,0.5,1.9c0.1,1.3,1,6.8,1.4,9.2
		c0.4,2.3,0.5,3.6,1.5,3.5c1-0.101,1.2-4,1.8-9s2.7-12.101,4-15.101C31.1,23.4,31.8,22.1,32.7,21.2z"/>
	<path fill="#CE1F3D" d="M29.3,36c-0.6,0.2-1,1.4-1,2.2c0,0-0.2,3.7-0.2,4.7s0.7,0.8,1.2,0.5c0.5-0.301,0.6-0.7,0.7-1.2
		s0.5-4.7,0.5-5.601C30.5,35.7,29.9,35.9,29.3,36z"/>
	<path fill="#CE1F3D" d="M31.2,31.7c-0.2-0.4-0.7-0.2-1.1,0.1c-0.4,0.3-0.9,0.8-0.7,1.3c0.2,0.5,0.6,0.4,1.3,0
		C31.4,32.7,31.5,32.2,31.2,31.7z"/>
	<path fill="#CE1F3D" d="M44.9,36c0.5-0.2,0.6-0.7,0.6-1.2c0.1-0.5,0.4-4.4,0.4-5.3s-0.5-0.6-1.101-0.4c-0.6,0.2-1,1.3-1,2
		c0,0-0.2,3.5-0.1,4.4C43.8,36.4,44.4,36.2,44.9,36z"/>
	<path fill="#CE1F3D" d="M46.1,26.7c0.7-0.4,0.9-0.9,0.5-1.4c-0.3-0.3-0.699-0.2-1.1,0.1c-0.4,0.3-0.9,0.7-0.7,1.2
		C45.1,27.2,45.5,27,46.1,26.7z"/>
	<path fill="#CE1F3D" d="M32.1,35.7c-0.1,0.6-0.3,3.8-0.3,4.8s0.4,1.2,1.1,1c0.7-0.2,0.8-1,0.9-1.6c0.1-0.601,0.1-1.4,0.1-2.2
		s0.4-1.9,1.1-2.4c0.8-0.5,0.8-1,0.6-1.4c-0.2-0.4-0.5-0.3-0.8-0.1c-0.3,0.2-0.8,0.5-1.5,0.4C32.6,34.2,32.2,35.1,32.1,35.7z"/>
	<path fill="#CE1F3D" d="M57.4,31.4C57.3,30.8,56.6,30.7,56.1,30.9c-0.5,0.1-2,1.1-2.5,1.1s-0.5-0.6-0.5-1c0-0.5,0-2.8,0-3.7
		c0-1,0.101-1.4-0.899-1.4S50.6,27,50.1,27.3c-0.5,0.3-0.699,0.1-1.6,0.2s-1,0.7-1.1,1.1C47.3,29,47.1,31.3,47.1,33s0.4,1.5,1,1.3
		c0.7-0.2,0.9-0.9,0.9-1.2c0-0.3,0.1-1.9,0.2-2.9c0.1-1,0.8-2.1,1.6-2.3c0.8-0.2,0.4,2.1,0.3,3.7c0,1.6,0.601,1.6,0.601,1.6
		s-2.7,1.5-5,2.8s-4.8,3-4.8,3s0.3-5.9,0.399-7.2c0.101-1.3-0.1-1.3-0.7-1.3c-0.6,0-1.1,0.5-1.1,1s-0.3,3.5-0.4,4.6
		C40,37.2,39.3,37.9,38.7,37.9C38.1,37.9,38.1,36.7,38.1,35.8c0-0.9,0.7-2.7,1.101-3c0.399-0.3,0.5-0.9,0.399-1.2
		c-0.199-0.3-0.8-0.1-1.699,0.5c-0.9,0.7-1.5,2.3-1.5,4.6C36.3,38.9,36.7,39.6,37.6,39.8c1,0.3,2.4-0.8,2.4-0.8l0.1,1.1
		c0,0-4.1,2.9-5.899,4.301c-1.8,1.5-6.8,5.8-7.1,6.199c-0.3,0.4-0.9,1.101-0.2,1.9c0.7,0.8,1.6-0.1,2.4-0.9c0.8-0.8,3.4-3.6,5.4-5.3
		s5.3-4.1,5.3-4.1s0,2.8,0,4.399c0,1.601-0.1,3.9-0.2,5.101c-0.1,1.2,0.5,2.2,1.2,2.1c0.7,0,1.1-0.2,1.1-1.3c0-1.2-0.5-2.3-0.5-3.7
		c0-1.3,0.101-7.899,0.101-7.899s8.7-5.4,10.2-6.2c1.5-0.8,3-1.3,4.1-1.6C57.2,32.9,57.5,32,57.4,31.4z"/>
</g>
</svg>
