<?xml version="1.0" encoding="utf-8"?>
<!-- Generator: Adobe Illustrator 16.0.0, SVG Export Plug-In . SVG Version: 6.00 Build 0)  -->
<!DOCTYPE svg PUBLIC "-//W3C//DTD SVG 1.1//EN" "http://www.w3.org/Graphics/SVG/1.1/DTD/svg11.dtd">
<svg version="1.1" id="Layer_1" xmlns="http://www.w3.org/2000/svg" xmlns:xlink="http://www.w3.org/1999/xlink" x="0px" y="0px"
	 width="70px" height="70px" viewBox="0 0 70 70" enable-background="new 0 0 70 70" xml:space="preserve">
<path fill-rule="evenodd" clip-rule="evenodd" fill="#00BBE1" d="M19.672,39.579c0.167-2.487,0.796-4.876,1.514-7.248
	c0.519-1.714,1.081-3.415,1.382-5.188c0.3-1.764-0.355-2.987-2.037-3.633c-0.612-0.236-1.27-0.352-1.896-0.555
	c-0.924-0.3-1.092-0.901-0.479-1.662c0.478-0.593,1.139-0.901,1.831-1.156c1.856-0.682,3.819-0.819,5.75-1.126
	c0.396-0.062,0.79-0.138,1.188-0.188c2.27-0.292,3.665-1.665,4.583-3.66c0.477-1.036,0.758-2.127,1.055-3.219
	c0.111-0.408,0.231-0.818,0.401-1.204c0.278-0.632,0.773-1.03,1.479-1.032c0.675-0.001,1.056,0.458,1.312,1.027
	c0.448,1,0.641,2.067,0.794,3.142c0.219,1.515,0.295,3.052,0.681,4.543c0.532,2.062,1.301,2.685,3.449,2.688
	c2.125,0.003,4.145-0.578,6.158-1.179c0.949-0.283,1.901-0.553,2.88-0.719c0.446-0.077,0.896-0.107,1.339-0.043
	c1.034,0.146,1.407,1.008,0.825,1.864c-0.434,0.634-1.026,1.104-1.637,1.551c-2.159,1.578-4.51,2.837-6.849,4.113
	c-1.615,0.881-3.25,1.736-4.662,2.938c-1.457,1.24-1.814,2.524-1.211,4.362c0.625,1.906,1.86,3.427,3.146,4.91
	c0.651,0.749,1.304,1.497,1.94,2.255c0.243,0.288,0.478,0.591,0.663,0.917c0.317,0.559,0.838,1.14,0.348,1.805
	c-0.51,0.693-1.295,0.601-2.019,0.422c-1.138-0.277-2.124-0.896-3.103-1.512c-2.608-1.641-4.908-3.676-7.259-5.646
	c-0.923-0.773-1.879-1.502-2.938-2.089c-1.032-0.571-1.99-0.45-2.9,0.255c-1.053,0.816-1.731,1.92-2.321,3.084
	c-0.481,0.945-0.924,1.91-1.422,2.846c-0.205,0.385-0.456,0.857-0.988,0.775c-0.529-0.084-0.705-0.57-0.851-1.033
	C19.676,40.524,19.681,40.053,19.672,39.579z"/>
<path fill-rule="evenodd" clip-rule="evenodd" fill="#D52627" d="M45.798,59.95c-0.236,0-0.475,0.016-0.708-0.004
	c-2.088-0.182-3.06-1.297-2.869-3.375c0.108-1.195,0.272-2.394,0.495-3.573c0.412-2.186,2.266-3.412,4.66-3.063
	c0.525,0.076,0.594-0.09,0.64-0.499c0.088-0.796,0.221-1.59,0.3-2.386c0.038-0.391,0.141-0.594,0.593-0.569
	c0.73,0.04,1.464,0.022,2.194,0.006c0.342-0.009,0.514,0.039,0.455,0.455c-0.571,3.945-1.129,7.894-1.679,11.841
	c-0.039,0.278-0.158,0.403-0.413,0.489C48.272,59.666,47.06,59.942,45.798,59.95z"/>
<path fill-rule="evenodd" clip-rule="evenodd" fill="#D52627" d="M39.212,59.791c-1.597,0-1.588,0.002-1.345-1.591
	c0.229-1.49,0.445-2.982,0.648-4.477c0.105-0.772-0.204-1.122-0.897-1.078c-0.363,0.022-0.583,0.14-0.638,0.576
	c-0.255,1.988-0.569,3.966-0.82,5.952c-0.059,0.468-0.184,0.658-0.679,0.628c-0.706-0.042-1.416-0.027-2.123-0.005
	c-0.391,0.013-0.46-0.104-0.403-0.49c0.41-2.751,0.797-5.505,1.169-8.262c0.042-0.305,0.164-0.458,0.432-0.555
	c1.604-0.588,3.244-0.836,4.927-0.435c1.637,0.39,2.445,1.588,2.229,3.256c-0.251,1.941-0.54,3.875-0.785,5.815
	c-0.064,0.514-0.251,0.752-0.797,0.672C39.83,59.756,39.519,59.791,39.212,59.791z"/>
<path fill-rule="evenodd" clip-rule="evenodd" fill="#D52627" d="M65.897,59.791c-1.562,0-1.549,0.002-1.327-1.518
	c0.229-1.565,0.445-3.13,0.636-4.699c0.079-0.65-0.209-0.938-0.834-0.93c-0.386,0.002-0.63,0.105-0.688,0.585
	c-0.231,1.871-0.522,3.738-0.776,5.606c-0.13,0.953-0.114,0.955-1.097,0.955c-0.543,0-1.089-0.035-1.629,0.01
	c-0.515,0.042-0.591-0.174-0.525-0.613c0.315-2.122,0.613-4.249,0.918-6.374c0.07-0.49,0.18-0.979,0.198-1.472
	c0.019-0.525,0.233-0.792,0.738-0.954c1.486-0.476,2.988-0.701,4.528-0.358c1.725,0.384,2.561,1.462,2.374,3.217
	c-0.222,2.062-0.56,4.113-0.837,6.17c-0.041,0.306-0.196,0.388-0.475,0.379C66.7,59.782,66.3,59.791,65.897,59.791z"/>
<path fill-rule="evenodd" clip-rule="evenodd" fill="#D52627" d="M14.853,49.876c2.445-0.004,3.711,1.396,3.427,3.814
	c-0.119,1.006-0.254,2.011-0.432,3.008c-0.275,1.549-1.275,2.493-2.711,2.974c-1.533,0.513-3.034,0.472-4.342-0.613
	c-0.702-0.581-0.964-1.395-0.866-2.288c0.127-1.147,0.267-2.296,0.481-3.43C10.81,51.217,12.559,49.88,14.853,49.876z"/>
<path fill-rule="evenodd" clip-rule="evenodd" fill="#D52627" d="M56.215,49.872c0.382-0.009,0.935,0.08,1.469,0.297
	c1.243,0.506,1.938,1.463,1.842,2.798c-0.096,1.312-0.234,2.636-0.524,3.917c-0.63,2.78-4.67,4.093-6.888,2.286
	c-0.662-0.538-1.028-1.238-0.98-2.094c0.079-1.438,0.244-2.871,0.602-4.262C52.188,51.059,53.975,49.886,56.215,49.872z"/>
<path fill-rule="evenodd" clip-rule="evenodd" fill="#D52627" d="M28.352,59.968c-0.428,0.023-0.958-0.07-1.473-0.263
	c-1.387-0.514-2.121-1.596-1.982-3.065c0.108-1.148,0.25-2.302,0.478-3.432c0.528-2.615,3.826-4.167,6.217-2.963
	c1.843,0.929,2.027,3.825,0.312,5.15c-1.028,0.797-2.22,0.983-3.483,0.834c-0.156-0.019-0.351-0.151-0.456,0.022
	c-0.104,0.168,0.002,0.369,0.084,0.536c0.291,0.588,1.219,0.835,2.01,0.385c0.543-0.309,0.796-0.152,1.156,0.222
	c1.099,1.149,1.097,1.216-0.36,2C30.111,59.793,29.313,59.964,28.352,59.968z"/>
<path fill-rule="evenodd" clip-rule="evenodd" fill="#D52627" d="M6.374,49.876c1.708-0.025,2.906,0.772,3.259,2.146
	c0.09,0.351,0.076,0.563-0.342,0.653c-0.482,0.104-0.952,0.266-1.422,0.415c-0.452,0.143-0.833,0.371-1.186-0.279
	c-0.288-0.533-1.315-0.291-1.459,0.356c-0.25,1.123-0.42,2.271-0.525,3.417c-0.06,0.653,0.858,1.024,1.362,0.482
	c0.605-0.655,1.173-0.469,1.82-0.281c0.023,0.006,0.045,0.014,0.068,0.02c1.479,0.353,1.522,0.481,0.451,1.635
	c-1.226,1.32-2.73,1.804-4.492,1.377c-1.633-0.397-2.516-1.626-2.337-3.289c0.118-1.103,0.27-2.2,0.469-3.292
	C2.421,51.131,4.019,49.913,6.374,49.876z"/>
<path fill-rule="evenodd" clip-rule="evenodd" fill="#FEC422" d="M44.037,13.438c-0.018-2.346,1.672-4.038,4.061-4.066
	c2.069-0.024,3.757,1.582,3.774,3.593c0.02,2.069-2.055,4.049-4.23,4.038C45.426,16.991,44.053,15.633,44.037,13.438z"/>
<path fill-rule="evenodd" clip-rule="evenodd" fill="#D52627" d="M23.555,49.874c1.637-0.013,1.7,0.055,1.504,1.625
	c-0.012,0.091-0.04,0.186-0.04,0.279c0,0.679-0.17,0.99-1.005,0.876c-1.011-0.136-1.525,0.381-1.67,1.381
	c-0.246,1.68-0.486,3.361-0.694,5.045c-0.065,0.535-0.231,0.786-0.826,0.726c-0.632-0.063-1.276-0.045-1.911-0.005
	c-0.475,0.031-0.559-0.155-0.497-0.574c0.296-2.007,0.526-4.024,0.869-6.021C19.652,51.072,21.223,49.896,23.555,49.874z"/>
<path fill-rule="evenodd" clip-rule="evenodd" fill="#FFFFFF" d="M45.333,56.634c0.155-1.096,0.3-2.192,0.477-3.285
	c0.068-0.433,0.36-0.688,0.796-0.8c0.733-0.187,0.947-0.018,0.845,0.736c-0.161,1.189-0.383,2.372-0.497,3.567
	c-0.057,0.599-0.362,0.692-0.828,0.636C45.634,57.429,45.25,57.242,45.333,56.634z"/>
<path fill-rule="evenodd" clip-rule="evenodd" fill="#FFFFFF" d="M15.15,53.679c-0.127,0.886-0.251,1.887-0.419,2.881
	c-0.09,0.531-0.588,0.831-1.104,0.705c-0.524-0.131-0.596-0.492-0.517-0.978c0.144-0.88,0.242-1.768,0.351-2.651
	c0.046-0.373,0.184-0.677,0.543-0.843C14.658,52.492,15.189,52.849,15.15,53.679z"/>
<path fill-rule="evenodd" clip-rule="evenodd" fill="#FFFFFF" d="M56.384,53.386c-0.154,1.108-0.268,2.184-0.467,3.244
	c-0.102,0.557-0.576,0.72-1.095,0.631c-0.497-0.086-0.602-0.455-0.536-0.906c0.138-0.953,0.264-1.907,0.404-2.859
	c0.084-0.566,0.461-0.798,0.994-0.782C56.126,52.727,56.375,52.967,56.384,53.386z"/>
<path fill-rule="evenodd" clip-rule="evenodd" fill="#FDFBFA" d="M28.313,53.878c0.044-0.915,0.494-1.462,1.162-1.396
	c0.465,0.044,0.716,0.31,0.701,0.797c-0.02,0.653-0.577,1.157-1.283,1.118C28.58,54.379,28.178,54.393,28.313,53.878z"/>
</svg>
