<?xml version="1.0" encoding="utf-8"?>
<!-- Generator: Adobe Illustrator 16.0.0, SVG Export Plug-In . SVG Version: 6.00 Build 0)  -->
<!DOCTYPE svg PUBLIC "-//W3C//DTD SVG 1.1//EN" "http://www.w3.org/Graphics/SVG/1.1/DTD/svg11.dtd">
<svg version="1.1" id="Layer_1" xmlns="http://www.w3.org/2000/svg" xmlns:xlink="http://www.w3.org/1999/xlink" x="0px" y="0px"
	 width="500px" height="500px" viewBox="0 0 500 500" enable-background="new 0 0 500 500" xml:space="preserve">
<g id="UI">
	<g id="Product---business-_x28_desktop_x29_" transform="translate(-676.000000, -1589.000000)">
		<path id="Page-1" d="M785.683,1893.454h23.632v-110.877h-23.632V1893.454z M935.354,1829.448v-9.846h-0.394l0,0h-20.679l0,0
			h-1.181v74.048h22.253v-38.797c0-11.226,12.604-16.148,21.467-13.785h0.196v-21.466
			C947.959,1819.404,939.688,1823.344,935.354,1829.448L935.354,1829.448z M859.337,1876.319c-11.62,0-20.875-8.861-20.875-19.891
			c0-11.027,9.453-19.891,20.875-19.891c11.619,0,20.875,8.863,20.875,19.891C880.212,1867.458,870.759,1876.319,859.337,1876.319
			L859.337,1876.319z M880.016,1824.525c-6.302-4.529-14.18-7.09-22.648-7.09c-21.663,0-38.993,17.528-38.993,38.994
			s17.527,38.993,38.993,38.993c8.468,0,16.149-2.757,22.648-7.09v5.121h19.3v-74.049h-19.3V1824.525z M1012.554,1817.436
			c-8.862,0-17.331,2.757-22.845,10.241v-8.272h-0.394l0,0h-20.679l0,0h-1.182v74.05h22.254v-40.57
			c0-11.225,7.483-16.739,16.74-16.739c9.649,0,15.36,5.909,15.36,16.543v40.568h22.255v-47.067
			C1044.064,1829.252,1030.277,1817.436,1012.554,1817.436L1012.554,1817.436z M1156.317,1867.261
			c-7.681,0-13.982,6.302-13.982,13.982s6.302,13.982,13.982,13.982s13.982-6.302,13.982-13.982
			C1170.3,1873.365,1163.998,1867.261,1156.317,1867.261L1156.317,1867.261z M1092.707,1876.319
			c-11.619,0-20.875-8.861-20.875-19.891c0-11.027,9.452-19.891,20.875-19.891c11.619,0,20.876,8.863,20.876,19.891
			C1113.779,1867.458,1104.325,1876.319,1092.707,1876.319L1092.707,1876.319z M1113.583,1824.525
			c-6.303-4.529-14.18-7.09-22.647-7.09c-21.664,0-38.994,17.528-38.994,38.994s17.527,38.993,38.994,38.993
			c8.468,0,16.147-2.757,22.647-7.09v5.121h19.299v-74.049h-19.299V1824.525z M1146.865,1820.783h0.984
			c0.59,0,0.984,0.395,0.984,0.788c0,0.591-0.197,0.788-0.984,0.788h-0.984V1820.783z M1146.865,1823.344h0.984l0.984,2.166h0.985
			l-0.985-2.166c0.591-0.197,0.985-0.788,0.985-1.575c0-0.985-0.788-1.773-1.97-1.773h-1.97v5.515h0.985V1823.344z M681.7,1893.454
			h24.617v-110.877H681.7V1893.454z M769.534,1782.577h-23.829c-0.394,25.012-14.967,46.675-35.843,57.31l36.827,53.567h29.935
			l-33.479-48.645C759.687,1828.464,769.141,1806.407,769.534,1782.577L769.534,1782.577z M1147.652,1818.421
			c2.363,0,4.332,1.969,4.332,4.332s-1.969,4.333-4.332,4.333c-2.362,0-4.333-1.97-4.333-4.333S1145.29,1818.421,1147.652,1818.421
			L1147.652,1818.421z M1147.652,1828.07c2.954,0,5.317-2.363,5.317-5.317s-2.363-5.317-5.317-5.317s-5.317,2.363-5.317,5.317
			S1144.698,1828.07,1147.652,1828.07L1147.652,1828.07z"/>
	</g>
</g>
</svg>
