<svg xmlns="http://www.w3.org/2000/svg" width="16" height="16" viewBox="0 0 16 16">
    <defs>
        <style>
            .cls-1{opacity:.2}.cls-2{fill:none}.cls-3{fill:#1c1c1c}
        </style>
    </defs>
    <g id="parent-fill" class="cls-1">
        <path id="Path_32" d="M0 0h16v16H0z" class="cls-2" data-name="Path 32"/>
        <path id="Path_33" d="M5.333 8a3 3 0 1 1 3-3 3 3 0 0 1-3 3zm7 2.667A2.667 2.667 0 1 1 15 8a2.667 2.667 0 0 1-2.667 2.667zm0 .667a3 3 0 0 1 3 3v.333h-6v-.333a3 3 0 0 1 3-3zm-7-2.667A3.333 3.333 0 0 1 8.667 12v2.667H2V12a3.333 3.333 0 0 1 3.333-3.333z" class="cls-3" data-name="Path 33" transform="translate(-.667 -.667)"/>
    </g>
</svg>
