<svg xmlns="http://www.w3.org/2000/svg" width="24" height="24" viewBox="0 0 24 24">
    <defs>
        <style>
            .cls-1{fill:#f7a534}.cls-2{clip-path:url(#clip-path)}.cls-3{fill:none}
        </style>
        <clipPath id="clip-path">
            <path id="Rectangle_56" d="M0 0h24v24H0z" class="cls-1" data-name="Rectangle 56" transform="translate(385 489)"/>
        </clipPath>
    </defs>
    <g id="Mask_Group_13" class="cls-2" data-name="Mask Group 13" transform="translate(-385 -489)">
        <g id="lock-2-fill_1_" data-name="lock-2-fill (1)" transform="translate(385 489)">
            <path id="Path_39" d="M0 0h24v24H0z" class="cls-3" data-name="Path 39"/>
            <path id="Path_40" d="M17.5 7.833h2a1 1 0 0 1 1 1v12a1 1 0 0 1-1 1h-16a1 1 0 0 1-1-1v-12a1 1 0 0 1 1-1h2v-1a6 6 0 0 1 12 0zm-7 7.732v2.268h2v-2.268a2 2 0 1 0-2 0zm5-7.732v-1a4 4 0 1 0-8 0v1z" class="cls-1" data-name="Path 40" transform="translate(.5 .167)"/>
        </g>
    </g>
</svg>
