<svg xmlns="http://www.w3.org/2000/svg" width="72" height="72.001" viewBox="0 0 72 72.001">
    <defs>
        <style>
            .cls-1{fill:#d0d0d0;opacity:.4}.cls-2{fill:#efefef}.cls-3{fill:#f7a534}
        </style>
    </defs>
    <g id="life-buoy" transform="translate(-5.317 -5.312)">
        <g id="Group_51" data-name="Group 51" transform="translate(5.317 5.312)">
            <path id="Path_41" d="M96.251 38.921a10.694 10.694 0 0 1-1.227-.075 1.073 1.073 0 1 1 .245-2.133c1.994.231 3.271-.2 3.792-1.274 1.4-2.9-1.783-10.72-9.37-18.307S74.28 6.36 71.383 7.758c-1.077.521-1.506 1.8-1.274 3.792a1.073 1.073 0 1 1-2.133.245c-.434-3.738 1.1-5.31 2.472-5.972C74.666 3.785 83.591 8 91.211 15.61S103.035 32.153 101 36.37c-.588 1.21-1.884 2.551-4.749 2.551z" class="cls-1" data-name="Path 41" transform="translate(-29.51 -5.312)"/>
            <path id="Path_42" d="M33.849 101.507c-4.685 0-11.909-3.973-18.234-10.3C8 83.591 3.79 74.667 5.83 70.449c.661-1.367 2.231-2.905 5.972-2.472a1.074 1.074 0 1 1-.245 2.133c-1.993-.232-3.27.2-3.792 1.274-1.4 2.9 1.781 10.72 9.368 18.307s15.41 10.771 18.307 9.373c1.077-.521 1.506-1.8 1.274-3.792a1.073 1.073 0 0 1 2.133-.245c.434 3.738-1.1 5.31-2.472 5.972a5.766 5.766 0 0 1-2.527.509z" class="cls-1" data-name="Path 42" transform="translate(-5.317 -29.507)"/>
            <path id="Path_43" d="M72.975 101.506a5.766 5.766 0 0 1-2.526-.513c-1.367-.661-2.906-2.234-2.472-5.972a1.074 1.074 0 1 1 2.133.245c-.232 1.995.2 3.27 1.274 3.792 2.9 1.4 10.72-1.783 18.307-9.37s10.771-15.408 9.372-18.305c-.521-1.078-1.8-1.508-3.792-1.274a1.073 1.073 0 1 1-.245-2.133c3.742-.434 5.311 1.1 5.972 2.472 2.04 4.217-2.167 13.142-9.785 20.76-6.328 6.324-13.553 10.3-18.238 10.3z" class="cls-1" data-name="Path 43" transform="translate(-29.511 -29.507)"/>
            <path id="Path_44" d="M10.573 38.922c-2.865 0-4.158-1.34-4.742-2.547C3.791 32.157 8 23.232 15.613 15.612S32.157 3.787 36.375 5.829c1.367.661 2.906 2.234 2.472 5.972a1.073 1.073 0 1 1-2.133-.245c.232-1.995-.2-3.27-1.274-3.792-2.9-1.4-10.719 1.781-18.307 9.368S6.362 32.542 7.761 35.44c.521 1.077 1.8 1.5 3.792 1.274a1.073 1.073 0 1 1 .245 2.133 10.694 10.694 0 0 1-1.225.075z" class="cls-1" data-name="Path 44" transform="translate(-5.318 -5.313)"/>
        </g>
        <path id="Path_45" d="M45.194 15.35a29.844 29.844 0 1 0 29.843 29.844A29.843 29.843 0 0 0 45.194 15.35zm16.1 36.42a17.388 17.388 0 1 1 0-13.152 17.459 17.459 0 0 1-.004 13.152z" class="cls-2" data-name="Path 45" transform="translate(-3.878 -3.88)"/>
        <path id="Path_46" d="M64.6 29.1a17.351 17.351 0 0 0-13.152 0c-.865-1.644-3.288-7.772-2.865-12.22a29.939 29.939 0 0 1 18.881 0c.42 4.445-2.003 10.573-2.864 12.22z" class="cls-3" data-name="Path 46" transform="translate(-16.705 -3.88)"/>
        <path id="Path_47" d="M103.987 58.02a29.675 29.675 0 0 1-1.527 9.441c-4.447.423-10.576-2-12.22-2.865a17.352 17.352 0 0 0 0-13.152c1.644-.865 7.772-3.288 12.22-2.865a29.674 29.674 0 0 1 1.527 9.441z" class="cls-3" data-name="Path 47" transform="translate(-32.828 -16.707)"/>
        <path id="Path_48" d="M67.46 102.46a29.939 29.939 0 0 1-18.881 0c-.423-4.447 2-10.576 2.865-12.22a17.352 17.352 0 0 0 13.152 0c.865 1.644 3.288 7.772 2.864 12.22z" class="cls-3" data-name="Path 48" transform="translate(-16.705 -32.831)"/>
        <path id="Path_49" d="M27.8 58.02a17.264 17.264 0 0 0 1.3 6.58c-1.644.865-7.772 3.288-12.22 2.865a29.936 29.936 0 0 1 0-18.881c4.447-.423 10.576 2 12.22 2.865a17.264 17.264 0 0 0-1.3 6.571z" class="cls-3" data-name="Path 49" transform="translate(-3.878 -16.707)"/>
    </g>
</svg>
