<svg width="141.732" height="141.732" xmlns="http://www.w3.org/2000/svg">

 <g>
  <title>background</title>
  <rect fill="none" id="canvas_background" height="402" width="582" y="-1" x="-1"/>
 </g>
 <g>
  <title>Layer 1</title>
  <path fill="#ffffff" id="svg_1" d="m134.631,72.959398c-0.616,15.764 -6.873,30.078 -16.813,40.979c-5.521,-5.15 -11.873,-9.42 -18.836,-12.583c1.959,-8.614 3.125,-18.228 3.295,-28.396l32.354,0zm0,-5.136l-32.354,0c-0.198,-12.014 -1.793,-23.256 -4.438,-32.988c6.312,-2.73 12.131,-6.369 17.312,-10.74c11.478,11.185 18.81,26.599 19.48,43.728m-23.532,-47.366c-4.479,3.686 -9.457,6.781 -14.824,9.168c-3.139,-9.508 -7.348,-17.23 -12.24,-22.355c10.111,2.232 19.338,6.828 27.064,13.187m-19.595,11.063c-5.946,2.094 -12.293,3.344 -18.894,3.602l0,-29.079c7.713,1.762 14.476,11.371 18.894,25.477m-18.894,9.001c7.109,-0.255 13.947,-1.575 20.363,-3.798c2.314,9.121 3.719,19.734 3.901,31.1l-24.264,0l0,-27.302zm0,32.438l24.268,0c-0.152,9.459 -1.15,18.395 -2.816,26.385c-6.729,-2.457 -13.938,-3.914 -21.449,-4.186l0,-22.199l-0.003,0zm0,27.6c7.092,0.277 13.888,1.699 20.213,4.08c-4.319,16.607 -11.686,28.152 -20.213,30.1l0,-34.18zm11.422,32.953c5.642,-5.907 10.373,-15.27 13.604,-26.832c6.029,2.852 11.545,6.605 16.375,11.092c-8.272,7.68 -18.558,13.221 -29.979,15.74m-16.559,1.227c-8.527,-1.947 -15.894,-13.492 -20.213,-30.1c6.326,-2.381 13.122,-3.803 20.213,-4.08l0,34.18zm0,-39.58c-7.513,0.271 -14.722,1.729 -21.449,4.188c-1.666,-7.99 -2.663,-16.929 -2.817,-26.388l24.267,0l-0.001,22.2l0,0zm0,-27.336l-24.267,0c0.185,-11.363 1.586,-21.975 3.903,-31.096c6.416,2.221 13.255,3.537 20.363,3.794l0.001,27.302l0,0zm0,-32.702c-6.6,-0.258 -12.944,-1.508 -18.893,-3.602c4.418,-14.105 11.18,-23.714 18.893,-25.476l0,29.078zm-11.42,-27.851c-4.895,5.125 -9.104,12.85 -12.242,22.355c-5.367,-2.387 -10.347,-5.482 -14.823,-9.168c7.723,-6.359 16.95,-10.955 27.065,-13.187m-31.123,16.828c5.185,4.369 11.011,8.002 17.318,10.732c-2.646,9.733 -4.239,20.977 -4.438,32.992l-32.357,0c0.67,-17.126 8,-32.538 19.477,-43.724m-19.477,48.861l32.357,0c0.169,10.168 1.335,19.781 3.294,28.396c-6.963,3.163 -13.316,7.433 -18.838,12.583c-9.94,-10.9 -16.196,-25.215 -16.813,-40.979m20.619,44.813c4.83,-4.486 10.346,-8.24 16.375,-11.092c3.232,11.562 7.962,20.925 13.604,26.832c-11.42,-2.519 -21.707,-8.06 -29.979,-15.74m113.96,-44.813l0.052,0l0,-5.137l-0.052,0c-1.322,-36.639 -30.782,-66.1 -67.422,-67.422l0,-0.05l-5.138,0l0,0.051c-36.638,1.322 -66.099,30.783 -67.42,67.422l-0.052,0l0,5.136l0.052,0c0.622,17.261 7.487,32.929 18.408,44.812c-0.03,0.033 -0.062,0.065 -0.093,0.101l0.186,0c12.258,13.285 29.59,21.813 48.92,22.512l0,0.053l2.565,0l0.004,0l0.004,0l2.564,0l0,-0.053c19.332,-0.695 36.664,-9.227 48.92,-22.512l0.187,0c-0.03,-0.033 -0.062,-0.064 -0.093,-0.101c10.921,-11.884 17.785,-27.552 18.408,-44.812"/>
 </g>
</svg>