<?xml version="1.0" encoding="utf-8"?>
<!-- Generator: Adobe Illustrator 17.0.0, SVG Export Plug-In . SVG Version: 6.00 Build 0)  -->
<!DOCTYPE svg PUBLIC "-//W3C//DTD SVG 1.1//EN" "http://www.w3.org/Graphics/SVG/1.1/DTD/svg11.dtd">
<svg version="1.1" id="svg2694" xmlns:svg="http://www.w3.org/2000/svg"
	 xmlns="http://www.w3.org/2000/svg" xmlns:xlink="http://www.w3.org/1999/xlink" x="0px" y="0px" width="1002.223px"
	 height="350.943px" viewBox="0 0 1002.223 350.943" enable-background="new 0 0 1002.223 350.943" xml:space="preserve">
<path id="path2675" fill="#003C78" d="M536.026,154.957h75.562c3.306,0,5.109,1.785,5.109,5.109v25.986
	c0,3.323-1.803,5.118-5.109,5.118h-75.562v26.083c0.018,7.053,1.122,12.047,4.296,15.388c3.217,3.297,7.999,4.349,14.389,4.349
	l27.453,0.009c28.903,0,45.148-1.998,45.148-1.998c2.899,0,4.481,1.644,4.481,5.206c0,14.089-1.211,22.813-3.429,28.081
	c-0.981,2.325-2.554,3.474-5.913,4.022c-5.692,0.822-19.914,1.617-33.225,1.617h-34.921c-34.188,0-62.719-8.061-62.931-55.472
	v-87.954c0.212-47.411,28.743-55.472,62.931-55.472h34.921c13.311,0,27.533,0.804,33.225,1.617c3.359,0.557,4.932,1.697,5.913,4.03
	c2.219,5.268,3.429,13.983,3.429,28.081c0,3.571-1.582,5.206-4.481,5.206c0,0-16.246-1.998-45.148-1.998h-27.453
	c-6.391,0-11.172,1.052-14.389,4.349c-3.173,3.341-4.278,8.344-4.296,15.388V154.957z M732.139,169.603
	c28.451,0,37.299-15.892,37.299-31.103c0-15.22-10.094-28.717-37.299-28.717c-11.278,0-23.237,0.999-23.237,0.999v57.823
	C708.902,168.604,719.933,169.603,732.139,169.603 M734.137,203.216c-12.516,0-25.235-0.999-25.235-0.999v66.599
	c0,3.323-1.803,5.109-5.109,5.109h-33.118c-3.306,0-5.118-1.785-5.118-5.109V88.031c0.301-8.485,2.466-9.979,10.563-11.11
	c5.339-0.822,20.453-1.945,39.385-1.945h18.64c44.989,0.221,79.142,19.012,79.142,64.125c0,26.251-12.604,44.317-32.668,54.42
	l44.945,74.873c1.679,2.811,0.557,5.533-3.111,5.533h-40.287c-3.881,0-6.037-1.176-7.699-4.19l-36.548-66.573L734.137,203.216z
	 M999.041,80.208c2.333,1.405,3.182,2.926,3.182,5.904c0,66.44-37.847,148.888-48.118,166.866
	c-8.149,14.248-16.316,20.948-30.299,20.939l-13.612-0.009c-14.495,0.018-22.698-6.682-30.847-20.93
	C869.076,235,833.236,152.553,833.236,86.112c0-2.979,0.866-4.499,3.182-5.904c6.912-4.163,18.19-5.135,37.494-5.135
	c2.89,0,5.064,0.955,5.206,4.472c2.563,65.68,24.801,124.007,40.163,157.93c13.948-30.343,37.627-90.305,40.269-157.93
	c0.141-3.518,2.307-4.472,5.206-4.472C981.717,75.073,992.429,76.222,999.041,80.208"/>
<path id="path2679" fill="#BEB400" d="M259.263,0.222c81.467,20.391,141.56,91.127,141.56,175.245
	c0,84.127-60.094,154.863-141.56,175.253c-6.93,1.741-10.43-7.186-4.746-10.836c55.03-35.24,91.401-95.758,91.401-164.417
	c0-68.65-36.371-129.169-91.401-164.408C248.833,7.417,252.333-1.519,259.263,0.222"/>
<path id="path2683" fill="#003C78" d="M141.155,33.615c-11.86,0.076-24.026,1.646-36.018,4.861
	C57.178,51.327,21.709,87.398,7.249,131.282c-1.078,3.261-1.459,6.329-0.663,9.281c5.86,21.858,63.294,25.553,128.161,8.176
	c64.858-17.377,112.579-49.293,106.728-71.151c-0.796-2.952-2.519-5.453-5.083-7.734C210.546,46.772,176.734,33.386,141.155,33.615z
	 M253.186,87.531c0.212,0.557,0.513,1.193,0.663,1.768c6.647,24.801-44.459,60.024-114.019,78.664S8.593,181.725,1.946,156.915
	c-0.159-0.575-0.345-1.184-0.442-1.768C-0.9,171.631-0.502,188.84,3.272,205.97l0.442,1.768
	c10.5,39.208,80.388,54.508,156.003,34.25c75.606-20.267,128.285-68.403,117.775-107.611l-0.442-1.768
	C271.756,115.886,263.51,100.621,253.186,87.531z M283.458,168.626c-2.192,35.063-51.415,74.572-118.66,92.585
	c-67.253,18.022-129.717,8.291-149.152-20.992c29.839,58.167,97.146,89.863,162.852,72.256
	C244.197,294.869,286.702,233.918,283.458,168.626z"/>
</svg>
