<?xml version="1.0" encoding="utf-8"?>
<!-- Generator: Adobe Illustrator 17.0.0, SVG Export Plug-In . SVG Version: 6.00 Build 0)  -->
<!DOCTYPE svg PUBLIC "-//W3C//DTD SVG 1.1//EN" "http://www.w3.org/Graphics/SVG/1.1/DTD/svg11.dtd">
<svg version="1.1" id="Ebene_1" xmlns="http://www.w3.org/2000/svg" xmlns:xlink="http://www.w3.org/1999/xlink" x="0px" y="0px"
	 width="420.4px" height="87.2px" viewBox="0 0 420.4 87.2" enable-background="new 0 0 420.4 87.2" xml:space="preserve">
<g>
	<path fill="#FAD73C" d="M420.3,78.7c0,4.7-3.8,8.5-8.5,8.5s-8.5-3.8-8.5-8.5s3.8-8.5,8.5-8.5S420.3,74,420.3,78.7"/>
	<path fill="#FAD73C" d="M386.4,78.7c0,4.7-3.8,8.5-8.5,8.5s-8.5-3.8-8.5-8.5s3.8-8.5,8.5-8.5S386.4,74,386.4,78.7"/>
	<path fill="#FAD73C" d="M352.4,78.7c0,4.7-3.8,8.5-8.5,8.5s-8.5-3.8-8.5-8.5s3.8-8.5,8.5-8.5S352.4,74,352.4,78.7"/>
	<path fill="#FAD73C" d="M318.4,78.7c0,4.7-3.8,8.5-8.5,8.5s-8.5-3.8-8.5-8.5s3.8-8.5,8.5-8.5S318.4,74,318.4,78.7"/>
	<path fill="#FAD73C" d="M284.4,78.7c0,4.7-3.8,8.5-8.5,8.5s-8.5-3.8-8.5-8.5s3.8-8.5,8.5-8.5S284.4,74,284.4,78.7"/>
	<path fill="#FAD73C" d="M250.3,78.7c0,4.7-3.8,8.5-8.5,8.5s-8.5-3.8-8.5-8.5s3.8-8.5,8.5-8.5S250.3,74,250.3,78.7"/>
	<path fill="#0058A3" d="M53.4,35.2c0-6.9,4.2-13.5,11.4-13.5c7.1,0,11.3,6.7,11.3,13.5c0,6.5-3.5,13.5-11.3,13.5
		C56.9,48.7,53.4,41.6,53.4,35.2 M46.3,35.2c0,10.3,7.6,18.9,18.5,18.9s18.5-8.6,18.5-18.9c0-11-7.4-18.9-18.5-18.9
		C53.7,16.2,46.3,24.2,46.3,35.2 M46.3,35.2c0,10.3,7.6,18.9,18.5,18.9s18.5-8.6,18.5-18.9c0-11-7.4-18.9-18.5-18.9
		C53.7,16.2,46.3,24.2,46.3,35.2 M53.4,35.2c0-6.9,4.2-13.5,11.4-13.5c7.1,0,11.3,6.7,11.3,13.5c0,6.5-3.5,13.5-11.3,13.5
		C56.9,48.7,53.4,41.6,53.4,35.2"/>
	<path fill="#0058A3" d="M206.8,50.8l-12-32.7c0-0.1-0.1-0.2-0.1-0.3c0-0.4,0.3-0.7,0.8-0.7h5.1h0.1c0.6,0,1.2,0.4,1.4,1l9.5,28.9
		h0.1l9.6-28.8v-0.1c0.2-0.5,0.7-0.9,1.3-0.9h4.7c0.4,0,0.8,0.3,0.8,0.7c0,0.1,0,0.1,0,0.2l-12.4,34.1l-8,23.1
		c0,0.1-0.1,0.2-0.1,0.3c-0.3,0.3-0.7,0.4-1.1,0.1l-4-3.2c-0.6-0.5-0.8-1.1-0.5-1.7l6.1-15.8C208.2,54.6,207.2,52,206.8,50.8"/>
	<path fill="#0058A3" d="M184,39.2V36c-1.4,0-2.9-0.1-4.3-0.1c-3.6,0-12.6,0.6-12.6,6.9c0,3.8,3.7,5.9,6.8,5.9
		C180.5,48.7,184,44.6,184,39.2 M190.9,51.8c0,0.8-0.7,1.5-1.5,1.5h-3.1c-0.9,0-1.6-0.6-1.6-1.5v-3.2h-0.1
		c-1.6,2.2-5.1,5.5-11.3,5.5c-7.8,0-13.3-3.4-13.3-11.3c0-9.1,10-11.9,16.9-11.9c2.6,0,4.5,0,7.1,0.1c0-6.2-2.3-9.4-9-9.4
		c-2.9,0-6,0.8-8.5,2.3c-0.2,0.1-0.5,0.2-0.8,0.2c-0.8,0-1.4-0.6-1.5-1.4l-0.2-2.6c0-0.3,0.1-0.6,0.4-0.7c3.3-1.9,7.1-3.2,11.6-3.2
		c10.4,0,14.6,5.1,14.6,15v15C190.7,48.8,190.8,50.5,190.9,51.8L190.9,51.8z"/>
	<path fill="#0058A3" d="M125.5,35c-0.1,5.7,2.9,13.7,10.1,13.7c7.6,0,10.7-7.4,10.7-13.5c0-6.7-3.5-13.6-10.8-13.6
		S125.3,28.4,125.5,35 M146.5,51.7v-3.6h-0.1c-1.8,2.7-5.9,6-12.4,6c-11,0-15.6-9.7-15.6-19.6c0-9.7,5.1-18.3,15.7-18.3
		c6.3,0,10,2.5,12.1,5.8h0.1V1.5c0-0.8,0.6-1.5,1.4-1.5h3.8c0.8,0,1.5,0.6,1.5,1.5v50.2c0,0.8-0.6,1.4-1.4,1.5H148
		C147.2,53.2,146.5,52.5,146.5,51.7"/>
	<path fill="#0058A3" d="M38.1,51.8c0,0.8-0.7,1.5-1.5,1.5h-4.2c-0.8,0-1.4-0.7-1.4-1.5V30.7H7.1v21.1c0,0.8-0.6,1.4-1.4,1.5H5.6h-4
		c-0.9,0-1.6-0.7-1.6-1.5v-0.1V5.3c0-0.9,0.7-1.5,1.5-1.5h4.2c0.8,0,1.5,0.7,1.5,1.4v19.2H31V5.1c0-0.8,0.7-1.4,1.5-1.4h4.1
		c0.9,0,1.6,0.7,1.6,1.5v46.6C38.2,51.8,38.1,51.8,38.1,51.8z"/>
	<path fill="#0058A3" d="M91.9,53.2h-0.1c-0.8,0-1.5-0.7-1.5-1.5V1.5C90.3,0.7,91,0,91.8,0h0.1h3.7c0.8,0,1.5,0.7,1.5,1.5v51.7H91.9
		z"/>
	<path fill="#0058A3" d="M107.3,53.2h-0.1c-0.8,0-1.5-0.7-1.5-1.5V18.5c0-0.8,0.7-1.5,1.5-1.5h3.8c0.8,0,1.5,0.7,1.5,1.5v34.7H107.3
		z"/>
	<path fill="#0058A3" d="M112.8,1.4v6.1c0,0.8-0.7,1.4-1.5,1.4h-0.1h-6V2.8c0-0.8,0.7-1.5,1.5-1.5h0.1h6V1.4z"/>
	<path fill="#0058A3" d="M53.4,35.2c0,6.5,3.5,13.5,11.4,13.5s11.3-7.1,11.3-13.5c0-6.9-4.2-13.5-11.3-13.5
		C57.6,21.6,53.4,28.3,53.4,35.2 M46.3,35.2c0-11,7.4-18.9,18.5-18.9s18.5,7.9,18.5,18.9c0,10.3-7.6,18.9-18.5,18.9
		C53.8,54.1,46.3,45.5,46.3,35.2"/>
	<path fill="#0058A3" d="M270.9,51.3c0,0.7-0.4,1.2-0.9,1.4c-3.6,1.2-7.7,1.4-10.4,1.4c-15.8,0-26.2-10.1-26.2-25.8
		c0-15.2,11.1-25.4,26.3-25.4c3.5,0,6.9,0.5,10.1,1.7h0.1c0.5,0.2,0.9,0.7,0.9,1.3l-0.4,4.8c0,0.4-0.4,0.7-0.7,0.7
		c-0.1,0-0.2,0-0.3-0.1c-2.9-1.5-6.1-2.2-9.3-2.2c-11.5,0-19.1,8.2-19.1,19.3c0,11.6,8.4,19.4,18.8,19.4c3.1,0,7.2-0.7,9.9-1.9
		c0.1,0,0.2-0.1,0.3-0.1c0.4,0,0.7,0.3,0.7,0.8L270.9,51.3z"/>
	<path fill="#0058A3" d="M311.3,51.7c0,0.8-0.7,1.5-1.5,1.5H306c-0.8,0-1.5-0.7-1.5-1.5v-0.1V34.5c0-8.4-1.9-12.5-7.7-12.9
		c-7.6,0-11.1,6.1-11.1,14.9v15.3c0,0.8-0.6,1.4-1.4,1.5h-3.8c-0.8,0-1.5-0.7-1.5-1.5V1.6c0-0.9,0.7-1.6,1.5-1.6h3.8
		c0.8,0,1.5,0.7,1.5,1.5v20.7h0.1c2.4-3.8,6.6-6,11.7-6c9.4,0,13.6,5.8,13.6,15.5v20H311.3z"/>
	<path fill="#0058A3" d="M382.8,51.6c0,0.8-0.5,1.3-1.1,1.5c-2.5,0.9-5.1,1-7.2,1c-11,0-18.5-8.6-18.5-18.9c0-11,7.4-18.9,18.5-18.9
		c2.2,0,4.9,0.4,6.9,1c0.7,0.2,1.1,0.7,1.1,1.4v0.1l-0.3,3.4c0,0.4-0.3,0.7-0.8,0.7c-0.1,0-0.2,0-0.2,0c-2.3-0.8-4.5-1.2-6.4-1.2
		c-7.5,0-11.7,6.7-11.7,13.5c0,6.5,3.5,13.5,12.1,13.5c1.9,0,4.3-0.5,6.2-1.5c0.1-0.1,0.2-0.1,0.4-0.1c0.4,0,0.7,0.3,0.7,0.7
		L382.8,51.6z"/>
	<path fill="#0058A3" d="M412.5,53.2c-0.5,0-0.9-0.2-1.2-0.5l-15.8-18.1v17.1c0,0.8-0.7,1.5-1.5,1.5h-0.1h-3.5h-0.1
		c-0.8,0-1.5-0.7-1.5-1.5V1.5c0-0.8,0.7-1.5,1.5-1.5h3.7c0.9,0,1.5,0.7,1.5,1.5v30.2l14.1-14.1c0.3-0.3,0.7-0.5,1.1-0.5h6.7
		c0.4,0,0.7,0.3,0.7,0.8c0,0.2-0.1,0.4-0.2,0.5l-15.6,14.8L420.1,52c0.2,0.1,0.3,0.3,0.3,0.6c0,0.4-0.3,0.7-0.7,0.7L412.5,53.2z"/>
	<path fill="#0058A3" d="M325.6,31.7h18.8c0-5.5-3.3-10.1-9.1-10.1C328.8,21.6,326.1,27,325.6,31.7 M348.8,50.7
		c0,0.7-0.4,1.2-0.9,1.4c-2.4,0.9-5.3,2-10.6,2c-12.9,0-18.8-7.8-18.8-19.6c0-10.7,6.8-18.3,17.1-18.3c11.8,0,15.9,8.4,16,19.7
		c0,0.4-0.3,0.8-0.7,0.8h-25.2c0,7.2,5.6,12.1,12,12.1c3.7,0,7.8-1.6,10.1-2.9c0.1-0.1,0.2-0.1,0.4-0.1c0.4,0,0.8,0.3,0.8,0.7v4.2
		C349,50.7,348.8,50.7,348.8,50.7z"/>
</g>
</svg>
