<?xml version="1.0" encoding="utf-8"?>
<!-- Generator: Adobe Illustrator 17.0.0, SVG Export Plug-In . SVG Version: 6.00 Build 0)  -->
<!DOCTYPE svg PUBLIC "-//W3C//DTD SVG 1.1//EN" "http://www.w3.org/Graphics/SVG/1.1/DTD/svg11.dtd">
<svg version="1.1" id="katman_1" xmlns="http://www.w3.org/2000/svg" xmlns:xlink="http://www.w3.org/1999/xlink" x="0px" y="0px"
	 width="88.094px" height="27.188px" viewBox="0 -1.094 88.094 27.188" enable-background="new 0 -1.094 88.094 27.188"
	 xml:space="preserve">
<path fill="#28539C" d="M4.245,4.525h1.672V2.732H0.551v1.793h1.672v6.351h2.022L4.245,4.525L4.245,4.525z M12.73,2.732V7.02
	c0,1.058-0.072,2.214-1.372,2.214c-1.3,0-1.372-1.156-1.372-2.214V2.732H7.963v4.579c0,1.049,0.041,2.085,0.815,2.874
	c0.65,0.669,1.672,0.906,2.58,0.906c0.908,0,1.93-0.237,2.58-0.906c0.774-0.789,0.815-1.826,0.815-2.874V2.732L12.73,2.732
	L12.73,2.732z M21.43,7.538c1.104-0.205,1.702-1.177,1.702-2.3c0-1.739-1.166-2.505-2.703-2.505h-3.024v8.144h2.022V7.743h0.021
	l1.909,3.133h2.517L21.43,7.538z M19.429,4.352h0.196c0.661,0,1.403,0.13,1.403,1.015c0,0.886-0.743,1.015-1.403,1.015h-0.196V4.352
	L19.429,4.352z M27.832,6.091h-0.021V2.732h-2.022v8.144h2.022V7.344h0.021l2.61,3.533h2.621l-3.375-4.289l3.096-3.856h-2.508
	L27.832,6.091z M37.006,2.732h-2.022v8.144h2.022V2.732z M44.741,3.185c-0.691-0.411-1.651-0.67-2.435-0.67
	c-1.559,0-2.682,1.08-2.682,2.733c0,1.577,0.836,1.923,2.105,2.301c0.433,0.13,1.228,0.335,1.228,0.929
	c0,0.572-0.506,0.82-0.981,0.82c-0.692,0-1.289-0.378-1.795-0.843l-0.866,1.707c0.794,0.583,1.754,0.928,2.734,0.928
	c0.784,0,1.6-0.226,2.209-0.766c0.618-0.551,0.804-1.384,0.804-2.193c0-1.318-0.835-1.891-1.919-2.226l-0.516-0.162
	c-0.351-0.118-0.898-0.302-0.898-0.777c0-0.454,0.495-0.681,0.867-0.681c0.495,0,0.97,0.216,1.342,0.54L44.741,3.185L44.741,3.185z
	 M49.406,5.875V2.732h-2.023v8.144h2.023V7.538h2.92v3.338h2.022V2.732h-2.022v3.143H49.406L49.406,5.875z M5.468,20.957
	l0.506,1.415H8.13L5.2,14.227H2.992L0,22.372h2.146l0.536-1.415H5.468L5.468,20.957z M4.922,19.337H3.24l0.835-2.593h0.021
	L4.922,19.337L4.922,19.337z M11.635,14.227H9.613v8.145h2.022V14.227z M18.081,19.034c1.104-0.205,1.702-1.178,1.702-2.3
	c0-1.739-1.166-2.507-2.704-2.507h-3.022v8.145h2.022V19.24h0.021l1.909,3.132h2.517L18.081,19.034L18.081,19.034z M16.08,15.848
	h0.196c0.661,0,1.403,0.13,1.403,1.015c0,0.886-0.742,1.015-1.403,1.015H16.08V15.848L16.08,15.848z M24.273,14.227h-2.022v8.145
	h4.447v-1.793h-2.424V14.227z M30.543,14.227H28.52v8.145h2.022V14.227z M33.059,22.372h2.022v-4.99h0.021l3.704,4.99h2.022v-8.145
	h-2.022v4.981h-0.021l-3.704-4.981h-2.022V22.372z M47.866,16.02v-1.793H43.44v8.145h4.426v-1.793h-2.404v-1.404h2.28v-1.792h-2.28
	V16.02L47.866,16.02L47.866,16.02z M55.262,14.68c-0.691-0.41-1.65-0.669-2.434-0.669c-1.559,0-2.682,1.08-2.682,2.733
	c0,1.577,0.835,1.924,2.105,2.301c0.434,0.129,1.228,0.334,1.228,0.928c0,0.573-0.505,0.822-0.981,0.822
	c-0.691,0-1.289-0.378-1.794-0.843l-0.867,1.706c0.794,0.584,1.754,0.929,2.734,0.929c0.785,0,1.6-0.226,2.208-0.766
	c0.619-0.552,0.806-1.384,0.806-2.193c0-1.318-0.838-1.891-1.919-2.226l-0.517-0.162c-0.35-0.118-0.897-0.302-0.897-0.777
	c0-0.454,0.495-0.681,0.867-0.681c0.495,0,0.97,0.216,1.342,0.541L55.262,14.68L55.262,14.68z"/>
<path fill="none" stroke="#CF4037" stroke-width="2.188" stroke-miterlimit="2.613" d="M63.121,12.501
	C63.121,5.597,68.466,0,75.061,0C81.655,0,87,5.597,87,12.501C87,19.404,81.655,25,75.061,25C68.466,25,63.121,19.404,63.121,12.501
	z"/>
<path fill="#CF4037" d="M78.666,9.76c-0.55-3.874-3.765-5.787-5.773-6.932c-1.864-1.063-3.532-1.546-3.572-1.421
	c2.119,1.731,3.48,4.428,3.48,7.459c0,4.969-3.662,9.044-8.314,9.424l0.294,0.461c5.956-0.942,21.894-3.948,21.894-3.948
	l0.042-0.353l-9.67-0.336C78.115,12.967,78.846,11.022,78.666,9.76L78.666,9.76z"/>
</svg>
