<svg xmlns="http://www.w3.org/2000/svg" width="465" height="310" viewBox="0 0 465 310">
    <defs>
        <style>
            .cls-1{fill:#f8fdff}.cls-2,.cls-20,.cls-33,.cls-9{fill:none}.cls-17,.cls-18,.cls-19,.cls-2,.cls-20,.cls-21,.cls-22,.cls-23,.cls-24,.cls-25,.cls-26,.cls-27,.cls-28,.cls-29,.cls-30,.cls-31,.cls-32,.cls-33,.cls-9{stroke:#323254}.cls-2,.cls-22,.cls-23,.cls-24,.cls-25,.cls-26,.cls-27,.cls-28,.cls-29,.cls-30,.cls-31,.cls-32,.cls-9{stroke-miterlimit:10}.cls-2,.cls-33{stroke-width:.393px}.cls-3{clip-path:url(#clip-path)}.cls-4{fill:#8ddff4}.cls-18,.cls-23,.cls-5,.cls-7{fill:#fbfaf6}.cls-5{opacity:.4}.cls-19,.cls-28,.cls-6{fill:#fff}.cls-24,.cls-8{fill:#eeebef}.cls-17,.cls-18,.cls-19,.cls-21,.cls-22,.cls-23,.cls-24,.cls-25,.cls-26,.cls-28,.cls-32,.cls-9{stroke-width:.313px}.cls-10{clip-path:url(#clip-path-2)}.cls-11{fill:#009ee6}.cls-12,.cls-13{fill:#a9eafa}.cls-12,.cls-15{opacity:.2}.cls-14,.cls-15,.cls-22,.cls-30,.cls-31{fill:#0a8aae}.cls-14{opacity:.5}.cls-14,.cls-15{mix-blend-mode:multiply;isolation:isolate}.cls-16,.cls-27,.cls-29{fill:#323254}.cls-17,.cls-25{fill:#ea5c87}.cls-17,.cls-18,.cls-19,.cls-20,.cls-21,.cls-33{stroke-linecap:round;stroke-linejoin:round}.cls-20{stroke-width:.313px}.cls-21,.cls-26{fill:#f8e780}.cls-27{stroke-width:.118px}.cls-29,.cls-30{stroke-width:.242px}.cls-31{stroke-width:.187px}.cls-32{fill:#667389}
        </style>
        <clipPath id="clip-path">
            <path id="Rectangle_73" d="M0 0h465v310H0z" class="cls-1" data-name="Rectangle 73"/>
        </clipPath>
        <clipPath id="clip-path-2">
            <circle id="Ellipse_3" cx="190.83" cy="190.83" r="190.83" class="cls-2" data-name="Ellipse 3"/>
        </clipPath>
    </defs>
    <g id="Group_54" class="cls-3" data-name="Group 54">
        <path id="Rectangle_62" d="M0 0h465v310H0z" class="cls-4" data-name="Rectangle 62" transform="translate(206.677 532.865)"/>
        <path id="Path_50" d="M300.277 78.581a13.993 13.993 0 0 1 18.439-12.332 18.823 18.823 0 0 1 28.818 2.585 11.668 11.668 0 0 1 16.287 9.777v.936a3.155 3.155 0 0 1-3.1 2.685H303.4a3.156 3.156 0 0 1-3.1-2.685s-.048-.811-.023-.966z" class="cls-5" data-name="Path 50" transform="translate(-15.765 76.351)"/>
        <path id="Path_51" d="M280.492 90.553a9.848 9.848 0 0 0-12.976-8.7 13.247 13.247 0 0 0-20.272 1.833 8.212 8.212 0 0 0-11.462 6.881v.659a2.221 2.221 0 0 0 2.182 1.889h40.346a2.221 2.221 0 0 0 2.182-1.889 5.647 5.647 0 0 0 0-.673z" class="cls-6" data-name="Path 51" transform="translate(-194.52 26.299)"/>
        <path id="Path_52" d="M279.949 54.344a9.766 9.766 0 0 0-12.869-8.628 13.137 13.137 0 0 0-20.113 1.8 8.144 8.144 0 0 0-11.367 6.828v.653a2.2 2.2 0 0 0 2.164 1.874h40.009A2.2 2.2 0 0 0 279.936 55s.03-.548.013-.656z" class="cls-6" data-name="Path 52" transform="translate(8.006 37.74)"/>
        <path id="Path_53" d="M360.582 101.814a11.848 11.848 0 0 0-15.612-10.465 15.94 15.94 0 0 0-24.4 2.189 9.877 9.877 0 0 0-13.789 8.277v.794a2.672 2.672 0 0 0 2.629 2.275h48.534a2.672 2.672 0 0 0 2.629-2.275s.027-.658.009-.795z" class="cls-7" data-name="Path 53" transform="translate(49.162 110.846)"/>
        <path id="Path_54" d="M360.583 99.292c-.409-3.98-5.543-7.124-11.836-7.124a17.923 17.923 0 0 0-3.77.4 21.08 21.08 0 0 0-11.29-3.013c-5.437 0-10.23 1.748-13.107 4.421a14.668 14.668 0 0 0-3.943-.527c-5.2 0-9.443 2.573-9.846 5.847a4.328 4.328 0 0 0 0 .508c.192.825 1.3 1.463 2.629 1.463h48.534c1.333 0 2.437-.62 2.629-1.463a4.327 4.327 0 0 0 0-.508z" class="cls-8" data-name="Path 54" transform="translate(49.161 114.472)"/>
        <path id="Path_55" d="M360.582 101.814a11.848 11.848 0 0 0-15.612-10.465 15.94 15.94 0 0 0-24.4 2.189 9.877 9.877 0 0 0-13.789 8.277v.794a2.672 2.672 0 0 0 2.629 2.275h48.534a2.672 2.672 0 0 0 2.629-2.275s.027-.658.009-.795z" class="cls-9" data-name="Path 55" transform="translate(49.162 110.846)"/>
        <g id="Group_53" class="cls-10" data-name="Group 53" transform="translate(41.67 186.763)">
            <circle id="Ellipse_1" cx="190.83" cy="190.83" r="190.83" class="cls-11" data-name="Ellipse 1"/>
            <path id="Path_56" d="M291.819 184.44l.291 6.727-1.277 3.3 1.277 3.881 6.2 2.437 8.308-2.889 2.412-5.3 4.011-3.205 2.17-4.96 10.156-1.86 6.6 6.473 5.679 3.565 1.24 3.683 1.624-.663 1.649-3.515-1.531-2.207-7.93-7.3.856-2.337 3.881 2.089 6.994 5.307 1.122 3.906 3.069 3.72 1.24 2.883 2.306-.2.887-2.058-.887-3.77 1.407-1.618 3.249-.62 3.1.13 1.1-1.376.7-5.258 3.354-5.258 4.29-.484.756.62-.484 1 1.587 2.182 2.784-.93-.434-2.48 2.028-1.085 3.1-.961 1.742.533-.62 1.643-1.9 2.232.738 1.24 6.566 3.956-.347 3.069-7.136.818-5.791-2.554-4.52 1.42-5.2 1.451-4.024 2.232.068 1.755.105 2.939 4.644 3.72 6.82-.465 5.276-.515-.428 5.264-3.162 6.671h-8.4l-11.78-3.057-4.445-.105-1.55 2.35-.694 2.437-8.215-4.222-7.248-1.916-1.159-1.8 2.027-3.311-1.68-2.778-2.406-.62-5.884.4-7.651 1.017-3.342 1.569-3.794 1.86-4.228-.62-2.548-.564-.911.428-1.3 2.722-5.853 4.619-1.042 4.34-4.929 3.534-6.665 13.739.62 3.038.3 4.34-1.414 5.828 2.108 5.642 5.506 7.651 9.548 5.475 9.356-.62 10.614-3.348 5.121 2.8 2.753 1.153h2.84l3.1 4.731-1.507 5.394 2.908 5.431 4.1 8.767.868 6.088-2.53 6.56-.843 5.456 2.9 5.9 2.728 9.56 3.584 8.971 1.953 7.155 3.354 2.306 6.529-1.37 5.741-.831 9.033-10.038 1.116-6.659 4.96-4.173-.31-4.96-.384-2.7 10.726-9.157-.229-9.219-2.709-7.44 4.16-8.878 10.651-9.058 5.809-7.13 1.624-6.436-1.24-1.624-6.82 2.027-4.631-.279-3.026-1.922-.056-2.61-9.548-12.04-6.436-15.537-2.957-6.026 5.506 3.36 8.289 12.58 6.318 14.434 4.687 3.013 14.564-5.388 9.709-7.366 1.327-7.142-6.516-4.092-7.279 2.145-3.528-2.97-3.455-8.232 3.187-1.24 5.506 5.1 3.646 1.86 4.96.056 3.2 3.137 8.978-.18 5.915-.583 3.627 4.625 2.685 4.433 3.373.335 1.8-2.319 1.24 1.1-.3 7.285 3.751 11.2 2.542 6.113.75 1.2 1.86.415 3.1-4.3 1.693-9.684 10.67-9.48 1.277-2.48 5.58-1.389 2.17.273 1.6 3.205 2.784 3.36-.087 4.588 1.395 1.24 3.627-2.709 1.742 8.748.924 9.108 4.6 7.769 3.577 3.187 1.562-1.389-7.223-11.321 1.017-7.118 5.623 4.34s2.6 2.585 2.957 2.765 3.652-2.48 3.652-2.48l3.212-2.722.037-7.136-5.5-6.82 3.72-4.923 5.258.62 4.873-1.965 5.816-1.445 6.7-6.293 2.387-5.506-.292-6.9s-2.48-5.506-2.48-5.8 3.057-3.385 3.038-3.72-2.641-1.24-2.641-1.24l-2.716-2v-2.238l3.974-3.007 1.916-.174.955 2.145 1.811.291 3.026-.738 1.457 1.8-1.624 2.356 1.389.918h2.53l.831 1.922-1.24 3.28.961 1.705s3.5-2.232 3.72-2.331 2.1-1.383 2.1-1.383l-1.655-3.98-2.672-4.34 4.34-2.833.291-3.1 3.36-2.182 2.429.969 11.47-10.7 3.1-10.168-.62-4.786-3.193-1.383-6.33-1.2.62-2.077 11.885-10.143h10.032s6.2-2.027 6.318-1.86 4.117 1.8 4.117 1.8l3.881-2.375s1.686-2.685 2.548-3.013 3.1-2.2 3.36-2.2 3.336-.105 3.6 0 2.48 1.562 2.48 1.562l3.441-1.612 1.773 1.612-3.478 4.408s-10.664 6.956-10.838 6.956-1.86 9.1-1.86 9.1l2.313 7.44 6.932-7.155c.174-.174 4.867-5.853 4.867-5.853s-.868-4.173-.812-4.408.577-3.6.577-3.6l2.9-2.257 3.379-.515 8.81-1.358 10.627-5.369 4.724-1.451.273-1.476-2.592-3.4.868-1.507 2.666-.291 1.7-2.282 1.407-.229a14.122 14.122 0 0 0 1.773 1.054c.167 0 2.716.043 2.716.043s3.137 3.615 3.311 3.615l3.838-.118s2.7-3.72 3.267-3.881 0-3.534 0-3.534l-5.376-1.407h-2.951L643 115.347l-14.6-2.275-4.4 2.263-7.713-1.451-8.172.4-7.884-5.284h-10.967l-6.6-4.34-4.011 1.438-6.894-2.827-3.615.682-2.065 1.984-4.117 1.916-6.82-1.159s-5.01 1.469-5.332 1.624-3.236-3.243-3.168-3.181-2.517-4.917-2.517-4.917h-7.44l-5.276 1.9-3.205-1-3.987-1.575h-5.97l-7.546.725-1.612-.347-.174-1.37 7.44-4.222 1.445-4.018-5.853-2.79-5.549.62-3.5-1.5-1.91-2.232-4.811 1.1-2.319 2.48-3.534 1.624-2.833-.1-5.4 1.029-2.858 1.24-7.44 1.68-1.618 2.232.868 2.337-.62 1.24-9.653.769-.62 3.168 1.4 1.017-.136 1.711-6.287-3.137-3.1 2.381 1.079 2.2.992 1.1a35.061 35.061 0 0 1-3.67-.756c0-.136-.428-3.993-.428-3.993l-1.24.229-1.848 2.561.992 3.1-.62 4.34-2.083-2.139-1.079-4.879 1.575-4.706h-6.014l-5.289 5.289-.62 3.187.056 2.61 1.972 1.451-.4 1.389-9.5-3.063-5.971-2.48-1.209 1.24 2.009 1.24 1.637 2.573-2.3.837-1.569-.831-3.832 1.24-2.269-.347-1.86 1.277-.918-.316v-1.817l-1.823.1-1.3 1.314-5.667 1.86-3.875 2.313-3.655-2.325-3.36.4-2.089 3.652s-4.52 2.145-4.755 2.145-6.783-.986-6.783-.986l6.088-1.8 1.166-4-9.691-5.041-6.764-.471-4.2-4.458-12 1.451-13.268 5.741-6.51 12.233-7.936 5.041-4.867 3.77-.347 4.755 1.91 4.29 4.011 2.35 5.58-3.856s2.846 6.628 2.889 6.715 2.61 2.244 2.61 2.244l4.712-.378 1.9-6.981 2.6-2.827-2.889-4.706 1.742-4.582 4.867-4 1.73-3.6 5.171-.583 1.277 2.61-7.223 7.539-.4 4.086 3.875 2.771 8.816-1.736 2.251 1.86-10.131 2.852.372 1.891.558 2.548-1.916 1.24-2.151-1.668-2.48 2.92.062 3.875-3.162 1.24-2.629-.744-7.632 2.654L329.4 158l-1.6-5.1-2.92-1.693s-1.37 1.637-1.426 1.81 2.337 5.344 2.337 5.344l-3.323 1.147-4.637.868-2.089 2.84-1.86 3.2-6.157 4.96-4.811.5-2.678.651.36 2.207 5.623 3.478-.2 6.671-9.4-1.2z" class="cls-12" data-name="Path 56" transform="translate(-86.245 -80.621)"/>
            <path id="Path_57" d="M282.872 123.932l1.073-5.865 3.509-1.68a19.681 19.681 0 0 1 2.7-.291c.087.118 1.829 2.722 1.829 2.722l-1.86 3.72-4.526 2.759z" class="cls-12" data-name="Path 57" transform="translate(-79.314 -40.766)"/>
            <path id="Path_58" d="M291.615 111.638l-5.4 3.453v4.693s2.573 2.9 2.7 2.92 2.207-.136 2.207-.136l.843 2.7-2.22 1.407-1.519 3-.056 3.72s3.3.62 3.391.583 8.19-1.705 8.19-1.705l1.711-3.788-2.654-3.23-5.456-5.716s1.37-4.489 1.339-4.576-3.076-3.325-3.076-3.325z" class="cls-12" data-name="Path 58" transform="translate(-75.111 -46.371)"/>
            <path id="Path_59" d="M344.312 373.721l-14.806-5.958-4.371-13.435 4.96-21.384 5.791-26.592.477-13.187-9.957-9.3-10.466-16.059 2.548-13.194 4.489-7.862-7.037-3.422-15.463-10.621-20.795-6.076-16.969-14.26L244.6 191.23l-10.224-17.775v-9.43l-5.5-11.482-10.317-10.707-21.3-13.268-14.967 2.84-10.881 6.758-9.486-9.629-4.123-6.7 1.159-4.5-3.918-5.444 3.918-2.288-2.232-6.938 12.332-7.44 30.6 3.348 22.388 2.647 12.667-3.137 16.083 6.46 12.121 1.376 5.065-1.972 7.942 1.817 1.593-2.325 8.389-6.64s3.72-1.717 4.842-1.556 6.994 4.675 6.994 4.675l6.938 1.321h7l4.018 4.563-7.279 7.688-9.629 5.971-7.07 8.537 3.1 8 10.807 4.582 10.893 1.482 6.4-2.009-.515-9.852 2.48-7.614 10.937 1.4 4.1 8.624 7.552-4.526 4.817 7.589s8.128 7.651 8.209 7.744 4.2 4.96 4.2 4.96l-9.43 7.39-15.122 3.162 8.32 4.755-4.123 5.183-10.54 7.645-5.413 5.871-.732 6.2-6.876 6.491-4.34 7.118 1.11 6.715-3.373-1.314-6.677-4.34-4.425-4.256-14.725 3.887-3.205 11.092 4.272 8.2 6.008.477 4.34-5 4.768-.347-1.035 7.781v3.181l6.609.124 2.034 1.86-.148 6.725 4.638 2.48 7.111.763 5.785-3.156 9.449-.583 15.99 4.34L373.83 251.8l3.776 7.62 14.483 4.278 10.577 5.357-5.958 19.84-4.96 10.794-13.435 5.747-5.754 13.764-11.749 8.866-13.2 11.848-4.3 14.012-1.172 6.138z" class="cls-13" data-name="Path 59" transform="translate(-240.065 -67.007)"/>
            <path id="Path_60" d="M234.086 96.329l15.457-10.769s20.224-9.3 20.627-8.81 8.63 2.034 8.63 2.034l6.764-5.264h15.3s15.3-.744 15.922-.837 12.133 4.842 12.133 4.842-.068 5.921 0 5.871 5.078.167 5.078.167 5.357-3.193 6.392-3.1 3.491 4.061 3.491 4.061l-13.33 11.253 2.48 7.2s-4.563 6.243-4.018 7.564 2.48 5.183 2.319 6.113-6.026 8.494-6.026 8.494l-10.844 8.984-14.686 5.068-7.235 3.8-3.565 12.828-10.633-1.451L270.877 143l-2.027-6.324 5.028-8.891-7.868-4.216-3.968-13.64-8.792-5.406-10.36 1.612z" class="cls-13" data-name="Path 60" transform="translate(-140.665 -95.362)"/>
            <path id="Path_61" d="M267.556 210.341l13.032-6.628 22.345-4.706 16.244-.477 6.715.62 3.739 3.367-13.931 8.791-11.29 4.526-.174 4.34-9.734 3.881 1.376 2.691-11.836 1-4.414-4.669 2.145-3.9-8.984-2.065z" class="cls-13" data-name="Path 61" transform="translate(-219.438 -218.58)"/>
            <path id="Path_62" d="M238.115 102.843l-16.021-1.364-2.728-6.727 3.528-3.664 8.184.074 8.37-.074L249.6 98.9l8.116 2.48 2.833 5.016 7.44 4.563 5.121 3.825-1.86 3.1-4.173.583s-1.141 4.96-.9 5.1-.26 4.613-.26 4.613l-7.347-1.655-8.345-3.72-1.042-2.548-7.173 2.437-2.133-4.29 7.576-2.313 3.131-6.07-5.258-3.6z" class="cls-13" data-name="Path 62" transform="translate(-159.176 -72.215)"/>
            <path id="Path_63" d="M191.829 99.873l-2.48 6.7 5.307 5.208 8.68-4.049 5.506 3.181 3.472 4.34s2.877 2.579 3.46 2.48 11.538.372 11.538.372l7.087-2.517-3.4-4.96 8.475-4.216 9.573-.756 2.319-5.828h6.727l12.45-1.24 1.7-3.528-19.617-2.908-6.119-5.245-3.72-4.848-11.78 4.848-5.952-4.29L212.32 85.1l-10.478 8.754z" class="cls-13" data-name="Path 63" transform="translate(-196.925 -83.567)"/>
            <path id="Path_64" d="M353.2 208.184l2.517 6.963 6.522 3.763 5.4 2.034 3.956-5.648 3.708 1.835 7.576-1.215-5.983-6 9.075-3.916-3.708-3.317-12.295 2.455z" class="cls-13" data-name="Path 64" transform="translate(-111.738 -213.355)"/>
            <path id="Path_65" d="M325.144 229.593l6.919-1.8h1.711l5.04-1.3 2.765.453 2.22 2.647-2.058 3.577-6.057 3.36-7.576-1.879z" class="cls-12" data-name="Path 65" transform="translate(-147.018 -183.415)"/>
            <path id="Path_66" d="M387.914 222.495l-3.565-14.725 2.747-11.594 12.623-4.061 3.72-6.82 3.819-2.654s6.064 1.711 6.547 1.19 4.3-6.237 4.3-6.237h6.38s2.672 7.564 3.019 7.57 5.214 2.437 5.214 2.437l5.58-10.007 3.013 3.41 3.937 9.182 11.278 11.575 1.717 7.3-1.19 12.983-3.77 6.491-5.822 3.6-13.826-1.2-5.679-8.444-5.115-2.48-6.2-3.1-15.109 4.91-7.44 1.73z" class="cls-13" data-name="Path 66" transform="translate(48.299 36.572)"/>
            <path id="Path_67" d="M422.718 288.118l9.43 14.57 5.1 5.9 4.9-.577v-5.621l-4.786-4.687-11.4-9.009z" class="cls-13" data-name="Path 67" transform="translate(-24.312 -105.918)"/>
            <path id="Path_68" d="M431.328 298.959l5.394-1.407 9.474 1.308 10.286 1.395 3.367 2.362-3.949 1.209-12.66-.6z" class="cls-13" data-name="Path 68" transform="translate(-13.485 -94.055)"/>
            <path id="Path_69" d="M433.717 295.518l6.4-4.4 3.484-.583 3.726-3.05 4.941.546-1.468 5.569 1.879 2.976-4.892 8.066-6.051 1.035-5.76-4.185z" class="cls-13" data-name="Path 69" transform="translate(-10.48 -106.716)"/>
            <path id="Path_70" d="M446.168 276.7l-3.15 8.128 3.571 5.964-.422 5.357 3 2.257 3.6 3.6 1.705-4.52.161-4.011-4.166-4.073-.719-3.863-1.29-4.4z" class="cls-13" data-name="Path 70" transform="translate(1.217 -120.272)"/>
            <path id="Path_71" d="M452.194 292.363l7.471 3.757 6.045-.763 13.429 4.4 5.221 4.321 3.243 6.863-.577 3.342-7.539-6.808-7.719 2.021-6.423-.986-2.554-7.955-7.384-1.854z" class="cls-13" data-name="Path 71" transform="translate(12.756 -100.579)"/>
            <ellipse id="Ellipse_2" cx="78.523" cy="10.9" class="cls-14" data-name="Ellipse 2" rx="78.523" ry="10.9" transform="translate(110.546 -1.476)"/>
            <path id="Path_72" d="M257.5 321.289c0-110.98 89.962-200.936 200.936-200.936a200.58 200.58 0 0 1 67.121 11.5A200.2 200.2 0 0 0 389.6 78.869c-110.98 0-200.936 89.962-200.936 200.936a201.019 201.019 0 0 0 133.824 189.441A200.4 200.4 0 0 1 257.5 321.289z" class="cls-15" data-name="Path 72" transform="translate(-197.781 -87.58)"/>
        </g>
        <path id="Path_73" d="M276.78 86.045a.4.4 0 0 1-.546-.174l-21.4-41.714a.4.4 0 0 1 .174-.546.4.4 0 0 1 .546.174l21.4 41.714a.4.4 0 0 1-.174.546z" class="cls-16" data-name="Path 73" transform="translate(-72.955 54.788)"/>
        <path id="Path_74" d="M256.048 53.784c-.13 1.389-2.331 2.561-4.91 2.864s-4.569-.583-4.439-1.978" class="cls-17" data-name="Path 74" transform="translate(-83.142 67.637)"/>
        <path id="Path_75" d="M268.3 50.719c.372 1.24-3.218 4.049-8.06 5.89s-9.027 2.294-9.4 1.029" class="cls-18" data-name="Path 75" transform="translate(-77.927 63.782)"/>
        <path id="Path_76" d="M265.532 50.147c1.209.707 3.453-.384 5.208-2.306s2.108-4.011.9-4.712" class="cls-18" data-name="Path 76" transform="translate(-59.45 54.236)"/>
        <path id="Path_77" d="M258.573 56.352c.812 1.042 5.065-.2 9.393-3.069s7.111-6 6.3-7.043" class="cls-17" data-name="Path 77" transform="translate(-68.202 58.149)"/>
        <path id="Path_78" d="M267.146 45.218c-8.835 4.514-16.356 11.613-20.46 20.224 2.368.428 5.63.056 9.356-.887 1.079-11.289 11.036-19.281 11.104-19.337z" class="cls-18" data-name="Path 78" transform="translate(-83.149 56.865)"/>
        <path id="Path_79" d="M283.931 43.456c-9.3-1.693-19.4.236-28.179 4.712.093 0 12.282-3.41 22.072 2.306 2.908-2.424 5.084-4.836 6.107-7.018z" class="cls-17" data-name="Path 79" transform="translate(-71.748 53.884)"/>
        <path id="Path_83" d="M309.292 169.9l-.006.006.006-.006z" class="cls-19" data-name="Path 83" transform="translate(-125.289 -67.822)"/>
        <path id="Path_84" d="M267.467 56.016l-5.537-10.8c-.068.056-10.025 8.06-11.092 19.338A87.3 87.3 0 0 0 268.3 57.64z" class="cls-17" data-name="Path 84" transform="translate(-77.927 56.861)"/>
        <path id="Path_85" d="M255.752 45.781l5.537 10.8.831 1.624A86.833 86.833 0 0 0 277.805 48.1c-9.771-5.729-21.96-2.343-22.053-2.319z" class="cls-18" data-name="Path 85" transform="translate(-71.748 56.295)"/>
        <path id="Path_86" d="M252.245 61.131a.868.868 0 0 1-.868-.868v-3.609a.868.868 0 0 1 .868-.868.868.868 0 0 1 .868.868v3.608a.868.868 0 0 1-.868.868z" class="cls-16" data-name="Path 86" transform="translate(-77.25 70.154)"/>
        <path id="Path_87" d="M296.7 61.131a.868.868 0 0 1-.868-.868v-3.609a.868.868 0 0 1 .868-.868.868.868 0 0 1 .868.868v3.608a.868.868 0 0 1-.868.868z" class="cls-16" data-name="Path 87" transform="translate(-21.349 70.154)"/>
        <circle id="Ellipse_5" class="cls-20" data-name="Ellipse 5" transform="rotate(-66.57 209.121 -145.887)"/>
        <path id="Path_88" d="M293.955 57.252c-1.7 4.055-4.867 6.876-8.128 7.676a10.23 10.23 0 0 0 7.917-18.86c1.718 2.888 1.916 7.132.211 11.184z" class="cls-17" data-name="Path 88" transform="translate(-33.927 57.932)"/>
        <path id="Path_89" d="M283.849 51.97a10.23 10.23 0 0 0 5.462 13.392c-1.711-2.889-1.916-7.124-.211-11.16s4.873-6.882 8.141-7.676a10.23 10.23 0 0 0-13.392 5.444z" class="cls-17" data-name="Path 89" transform="translate(-37.423 57.498)"/>
        <path id="Path_90" d="M294.741 57.238c1.7-4.055 1.5-8.3-.217-11.16-3.261.794-6.436 3.621-8.141 7.676s-1.5 8.3.211 11.16c3.267-.794 6.448-3.614 8.147-7.676z" class="cls-21" data-name="Path 90" transform="translate(-34.713 57.946)"/>
        <rect id="Rectangle_63" width="41.937" height="12.58" class="cls-22" data-name="Rectangle 63" rx=".579" transform="translate(227.912 118.705)"/>
        <path id="Path_91" d="M292.083 52.581v1.575a2.1 2.1 0 0 0 2.1 2.1h1.724" class="cls-9" data-name="Path 91" transform="translate(-26.06 66.124)"/>
        <path id="Path_92" d="M275.2 56.407h1.6a2.1 2.1 0 0 0 2.1-2.1v-1.726" class="cls-9" data-name="Path 92" transform="translate(-47.29 66.124)"/>
        <path id="Path_93" d="M279.027 60.218v-1.6a2.1 2.1 0 0 0-2.1-2.1H275.2" class="cls-9" data-name="Path 93" transform="translate(-47.29 71.073)"/>
        <path id="Path_94" d="M295.816 56.517H294.2a2.1 2.1 0 0 0-2.1 2.1v1.748" class="cls-9" data-name="Path 94" transform="translate(-26.036 71.073)"/>
        <path id="Path_95" d="M294.134 57.862h-11.247a1.575 1.575 0 0 1-1.575-1.575 1.575 1.575 0 0 1 1.575-1.575h11.247a1.575 1.575 0 0 1 1.575 1.575 1.575 1.575 0 0 1-1.575 1.575z" class="cls-9" data-name="Path 95" transform="translate(-39.605 68.804)"/>
        <path id="Path_96" d="M290.59 59.021a1.147 1.147 0 0 1-1.141-1.141V55.5a1.147 1.147 0 0 1 1.141-1.141 1.147 1.147 0 0 1 1.141 1.141v2.38a1.147 1.147 0 0 1-1.141 1.141z" class="cls-23" data-name="Path 96" transform="translate(-29.372 68.358)"/>
        <path id="Path_97" d="M279.663 59a1.147 1.147 0 0 1-1.141-1.141V55.48a1.147 1.147 0 0 1 1.141-1.141 1.147 1.147 0 0 1 1.137 1.141v2.381A1.147 1.147 0 0 1 279.663 59z" class="cls-23" data-name="Path 97" transform="translate(-43.114 68.334)"/>
        <rect id="Rectangle_64" width="41.937" height="12.58" class="cls-24" data-name="Rectangle 64" rx=".579" transform="translate(189.931 118.705)"/>
        <path id="Path_98" d="M275.259 52.581v1.575a2.1 2.1 0 0 0 2.1 2.1h1.724" class="cls-9" data-name="Path 98" transform="translate(-47.217 66.124)"/>
        <path id="Path_99" d="M258.378 56.407h1.6a2.1 2.1 0 0 0 2.1-2.1v-1.726" class="cls-9" data-name="Path 99" transform="translate(-68.447 66.124)"/>
        <path id="Path_100" d="M262.208 60.218v-1.6a2.1 2.1 0 0 0-2.1-2.1h-1.724" class="cls-9" data-name="Path 100" transform="translate(-68.44 71.073)"/>
        <path id="Path_101" d="M278.985 56.517h-1.6a2.1 2.1 0 0 0-2.1 2.1v1.748" class="cls-9" data-name="Path 101" transform="translate(-47.186 71.073)"/>
        <path id="Path_102" d="M277.3 57.862h-11.248a1.575 1.575 0 0 1-1.575-1.575 1.575 1.575 0 0 1 1.575-1.575H277.3a1.575 1.575 0 0 1 1.575 1.575 1.575 1.575 0 0 1-1.575 1.575z" class="cls-9" data-name="Path 102" transform="translate(-60.776 68.804)"/>
        <path id="Path_103" d="M273.766 59.021a1.147 1.147 0 0 1-1.141-1.141V55.5a1.147 1.147 0 0 1 1.141-1.141 1.147 1.147 0 0 1 1.141 1.141v2.38a1.147 1.147 0 0 1-1.141 1.141z" class="cls-25" data-name="Path 103" transform="translate(-50.529 68.358)"/>
        <path id="Path_104" d="M262.833 59a1.147 1.147 0 0 1-1.141-1.141V55.48a1.147 1.147 0 0 1 1.141-1.141 1.147 1.147 0 0 1 1.141 1.141v2.381A1.147 1.147 0 0 1 262.833 59z" class="cls-25" data-name="Path 104" transform="translate(-64.278 68.334)"/>
        <rect id="Rectangle_65" width="35.836" height="10.751" class="cls-26" data-name="Rectangle 65" rx=".497" transform="translate(209.498 107.973)"/>
        <path id="Path_105" d="M281.469 47.827v1.364a1.792 1.792 0 0 0 1.792 1.792h1.476" class="cls-9" data-name="Path 105" transform="translate(-39.408 60.146)"/>
        <path id="Path_106" d="M267.045 51.095h1.364A1.792 1.792 0 0 0 270.2 49.3v-1.473" class="cls-9" data-name="Path 106" transform="translate(-57.547 60.146)"/>
        <path id="Path_107" d="M270.312 54.347v-1.364a1.792 1.792 0 0 0-1.792-1.792h-1.476" class="cls-9" data-name="Path 107" transform="translate(-57.547 64.376)"/>
        <path id="Path_108" d="M284.649 51.189h-1.364a1.792 1.792 0 0 0-1.792 1.792v1.476" class="cls-9" data-name="Path 108" transform="translate(-39.377 64.373)"/>
        <path id="Line_1" d="M0 0h35.83" class="cls-22" data-name="Line 1" transform="translate(209.498 113.348)"/>
        <path id="Path_109" d="M283.207 52.339H273.6a1.345 1.345 0 0 1-1.345-1.345 1.345 1.345 0 0 1 1.345-1.345h9.61a1.345 1.345 0 0 1 1.345 1.345 1.345 1.345 0 0 1-1.345 1.345z" class="cls-26" data-name="Path 109" transform="translate(-50.999 62.435)"/>
        <path id="Path_110" d="M280.2 53.333a.98.98 0 0 1-.98-.98V50.32a.98.98 0 0 1 .98-.98.98.98 0 0 1 .98.98v2.034a.98.98 0 0 1-.98.979z" class="cls-23" data-name="Path 110" transform="translate(-42.24 62.049)"/>
        <path id="Path_111" d="M270.853 53.306a.98.98 0 0 1-.98-.98v-2.033a.98.98 0 0 1 .98-.98.98.98 0 0 1 .98.98v2.034a.98.98 0 0 1-.98.979z" class="cls-23" data-name="Path 111" transform="translate(-53.99 62.014)"/>
        <circle id="Ellipse_6" cx="12.14" cy="12.14" r="12.14" class="cls-27" data-name="Ellipse 6" transform="translate(182.162 176.297)"/>
        <circle id="Ellipse_7" cx="4.91" cy="4.91" r="4.91" class="cls-8" data-name="Ellipse 7" transform="translate(189.391 183.526)"/>
        <path id="Path_112" d="M376.09 61.084H247.433s-7.626 29.028-1.414 52.3h19.487l2.815-5.5H294.5l2.815 5.5h95.8s1.711-31.584-17.025-52.3z" class="cls-23" data-name="Path 112" transform="translate(-87.052 76.817)"/>
        <path id="Path_113" d="M379.309 64.769h-135.16a6.634 6.634 0 0 1 6.615-6.615h121.929a6.634 6.634 0 0 1 6.616 6.615z" class="cls-28" data-name="Path 113" transform="translate(-86.34 73.131)"/>
        <path id="Path_114" d="M261.65 90.678h-13.975a4.247 4.247 0 0 1-4.235-4.235 4.247 4.247 0 0 1 4.235-4.235h13.975a4.247 4.247 0 0 1 4.235 4.235 4.247 4.247 0 0 1-4.235 4.235z" class="cls-28" data-name="Path 114" transform="translate(-87.231 103.382)"/>
        <path id="Path_115" d="M319.39 90.678h-12.4a4.247 4.247 0 0 1-4.235-4.235 4.247 4.247 0 0 1 4.235-4.235h12.4a4.247 4.247 0 0 1 4.235 4.235 4.247 4.247 0 0 1-4.235 4.235z" class="cls-28" data-name="Path 115" transform="translate(-12.639 103.382)"/>
        <circle id="Ellipse_8" cx="12.14" cy="12.14" r="12.14" class="cls-27" data-name="Ellipse 8" transform="translate(265.49 176.297)"/>
        <rect id="Rectangle_66" width="110.273" height="1.414" class="cls-16" data-name="Rectangle 66" rx=".258" transform="translate(170.283 126.443)"/>
        <rect id="Rectangle_67" width="55.912" height="3.528" class="cls-28" data-name="Rectangle 67" rx=".78" transform="translate(209.579 188.437)"/>
        <rect id="Rectangle_68" width="19.226" height="16.752" class="cls-29" data-name="Rectangle 68" rx="1.524" transform="translate(185.591 139.909)"/>
        <rect id="Rectangle_69" width="14.886" height="12.97" class="cls-30" data-name="Rectangle 69" rx="1.178" transform="translate(189.931 143.691)"/>
        <rect id="Rectangle_70" width="19.226" height="16.752" class="cls-29" data-name="Rectangle 70" rx="1.524" transform="translate(208.518 139.909)"/>
        <rect id="Rectangle_71" width="14.886" height="12.97" class="cls-30" data-name="Rectangle 71" rx="1.178" transform="translate(212.858 143.691)"/>
        <rect id="Rectangle_72" width="19.226" height="16.752" class="cls-29" data-name="Rectangle 72" rx="1.524" transform="translate(231.446 139.909)"/>
        <path id="Path_116" d="M334.886 188.332h9.56a2.666 2.666 0 0 1 2.667 2.668v7.645a2.66 2.66 0 0 1-2.66 2.66h-9.567a2.66 2.66 0 0 1-2.66-2.66v-7.651a2.66 2.66 0 0 1 2.66-2.662z" class="cls-30" data-name="Path 116" transform="translate(-96.44 -44.641)"/>
        <path id="Path_117" d="M321.538 78.73h-30.38a4.247 4.247 0 0 1-4.235-4.235v-8.289a4.247 4.247 0 0 1 4.235-4.235h26.127a1.147 1.147 0 0 1 1.1.825l4.26 14.458a1.147 1.147 0 0 1-1.11 1.476z" class="cls-29" data-name="Path 117" transform="translate(-32.549 77.932)"/>
        <path id="Path_118" d="M317.3 76.637h-23.524a3.286 3.286 0 0 1-3.28-3.28v-6.442a3.286 3.286 0 0 1 3.28-3.28h20.231a.887.887 0 0 1 .856.62l3.3 11.191a.887.887 0 0 1-.856 1.19z" class="cls-30" data-name="Path 118" transform="translate(-28.056 80.025)"/>
        <path id="Path_119" d="M314.193 78.73h-6.324a1.73 1.73 0 0 1-1.643-1.2l-4.34-13.293a1.73 1.73 0 0 1 1.643-2.269h1.071a67.232 67.232 0 0 1 4.737 6.77 71.786 71.786 0 0 1 4.855 9.988z" class="cls-29" data-name="Path 119" transform="translate(-13.84 77.932)"/>
        <path id="Path_120" d="M312.231 76.619h-3.484a1.339 1.339 0 0 1-1.277-.924L303.427 65.4a1.339 1.339 0 0 1 1.277-1.755h.831s1.86 2.685 3.1 4.96a46.13 46.13 0 0 1 3.6 8.01z" class="cls-31" data-name="Path 120" transform="translate(-11.878 80.042)"/>
        <circle id="Ellipse_9" cx="4.91" cy="4.91" r="4.91" class="cls-8" data-name="Ellipse 9" transform="translate(272.719 183.526)"/>
        <path id="Path_121" d="M390.719 84.506l-3.757-3.59a26.356 26.356 0 0 0-18.2-7.291H243.884a1.414 1.414 0 0 1-1.414-1.414 1.414 1.414 0 0 1 1.414-1.414h125.588a26.355 26.355 0 0 1 18.2 7.29l4.8 4.583a1.24 1.24 0 0 1 .254 1.482 1.24 1.24 0 0 1-2 .353z" class="cls-28" data-name="Path 121" transform="translate(-88.45 89.032)"/>
        <path id="Path_122" d="M310.594 87.932a2.48 2.48 0 0 1-2.48-2.48V78.52a2.48 2.48 0 0 1 2.48-2.48 2.48 2.48 0 0 1 2.48 2.48v6.894a2.48 2.48 0 0 1-2.48 2.517z" class="cls-32" data-name="Path 122" transform="translate(-5.901 95.625)"/>
        <path id="Path_123" d="M310.548 87.942a1.339 1.339 0 0 1-1.333-1.333v-9.244a1.339 1.339 0 0 1 1.333-1.333 1.339 1.339 0 0 1 1.333 1.333V86.6a1.339 1.339 0 0 1-1.333 1.342z" class="cls-26" data-name="Path 123" transform="translate(-4.516 95.615)"/>
        <path id="Line_2" d="M0 0v20.547" class="cls-9" data-name="Line 2" transform="translate(254.374 167.772)"/>
        <path id="Line_3" d="M0 0h5.115" class="cls-9" data-name="Line 3" transform="translate(257.808 169.093)"/>
        <path id="Line_4" d="M0 0h11.898" class="cls-9" data-name="Line 4" transform="translate(164.994 165.596)"/>
        <path id="Line_5" d="M0 0h11.898" class="cls-9" data-name="Line 5" transform="translate(164.994 167.654)"/>
        <path id="Line_6" d="M0 0h11.898" class="cls-9" data-name="Line 6" transform="translate(164.994 169.713)"/>
        <path id="Line_7" d="M0 0h11.898" class="cls-9" data-name="Line 7" transform="translate(164.994 171.771)"/>
        <path id="Line_8" d="M0 0h11.898" class="cls-9" data-name="Line 8" transform="translate(164.994 173.829)"/>
        <path id="Path_124" d="M226.035 71.933a12.45 12.45 0 0 1 16.405-11 16.74 16.74 0 0 1 25.637 2.3 10.379 10.379 0 0 1 14.489 8.68v.831a2.809 2.809 0 0 1-2.765 2.387h-51.025a2.809 2.809 0 0 1-2.74-2.344 4.857 4.857 0 0 1-.001-.854z" class="cls-7" data-name="Path 124" transform="translate(-109.147 70.431)"/>
        <path id="Path_125" d="M226.037 69.268c.428-4.179 5.828-7.49 12.437-7.49a18.833 18.833 0 0 1 3.961.421 22.2 22.2 0 0 1 11.865-3.161c5.71 0 10.751 1.86 13.776 4.644a15.419 15.419 0 0 1 4.142-.552c5.456 0 9.92 2.709 10.348 6.144a4.57 4.57 0 0 1 0 .533c-.2.868-1.364 1.538-2.765 1.538h-51.02c-1.4 0-2.561-.67-2.765-1.538a4.571 4.571 0 0 1 .021-.539z" class="cls-8" data-name="Path 125" transform="translate(-109.148 74.243)"/>
        <path id="Path_126" d="M226.035 71.933a12.45 12.45 0 0 1 16.405-11 16.74 16.74 0 0 1 25.637 2.3 10.379 10.379 0 0 1 14.489 8.68v.831a2.809 2.809 0 0 1-2.765 2.387h-51.025a2.809 2.809 0 0 1-2.74-2.344 4.857 4.857 0 0 1-.001-.854z" class="cls-9" data-name="Path 126" transform="translate(-109.147 70.431)"/>
        <path id="Path_127" d="M226.04 109.7a14.88 14.88 0 0 1 19.573-13.119 19.983 19.983 0 0 1 30.587 2.745 12.4 12.4 0 0 1 17.3 10.374v.992a3.354 3.354 0 0 1-3.3 2.852h-60.886a3.354 3.354 0 0 1-3.3-2.852 7.2 7.2 0 0 1 .026-.992z" class="cls-7" data-name="Path 127" transform="translate(-213.319 90.814)"/>
        <path id="Path_128" d="M226.037 106.525c.515-4.96 6.95-8.934 14.843-8.934a22.474 22.474 0 0 1 4.731.5 26.477 26.477 0 0 1 14.155-3.776c6.82 0 12.828 2.195 16.436 5.537a18.4 18.4 0 0 1 4.96-.663c6.51 0 11.842 3.23 12.35 7.328a5.457 5.457 0 0 1 0 .62c-.242 1.029-1.624 1.86-3.3 1.86h-60.9c-1.674 0-3.057-.8-3.3-1.86a5.444 5.444 0 0 1 .025-.614z" class="cls-8" data-name="Path 128" transform="translate(-213.316 95.358)"/>
        <path id="Path_129" d="M226.04 109.7a14.88 14.88 0 0 1 19.573-13.119 19.983 19.983 0 0 1 30.587 2.745 12.4 12.4 0 0 1 17.3 10.374v.992a3.354 3.354 0 0 1-3.3 2.852h-60.886a3.354 3.354 0 0 1-3.3-2.852 7.2 7.2 0 0 1 .026-.992z" class="cls-9" data-name="Path 129" transform="translate(-213.319 90.814)"/>
        <g id="Group_56" data-name="Group 56" transform="translate(338.12 109.556)">
            <g id="Group_55" data-name="Group 55">
                <path id="Path_130" d="M354.184 59.512a12.45 12.45 0 0 0-16.405-11 16.74 16.74 0 0 0-25.637 2.3 10.379 10.379 0 0 0-14.489 8.68v.831a2.809 2.809 0 0 0 2.765 2.387h51a2.809 2.809 0 0 0 2.765-2.387z" class="cls-7" data-name="Path 130" transform="translate(-297.651 -43.585)"/>
                <path id="Path_131" d="M354.185 56.849c-.428-4.179-5.828-7.49-12.437-7.49a18.833 18.833 0 0 0-3.961.421 22.2 22.2 0 0 0-11.862-3.162c-5.71 0-10.751 1.86-13.776 4.644a15.414 15.414 0 0 0-4.142-.552c-5.456 0-9.92 2.709-10.348 6.144a4.6 4.6 0 0 0 0 .533c.2.868 1.364 1.538 2.765 1.538h51c1.4 0 2.561-.67 2.765-1.538a4.57 4.57 0 0 0-.006-.539z" class="cls-8" data-name="Path 131" transform="translate(-297.652 -39.769)"/>
            </g>
            <path id="Path_132" d="M354.184 59.512a12.45 12.45 0 0 0-16.405-11 16.74 16.74 0 0 0-25.637 2.3 10.379 10.379 0 0 0-14.489 8.68v.831a2.809 2.809 0 0 0 2.765 2.387h51a2.809 2.809 0 0 0 2.765-2.387z" class="cls-9" data-name="Path 132" transform="translate(-297.651 -43.585)"/>
        </g>
        <path id="Line_9" d="M0 0h26.784" class="cls-33" data-name="Line 9" transform="translate(125.153 190.669)"/>
        <path id="Line_10" d="M0 0h7.056" class="cls-33" data-name="Line 10" transform="translate(140.659 183.762)"/>
        <path id="Line_11" d="M0 0h17.769" class="cls-33" data-name="Line 11" transform="translate(130.932 177.841)"/>
        <path id="Line_12" d="M0 0h5.493" class="cls-33" data-name="Line 12" transform="translate(129.382 172.348)"/>
        <path id="Line_13" d="M0 0h30.312" class="cls-33" data-name="Line 13" transform="translate(318.959 174.034)"/>
        <path id="Line_14" d="M0 0h9.827" class="cls-33" data-name="Line 14" transform="translate(316.287 166.991)"/>
        <path id="Line_15" d="M0 0h12.586" class="cls-33" data-name="Line 15" transform="translate(331.787 182.212)"/>
        <path id="Line_16" d="M0 0h12.574" class="cls-33" data-name="Line 16" transform="translate(321.073 188.976)"/>
        <path id="Line_17" d="M0 0h4.371" class="cls-33" data-name="Line 17" transform="translate(343.771 190.669)"/>
    </g>
</svg>
